G04 #@! TF.GenerationSoftware,KiCad,Pcbnew,(5.1.5)-3*
G04 #@! TF.CreationDate,2021-01-14T21:17:29-05:00*
G04 #@! TF.ProjectId,Body,426f6479-2e6b-4696-9361-645f70636258,rev?*
G04 #@! TF.SameCoordinates,Original*
G04 #@! TF.FileFunction,Copper,L2,Bot*
G04 #@! TF.FilePolarity,Positive*
%FSLAX46Y46*%
G04 Gerber Fmt 4.6, Leading zero omitted, Abs format (unit mm)*
G04 Created by KiCad (PCBNEW (5.1.5)-3) date 2021-01-14 21:17:29*
%MOMM*%
%LPD*%
G04 APERTURE LIST*
%ADD10R,1.000000X3.000000*%
%ADD11C,0.800000*%
%ADD12R,3.000000X1.000000*%
%ADD13R,0.800000X0.750000*%
%ADD14R,0.800000X0.500000*%
%ADD15R,0.800000X0.300000*%
%ADD16R,0.500000X1.480000*%
%ADD17R,0.500000X1.000000*%
%ADD18R,0.700000X1.300000*%
%ADD19C,0.250000*%
%ADD20C,0.500000*%
%ADD21C,1.000000*%
%ADD22C,0.254000*%
G04 APERTURE END LIST*
D10*
X155200000Y-88600000D03*
X156700000Y-88600000D03*
X159700000Y-88600000D03*
X158200000Y-88600000D03*
X161200000Y-88600000D03*
X162700000Y-88600000D03*
X155200000Y-96350000D03*
X156700000Y-96350000D03*
X159700000Y-96350000D03*
X158200000Y-96350000D03*
X161200000Y-96350000D03*
X162700000Y-96350000D03*
D11*
X153500000Y-93800000D03*
D12*
X152500000Y-93800000D03*
D10*
X152300000Y-101600000D03*
D11*
X152300000Y-100600000D03*
D10*
X149500000Y-101600000D03*
D11*
X149500000Y-100600000D03*
D12*
X149200000Y-93800000D03*
D11*
X148200000Y-93800000D03*
D12*
X149200000Y-97250000D03*
D11*
X148200000Y-97250000D03*
D12*
X152600000Y-97250000D03*
D11*
X153600000Y-97250000D03*
D13*
X74950000Y-91350000D03*
X73450000Y-91350000D03*
X125450000Y-93350000D03*
X126950000Y-93350000D03*
D14*
X73550000Y-92700000D03*
X73550000Y-94500000D03*
D15*
X73550000Y-93600000D03*
D14*
X71850000Y-92700000D03*
X71850000Y-94500000D03*
D15*
X71850000Y-93600000D03*
D16*
X72700000Y-94190000D03*
D17*
X72700000Y-92770000D03*
X126200000Y-94520000D03*
D16*
X126200000Y-95940000D03*
D15*
X125350000Y-95350000D03*
D14*
X125350000Y-96250000D03*
X125350000Y-94450000D03*
D15*
X127050000Y-95350000D03*
D14*
X127050000Y-96250000D03*
X127050000Y-94450000D03*
D18*
X165670000Y-90960000D03*
X167570000Y-90960000D03*
X165830000Y-85220000D03*
X163930000Y-85220000D03*
D11*
X75950000Y-92650000D03*
X126950000Y-92375000D03*
X158225000Y-94050000D03*
X158200000Y-86325000D03*
X129200000Y-93650000D03*
X122700000Y-96100000D03*
X124450000Y-93350000D03*
X133450000Y-94250000D03*
X136450000Y-94600000D03*
X134950000Y-97850000D03*
X69625000Y-93250000D03*
X159700000Y-99100000D03*
X159700000Y-86100000D03*
X75950000Y-91350000D03*
X75350000Y-95200000D03*
X133200000Y-95350000D03*
X137200000Y-95350000D03*
X129200000Y-95350000D03*
X70700000Y-92700000D03*
X70700000Y-93800000D03*
X156700000Y-93850000D03*
X133950000Y-97600000D03*
X163850000Y-90750000D03*
X162700000Y-90700002D03*
D19*
X73600000Y-92650000D02*
X73550000Y-92700000D01*
D20*
X74950000Y-91350000D02*
X74950000Y-91650000D01*
X74950000Y-91350000D02*
X74950000Y-91975000D01*
D19*
X74950000Y-92550000D02*
X74850000Y-92650000D01*
D20*
X75950000Y-92650000D02*
X74850000Y-92650000D01*
X74950000Y-91975000D02*
X74950000Y-92550000D01*
X74850000Y-92650000D02*
X73600000Y-92650000D01*
D19*
X72770000Y-92700000D02*
X72700000Y-92770000D01*
D20*
X73550000Y-92700000D02*
X72770000Y-92700000D01*
X126950000Y-93350000D02*
X126950000Y-92375000D01*
D19*
X126200000Y-94520000D02*
X126200000Y-94350000D01*
X126300000Y-94450000D02*
X127050000Y-94450000D01*
X126200000Y-94350000D02*
X126300000Y-94450000D01*
D21*
X158200000Y-96350000D02*
X158200000Y-94075000D01*
D19*
X158200000Y-94075000D02*
X158225000Y-94050000D01*
D21*
X158200000Y-88600000D02*
X158200000Y-86325000D01*
D20*
X125450000Y-93350000D02*
X124450000Y-93350000D01*
D19*
X133200000Y-95350000D02*
X137200000Y-95350000D01*
X146600000Y-97250000D02*
X148200000Y-97250000D01*
X146200000Y-96850000D02*
X146600000Y-97250000D01*
X129200000Y-95350000D02*
X129200000Y-95915685D01*
X131950000Y-96850000D02*
X146200000Y-96850000D01*
X129200000Y-95915685D02*
X129634315Y-96350000D01*
X129634315Y-96350000D02*
X131450000Y-96350000D01*
X131450000Y-96350000D02*
X131950000Y-96850000D01*
X71600000Y-93600000D02*
X71850000Y-93600000D01*
X70700000Y-92700000D02*
X71600000Y-93600000D01*
X71400000Y-94500000D02*
X71850000Y-94500000D01*
X70700000Y-93800000D02*
X71400000Y-94500000D01*
X124700000Y-96250000D02*
X125350000Y-96250000D01*
X73550000Y-94500000D02*
X74200000Y-94500000D01*
X74200000Y-94500000D02*
X74649990Y-94050010D01*
X74649990Y-94050010D02*
X121723012Y-94050010D01*
X121723012Y-94050010D02*
X123923002Y-96250000D01*
X123923002Y-96250000D02*
X124700000Y-96250000D01*
X116450000Y-93600000D02*
X121909413Y-93600001D01*
X116450000Y-93600000D02*
X116700000Y-93600000D01*
X73550000Y-93600000D02*
X116450000Y-93600000D01*
X123659412Y-95350000D02*
X125350000Y-95350000D01*
X121909413Y-93600001D02*
X123659412Y-95350000D01*
X155114998Y-93850000D02*
X156700000Y-93850000D01*
X154374999Y-95425001D02*
X154374999Y-94589999D01*
X154200000Y-95600000D02*
X154374999Y-95425001D01*
X153450000Y-95600000D02*
X154200000Y-95600000D01*
X154374999Y-94589999D02*
X155114998Y-93850000D01*
X132273002Y-96350000D02*
X152614998Y-96350000D01*
X130548001Y-94624999D02*
X132273002Y-96350000D01*
X152614998Y-96350000D02*
X153450000Y-95600000D01*
X128425001Y-94624999D02*
X130548001Y-94624999D01*
X127700000Y-95350000D02*
X128425001Y-94624999D01*
X127050000Y-95350000D02*
X127700000Y-95350000D01*
X127050000Y-96750000D02*
X127050000Y-96250000D01*
X127100010Y-96800010D02*
X127050000Y-96750000D01*
X131263600Y-96800010D02*
X127100010Y-96800010D01*
X132063590Y-97600000D02*
X131263600Y-96800010D01*
X133950000Y-97600000D02*
X132063590Y-97600000D01*
X164249999Y-91149999D02*
X163850000Y-90750000D01*
X155200000Y-96350000D02*
X155200000Y-98100000D01*
X155200000Y-98100000D02*
X157700010Y-100600010D01*
X157700010Y-100600010D02*
X161671403Y-100600009D01*
X161671403Y-100600009D02*
X164249999Y-98021413D01*
X164249999Y-98021413D02*
X164249999Y-91149999D01*
X156700000Y-98100000D02*
X158750000Y-100150000D01*
X156700000Y-96350000D02*
X156700000Y-98100000D01*
X158750000Y-100150000D02*
X161485002Y-100150000D01*
X163525001Y-98110001D02*
X163525001Y-93225001D01*
X161485002Y-100150000D02*
X163525001Y-98110001D01*
X162700000Y-92400000D02*
X162700000Y-90700002D01*
X163525001Y-93225001D02*
X162700000Y-92400000D01*
X163450000Y-88600000D02*
X162700000Y-88600000D01*
X164210000Y-88600000D02*
X163450000Y-88600000D01*
X165670000Y-90060000D02*
X164210000Y-88600000D01*
X165670000Y-90960000D02*
X165670000Y-90060000D01*
X161200000Y-86850000D02*
X161200000Y-88600000D01*
X162830000Y-85220000D02*
X161200000Y-86850000D01*
X163930000Y-85220000D02*
X162830000Y-85220000D01*
X155200000Y-90350000D02*
X155200000Y-88600000D01*
X155200000Y-90350000D02*
X155675000Y-90825000D01*
X155675000Y-90825000D02*
X156538590Y-90825000D01*
X156538590Y-90825000D02*
X158513600Y-92800010D01*
X158513600Y-92800010D02*
X160625010Y-92800010D01*
X161200000Y-93375000D02*
X161200000Y-96350000D01*
X160625010Y-92800010D02*
X161200000Y-93375000D01*
X156700000Y-88600000D02*
X156700000Y-90350000D01*
X156700000Y-90350000D02*
X158700000Y-92350000D01*
X158700000Y-92350000D02*
X160950000Y-92350000D01*
X162700000Y-94100000D02*
X162700000Y-96350000D01*
X160950000Y-92350000D02*
X162700000Y-94100000D01*
D22*
G36*
X149808305Y-93316216D02*
G01*
X149807448Y-93324918D01*
X149810865Y-93359616D01*
X149820986Y-93392981D01*
X149837422Y-93423729D01*
X149859541Y-93450681D01*
X149886493Y-93472800D01*
X149917241Y-93489236D01*
X149950606Y-93499357D01*
X149976612Y-93501918D01*
X149985304Y-93502774D01*
X149993996Y-93501918D01*
X151776612Y-93501918D01*
X151785304Y-93502774D01*
X151793996Y-93501918D01*
X151820002Y-93499357D01*
X151853367Y-93489236D01*
X151884115Y-93472800D01*
X151911067Y-93450681D01*
X151933186Y-93423729D01*
X151949622Y-93392981D01*
X151959743Y-93359616D01*
X151963160Y-93324918D01*
X151962304Y-93316226D01*
X151962304Y-92827000D01*
X153873000Y-92827000D01*
X153873000Y-94573000D01*
X147827000Y-94573000D01*
X147827000Y-92827000D01*
X149808305Y-92827000D01*
X149808305Y-93316216D01*
G37*
X149808305Y-93316216D02*
X149807448Y-93324918D01*
X149810865Y-93359616D01*
X149820986Y-93392981D01*
X149837422Y-93423729D01*
X149859541Y-93450681D01*
X149886493Y-93472800D01*
X149917241Y-93489236D01*
X149950606Y-93499357D01*
X149976612Y-93501918D01*
X149985304Y-93502774D01*
X149993996Y-93501918D01*
X151776612Y-93501918D01*
X151785304Y-93502774D01*
X151793996Y-93501918D01*
X151820002Y-93499357D01*
X151853367Y-93489236D01*
X151884115Y-93472800D01*
X151911067Y-93450681D01*
X151933186Y-93423729D01*
X151949622Y-93392981D01*
X151959743Y-93359616D01*
X151963160Y-93324918D01*
X151962304Y-93316226D01*
X151962304Y-92827000D01*
X153873000Y-92827000D01*
X153873000Y-94573000D01*
X147827000Y-94573000D01*
X147827000Y-92827000D01*
X149808305Y-92827000D01*
X149808305Y-93316216D01*
G36*
X139868880Y-80958866D02*
G01*
X140378446Y-81108840D01*
X140849175Y-81354931D01*
X141263144Y-81687771D01*
X141604575Y-82094673D01*
X141860473Y-82560149D01*
X142021086Y-83066463D01*
X142081705Y-83606897D01*
X142081889Y-83633259D01*
X142081890Y-84618711D01*
X142080549Y-84632327D01*
X142085897Y-84686628D01*
X142101736Y-84738843D01*
X142127458Y-84786964D01*
X142162073Y-84829143D01*
X142204252Y-84863758D01*
X142252373Y-84889480D01*
X142304588Y-84905319D01*
X142345283Y-84909327D01*
X142345284Y-84909327D01*
X142358889Y-84910667D01*
X142372495Y-84909327D01*
X146814941Y-84909327D01*
X146838416Y-84909967D01*
X146855614Y-84907031D01*
X146872994Y-84905319D01*
X146882462Y-84902447D01*
X146892202Y-84900784D01*
X146908493Y-84894551D01*
X146925209Y-84889480D01*
X146933934Y-84884816D01*
X146943163Y-84881285D01*
X146957928Y-84871991D01*
X146973330Y-84863758D01*
X146980979Y-84857481D01*
X146989341Y-84852217D01*
X147002007Y-84840224D01*
X147015509Y-84829143D01*
X147021784Y-84821497D01*
X147028961Y-84814701D01*
X147039049Y-84800460D01*
X147050124Y-84786964D01*
X147054787Y-84778241D01*
X147060500Y-84770175D01*
X147067611Y-84754250D01*
X147075846Y-84738843D01*
X147082682Y-84716309D01*
X147378507Y-83828913D01*
X149460034Y-83828919D01*
X149708304Y-83828919D01*
X149708305Y-92373000D01*
X147700000Y-92373000D01*
X147636205Y-92379283D01*
X147574863Y-92397891D01*
X147518329Y-92428109D01*
X147468776Y-92468776D01*
X147428109Y-92518329D01*
X147397891Y-92574863D01*
X147379283Y-92636205D01*
X147373000Y-92700000D01*
X147373000Y-93283939D01*
X147371418Y-93300000D01*
X147371418Y-94300000D01*
X147373000Y-94316061D01*
X147373000Y-94700000D01*
X147379283Y-94763795D01*
X147397891Y-94825137D01*
X147428109Y-94881671D01*
X147468776Y-94931224D01*
X147518329Y-94971891D01*
X147574863Y-95002109D01*
X147636205Y-95020717D01*
X147700000Y-95027000D01*
X153922999Y-95027000D01*
X153922999Y-95148000D01*
X153484359Y-95148000D01*
X153474322Y-95146465D01*
X153439922Y-95148000D01*
X153427795Y-95148000D01*
X153417750Y-95148989D01*
X153385374Y-95150434D01*
X153373529Y-95153345D01*
X153361393Y-95154540D01*
X153330378Y-95163948D01*
X153298910Y-95171681D01*
X153287864Y-95176845D01*
X153276190Y-95180386D01*
X153247602Y-95195667D01*
X153218252Y-95209387D01*
X153208426Y-95216606D01*
X153197667Y-95222357D01*
X153172612Y-95242919D01*
X153164481Y-95248893D01*
X153155464Y-95256992D01*
X153128841Y-95278841D01*
X153122397Y-95286693D01*
X152441808Y-95898000D01*
X137680134Y-95898000D01*
X137764698Y-95813436D01*
X137844259Y-95694364D01*
X137899062Y-95562058D01*
X137927000Y-95421603D01*
X137927000Y-95278397D01*
X137899062Y-95137942D01*
X137844259Y-95005636D01*
X137764698Y-94886564D01*
X137663436Y-94785302D01*
X137544364Y-94705741D01*
X137412058Y-94650938D01*
X137271603Y-94623000D01*
X137128397Y-94623000D01*
X136987942Y-94650938D01*
X136855636Y-94705741D01*
X136736564Y-94785302D01*
X136635302Y-94886564D01*
X136627661Y-94898000D01*
X133772339Y-94898000D01*
X133764698Y-94886564D01*
X133663436Y-94785302D01*
X133544364Y-94705741D01*
X133412058Y-94650938D01*
X133271603Y-94623000D01*
X133128397Y-94623000D01*
X132987942Y-94650938D01*
X132855636Y-94705741D01*
X132736564Y-94785302D01*
X132635302Y-94886564D01*
X132555741Y-95005636D01*
X132500938Y-95137942D01*
X132473000Y-95278397D01*
X132473000Y-95421603D01*
X132500938Y-95562058D01*
X132555741Y-95694364D01*
X132635302Y-95813436D01*
X132719866Y-95898000D01*
X132460226Y-95898000D01*
X130883324Y-94321099D01*
X130869160Y-94303840D01*
X130800334Y-94247356D01*
X130721811Y-94205385D01*
X130636608Y-94179539D01*
X130570206Y-94172999D01*
X130548001Y-94170812D01*
X130525796Y-94172999D01*
X128447205Y-94172999D01*
X128425000Y-94170812D01*
X128336393Y-94179539D01*
X128316563Y-94185555D01*
X128251191Y-94205385D01*
X128172668Y-94247356D01*
X128103842Y-94303840D01*
X128089686Y-94321089D01*
X127778582Y-94632194D01*
X127778582Y-94200000D01*
X127777000Y-94183939D01*
X127777000Y-93100000D01*
X127770717Y-93036205D01*
X127752109Y-92974863D01*
X127721891Y-92918329D01*
X127681224Y-92868776D01*
X127650546Y-92843599D01*
X127623206Y-92792450D01*
X127582343Y-92742657D01*
X127579987Y-92740724D01*
X127594259Y-92719364D01*
X127649062Y-92587058D01*
X127677000Y-92446603D01*
X127677000Y-92303397D01*
X127649062Y-92162942D01*
X127594259Y-92030636D01*
X127514698Y-91911564D01*
X127413436Y-91810302D01*
X127294364Y-91730741D01*
X127162058Y-91675938D01*
X127021603Y-91648000D01*
X126878397Y-91648000D01*
X126737942Y-91675938D01*
X126605636Y-91730741D01*
X126486564Y-91810302D01*
X126385302Y-91911564D01*
X126305741Y-92030636D01*
X126250938Y-92162942D01*
X126223000Y-92303397D01*
X126223000Y-92446603D01*
X126250938Y-92587058D01*
X126305741Y-92719364D01*
X126320013Y-92740724D01*
X126317657Y-92742657D01*
X126276794Y-92792450D01*
X126246430Y-92849257D01*
X126227732Y-92910897D01*
X126221418Y-92975000D01*
X126221418Y-93691418D01*
X125950000Y-93691418D01*
X125885897Y-93697732D01*
X125824257Y-93716430D01*
X125767450Y-93746794D01*
X125717657Y-93787657D01*
X125676794Y-93837450D01*
X125646430Y-93894257D01*
X125627732Y-93955897D01*
X125621418Y-94020000D01*
X125621418Y-94871418D01*
X124950000Y-94871418D01*
X124885897Y-94877732D01*
X124824257Y-94896430D01*
X124821320Y-94898000D01*
X123846637Y-94898000D01*
X122244732Y-93296097D01*
X122230572Y-93278843D01*
X122161746Y-93222359D01*
X122125146Y-93202796D01*
X122083222Y-93180387D01*
X121998020Y-93154541D01*
X121909413Y-93145814D01*
X121887198Y-93148002D01*
X116722206Y-93148000D01*
X76480134Y-93148000D01*
X76514698Y-93113436D01*
X76594259Y-92994364D01*
X76649062Y-92862058D01*
X76677000Y-92721603D01*
X76677000Y-92578397D01*
X76649062Y-92437942D01*
X76594259Y-92305636D01*
X76514698Y-92186564D01*
X76413436Y-92085302D01*
X76294364Y-92005741D01*
X76162058Y-91950938D01*
X76021603Y-91923000D01*
X75878397Y-91923000D01*
X75737942Y-91950938D01*
X75605636Y-92005741D01*
X75527000Y-92058284D01*
X75527000Y-92001173D01*
X75532550Y-91998206D01*
X75582343Y-91957343D01*
X75623206Y-91907550D01*
X75653570Y-91850743D01*
X75672268Y-91789103D01*
X75678582Y-91725000D01*
X75678582Y-90975000D01*
X75672268Y-90910897D01*
X75653570Y-90849257D01*
X75623206Y-90792450D01*
X75582343Y-90742657D01*
X75532550Y-90701794D01*
X75475743Y-90671430D01*
X75414103Y-90652732D01*
X75350000Y-90646418D01*
X74550000Y-90646418D01*
X74485897Y-90652732D01*
X74424257Y-90671430D01*
X74367450Y-90701794D01*
X74317657Y-90742657D01*
X74276794Y-90792450D01*
X74246430Y-90849257D01*
X74227732Y-90910897D01*
X74221418Y-90975000D01*
X74221418Y-91725000D01*
X74227732Y-91789103D01*
X74246430Y-91850743D01*
X74276794Y-91907550D01*
X74317657Y-91957343D01*
X74367450Y-91998206D01*
X74373000Y-92001173D01*
X74373000Y-92073000D01*
X73571664Y-92073000D01*
X73486888Y-92081350D01*
X73378124Y-92114343D01*
X73364887Y-92121418D01*
X73241362Y-92121418D01*
X73223206Y-92087450D01*
X73182343Y-92037657D01*
X73132550Y-91996794D01*
X73075743Y-91966430D01*
X73014103Y-91947732D01*
X72950000Y-91941418D01*
X72450000Y-91941418D01*
X72385897Y-91947732D01*
X72324257Y-91966430D01*
X72267450Y-91996794D01*
X72217657Y-92037657D01*
X72176794Y-92087450D01*
X72146430Y-92144257D01*
X72127732Y-92205897D01*
X72121418Y-92270000D01*
X72121418Y-93121418D01*
X71760643Y-93121418D01*
X71424317Y-92785093D01*
X71427000Y-92771603D01*
X71427000Y-92628397D01*
X71399062Y-92487942D01*
X71344259Y-92355636D01*
X71264698Y-92236564D01*
X71163436Y-92135302D01*
X71044364Y-92055741D01*
X70912058Y-92000938D01*
X70771603Y-91973000D01*
X70628397Y-91973000D01*
X70487942Y-92000938D01*
X70355636Y-92055741D01*
X70236564Y-92135302D01*
X70135302Y-92236564D01*
X70055741Y-92355636D01*
X70000938Y-92487942D01*
X69973000Y-92628397D01*
X69973000Y-92771603D01*
X70000938Y-92912058D01*
X70055741Y-93044364D01*
X70135302Y-93163436D01*
X70221866Y-93250000D01*
X70135302Y-93336564D01*
X70055741Y-93455636D01*
X70000938Y-93587942D01*
X69973000Y-93728397D01*
X69973000Y-93871603D01*
X70000938Y-94012058D01*
X70055741Y-94144364D01*
X70135302Y-94263436D01*
X70236564Y-94364698D01*
X70355636Y-94444259D01*
X70487942Y-94499062D01*
X70628397Y-94527000D01*
X70771603Y-94527000D01*
X70785093Y-94524317D01*
X71064685Y-94803910D01*
X71078841Y-94821159D01*
X71147273Y-94877319D01*
X71176794Y-94932550D01*
X71217657Y-94982343D01*
X71267450Y-95023206D01*
X71324257Y-95053570D01*
X71385897Y-95072268D01*
X71450000Y-95078582D01*
X72250000Y-95078582D01*
X72314103Y-95072268D01*
X72375743Y-95053570D01*
X72432550Y-95023206D01*
X72482343Y-94982343D01*
X72523206Y-94932550D01*
X72553570Y-94875743D01*
X72572268Y-94814103D01*
X72578582Y-94750000D01*
X72578582Y-94250000D01*
X72572268Y-94185897D01*
X72553570Y-94124257D01*
X72523206Y-94067450D01*
X72482343Y-94017657D01*
X72460827Y-94000000D01*
X72482343Y-93982343D01*
X72523206Y-93932550D01*
X72553570Y-93875743D01*
X72572268Y-93814103D01*
X72578582Y-93750000D01*
X72578582Y-93598582D01*
X72821418Y-93598582D01*
X72821418Y-93750000D01*
X72827732Y-93814103D01*
X72846430Y-93875743D01*
X72876794Y-93932550D01*
X72917657Y-93982343D01*
X72939173Y-94000000D01*
X72917657Y-94017657D01*
X72876794Y-94067450D01*
X72846430Y-94124257D01*
X72827732Y-94185897D01*
X72821418Y-94250000D01*
X72821418Y-94750000D01*
X72827732Y-94814103D01*
X72846430Y-94875743D01*
X72876794Y-94932550D01*
X72917657Y-94982343D01*
X72967450Y-95023206D01*
X73024257Y-95053570D01*
X73085897Y-95072268D01*
X73150000Y-95078582D01*
X73950000Y-95078582D01*
X74014103Y-95072268D01*
X74075743Y-95053570D01*
X74132550Y-95023206D01*
X74182343Y-94982343D01*
X74205929Y-94953603D01*
X74222205Y-94952000D01*
X74288607Y-94945460D01*
X74373810Y-94919614D01*
X74452333Y-94877643D01*
X74521159Y-94821159D01*
X74535323Y-94803900D01*
X74837214Y-94502010D01*
X121535789Y-94502010D01*
X123587683Y-96553905D01*
X123601843Y-96571159D01*
X123670669Y-96627643D01*
X123746189Y-96668009D01*
X123749192Y-96669614D01*
X123834394Y-96695460D01*
X123923002Y-96704187D01*
X123945207Y-96702000D01*
X124692756Y-96702000D01*
X124717657Y-96732343D01*
X124767450Y-96773206D01*
X124824257Y-96803570D01*
X124885897Y-96822268D01*
X124950000Y-96828582D01*
X125750000Y-96828582D01*
X125814103Y-96822268D01*
X125875743Y-96803570D01*
X125932550Y-96773206D01*
X125982343Y-96732343D01*
X126023206Y-96682550D01*
X126053570Y-96625743D01*
X126072268Y-96564103D01*
X126078582Y-96500000D01*
X126078582Y-96000000D01*
X126072268Y-95935897D01*
X126053570Y-95874257D01*
X126023206Y-95817450D01*
X125982343Y-95767657D01*
X125960827Y-95750000D01*
X125982343Y-95732343D01*
X126023206Y-95682550D01*
X126053570Y-95625743D01*
X126072268Y-95564103D01*
X126078582Y-95500000D01*
X126078582Y-95348582D01*
X126321418Y-95348582D01*
X126321418Y-95500000D01*
X126327732Y-95564103D01*
X126346430Y-95625743D01*
X126376794Y-95682550D01*
X126417657Y-95732343D01*
X126439173Y-95750000D01*
X126417657Y-95767657D01*
X126376794Y-95817450D01*
X126346430Y-95874257D01*
X126327732Y-95935897D01*
X126321418Y-96000000D01*
X126321418Y-96500000D01*
X126327732Y-96564103D01*
X126346430Y-96625743D01*
X126376794Y-96682550D01*
X126417657Y-96732343D01*
X126467450Y-96773206D01*
X126524257Y-96803570D01*
X126585897Y-96822268D01*
X126603098Y-96823962D01*
X126604540Y-96838607D01*
X126630386Y-96923809D01*
X126672357Y-97002332D01*
X126728841Y-97071159D01*
X126746100Y-97085323D01*
X126764687Y-97103910D01*
X126778851Y-97121169D01*
X126847677Y-97177653D01*
X126926200Y-97219624D01*
X126997851Y-97241359D01*
X127011403Y-97245470D01*
X127100010Y-97254197D01*
X127122215Y-97252010D01*
X131076377Y-97252010D01*
X131728271Y-97903905D01*
X131742431Y-97921159D01*
X131811257Y-97977643D01*
X131888280Y-98018812D01*
X131889780Y-98019614D01*
X131974982Y-98045460D01*
X132063590Y-98054187D01*
X132085795Y-98052000D01*
X133377661Y-98052000D01*
X133385302Y-98063436D01*
X133486564Y-98164698D01*
X133605636Y-98244259D01*
X133737942Y-98299062D01*
X133878397Y-98327000D01*
X134021603Y-98327000D01*
X134162058Y-98299062D01*
X134294364Y-98244259D01*
X134413436Y-98164698D01*
X134514698Y-98063436D01*
X134594259Y-97944364D01*
X134649062Y-97812058D01*
X134677000Y-97671603D01*
X134677000Y-97528397D01*
X134649062Y-97387942D01*
X134613464Y-97302000D01*
X146012776Y-97302000D01*
X146264685Y-97553910D01*
X146278841Y-97571159D01*
X146347667Y-97627643D01*
X146426190Y-97669614D01*
X146488802Y-97688607D01*
X146511392Y-97695460D01*
X146599999Y-97704187D01*
X146622204Y-97702000D01*
X147371418Y-97702000D01*
X147371418Y-97750000D01*
X147377732Y-97814103D01*
X147396430Y-97875743D01*
X147426794Y-97932550D01*
X147467657Y-97982343D01*
X147517450Y-98023206D01*
X147574257Y-98053570D01*
X147635897Y-98072268D01*
X147700000Y-98078582D01*
X149711569Y-98078582D01*
X149706965Y-98125328D01*
X149708305Y-98138934D01*
X149708306Y-101848328D01*
X140716327Y-101848330D01*
X133694041Y-99008640D01*
X130673245Y-97751262D01*
X130665376Y-97746698D01*
X130648096Y-97740794D01*
X130643884Y-97739041D01*
X130635258Y-97736408D01*
X130613742Y-97729057D01*
X130609174Y-97728446D01*
X130604773Y-97727103D01*
X130582193Y-97724840D01*
X130573211Y-97723639D01*
X130568626Y-97723480D01*
X130550481Y-97721661D01*
X130541441Y-97722536D01*
X82541643Y-96055668D01*
X82514896Y-96054668D01*
X82501034Y-96056891D01*
X82487020Y-96057781D01*
X82474162Y-96061199D01*
X82461020Y-96063306D01*
X82447850Y-96068193D01*
X82434286Y-96071799D01*
X82422345Y-96077658D01*
X82409864Y-96082290D01*
X82397900Y-96089653D01*
X82385302Y-96095835D01*
X82364127Y-96112016D01*
X81561755Y-96721811D01*
X79003488Y-96692274D01*
X71202635Y-95411145D01*
X69131156Y-94056434D01*
X68613404Y-93376521D01*
X69133246Y-92693864D01*
X70862793Y-91502000D01*
X73338962Y-90848564D01*
X77599907Y-89932465D01*
X78623839Y-90316450D01*
X78625212Y-90317280D01*
X78649228Y-90325972D01*
X78660600Y-90330236D01*
X78662165Y-90330653D01*
X78676519Y-90335848D01*
X78688446Y-90337661D01*
X78700112Y-90340772D01*
X78715365Y-90341754D01*
X78730464Y-90344049D01*
X78742514Y-90343501D01*
X78754563Y-90344276D01*
X78769712Y-90342263D01*
X78771312Y-90342190D01*
X78783205Y-90340470D01*
X78808652Y-90337088D01*
X78810177Y-90336568D01*
X81756412Y-89910403D01*
X112237914Y-87118764D01*
X112247776Y-87119101D01*
X112264991Y-87116284D01*
X112268782Y-87115937D01*
X112278470Y-87114079D01*
X112288131Y-87112498D01*
X112291781Y-87111526D01*
X112308942Y-87108234D01*
X112318101Y-87104514D01*
X123354238Y-84164343D01*
X123354250Y-84164338D01*
X129212813Y-82603541D01*
X131198185Y-82796655D01*
X131198192Y-82796655D01*
X132179476Y-82892103D01*
X133582356Y-84130349D01*
X134369679Y-84825277D01*
X134372857Y-84829149D01*
X134390078Y-84843282D01*
X134396569Y-84849011D01*
X134400623Y-84851936D01*
X134415036Y-84863764D01*
X134422688Y-84867854D01*
X134429732Y-84872936D01*
X134446705Y-84880692D01*
X134463157Y-84889486D01*
X134471464Y-84892006D01*
X134479360Y-84895614D01*
X134497512Y-84899907D01*
X134515372Y-84905325D01*
X134524018Y-84906177D01*
X134532459Y-84908173D01*
X134551088Y-84908843D01*
X134556067Y-84909333D01*
X134564731Y-84909333D01*
X134586988Y-84910133D01*
X134591932Y-84909333D01*
X136345274Y-84909330D01*
X136358889Y-84910671D01*
X136413189Y-84905323D01*
X136465404Y-84889484D01*
X136513526Y-84863762D01*
X136555705Y-84829147D01*
X136590320Y-84786968D01*
X136616042Y-84738847D01*
X136631881Y-84686632D01*
X136635889Y-84645937D01*
X136635889Y-84645929D01*
X136637228Y-84632331D01*
X136635889Y-84618735D01*
X136635889Y-83645878D01*
X136689051Y-83103690D01*
X136842577Y-82595184D01*
X137091951Y-82126180D01*
X137427671Y-81714547D01*
X137836949Y-81375962D01*
X138304201Y-81123321D01*
X138811620Y-80966248D01*
X139339890Y-80910725D01*
X139868880Y-80958866D01*
G37*
X139868880Y-80958866D02*
X140378446Y-81108840D01*
X140849175Y-81354931D01*
X141263144Y-81687771D01*
X141604575Y-82094673D01*
X141860473Y-82560149D01*
X142021086Y-83066463D01*
X142081705Y-83606897D01*
X142081889Y-83633259D01*
X142081890Y-84618711D01*
X142080549Y-84632327D01*
X142085897Y-84686628D01*
X142101736Y-84738843D01*
X142127458Y-84786964D01*
X142162073Y-84829143D01*
X142204252Y-84863758D01*
X142252373Y-84889480D01*
X142304588Y-84905319D01*
X142345283Y-84909327D01*
X142345284Y-84909327D01*
X142358889Y-84910667D01*
X142372495Y-84909327D01*
X146814941Y-84909327D01*
X146838416Y-84909967D01*
X146855614Y-84907031D01*
X146872994Y-84905319D01*
X146882462Y-84902447D01*
X146892202Y-84900784D01*
X146908493Y-84894551D01*
X146925209Y-84889480D01*
X146933934Y-84884816D01*
X146943163Y-84881285D01*
X146957928Y-84871991D01*
X146973330Y-84863758D01*
X146980979Y-84857481D01*
X146989341Y-84852217D01*
X147002007Y-84840224D01*
X147015509Y-84829143D01*
X147021784Y-84821497D01*
X147028961Y-84814701D01*
X147039049Y-84800460D01*
X147050124Y-84786964D01*
X147054787Y-84778241D01*
X147060500Y-84770175D01*
X147067611Y-84754250D01*
X147075846Y-84738843D01*
X147082682Y-84716309D01*
X147378507Y-83828913D01*
X149460034Y-83828919D01*
X149708304Y-83828919D01*
X149708305Y-92373000D01*
X147700000Y-92373000D01*
X147636205Y-92379283D01*
X147574863Y-92397891D01*
X147518329Y-92428109D01*
X147468776Y-92468776D01*
X147428109Y-92518329D01*
X147397891Y-92574863D01*
X147379283Y-92636205D01*
X147373000Y-92700000D01*
X147373000Y-93283939D01*
X147371418Y-93300000D01*
X147371418Y-94300000D01*
X147373000Y-94316061D01*
X147373000Y-94700000D01*
X147379283Y-94763795D01*
X147397891Y-94825137D01*
X147428109Y-94881671D01*
X147468776Y-94931224D01*
X147518329Y-94971891D01*
X147574863Y-95002109D01*
X147636205Y-95020717D01*
X147700000Y-95027000D01*
X153922999Y-95027000D01*
X153922999Y-95148000D01*
X153484359Y-95148000D01*
X153474322Y-95146465D01*
X153439922Y-95148000D01*
X153427795Y-95148000D01*
X153417750Y-95148989D01*
X153385374Y-95150434D01*
X153373529Y-95153345D01*
X153361393Y-95154540D01*
X153330378Y-95163948D01*
X153298910Y-95171681D01*
X153287864Y-95176845D01*
X153276190Y-95180386D01*
X153247602Y-95195667D01*
X153218252Y-95209387D01*
X153208426Y-95216606D01*
X153197667Y-95222357D01*
X153172612Y-95242919D01*
X153164481Y-95248893D01*
X153155464Y-95256992D01*
X153128841Y-95278841D01*
X153122397Y-95286693D01*
X152441808Y-95898000D01*
X137680134Y-95898000D01*
X137764698Y-95813436D01*
X137844259Y-95694364D01*
X137899062Y-95562058D01*
X137927000Y-95421603D01*
X137927000Y-95278397D01*
X137899062Y-95137942D01*
X137844259Y-95005636D01*
X137764698Y-94886564D01*
X137663436Y-94785302D01*
X137544364Y-94705741D01*
X137412058Y-94650938D01*
X137271603Y-94623000D01*
X137128397Y-94623000D01*
X136987942Y-94650938D01*
X136855636Y-94705741D01*
X136736564Y-94785302D01*
X136635302Y-94886564D01*
X136627661Y-94898000D01*
X133772339Y-94898000D01*
X133764698Y-94886564D01*
X133663436Y-94785302D01*
X133544364Y-94705741D01*
X133412058Y-94650938D01*
X133271603Y-94623000D01*
X133128397Y-94623000D01*
X132987942Y-94650938D01*
X132855636Y-94705741D01*
X132736564Y-94785302D01*
X132635302Y-94886564D01*
X132555741Y-95005636D01*
X132500938Y-95137942D01*
X132473000Y-95278397D01*
X132473000Y-95421603D01*
X132500938Y-95562058D01*
X132555741Y-95694364D01*
X132635302Y-95813436D01*
X132719866Y-95898000D01*
X132460226Y-95898000D01*
X130883324Y-94321099D01*
X130869160Y-94303840D01*
X130800334Y-94247356D01*
X130721811Y-94205385D01*
X130636608Y-94179539D01*
X130570206Y-94172999D01*
X130548001Y-94170812D01*
X130525796Y-94172999D01*
X128447205Y-94172999D01*
X128425000Y-94170812D01*
X128336393Y-94179539D01*
X128316563Y-94185555D01*
X128251191Y-94205385D01*
X128172668Y-94247356D01*
X128103842Y-94303840D01*
X128089686Y-94321089D01*
X127778582Y-94632194D01*
X127778582Y-94200000D01*
X127777000Y-94183939D01*
X127777000Y-93100000D01*
X127770717Y-93036205D01*
X127752109Y-92974863D01*
X127721891Y-92918329D01*
X127681224Y-92868776D01*
X127650546Y-92843599D01*
X127623206Y-92792450D01*
X127582343Y-92742657D01*
X127579987Y-92740724D01*
X127594259Y-92719364D01*
X127649062Y-92587058D01*
X127677000Y-92446603D01*
X127677000Y-92303397D01*
X127649062Y-92162942D01*
X127594259Y-92030636D01*
X127514698Y-91911564D01*
X127413436Y-91810302D01*
X127294364Y-91730741D01*
X127162058Y-91675938D01*
X127021603Y-91648000D01*
X126878397Y-91648000D01*
X126737942Y-91675938D01*
X126605636Y-91730741D01*
X126486564Y-91810302D01*
X126385302Y-91911564D01*
X126305741Y-92030636D01*
X126250938Y-92162942D01*
X126223000Y-92303397D01*
X126223000Y-92446603D01*
X126250938Y-92587058D01*
X126305741Y-92719364D01*
X126320013Y-92740724D01*
X126317657Y-92742657D01*
X126276794Y-92792450D01*
X126246430Y-92849257D01*
X126227732Y-92910897D01*
X126221418Y-92975000D01*
X126221418Y-93691418D01*
X125950000Y-93691418D01*
X125885897Y-93697732D01*
X125824257Y-93716430D01*
X125767450Y-93746794D01*
X125717657Y-93787657D01*
X125676794Y-93837450D01*
X125646430Y-93894257D01*
X125627732Y-93955897D01*
X125621418Y-94020000D01*
X125621418Y-94871418D01*
X124950000Y-94871418D01*
X124885897Y-94877732D01*
X124824257Y-94896430D01*
X124821320Y-94898000D01*
X123846637Y-94898000D01*
X122244732Y-93296097D01*
X122230572Y-93278843D01*
X122161746Y-93222359D01*
X122125146Y-93202796D01*
X122083222Y-93180387D01*
X121998020Y-93154541D01*
X121909413Y-93145814D01*
X121887198Y-93148002D01*
X116722206Y-93148000D01*
X76480134Y-93148000D01*
X76514698Y-93113436D01*
X76594259Y-92994364D01*
X76649062Y-92862058D01*
X76677000Y-92721603D01*
X76677000Y-92578397D01*
X76649062Y-92437942D01*
X76594259Y-92305636D01*
X76514698Y-92186564D01*
X76413436Y-92085302D01*
X76294364Y-92005741D01*
X76162058Y-91950938D01*
X76021603Y-91923000D01*
X75878397Y-91923000D01*
X75737942Y-91950938D01*
X75605636Y-92005741D01*
X75527000Y-92058284D01*
X75527000Y-92001173D01*
X75532550Y-91998206D01*
X75582343Y-91957343D01*
X75623206Y-91907550D01*
X75653570Y-91850743D01*
X75672268Y-91789103D01*
X75678582Y-91725000D01*
X75678582Y-90975000D01*
X75672268Y-90910897D01*
X75653570Y-90849257D01*
X75623206Y-90792450D01*
X75582343Y-90742657D01*
X75532550Y-90701794D01*
X75475743Y-90671430D01*
X75414103Y-90652732D01*
X75350000Y-90646418D01*
X74550000Y-90646418D01*
X74485897Y-90652732D01*
X74424257Y-90671430D01*
X74367450Y-90701794D01*
X74317657Y-90742657D01*
X74276794Y-90792450D01*
X74246430Y-90849257D01*
X74227732Y-90910897D01*
X74221418Y-90975000D01*
X74221418Y-91725000D01*
X74227732Y-91789103D01*
X74246430Y-91850743D01*
X74276794Y-91907550D01*
X74317657Y-91957343D01*
X74367450Y-91998206D01*
X74373000Y-92001173D01*
X74373000Y-92073000D01*
X73571664Y-92073000D01*
X73486888Y-92081350D01*
X73378124Y-92114343D01*
X73364887Y-92121418D01*
X73241362Y-92121418D01*
X73223206Y-92087450D01*
X73182343Y-92037657D01*
X73132550Y-91996794D01*
X73075743Y-91966430D01*
X73014103Y-91947732D01*
X72950000Y-91941418D01*
X72450000Y-91941418D01*
X72385897Y-91947732D01*
X72324257Y-91966430D01*
X72267450Y-91996794D01*
X72217657Y-92037657D01*
X72176794Y-92087450D01*
X72146430Y-92144257D01*
X72127732Y-92205897D01*
X72121418Y-92270000D01*
X72121418Y-93121418D01*
X71760643Y-93121418D01*
X71424317Y-92785093D01*
X71427000Y-92771603D01*
X71427000Y-92628397D01*
X71399062Y-92487942D01*
X71344259Y-92355636D01*
X71264698Y-92236564D01*
X71163436Y-92135302D01*
X71044364Y-92055741D01*
X70912058Y-92000938D01*
X70771603Y-91973000D01*
X70628397Y-91973000D01*
X70487942Y-92000938D01*
X70355636Y-92055741D01*
X70236564Y-92135302D01*
X70135302Y-92236564D01*
X70055741Y-92355636D01*
X70000938Y-92487942D01*
X69973000Y-92628397D01*
X69973000Y-92771603D01*
X70000938Y-92912058D01*
X70055741Y-93044364D01*
X70135302Y-93163436D01*
X70221866Y-93250000D01*
X70135302Y-93336564D01*
X70055741Y-93455636D01*
X70000938Y-93587942D01*
X69973000Y-93728397D01*
X69973000Y-93871603D01*
X70000938Y-94012058D01*
X70055741Y-94144364D01*
X70135302Y-94263436D01*
X70236564Y-94364698D01*
X70355636Y-94444259D01*
X70487942Y-94499062D01*
X70628397Y-94527000D01*
X70771603Y-94527000D01*
X70785093Y-94524317D01*
X71064685Y-94803910D01*
X71078841Y-94821159D01*
X71147273Y-94877319D01*
X71176794Y-94932550D01*
X71217657Y-94982343D01*
X71267450Y-95023206D01*
X71324257Y-95053570D01*
X71385897Y-95072268D01*
X71450000Y-95078582D01*
X72250000Y-95078582D01*
X72314103Y-95072268D01*
X72375743Y-95053570D01*
X72432550Y-95023206D01*
X72482343Y-94982343D01*
X72523206Y-94932550D01*
X72553570Y-94875743D01*
X72572268Y-94814103D01*
X72578582Y-94750000D01*
X72578582Y-94250000D01*
X72572268Y-94185897D01*
X72553570Y-94124257D01*
X72523206Y-94067450D01*
X72482343Y-94017657D01*
X72460827Y-94000000D01*
X72482343Y-93982343D01*
X72523206Y-93932550D01*
X72553570Y-93875743D01*
X72572268Y-93814103D01*
X72578582Y-93750000D01*
X72578582Y-93598582D01*
X72821418Y-93598582D01*
X72821418Y-93750000D01*
X72827732Y-93814103D01*
X72846430Y-93875743D01*
X72876794Y-93932550D01*
X72917657Y-93982343D01*
X72939173Y-94000000D01*
X72917657Y-94017657D01*
X72876794Y-94067450D01*
X72846430Y-94124257D01*
X72827732Y-94185897D01*
X72821418Y-94250000D01*
X72821418Y-94750000D01*
X72827732Y-94814103D01*
X72846430Y-94875743D01*
X72876794Y-94932550D01*
X72917657Y-94982343D01*
X72967450Y-95023206D01*
X73024257Y-95053570D01*
X73085897Y-95072268D01*
X73150000Y-95078582D01*
X73950000Y-95078582D01*
X74014103Y-95072268D01*
X74075743Y-95053570D01*
X74132550Y-95023206D01*
X74182343Y-94982343D01*
X74205929Y-94953603D01*
X74222205Y-94952000D01*
X74288607Y-94945460D01*
X74373810Y-94919614D01*
X74452333Y-94877643D01*
X74521159Y-94821159D01*
X74535323Y-94803900D01*
X74837214Y-94502010D01*
X121535789Y-94502010D01*
X123587683Y-96553905D01*
X123601843Y-96571159D01*
X123670669Y-96627643D01*
X123746189Y-96668009D01*
X123749192Y-96669614D01*
X123834394Y-96695460D01*
X123923002Y-96704187D01*
X123945207Y-96702000D01*
X124692756Y-96702000D01*
X124717657Y-96732343D01*
X124767450Y-96773206D01*
X124824257Y-96803570D01*
X124885897Y-96822268D01*
X124950000Y-96828582D01*
X125750000Y-96828582D01*
X125814103Y-96822268D01*
X125875743Y-96803570D01*
X125932550Y-96773206D01*
X125982343Y-96732343D01*
X126023206Y-96682550D01*
X126053570Y-96625743D01*
X126072268Y-96564103D01*
X126078582Y-96500000D01*
X126078582Y-96000000D01*
X126072268Y-95935897D01*
X126053570Y-95874257D01*
X126023206Y-95817450D01*
X125982343Y-95767657D01*
X125960827Y-95750000D01*
X125982343Y-95732343D01*
X126023206Y-95682550D01*
X126053570Y-95625743D01*
X126072268Y-95564103D01*
X126078582Y-95500000D01*
X126078582Y-95348582D01*
X126321418Y-95348582D01*
X126321418Y-95500000D01*
X126327732Y-95564103D01*
X126346430Y-95625743D01*
X126376794Y-95682550D01*
X126417657Y-95732343D01*
X126439173Y-95750000D01*
X126417657Y-95767657D01*
X126376794Y-95817450D01*
X126346430Y-95874257D01*
X126327732Y-95935897D01*
X126321418Y-96000000D01*
X126321418Y-96500000D01*
X126327732Y-96564103D01*
X126346430Y-96625743D01*
X126376794Y-96682550D01*
X126417657Y-96732343D01*
X126467450Y-96773206D01*
X126524257Y-96803570D01*
X126585897Y-96822268D01*
X126603098Y-96823962D01*
X126604540Y-96838607D01*
X126630386Y-96923809D01*
X126672357Y-97002332D01*
X126728841Y-97071159D01*
X126746100Y-97085323D01*
X126764687Y-97103910D01*
X126778851Y-97121169D01*
X126847677Y-97177653D01*
X126926200Y-97219624D01*
X126997851Y-97241359D01*
X127011403Y-97245470D01*
X127100010Y-97254197D01*
X127122215Y-97252010D01*
X131076377Y-97252010D01*
X131728271Y-97903905D01*
X131742431Y-97921159D01*
X131811257Y-97977643D01*
X131888280Y-98018812D01*
X131889780Y-98019614D01*
X131974982Y-98045460D01*
X132063590Y-98054187D01*
X132085795Y-98052000D01*
X133377661Y-98052000D01*
X133385302Y-98063436D01*
X133486564Y-98164698D01*
X133605636Y-98244259D01*
X133737942Y-98299062D01*
X133878397Y-98327000D01*
X134021603Y-98327000D01*
X134162058Y-98299062D01*
X134294364Y-98244259D01*
X134413436Y-98164698D01*
X134514698Y-98063436D01*
X134594259Y-97944364D01*
X134649062Y-97812058D01*
X134677000Y-97671603D01*
X134677000Y-97528397D01*
X134649062Y-97387942D01*
X134613464Y-97302000D01*
X146012776Y-97302000D01*
X146264685Y-97553910D01*
X146278841Y-97571159D01*
X146347667Y-97627643D01*
X146426190Y-97669614D01*
X146488802Y-97688607D01*
X146511392Y-97695460D01*
X146599999Y-97704187D01*
X146622204Y-97702000D01*
X147371418Y-97702000D01*
X147371418Y-97750000D01*
X147377732Y-97814103D01*
X147396430Y-97875743D01*
X147426794Y-97932550D01*
X147467657Y-97982343D01*
X147517450Y-98023206D01*
X147574257Y-98053570D01*
X147635897Y-98072268D01*
X147700000Y-98078582D01*
X149711569Y-98078582D01*
X149706965Y-98125328D01*
X149708305Y-98138934D01*
X149708306Y-101848328D01*
X140716327Y-101848330D01*
X133694041Y-99008640D01*
X130673245Y-97751262D01*
X130665376Y-97746698D01*
X130648096Y-97740794D01*
X130643884Y-97739041D01*
X130635258Y-97736408D01*
X130613742Y-97729057D01*
X130609174Y-97728446D01*
X130604773Y-97727103D01*
X130582193Y-97724840D01*
X130573211Y-97723639D01*
X130568626Y-97723480D01*
X130550481Y-97721661D01*
X130541441Y-97722536D01*
X82541643Y-96055668D01*
X82514896Y-96054668D01*
X82501034Y-96056891D01*
X82487020Y-96057781D01*
X82474162Y-96061199D01*
X82461020Y-96063306D01*
X82447850Y-96068193D01*
X82434286Y-96071799D01*
X82422345Y-96077658D01*
X82409864Y-96082290D01*
X82397900Y-96089653D01*
X82385302Y-96095835D01*
X82364127Y-96112016D01*
X81561755Y-96721811D01*
X79003488Y-96692274D01*
X71202635Y-95411145D01*
X69131156Y-94056434D01*
X68613404Y-93376521D01*
X69133246Y-92693864D01*
X70862793Y-91502000D01*
X73338962Y-90848564D01*
X77599907Y-89932465D01*
X78623839Y-90316450D01*
X78625212Y-90317280D01*
X78649228Y-90325972D01*
X78660600Y-90330236D01*
X78662165Y-90330653D01*
X78676519Y-90335848D01*
X78688446Y-90337661D01*
X78700112Y-90340772D01*
X78715365Y-90341754D01*
X78730464Y-90344049D01*
X78742514Y-90343501D01*
X78754563Y-90344276D01*
X78769712Y-90342263D01*
X78771312Y-90342190D01*
X78783205Y-90340470D01*
X78808652Y-90337088D01*
X78810177Y-90336568D01*
X81756412Y-89910403D01*
X112237914Y-87118764D01*
X112247776Y-87119101D01*
X112264991Y-87116284D01*
X112268782Y-87115937D01*
X112278470Y-87114079D01*
X112288131Y-87112498D01*
X112291781Y-87111526D01*
X112308942Y-87108234D01*
X112318101Y-87104514D01*
X123354238Y-84164343D01*
X123354250Y-84164338D01*
X129212813Y-82603541D01*
X131198185Y-82796655D01*
X131198192Y-82796655D01*
X132179476Y-82892103D01*
X133582356Y-84130349D01*
X134369679Y-84825277D01*
X134372857Y-84829149D01*
X134390078Y-84843282D01*
X134396569Y-84849011D01*
X134400623Y-84851936D01*
X134415036Y-84863764D01*
X134422688Y-84867854D01*
X134429732Y-84872936D01*
X134446705Y-84880692D01*
X134463157Y-84889486D01*
X134471464Y-84892006D01*
X134479360Y-84895614D01*
X134497512Y-84899907D01*
X134515372Y-84905325D01*
X134524018Y-84906177D01*
X134532459Y-84908173D01*
X134551088Y-84908843D01*
X134556067Y-84909333D01*
X134564731Y-84909333D01*
X134586988Y-84910133D01*
X134591932Y-84909333D01*
X136345274Y-84909330D01*
X136358889Y-84910671D01*
X136413189Y-84905323D01*
X136465404Y-84889484D01*
X136513526Y-84863762D01*
X136555705Y-84829147D01*
X136590320Y-84786968D01*
X136616042Y-84738847D01*
X136631881Y-84686632D01*
X136635889Y-84645937D01*
X136635889Y-84645929D01*
X136637228Y-84632331D01*
X136635889Y-84618735D01*
X136635889Y-83645878D01*
X136689051Y-83103690D01*
X136842577Y-82595184D01*
X137091951Y-82126180D01*
X137427671Y-81714547D01*
X137836949Y-81375962D01*
X138304201Y-81123321D01*
X138811620Y-80966248D01*
X139339890Y-80910725D01*
X139868880Y-80958866D01*
G36*
X166986837Y-84707974D02*
G01*
X166990191Y-84722247D01*
X167001051Y-84746106D01*
X167011798Y-84770173D01*
X167012379Y-84770994D01*
X167012796Y-84771909D01*
X167028128Y-84793227D01*
X167043338Y-84814698D01*
X167044070Y-84815391D01*
X167044656Y-84816206D01*
X167063859Y-84834129D01*
X167082959Y-84852214D01*
X167095374Y-84860029D01*
X169453499Y-86662976D01*
X169453506Y-100200286D01*
X167161374Y-101848322D01*
X152308467Y-101848329D01*
X152308457Y-101848328D01*
X152062305Y-101848328D01*
X152062305Y-98138934D01*
X152063645Y-98125328D01*
X152061151Y-98100000D01*
X152059041Y-98078582D01*
X154100000Y-98078582D01*
X154164103Y-98072268D01*
X154225743Y-98053570D01*
X154282550Y-98023206D01*
X154332343Y-97982343D01*
X154373206Y-97932550D01*
X154379663Y-97920469D01*
X154396430Y-97975743D01*
X154426794Y-98032550D01*
X154467657Y-98082343D01*
X154517450Y-98123206D01*
X154574257Y-98153570D01*
X154635897Y-98172268D01*
X154700000Y-98178582D01*
X154753553Y-98178582D01*
X154754540Y-98188607D01*
X154780386Y-98273809D01*
X154793884Y-98299062D01*
X154822358Y-98352333D01*
X154878842Y-98421159D01*
X154896096Y-98435319D01*
X157364697Y-100903921D01*
X157378852Y-100921169D01*
X157396099Y-100935323D01*
X157447676Y-100977652D01*
X157526200Y-101019624D01*
X157611402Y-101045470D01*
X157700009Y-101054197D01*
X157722215Y-101052010D01*
X161649188Y-101052008D01*
X161671403Y-101054196D01*
X161760010Y-101045469D01*
X161845212Y-101019623D01*
X161923736Y-100977651D01*
X161992562Y-100921167D01*
X162006722Y-100903913D01*
X164553911Y-98356726D01*
X164571158Y-98342572D01*
X164627642Y-98273746D01*
X164669613Y-98195223D01*
X164695459Y-98110020D01*
X164701999Y-98043618D01*
X164701999Y-98043617D01*
X164704186Y-98021414D01*
X164701999Y-97999211D01*
X164701999Y-91172203D01*
X164704186Y-91149998D01*
X164695459Y-91061391D01*
X164669613Y-90976189D01*
X164662060Y-90962058D01*
X164627642Y-90897666D01*
X164574702Y-90833158D01*
X164577000Y-90821603D01*
X164577000Y-90678397D01*
X164549062Y-90537942D01*
X164494259Y-90405636D01*
X164414698Y-90286564D01*
X164313436Y-90185302D01*
X164194364Y-90105741D01*
X164062058Y-90050938D01*
X163921603Y-90023000D01*
X163778397Y-90023000D01*
X163637942Y-90050938D01*
X163528582Y-90096236D01*
X163528582Y-89052000D01*
X164022777Y-89052000D01*
X165069977Y-90099201D01*
X165046794Y-90127450D01*
X165016430Y-90184257D01*
X164997732Y-90245897D01*
X164991418Y-90310000D01*
X164991418Y-91610000D01*
X164997732Y-91674103D01*
X165016430Y-91735743D01*
X165046794Y-91792550D01*
X165087657Y-91842343D01*
X165137450Y-91883206D01*
X165194257Y-91913570D01*
X165255897Y-91932268D01*
X165320000Y-91938582D01*
X166020000Y-91938582D01*
X166084103Y-91932268D01*
X166145743Y-91913570D01*
X166202550Y-91883206D01*
X166252343Y-91842343D01*
X166293206Y-91792550D01*
X166323570Y-91735743D01*
X166342268Y-91674103D01*
X166348582Y-91610000D01*
X166348582Y-90310000D01*
X166342268Y-90245897D01*
X166323570Y-90184257D01*
X166293206Y-90127450D01*
X166252343Y-90077657D01*
X166202550Y-90036794D01*
X166145743Y-90006430D01*
X166118085Y-89998040D01*
X166115460Y-89971392D01*
X166089614Y-89886190D01*
X166069824Y-89849166D01*
X166047643Y-89807667D01*
X165991159Y-89738841D01*
X165973905Y-89724681D01*
X164545323Y-88296100D01*
X164531159Y-88278841D01*
X164462333Y-88222357D01*
X164383810Y-88180386D01*
X164298607Y-88154540D01*
X164232205Y-88148000D01*
X164210000Y-88145813D01*
X164187795Y-88148000D01*
X163528582Y-88148000D01*
X163528582Y-87100000D01*
X163522268Y-87035897D01*
X163503570Y-86974257D01*
X163473206Y-86917450D01*
X163432343Y-86867657D01*
X163382550Y-86826794D01*
X163325743Y-86796430D01*
X163264103Y-86777732D01*
X163200000Y-86771418D01*
X162200000Y-86771418D01*
X162135897Y-86777732D01*
X162074257Y-86796430D01*
X162017450Y-86826794D01*
X161967657Y-86867657D01*
X161950000Y-86889173D01*
X161932343Y-86867657D01*
X161882550Y-86826794D01*
X161869438Y-86819785D01*
X163017225Y-85672000D01*
X163251418Y-85672000D01*
X163251418Y-85870000D01*
X163257732Y-85934103D01*
X163276430Y-85995743D01*
X163306794Y-86052550D01*
X163347657Y-86102343D01*
X163397450Y-86143206D01*
X163454257Y-86173570D01*
X163515897Y-86192268D01*
X163580000Y-86198582D01*
X164280000Y-86198582D01*
X164344103Y-86192268D01*
X164405743Y-86173570D01*
X164462550Y-86143206D01*
X164512343Y-86102343D01*
X164553206Y-86052550D01*
X164583570Y-85995743D01*
X164602268Y-85934103D01*
X164608582Y-85870000D01*
X164608582Y-84570000D01*
X164602268Y-84505897D01*
X164583570Y-84444257D01*
X164553206Y-84387450D01*
X164512343Y-84337657D01*
X164462550Y-84296794D01*
X164405743Y-84266430D01*
X164344103Y-84247732D01*
X164280000Y-84241418D01*
X163580000Y-84241418D01*
X163515897Y-84247732D01*
X163454257Y-84266430D01*
X163397450Y-84296794D01*
X163347657Y-84337657D01*
X163306794Y-84387450D01*
X163276430Y-84444257D01*
X163257732Y-84505897D01*
X163251418Y-84570000D01*
X163251418Y-84768000D01*
X162852204Y-84768000D01*
X162829999Y-84765813D01*
X162741392Y-84774540D01*
X162656190Y-84800386D01*
X162577667Y-84842357D01*
X162508841Y-84898841D01*
X162494686Y-84916090D01*
X160896100Y-86514677D01*
X160878841Y-86528841D01*
X160823100Y-86596763D01*
X160822358Y-86597667D01*
X160780386Y-86676191D01*
X160754540Y-86761393D01*
X160753553Y-86771418D01*
X160700000Y-86771418D01*
X160635897Y-86777732D01*
X160574257Y-86796430D01*
X160517450Y-86826794D01*
X160467657Y-86867657D01*
X160426794Y-86917450D01*
X160396430Y-86974257D01*
X160377732Y-87035897D01*
X160371418Y-87100000D01*
X160371418Y-90100000D01*
X160377732Y-90164103D01*
X160396430Y-90225743D01*
X160426794Y-90282550D01*
X160467657Y-90332343D01*
X160517450Y-90373206D01*
X160574257Y-90403570D01*
X160635897Y-90422268D01*
X160700000Y-90428582D01*
X161700000Y-90428582D01*
X161764103Y-90422268D01*
X161825743Y-90403570D01*
X161882550Y-90373206D01*
X161932343Y-90332343D01*
X161950000Y-90310827D01*
X161967657Y-90332343D01*
X162017450Y-90373206D01*
X162042842Y-90386778D01*
X162000938Y-90487944D01*
X161973000Y-90628399D01*
X161973000Y-90771605D01*
X162000938Y-90912060D01*
X162055741Y-91044366D01*
X162135302Y-91163438D01*
X162236564Y-91264700D01*
X162248001Y-91272342D01*
X162248000Y-92377795D01*
X162245813Y-92400000D01*
X162254540Y-92488607D01*
X162280386Y-92573809D01*
X162322357Y-92652332D01*
X162378841Y-92721159D01*
X162396100Y-92735323D01*
X163073002Y-93412226D01*
X163073002Y-93842012D01*
X163021159Y-93778841D01*
X163003906Y-93764682D01*
X161285323Y-92046100D01*
X161271159Y-92028841D01*
X161202333Y-91972357D01*
X161123810Y-91930386D01*
X161038607Y-91904540D01*
X160972205Y-91898000D01*
X160950000Y-91895813D01*
X160927795Y-91898000D01*
X158887225Y-91898000D01*
X157369438Y-90380215D01*
X157382550Y-90373206D01*
X157432343Y-90332343D01*
X157450000Y-90310827D01*
X157467657Y-90332343D01*
X157517450Y-90373206D01*
X157574257Y-90403570D01*
X157635897Y-90422268D01*
X157700000Y-90428582D01*
X158700000Y-90428582D01*
X158764103Y-90422268D01*
X158825743Y-90403570D01*
X158882550Y-90373206D01*
X158932343Y-90332343D01*
X158973206Y-90282550D01*
X159003570Y-90225743D01*
X159022268Y-90164103D01*
X159028582Y-90100000D01*
X159028582Y-87100000D01*
X159027000Y-87083939D01*
X159027000Y-86284376D01*
X159015034Y-86162880D01*
X158967745Y-86006990D01*
X158890952Y-85863321D01*
X158787606Y-85737394D01*
X158661679Y-85634048D01*
X158518010Y-85557255D01*
X158362120Y-85509966D01*
X158200000Y-85493999D01*
X158037881Y-85509966D01*
X157881991Y-85557255D01*
X157738322Y-85634048D01*
X157612395Y-85737394D01*
X157509049Y-85863321D01*
X157432256Y-86006990D01*
X157384967Y-86162880D01*
X157373001Y-86284376D01*
X157373001Y-86821690D01*
X157325743Y-86796430D01*
X157264103Y-86777732D01*
X157200000Y-86771418D01*
X156200000Y-86771418D01*
X156135897Y-86777732D01*
X156074257Y-86796430D01*
X156017450Y-86826794D01*
X155967657Y-86867657D01*
X155950000Y-86889173D01*
X155932343Y-86867657D01*
X155882550Y-86826794D01*
X155825743Y-86796430D01*
X155764103Y-86777732D01*
X155700000Y-86771418D01*
X154700000Y-86771418D01*
X154635897Y-86777732D01*
X154574257Y-86796430D01*
X154517450Y-86826794D01*
X154467657Y-86867657D01*
X154426794Y-86917450D01*
X154396430Y-86974257D01*
X154377732Y-87035897D01*
X154371418Y-87100000D01*
X154371418Y-90100000D01*
X154377732Y-90164103D01*
X154396430Y-90225743D01*
X154426794Y-90282550D01*
X154467657Y-90332343D01*
X154517450Y-90373206D01*
X154574257Y-90403570D01*
X154635897Y-90422268D01*
X154700000Y-90428582D01*
X154753553Y-90428582D01*
X154754540Y-90438607D01*
X154769506Y-90487944D01*
X154780386Y-90523809D01*
X154822357Y-90602332D01*
X154878841Y-90671159D01*
X154896100Y-90685323D01*
X155339685Y-91128910D01*
X155353841Y-91146159D01*
X155422667Y-91202643D01*
X155501190Y-91244614D01*
X155586393Y-91270460D01*
X155652795Y-91277000D01*
X155652796Y-91277000D01*
X155674999Y-91279187D01*
X155697202Y-91277000D01*
X156351367Y-91277000D01*
X158178281Y-93103915D01*
X158192441Y-93121169D01*
X158261267Y-93177653D01*
X158330574Y-93214698D01*
X158339790Y-93219624D01*
X158424992Y-93245470D01*
X158513600Y-93254197D01*
X158535805Y-93252010D01*
X160437787Y-93252010D01*
X160748000Y-93562224D01*
X160748000Y-94521418D01*
X160700000Y-94521418D01*
X160635897Y-94527732D01*
X160574257Y-94546430D01*
X160517450Y-94576794D01*
X160467657Y-94617657D01*
X160426794Y-94667450D01*
X160396430Y-94724257D01*
X160377732Y-94785897D01*
X160371418Y-94850000D01*
X160371418Y-97850000D01*
X160377732Y-97914103D01*
X160396430Y-97975743D01*
X160426794Y-98032550D01*
X160467657Y-98082343D01*
X160517450Y-98123206D01*
X160574257Y-98153570D01*
X160635897Y-98172268D01*
X160700000Y-98178582D01*
X161700000Y-98178582D01*
X161764103Y-98172268D01*
X161825743Y-98153570D01*
X161882550Y-98123206D01*
X161932343Y-98082343D01*
X161950000Y-98060827D01*
X161967657Y-98082343D01*
X162017450Y-98123206D01*
X162074257Y-98153570D01*
X162135897Y-98172268D01*
X162200000Y-98178582D01*
X162817195Y-98178582D01*
X161297779Y-99698000D01*
X158937224Y-99698000D01*
X157369438Y-98130215D01*
X157382550Y-98123206D01*
X157432343Y-98082343D01*
X157450000Y-98060827D01*
X157467657Y-98082343D01*
X157517450Y-98123206D01*
X157574257Y-98153570D01*
X157635897Y-98172268D01*
X157700000Y-98178582D01*
X158700000Y-98178582D01*
X158764103Y-98172268D01*
X158825743Y-98153570D01*
X158882550Y-98123206D01*
X158932343Y-98082343D01*
X158973206Y-98032550D01*
X159003570Y-97975743D01*
X159022268Y-97914103D01*
X159028582Y-97850000D01*
X159028582Y-94850000D01*
X159027000Y-94833939D01*
X159027000Y-94034376D01*
X159015034Y-93912880D01*
X158967745Y-93756990D01*
X158890952Y-93613321D01*
X158787606Y-93487394D01*
X158661679Y-93384048D01*
X158518010Y-93307255D01*
X158362120Y-93259966D01*
X158200000Y-93243999D01*
X158037881Y-93259966D01*
X157881991Y-93307255D01*
X157738322Y-93384048D01*
X157612395Y-93487394D01*
X157509049Y-93613321D01*
X157432256Y-93756990D01*
X157426510Y-93775933D01*
X157399062Y-93637942D01*
X157344259Y-93505636D01*
X157264698Y-93386564D01*
X157163436Y-93285302D01*
X157044364Y-93205741D01*
X156912058Y-93150938D01*
X156771603Y-93123000D01*
X156628397Y-93123000D01*
X156487942Y-93150938D01*
X156355636Y-93205741D01*
X156236564Y-93285302D01*
X156135302Y-93386564D01*
X156127661Y-93398000D01*
X155137203Y-93398000D01*
X155114998Y-93395813D01*
X155026390Y-93404540D01*
X154995647Y-93413866D01*
X154941188Y-93430386D01*
X154862665Y-93472357D01*
X154793839Y-93528841D01*
X154779679Y-93546095D01*
X154328582Y-93997193D01*
X154328582Y-93300000D01*
X154327000Y-93283939D01*
X154327000Y-92700000D01*
X154320717Y-92636205D01*
X154302109Y-92574863D01*
X154271891Y-92518329D01*
X154231224Y-92468776D01*
X154181671Y-92428109D01*
X154125137Y-92397891D01*
X154063795Y-92379283D01*
X154000000Y-92373000D01*
X152062304Y-92373000D01*
X152062304Y-83828918D01*
X152312684Y-83828918D01*
X166693769Y-83828911D01*
X166986837Y-84707974D01*
G37*
X166986837Y-84707974D02*
X166990191Y-84722247D01*
X167001051Y-84746106D01*
X167011798Y-84770173D01*
X167012379Y-84770994D01*
X167012796Y-84771909D01*
X167028128Y-84793227D01*
X167043338Y-84814698D01*
X167044070Y-84815391D01*
X167044656Y-84816206D01*
X167063859Y-84834129D01*
X167082959Y-84852214D01*
X167095374Y-84860029D01*
X169453499Y-86662976D01*
X169453506Y-100200286D01*
X167161374Y-101848322D01*
X152308467Y-101848329D01*
X152308457Y-101848328D01*
X152062305Y-101848328D01*
X152062305Y-98138934D01*
X152063645Y-98125328D01*
X152061151Y-98100000D01*
X152059041Y-98078582D01*
X154100000Y-98078582D01*
X154164103Y-98072268D01*
X154225743Y-98053570D01*
X154282550Y-98023206D01*
X154332343Y-97982343D01*
X154373206Y-97932550D01*
X154379663Y-97920469D01*
X154396430Y-97975743D01*
X154426794Y-98032550D01*
X154467657Y-98082343D01*
X154517450Y-98123206D01*
X154574257Y-98153570D01*
X154635897Y-98172268D01*
X154700000Y-98178582D01*
X154753553Y-98178582D01*
X154754540Y-98188607D01*
X154780386Y-98273809D01*
X154793884Y-98299062D01*
X154822358Y-98352333D01*
X154878842Y-98421159D01*
X154896096Y-98435319D01*
X157364697Y-100903921D01*
X157378852Y-100921169D01*
X157396099Y-100935323D01*
X157447676Y-100977652D01*
X157526200Y-101019624D01*
X157611402Y-101045470D01*
X157700009Y-101054197D01*
X157722215Y-101052010D01*
X161649188Y-101052008D01*
X161671403Y-101054196D01*
X161760010Y-101045469D01*
X161845212Y-101019623D01*
X161923736Y-100977651D01*
X161992562Y-100921167D01*
X162006722Y-100903913D01*
X164553911Y-98356726D01*
X164571158Y-98342572D01*
X164627642Y-98273746D01*
X164669613Y-98195223D01*
X164695459Y-98110020D01*
X164701999Y-98043618D01*
X164701999Y-98043617D01*
X164704186Y-98021414D01*
X164701999Y-97999211D01*
X164701999Y-91172203D01*
X164704186Y-91149998D01*
X164695459Y-91061391D01*
X164669613Y-90976189D01*
X164662060Y-90962058D01*
X164627642Y-90897666D01*
X164574702Y-90833158D01*
X164577000Y-90821603D01*
X164577000Y-90678397D01*
X164549062Y-90537942D01*
X164494259Y-90405636D01*
X164414698Y-90286564D01*
X164313436Y-90185302D01*
X164194364Y-90105741D01*
X164062058Y-90050938D01*
X163921603Y-90023000D01*
X163778397Y-90023000D01*
X163637942Y-90050938D01*
X163528582Y-90096236D01*
X163528582Y-89052000D01*
X164022777Y-89052000D01*
X165069977Y-90099201D01*
X165046794Y-90127450D01*
X165016430Y-90184257D01*
X164997732Y-90245897D01*
X164991418Y-90310000D01*
X164991418Y-91610000D01*
X164997732Y-91674103D01*
X165016430Y-91735743D01*
X165046794Y-91792550D01*
X165087657Y-91842343D01*
X165137450Y-91883206D01*
X165194257Y-91913570D01*
X165255897Y-91932268D01*
X165320000Y-91938582D01*
X166020000Y-91938582D01*
X166084103Y-91932268D01*
X166145743Y-91913570D01*
X166202550Y-91883206D01*
X166252343Y-91842343D01*
X166293206Y-91792550D01*
X166323570Y-91735743D01*
X166342268Y-91674103D01*
X166348582Y-91610000D01*
X166348582Y-90310000D01*
X166342268Y-90245897D01*
X166323570Y-90184257D01*
X166293206Y-90127450D01*
X166252343Y-90077657D01*
X166202550Y-90036794D01*
X166145743Y-90006430D01*
X166118085Y-89998040D01*
X166115460Y-89971392D01*
X166089614Y-89886190D01*
X166069824Y-89849166D01*
X166047643Y-89807667D01*
X165991159Y-89738841D01*
X165973905Y-89724681D01*
X164545323Y-88296100D01*
X164531159Y-88278841D01*
X164462333Y-88222357D01*
X164383810Y-88180386D01*
X164298607Y-88154540D01*
X164232205Y-88148000D01*
X164210000Y-88145813D01*
X164187795Y-88148000D01*
X163528582Y-88148000D01*
X163528582Y-87100000D01*
X163522268Y-87035897D01*
X163503570Y-86974257D01*
X163473206Y-86917450D01*
X163432343Y-86867657D01*
X163382550Y-86826794D01*
X163325743Y-86796430D01*
X163264103Y-86777732D01*
X163200000Y-86771418D01*
X162200000Y-86771418D01*
X162135897Y-86777732D01*
X162074257Y-86796430D01*
X162017450Y-86826794D01*
X161967657Y-86867657D01*
X161950000Y-86889173D01*
X161932343Y-86867657D01*
X161882550Y-86826794D01*
X161869438Y-86819785D01*
X163017225Y-85672000D01*
X163251418Y-85672000D01*
X163251418Y-85870000D01*
X163257732Y-85934103D01*
X163276430Y-85995743D01*
X163306794Y-86052550D01*
X163347657Y-86102343D01*
X163397450Y-86143206D01*
X163454257Y-86173570D01*
X163515897Y-86192268D01*
X163580000Y-86198582D01*
X164280000Y-86198582D01*
X164344103Y-86192268D01*
X164405743Y-86173570D01*
X164462550Y-86143206D01*
X164512343Y-86102343D01*
X164553206Y-86052550D01*
X164583570Y-85995743D01*
X164602268Y-85934103D01*
X164608582Y-85870000D01*
X164608582Y-84570000D01*
X164602268Y-84505897D01*
X164583570Y-84444257D01*
X164553206Y-84387450D01*
X164512343Y-84337657D01*
X164462550Y-84296794D01*
X164405743Y-84266430D01*
X164344103Y-84247732D01*
X164280000Y-84241418D01*
X163580000Y-84241418D01*
X163515897Y-84247732D01*
X163454257Y-84266430D01*
X163397450Y-84296794D01*
X163347657Y-84337657D01*
X163306794Y-84387450D01*
X163276430Y-84444257D01*
X163257732Y-84505897D01*
X163251418Y-84570000D01*
X163251418Y-84768000D01*
X162852204Y-84768000D01*
X162829999Y-84765813D01*
X162741392Y-84774540D01*
X162656190Y-84800386D01*
X162577667Y-84842357D01*
X162508841Y-84898841D01*
X162494686Y-84916090D01*
X160896100Y-86514677D01*
X160878841Y-86528841D01*
X160823100Y-86596763D01*
X160822358Y-86597667D01*
X160780386Y-86676191D01*
X160754540Y-86761393D01*
X160753553Y-86771418D01*
X160700000Y-86771418D01*
X160635897Y-86777732D01*
X160574257Y-86796430D01*
X160517450Y-86826794D01*
X160467657Y-86867657D01*
X160426794Y-86917450D01*
X160396430Y-86974257D01*
X160377732Y-87035897D01*
X160371418Y-87100000D01*
X160371418Y-90100000D01*
X160377732Y-90164103D01*
X160396430Y-90225743D01*
X160426794Y-90282550D01*
X160467657Y-90332343D01*
X160517450Y-90373206D01*
X160574257Y-90403570D01*
X160635897Y-90422268D01*
X160700000Y-90428582D01*
X161700000Y-90428582D01*
X161764103Y-90422268D01*
X161825743Y-90403570D01*
X161882550Y-90373206D01*
X161932343Y-90332343D01*
X161950000Y-90310827D01*
X161967657Y-90332343D01*
X162017450Y-90373206D01*
X162042842Y-90386778D01*
X162000938Y-90487944D01*
X161973000Y-90628399D01*
X161973000Y-90771605D01*
X162000938Y-90912060D01*
X162055741Y-91044366D01*
X162135302Y-91163438D01*
X162236564Y-91264700D01*
X162248001Y-91272342D01*
X162248000Y-92377795D01*
X162245813Y-92400000D01*
X162254540Y-92488607D01*
X162280386Y-92573809D01*
X162322357Y-92652332D01*
X162378841Y-92721159D01*
X162396100Y-92735323D01*
X163073002Y-93412226D01*
X163073002Y-93842012D01*
X163021159Y-93778841D01*
X163003906Y-93764682D01*
X161285323Y-92046100D01*
X161271159Y-92028841D01*
X161202333Y-91972357D01*
X161123810Y-91930386D01*
X161038607Y-91904540D01*
X160972205Y-91898000D01*
X160950000Y-91895813D01*
X160927795Y-91898000D01*
X158887225Y-91898000D01*
X157369438Y-90380215D01*
X157382550Y-90373206D01*
X157432343Y-90332343D01*
X157450000Y-90310827D01*
X157467657Y-90332343D01*
X157517450Y-90373206D01*
X157574257Y-90403570D01*
X157635897Y-90422268D01*
X157700000Y-90428582D01*
X158700000Y-90428582D01*
X158764103Y-90422268D01*
X158825743Y-90403570D01*
X158882550Y-90373206D01*
X158932343Y-90332343D01*
X158973206Y-90282550D01*
X159003570Y-90225743D01*
X159022268Y-90164103D01*
X159028582Y-90100000D01*
X159028582Y-87100000D01*
X159027000Y-87083939D01*
X159027000Y-86284376D01*
X159015034Y-86162880D01*
X158967745Y-86006990D01*
X158890952Y-85863321D01*
X158787606Y-85737394D01*
X158661679Y-85634048D01*
X158518010Y-85557255D01*
X158362120Y-85509966D01*
X158200000Y-85493999D01*
X158037881Y-85509966D01*
X157881991Y-85557255D01*
X157738322Y-85634048D01*
X157612395Y-85737394D01*
X157509049Y-85863321D01*
X157432256Y-86006990D01*
X157384967Y-86162880D01*
X157373001Y-86284376D01*
X157373001Y-86821690D01*
X157325743Y-86796430D01*
X157264103Y-86777732D01*
X157200000Y-86771418D01*
X156200000Y-86771418D01*
X156135897Y-86777732D01*
X156074257Y-86796430D01*
X156017450Y-86826794D01*
X155967657Y-86867657D01*
X155950000Y-86889173D01*
X155932343Y-86867657D01*
X155882550Y-86826794D01*
X155825743Y-86796430D01*
X155764103Y-86777732D01*
X155700000Y-86771418D01*
X154700000Y-86771418D01*
X154635897Y-86777732D01*
X154574257Y-86796430D01*
X154517450Y-86826794D01*
X154467657Y-86867657D01*
X154426794Y-86917450D01*
X154396430Y-86974257D01*
X154377732Y-87035897D01*
X154371418Y-87100000D01*
X154371418Y-90100000D01*
X154377732Y-90164103D01*
X154396430Y-90225743D01*
X154426794Y-90282550D01*
X154467657Y-90332343D01*
X154517450Y-90373206D01*
X154574257Y-90403570D01*
X154635897Y-90422268D01*
X154700000Y-90428582D01*
X154753553Y-90428582D01*
X154754540Y-90438607D01*
X154769506Y-90487944D01*
X154780386Y-90523809D01*
X154822357Y-90602332D01*
X154878841Y-90671159D01*
X154896100Y-90685323D01*
X155339685Y-91128910D01*
X155353841Y-91146159D01*
X155422667Y-91202643D01*
X155501190Y-91244614D01*
X155586393Y-91270460D01*
X155652795Y-91277000D01*
X155652796Y-91277000D01*
X155674999Y-91279187D01*
X155697202Y-91277000D01*
X156351367Y-91277000D01*
X158178281Y-93103915D01*
X158192441Y-93121169D01*
X158261267Y-93177653D01*
X158330574Y-93214698D01*
X158339790Y-93219624D01*
X158424992Y-93245470D01*
X158513600Y-93254197D01*
X158535805Y-93252010D01*
X160437787Y-93252010D01*
X160748000Y-93562224D01*
X160748000Y-94521418D01*
X160700000Y-94521418D01*
X160635897Y-94527732D01*
X160574257Y-94546430D01*
X160517450Y-94576794D01*
X160467657Y-94617657D01*
X160426794Y-94667450D01*
X160396430Y-94724257D01*
X160377732Y-94785897D01*
X160371418Y-94850000D01*
X160371418Y-97850000D01*
X160377732Y-97914103D01*
X160396430Y-97975743D01*
X160426794Y-98032550D01*
X160467657Y-98082343D01*
X160517450Y-98123206D01*
X160574257Y-98153570D01*
X160635897Y-98172268D01*
X160700000Y-98178582D01*
X161700000Y-98178582D01*
X161764103Y-98172268D01*
X161825743Y-98153570D01*
X161882550Y-98123206D01*
X161932343Y-98082343D01*
X161950000Y-98060827D01*
X161967657Y-98082343D01*
X162017450Y-98123206D01*
X162074257Y-98153570D01*
X162135897Y-98172268D01*
X162200000Y-98178582D01*
X162817195Y-98178582D01*
X161297779Y-99698000D01*
X158937224Y-99698000D01*
X157369438Y-98130215D01*
X157382550Y-98123206D01*
X157432343Y-98082343D01*
X157450000Y-98060827D01*
X157467657Y-98082343D01*
X157517450Y-98123206D01*
X157574257Y-98153570D01*
X157635897Y-98172268D01*
X157700000Y-98178582D01*
X158700000Y-98178582D01*
X158764103Y-98172268D01*
X158825743Y-98153570D01*
X158882550Y-98123206D01*
X158932343Y-98082343D01*
X158973206Y-98032550D01*
X159003570Y-97975743D01*
X159022268Y-97914103D01*
X159028582Y-97850000D01*
X159028582Y-94850000D01*
X159027000Y-94833939D01*
X159027000Y-94034376D01*
X159015034Y-93912880D01*
X158967745Y-93756990D01*
X158890952Y-93613321D01*
X158787606Y-93487394D01*
X158661679Y-93384048D01*
X158518010Y-93307255D01*
X158362120Y-93259966D01*
X158200000Y-93243999D01*
X158037881Y-93259966D01*
X157881991Y-93307255D01*
X157738322Y-93384048D01*
X157612395Y-93487394D01*
X157509049Y-93613321D01*
X157432256Y-93756990D01*
X157426510Y-93775933D01*
X157399062Y-93637942D01*
X157344259Y-93505636D01*
X157264698Y-93386564D01*
X157163436Y-93285302D01*
X157044364Y-93205741D01*
X156912058Y-93150938D01*
X156771603Y-93123000D01*
X156628397Y-93123000D01*
X156487942Y-93150938D01*
X156355636Y-93205741D01*
X156236564Y-93285302D01*
X156135302Y-93386564D01*
X156127661Y-93398000D01*
X155137203Y-93398000D01*
X155114998Y-93395813D01*
X155026390Y-93404540D01*
X154995647Y-93413866D01*
X154941188Y-93430386D01*
X154862665Y-93472357D01*
X154793839Y-93528841D01*
X154779679Y-93546095D01*
X154328582Y-93997193D01*
X154328582Y-93300000D01*
X154327000Y-93283939D01*
X154327000Y-92700000D01*
X154320717Y-92636205D01*
X154302109Y-92574863D01*
X154271891Y-92518329D01*
X154231224Y-92468776D01*
X154181671Y-92428109D01*
X154125137Y-92397891D01*
X154063795Y-92379283D01*
X154000000Y-92373000D01*
X152062304Y-92373000D01*
X152062304Y-83828918D01*
X152312684Y-83828918D01*
X166693769Y-83828911D01*
X166986837Y-84707974D01*
G36*
X127323000Y-94473000D02*
G01*
X126327000Y-94473000D01*
X126327000Y-94227000D01*
X126700000Y-94227000D01*
X126724776Y-94224560D01*
X126748601Y-94217333D01*
X126770557Y-94205597D01*
X126789803Y-94189803D01*
X126805597Y-94170557D01*
X126817333Y-94148601D01*
X126824560Y-94124776D01*
X126827000Y-94100000D01*
X126827000Y-93227000D01*
X127323000Y-93227000D01*
X127323000Y-94473000D01*
G37*
X127323000Y-94473000D02*
X126327000Y-94473000D01*
X126327000Y-94227000D01*
X126700000Y-94227000D01*
X126724776Y-94224560D01*
X126748601Y-94217333D01*
X126770557Y-94205597D01*
X126789803Y-94189803D01*
X126805597Y-94170557D01*
X126817333Y-94148601D01*
X126824560Y-94124776D01*
X126827000Y-94100000D01*
X126827000Y-93227000D01*
X127323000Y-93227000D01*
X127323000Y-94473000D01*
M02*
