M48
; DRILL file {KiCad (5.1.5)-3} date 1/22/2021 11:30:21 PM
; FORMAT={-:-/ absolute / inch / decimal}
; #@! TF.CreationDate,2021-01-22T23:30:21-05:00
; #@! TF.GenerationSoftware,Kicad,Pcbnew,(5.1.5)-3
; #@! TF.FileFunction,Plated,1,2,PTH
FMAT,2
INCH
T1C0.0157
%
G90
G05
T1
X2.7411Y-3.6713
X2.7835Y-3.6496
X2.7835Y-3.6929
X2.9665Y-3.748
X2.9902Y-3.5965
X2.9902Y-3.6476
X4.8307Y-3.7835
X4.8996Y-3.6752
X4.998Y-3.6368
X5.0866Y-3.687
X5.0866Y-3.7539
X5.2441Y-3.7539
X5.2539Y-3.7106
X5.2736Y-3.8425
X5.313Y-3.8524
X5.372Y-3.7244
X5.4016Y-3.7539
X6.1693Y-3.6949
X6.2283Y-3.3986
X6.2293Y-3.7028
X6.2874Y-3.3898
X6.2874Y-3.9016
X6.4055Y-3.5709
X6.4508Y-3.5728
X6.0433Y-3.6929
X5.9961Y-3.9606
X5.8346Y-3.6929
X5.8858Y-3.9606
X5.8346Y-3.8287
X6.0472Y-3.8287
T0
M30
