G04 #@! TF.GenerationSoftware,KiCad,Pcbnew,(5.1.5)-3*
G04 #@! TF.CreationDate,2021-01-14T21:17:29-05:00*
G04 #@! TF.ProjectId,Body,426f6479-2e6b-4696-9361-645f70636258,rev?*
G04 #@! TF.SameCoordinates,Original*
G04 #@! TF.FileFunction,Soldermask,Bot*
G04 #@! TF.FilePolarity,Negative*
%FSLAX46Y46*%
G04 Gerber Fmt 4.6, Leading zero omitted, Abs format (unit mm)*
G04 Created by KiCad (PCBNEW (5.1.5)-3) date 2021-01-14 21:17:29*
%MOMM*%
%LPD*%
G04 APERTURE LIST*
%ADD10C,0.100000*%
G04 APERTURE END LIST*
D10*
G36*
X152851000Y-103151000D02*
G01*
X151749000Y-103151000D01*
X151749000Y-100049000D01*
X152851000Y-100049000D01*
X152851000Y-103151000D01*
G37*
G36*
X150051000Y-103151000D02*
G01*
X148949000Y-103151000D01*
X148949000Y-100049000D01*
X150051000Y-100049000D01*
X150051000Y-103151000D01*
G37*
G36*
X163251000Y-97901000D02*
G01*
X162149000Y-97901000D01*
X162149000Y-94799000D01*
X163251000Y-94799000D01*
X163251000Y-97901000D01*
G37*
G36*
X161751000Y-97901000D02*
G01*
X160649000Y-97901000D01*
X160649000Y-94799000D01*
X161751000Y-94799000D01*
X161751000Y-97901000D01*
G37*
G36*
X158751000Y-97901000D02*
G01*
X157649000Y-97901000D01*
X157649000Y-94799000D01*
X158751000Y-94799000D01*
X158751000Y-97901000D01*
G37*
G36*
X160251000Y-97901000D02*
G01*
X159149000Y-97901000D01*
X159149000Y-94799000D01*
X160251000Y-94799000D01*
X160251000Y-97901000D01*
G37*
G36*
X157251000Y-97901000D02*
G01*
X156149000Y-97901000D01*
X156149000Y-94799000D01*
X157251000Y-94799000D01*
X157251000Y-97901000D01*
G37*
G36*
X155751000Y-97901000D02*
G01*
X154649000Y-97901000D01*
X154649000Y-94799000D01*
X155751000Y-94799000D01*
X155751000Y-97901000D01*
G37*
G36*
X154151000Y-97801000D02*
G01*
X151049000Y-97801000D01*
X151049000Y-96699000D01*
X154151000Y-96699000D01*
X154151000Y-97801000D01*
G37*
G36*
X150751000Y-97801000D02*
G01*
X147649000Y-97801000D01*
X147649000Y-96699000D01*
X150751000Y-96699000D01*
X150751000Y-97801000D01*
G37*
G36*
X125901000Y-93844001D02*
G01*
X125903402Y-93868387D01*
X125910515Y-93891836D01*
X125922066Y-93913447D01*
X125937611Y-93932389D01*
X125956553Y-93947934D01*
X125978164Y-93959485D01*
X126001613Y-93966598D01*
X126025999Y-93969000D01*
X126374001Y-93969000D01*
X126398387Y-93966598D01*
X126421836Y-93959485D01*
X126443447Y-93947934D01*
X126462389Y-93932389D01*
X126477934Y-93913447D01*
X126489485Y-93891836D01*
X126496598Y-93868387D01*
X126499000Y-93844001D01*
X126499000Y-92924000D01*
X127401000Y-92924000D01*
X127401000Y-93776000D01*
X126625999Y-93776000D01*
X126601613Y-93778402D01*
X126578164Y-93785515D01*
X126556553Y-93797066D01*
X126537611Y-93812611D01*
X126522066Y-93831553D01*
X126510515Y-93853164D01*
X126503402Y-93876613D01*
X126501000Y-93900999D01*
X126501000Y-94024001D01*
X126503402Y-94048387D01*
X126510515Y-94071836D01*
X126522066Y-94093447D01*
X126537611Y-94112389D01*
X126556553Y-94127934D01*
X126578164Y-94139485D01*
X126601613Y-94146598D01*
X126625999Y-94149000D01*
X127501000Y-94149000D01*
X127501000Y-94751000D01*
X126625999Y-94751000D01*
X126601613Y-94753402D01*
X126578164Y-94760515D01*
X126556553Y-94772066D01*
X126537611Y-94787611D01*
X126522066Y-94806553D01*
X126510515Y-94828164D01*
X126503402Y-94851613D01*
X126501000Y-94875999D01*
X126501000Y-95024001D01*
X126503402Y-95048387D01*
X126510515Y-95071836D01*
X126522066Y-95093447D01*
X126537611Y-95112389D01*
X126556553Y-95127934D01*
X126578164Y-95139485D01*
X126601613Y-95146598D01*
X126625999Y-95149000D01*
X127501000Y-95149000D01*
X127501000Y-95551000D01*
X126625999Y-95551000D01*
X126601613Y-95553402D01*
X126578164Y-95560515D01*
X126556553Y-95572066D01*
X126537611Y-95587611D01*
X126522066Y-95606553D01*
X126510515Y-95628164D01*
X126503402Y-95651613D01*
X126501000Y-95675999D01*
X126501000Y-95824001D01*
X126503402Y-95848387D01*
X126510515Y-95871836D01*
X126522066Y-95893447D01*
X126537611Y-95912389D01*
X126556553Y-95927934D01*
X126578164Y-95939485D01*
X126601613Y-95946598D01*
X126625999Y-95949000D01*
X127501000Y-95949000D01*
X127501000Y-96551000D01*
X126625999Y-96551000D01*
X126601613Y-96553402D01*
X126578164Y-96560515D01*
X126556553Y-96572066D01*
X126537611Y-96587611D01*
X126522066Y-96606553D01*
X126510515Y-96628164D01*
X126503402Y-96651613D01*
X126501000Y-96675999D01*
X126501000Y-96731000D01*
X125899000Y-96731000D01*
X125899000Y-96675999D01*
X125896598Y-96651613D01*
X125889485Y-96628164D01*
X125877934Y-96606553D01*
X125862389Y-96587611D01*
X125843447Y-96572066D01*
X125821836Y-96560515D01*
X125798387Y-96553402D01*
X125774001Y-96551000D01*
X124899000Y-96551000D01*
X124899000Y-95949000D01*
X125774001Y-95949000D01*
X125798387Y-95946598D01*
X125821836Y-95939485D01*
X125843447Y-95927934D01*
X125862389Y-95912389D01*
X125877934Y-95893447D01*
X125889485Y-95871836D01*
X125896598Y-95848387D01*
X125899000Y-95824001D01*
X125899000Y-95675999D01*
X125896598Y-95651613D01*
X125889485Y-95628164D01*
X125877934Y-95606553D01*
X125862389Y-95587611D01*
X125843447Y-95572066D01*
X125821836Y-95560515D01*
X125798387Y-95553402D01*
X125774001Y-95551000D01*
X124899000Y-95551000D01*
X124899000Y-95149000D01*
X125774001Y-95149000D01*
X125798387Y-95146598D01*
X125821836Y-95139485D01*
X125843447Y-95127934D01*
X125862389Y-95112389D01*
X125877934Y-95093447D01*
X125889485Y-95071836D01*
X125896598Y-95048387D01*
X125899000Y-95024001D01*
X125899000Y-94875999D01*
X125896598Y-94851613D01*
X125889485Y-94828164D01*
X125877934Y-94806553D01*
X125862389Y-94787611D01*
X125843447Y-94772066D01*
X125821836Y-94760515D01*
X125798387Y-94753402D01*
X125774001Y-94751000D01*
X124899000Y-94751000D01*
X124899000Y-94149000D01*
X125774001Y-94149000D01*
X125798387Y-94146598D01*
X125821836Y-94139485D01*
X125843447Y-94127934D01*
X125862389Y-94112389D01*
X125877934Y-94093447D01*
X125889485Y-94071836D01*
X125896598Y-94048387D01*
X125899000Y-94024001D01*
X125899000Y-93900999D01*
X125896598Y-93876613D01*
X125889485Y-93853164D01*
X125877934Y-93831553D01*
X125862389Y-93812611D01*
X125843447Y-93797066D01*
X125821836Y-93785515D01*
X125798387Y-93778402D01*
X125774001Y-93776000D01*
X124999000Y-93776000D01*
X124999000Y-92924000D01*
X125901000Y-92924000D01*
X125901000Y-93844001D01*
G37*
G36*
X73001000Y-92274001D02*
G01*
X73003402Y-92298387D01*
X73010515Y-92321836D01*
X73022066Y-92343447D01*
X73037611Y-92362389D01*
X73056553Y-92377934D01*
X73078164Y-92389485D01*
X73101613Y-92396598D01*
X73125999Y-92399000D01*
X74001000Y-92399000D01*
X74001000Y-93001000D01*
X73125999Y-93001000D01*
X73101613Y-93003402D01*
X73078164Y-93010515D01*
X73056553Y-93022066D01*
X73037611Y-93037611D01*
X73022066Y-93056553D01*
X73010515Y-93078164D01*
X73003402Y-93101613D01*
X73001000Y-93125999D01*
X73001000Y-93274001D01*
X73003402Y-93298387D01*
X73010515Y-93321836D01*
X73022066Y-93343447D01*
X73037611Y-93362389D01*
X73056553Y-93377934D01*
X73078164Y-93389485D01*
X73101613Y-93396598D01*
X73125999Y-93399000D01*
X74001000Y-93399000D01*
X74001000Y-93801000D01*
X73125999Y-93801000D01*
X73101613Y-93803402D01*
X73078164Y-93810515D01*
X73056553Y-93822066D01*
X73037611Y-93837611D01*
X73022066Y-93856553D01*
X73010515Y-93878164D01*
X73003402Y-93901613D01*
X73001000Y-93925999D01*
X73001000Y-94074001D01*
X73003402Y-94098387D01*
X73010515Y-94121836D01*
X73022066Y-94143447D01*
X73037611Y-94162389D01*
X73056553Y-94177934D01*
X73078164Y-94189485D01*
X73101613Y-94196598D01*
X73125999Y-94199000D01*
X74001000Y-94199000D01*
X74001000Y-94801000D01*
X73125999Y-94801000D01*
X73101613Y-94803402D01*
X73078164Y-94810515D01*
X73056553Y-94822066D01*
X73037611Y-94837611D01*
X73022066Y-94856553D01*
X73010515Y-94878164D01*
X73003402Y-94901613D01*
X73001000Y-94925999D01*
X73001000Y-94981000D01*
X72399000Y-94981000D01*
X72399000Y-94925999D01*
X72396598Y-94901613D01*
X72389485Y-94878164D01*
X72377934Y-94856553D01*
X72362389Y-94837611D01*
X72343447Y-94822066D01*
X72321836Y-94810515D01*
X72298387Y-94803402D01*
X72274001Y-94801000D01*
X71399000Y-94801000D01*
X71399000Y-94199000D01*
X72274001Y-94199000D01*
X72298387Y-94196598D01*
X72321836Y-94189485D01*
X72343447Y-94177934D01*
X72362389Y-94162389D01*
X72377934Y-94143447D01*
X72389485Y-94121836D01*
X72396598Y-94098387D01*
X72399000Y-94074001D01*
X72399000Y-93925999D01*
X72396598Y-93901613D01*
X72389485Y-93878164D01*
X72377934Y-93856553D01*
X72362389Y-93837611D01*
X72343447Y-93822066D01*
X72321836Y-93810515D01*
X72298387Y-93803402D01*
X72274001Y-93801000D01*
X71399000Y-93801000D01*
X71399000Y-93399000D01*
X72274001Y-93399000D01*
X72298387Y-93396598D01*
X72321836Y-93389485D01*
X72343447Y-93377934D01*
X72362389Y-93362389D01*
X72377934Y-93343447D01*
X72389485Y-93321836D01*
X72396598Y-93298387D01*
X72399000Y-93274001D01*
X72399000Y-93125999D01*
X72396598Y-93101613D01*
X72389485Y-93078164D01*
X72377934Y-93056553D01*
X72362389Y-93037611D01*
X72343447Y-93022066D01*
X72321836Y-93010515D01*
X72298387Y-93003402D01*
X72274001Y-93001000D01*
X71399000Y-93001000D01*
X71399000Y-92399000D01*
X72274001Y-92399000D01*
X72298387Y-92396598D01*
X72321836Y-92389485D01*
X72343447Y-92377934D01*
X72362389Y-92362389D01*
X72377934Y-92343447D01*
X72389485Y-92321836D01*
X72396598Y-92298387D01*
X72399000Y-92274001D01*
X72399000Y-92219000D01*
X73001000Y-92219000D01*
X73001000Y-92274001D01*
G37*
G36*
X154051000Y-94351000D02*
G01*
X147649000Y-94351000D01*
X147649000Y-93249000D01*
X154051000Y-93249000D01*
X154051000Y-94351000D01*
G37*
G36*
X75401000Y-91776000D02*
G01*
X74499000Y-91776000D01*
X74499000Y-90924000D01*
X75401000Y-90924000D01*
X75401000Y-91776000D01*
G37*
G36*
X73901000Y-91776000D02*
G01*
X72999000Y-91776000D01*
X72999000Y-90924000D01*
X73901000Y-90924000D01*
X73901000Y-91776000D01*
G37*
G36*
X166071000Y-91661000D02*
G01*
X165269000Y-91661000D01*
X165269000Y-90259000D01*
X166071000Y-90259000D01*
X166071000Y-91661000D01*
G37*
G36*
X167971000Y-91661000D02*
G01*
X167169000Y-91661000D01*
X167169000Y-90259000D01*
X167971000Y-90259000D01*
X167971000Y-91661000D01*
G37*
G36*
X163251000Y-90151000D02*
G01*
X162149000Y-90151000D01*
X162149000Y-87049000D01*
X163251000Y-87049000D01*
X163251000Y-90151000D01*
G37*
G36*
X161751000Y-90151000D02*
G01*
X160649000Y-90151000D01*
X160649000Y-87049000D01*
X161751000Y-87049000D01*
X161751000Y-90151000D01*
G37*
G36*
X160251000Y-90151000D02*
G01*
X159149000Y-90151000D01*
X159149000Y-87049000D01*
X160251000Y-87049000D01*
X160251000Y-90151000D01*
G37*
G36*
X158751000Y-90151000D02*
G01*
X157649000Y-90151000D01*
X157649000Y-87049000D01*
X158751000Y-87049000D01*
X158751000Y-90151000D01*
G37*
G36*
X157251000Y-90151000D02*
G01*
X156149000Y-90151000D01*
X156149000Y-87049000D01*
X157251000Y-87049000D01*
X157251000Y-90151000D01*
G37*
G36*
X155751000Y-90151000D02*
G01*
X154649000Y-90151000D01*
X154649000Y-87049000D01*
X155751000Y-87049000D01*
X155751000Y-90151000D01*
G37*
G36*
X166231000Y-85921000D02*
G01*
X165429000Y-85921000D01*
X165429000Y-84519000D01*
X166231000Y-84519000D01*
X166231000Y-85921000D01*
G37*
G36*
X164331000Y-85921000D02*
G01*
X163529000Y-85921000D01*
X163529000Y-84519000D01*
X164331000Y-84519000D01*
X164331000Y-85921000D01*
G37*
M02*
