G04 #@! TF.GenerationSoftware,KiCad,Pcbnew,(5.1.5)-3*
G04 #@! TF.CreationDate,2021-03-06T07:43:48-05:00*
G04 #@! TF.ProjectId,Body,426f6479-2e6b-4696-9361-645f70636258,rev?*
G04 #@! TF.SameCoordinates,Original*
G04 #@! TF.FileFunction,Legend,Top*
G04 #@! TF.FilePolarity,Positive*
%FSLAX46Y46*%
G04 Gerber Fmt 4.6, Leading zero omitted, Abs format (unit mm)*
G04 Created by KiCad (PCBNEW (5.1.5)-3) date 2021-03-06 07:43:48*
%MOMM*%
%LPD*%
G04 APERTURE LIST*
%ADD10C,0.120000*%
%ADD11C,0.150000*%
%ADD12C,0.254000*%
G04 APERTURE END LIST*
D10*
X78800000Y-90100000D02*
X82600000Y-96300000D01*
D11*
X148171428Y-99007142D02*
X148123809Y-99054761D01*
X147980952Y-99102380D01*
X147885714Y-99102380D01*
X147742857Y-99054761D01*
X147647619Y-98959523D01*
X147600000Y-98864285D01*
X147552380Y-98673809D01*
X147552380Y-98530952D01*
X147600000Y-98340476D01*
X147647619Y-98245238D01*
X147742857Y-98150000D01*
X147885714Y-98102380D01*
X147980952Y-98102380D01*
X148123809Y-98150000D01*
X148171428Y-98197619D01*
X148600000Y-99102380D02*
X148600000Y-98102380D01*
X149171428Y-99102380D02*
X148742857Y-98530952D01*
X149171428Y-98102380D02*
X148600000Y-98673809D01*
X149600000Y-99102380D02*
X149600000Y-98102380D01*
X152176190Y-99004761D02*
X152319047Y-99052380D01*
X152557142Y-99052380D01*
X152652380Y-99004761D01*
X152700000Y-98957142D01*
X152747619Y-98861904D01*
X152747619Y-98766666D01*
X152700000Y-98671428D01*
X152652380Y-98623809D01*
X152557142Y-98576190D01*
X152366666Y-98528571D01*
X152271428Y-98480952D01*
X152223809Y-98433333D01*
X152176190Y-98338095D01*
X152176190Y-98242857D01*
X152223809Y-98147619D01*
X152271428Y-98100000D01*
X152366666Y-98052380D01*
X152604761Y-98052380D01*
X152747619Y-98100000D01*
X153176190Y-99052380D02*
X153176190Y-98052380D01*
X153414285Y-98052380D01*
X153557142Y-98100000D01*
X153652380Y-98195238D01*
X153700000Y-98290476D01*
X153747619Y-98480952D01*
X153747619Y-98623809D01*
X153700000Y-98814285D01*
X153652380Y-98909523D01*
X153557142Y-99004761D01*
X153414285Y-99052380D01*
X153176190Y-99052380D01*
X154176190Y-99052380D02*
X154176190Y-98052380D01*
X149461904Y-95671428D02*
X150223809Y-95671428D01*
X149842857Y-96052380D02*
X149842857Y-95290476D01*
X151176190Y-95052380D02*
X150700000Y-95052380D01*
X150652380Y-95528571D01*
X150700000Y-95480952D01*
X150795238Y-95433333D01*
X151033333Y-95433333D01*
X151128571Y-95480952D01*
X151176190Y-95528571D01*
X151223809Y-95623809D01*
X151223809Y-95861904D01*
X151176190Y-95957142D01*
X151128571Y-96004761D01*
X151033333Y-96052380D01*
X150795238Y-96052380D01*
X150700000Y-96004761D01*
X150652380Y-95957142D01*
X151557142Y-95385714D02*
X151795238Y-96052380D01*
X152033333Y-95385714D01*
X148461904Y-100800000D02*
X148366666Y-100752380D01*
X148223809Y-100752380D01*
X148080952Y-100800000D01*
X147985714Y-100895238D01*
X147938095Y-100990476D01*
X147890476Y-101180952D01*
X147890476Y-101323809D01*
X147938095Y-101514285D01*
X147985714Y-101609523D01*
X148080952Y-101704761D01*
X148223809Y-101752380D01*
X148319047Y-101752380D01*
X148461904Y-101704761D01*
X148509523Y-101657142D01*
X148509523Y-101323809D01*
X148319047Y-101323809D01*
X153961904Y-100900000D02*
X153866666Y-100852380D01*
X153723809Y-100852380D01*
X153580952Y-100900000D01*
X153485714Y-100995238D01*
X153438095Y-101090476D01*
X153390476Y-101280952D01*
X153390476Y-101423809D01*
X153438095Y-101614285D01*
X153485714Y-101709523D01*
X153580952Y-101804761D01*
X153723809Y-101852380D01*
X153819047Y-101852380D01*
X153961904Y-101804761D01*
X154009523Y-101757142D01*
X154009523Y-101423809D01*
X153819047Y-101423809D01*
D10*
X86600000Y-93220000D02*
X87400000Y-93220000D01*
X86600000Y-91380000D02*
X87400000Y-91380000D01*
X126550000Y-93950000D02*
X125850000Y-93950000D01*
X125850000Y-92750000D02*
X126550000Y-92750000D01*
X71950000Y-93850000D02*
X71950000Y-93150000D01*
X73150000Y-93150000D02*
X73150000Y-93850000D01*
X129200000Y-94880000D02*
X130000000Y-94880000D01*
X129200000Y-96720000D02*
X130000000Y-96720000D01*
D12*
G36*
X131652196Y-83545848D02*
G01*
X132829063Y-84625381D01*
X130144531Y-86314325D01*
X130144531Y-83376347D01*
X131652196Y-83545848D01*
G37*
X131652196Y-83545848D02*
X132829063Y-84625381D01*
X130144531Y-86314325D01*
X130144531Y-83376347D01*
X131652196Y-83545848D01*
G36*
X128968568Y-86853481D02*
G01*
X118290393Y-86024287D01*
X128968568Y-83338592D01*
X128968568Y-86853481D01*
G37*
X128968568Y-86853481D02*
X118290393Y-86024287D01*
X128968568Y-83338592D01*
X128968568Y-86853481D01*
M02*
