G04 #@! TF.GenerationSoftware,KiCad,Pcbnew,(5.1.5)-3*
G04 #@! TF.CreationDate,2021-02-28T23:24:23-05:00*
G04 #@! TF.ProjectId,Body,426f6479-2e6b-4696-9361-645f70636258,rev?*
G04 #@! TF.SameCoordinates,Original*
G04 #@! TF.FileFunction,Copper,L2,Bot*
G04 #@! TF.FilePolarity,Positive*
%FSLAX46Y46*%
G04 Gerber Fmt 4.6, Leading zero omitted, Abs format (unit mm)*
G04 Created by KiCad (PCBNEW (5.1.5)-3) date 2021-02-28 23:24:23*
%MOMM*%
%LPD*%
G04 APERTURE LIST*
%ADD10R,0.900000X0.400000*%
%ADD11R,0.750000X0.800000*%
%ADD12R,0.800000X0.750000*%
%ADD13R,1.000000X3.000000*%
%ADD14C,0.800000*%
%ADD15R,3.000000X1.000000*%
%ADD16R,0.300000X1.000000*%
%ADD17R,0.800000X0.300000*%
%ADD18R,0.800000X0.500000*%
%ADD19R,1.000000X0.300000*%
%ADD20R,0.300000X0.800000*%
%ADD21R,0.500000X0.800000*%
%ADD22C,0.500000*%
%ADD23C,0.250000*%
%ADD24C,0.254000*%
G04 APERTURE END LIST*
D10*
X87850000Y-94250000D03*
X87850000Y-95050000D03*
X86150000Y-95050000D03*
X86150000Y-94250000D03*
D11*
X72550000Y-92750000D03*
X72550000Y-94250000D03*
D12*
X126950000Y-93350000D03*
X125450000Y-93350000D03*
D13*
X155200000Y-88600000D03*
X156700000Y-88600000D03*
X159700000Y-88600000D03*
X158200000Y-88600000D03*
X161200000Y-88600000D03*
X162700000Y-88600000D03*
X155200000Y-96350000D03*
X156700000Y-96350000D03*
X159700000Y-96350000D03*
X158200000Y-96350000D03*
X161200000Y-96350000D03*
X162700000Y-96350000D03*
D14*
X153500000Y-93800000D03*
D15*
X152500000Y-93800000D03*
D13*
X152300000Y-101600000D03*
D14*
X152300000Y-100600000D03*
D13*
X149500000Y-101600000D03*
D14*
X149500000Y-100600000D03*
D15*
X149200000Y-93800000D03*
D14*
X148200000Y-93800000D03*
D15*
X149200000Y-97250000D03*
D14*
X148200000Y-97250000D03*
D15*
X152600000Y-97250000D03*
D14*
X153600000Y-97250000D03*
D10*
X117900000Y-94650000D03*
X117900000Y-93850000D03*
X116200000Y-93850000D03*
X116200000Y-94650000D03*
D16*
X126200000Y-94520000D03*
X126200000Y-96180000D03*
D17*
X125400000Y-95350000D03*
D18*
X125400000Y-96250000D03*
X125400000Y-94450000D03*
D17*
X127000000Y-95350000D03*
D18*
X127000000Y-96250000D03*
X127000000Y-94450000D03*
D19*
X74170000Y-93550000D03*
X75830000Y-93550000D03*
D20*
X75000000Y-94350000D03*
D21*
X75900000Y-94350000D03*
X74100000Y-94350000D03*
D20*
X75000000Y-92750000D03*
D21*
X75900000Y-92750000D03*
X74100000Y-92750000D03*
D10*
X166300000Y-88050000D03*
X166300000Y-87250000D03*
X164600000Y-87250000D03*
X164600000Y-88050000D03*
D14*
X158200000Y-95400000D03*
D22*
X124000000Y-92900000D03*
D14*
X158200000Y-87650000D03*
X158200000Y-89500000D03*
X158200000Y-97300000D03*
D22*
X73450000Y-91750000D03*
X77450000Y-91400000D03*
X159700000Y-99100000D03*
X159700000Y-86100000D03*
X134500000Y-97100000D03*
X69800000Y-93550000D03*
X128400000Y-93450000D03*
X128400000Y-91900000D03*
X123100000Y-92450000D03*
X134700000Y-91750000D03*
X133300000Y-93550000D03*
X153900000Y-88650000D03*
X153900000Y-90700000D03*
X134850000Y-94850000D03*
X145600000Y-93900000D03*
X77250000Y-93525000D03*
X77100000Y-90750000D03*
X74100000Y-91200000D03*
X77150000Y-95350000D03*
X89500000Y-94750000D03*
X164050000Y-91650000D03*
X159700000Y-90750000D03*
X141100000Y-95450000D03*
X143500000Y-101450000D03*
X147150000Y-97900000D03*
X142700000Y-97900000D03*
X88850000Y-95250003D03*
X88850000Y-94250000D03*
X139800000Y-94300000D03*
X141800000Y-95699999D03*
X163850000Y-90750000D03*
X162700000Y-90700002D03*
X135100000Y-96350000D03*
X133000000Y-95400000D03*
D23*
X126200000Y-94100000D02*
X126200000Y-94520000D01*
X125450000Y-93350000D02*
X126200000Y-94100000D01*
X126930000Y-94520000D02*
X127000000Y-94450000D01*
X126200000Y-94520000D02*
X126930000Y-94520000D01*
X125450000Y-93350000D02*
X124450000Y-93350000D01*
X124450000Y-93350000D02*
X124000000Y-92900000D01*
X72550000Y-92750000D02*
X74100000Y-92750000D01*
X74100000Y-93480000D02*
X74170000Y-93550000D01*
X74100000Y-92750000D02*
X74100000Y-93480000D01*
X72550000Y-92750000D02*
X72550000Y-92100000D01*
X72900000Y-91750000D02*
X73450000Y-91750000D01*
X72550000Y-92100000D02*
X72900000Y-91750000D01*
X74100000Y-92100000D02*
X74100000Y-92750000D01*
X74800000Y-91400000D02*
X74100000Y-92100000D01*
X77450000Y-91400000D02*
X74800000Y-91400000D01*
X75830000Y-93550000D02*
X77225000Y-93550000D01*
X77225000Y-93550000D02*
X77250000Y-93525000D01*
X87850000Y-95050000D02*
X88649997Y-95050000D01*
X88649997Y-95050000D02*
X88850000Y-95250003D01*
X87850000Y-94250000D02*
X88850000Y-94250000D01*
X76400000Y-92750000D02*
X75900000Y-92750000D01*
X78251001Y-93674999D02*
X77326002Y-92750000D01*
X89276001Y-93674999D02*
X78251001Y-93674999D01*
X90251002Y-94650000D02*
X89276001Y-93674999D01*
X77326002Y-92750000D02*
X76400000Y-92750000D01*
X116200000Y-94650000D02*
X90251002Y-94650000D01*
X75075001Y-92024999D02*
X75000000Y-92100000D01*
X75000000Y-92100000D02*
X75000000Y-92750000D01*
X76410001Y-92024999D02*
X75075001Y-92024999D01*
X77736401Y-92299991D02*
X76684992Y-92299990D01*
X78636400Y-93199990D02*
X77736401Y-92299991D01*
X116200000Y-93850000D02*
X113750000Y-93850000D01*
X76684992Y-92299990D02*
X76410001Y-92024999D01*
X113750000Y-93850000D02*
X113400000Y-94200000D01*
X113400000Y-94200000D02*
X90437412Y-94200000D01*
X90437412Y-94200000D02*
X89437402Y-93199990D01*
X89437402Y-93199990D02*
X78636400Y-93199990D01*
X139371446Y-94224999D02*
X139446447Y-94300000D01*
X139446447Y-94300000D02*
X139800000Y-94300000D01*
X132275001Y-94224999D02*
X139371446Y-94224999D01*
X131150000Y-95350000D02*
X132275001Y-94224999D01*
X127000000Y-95350000D02*
X131150000Y-95350000D01*
X139824998Y-97675001D02*
X133025001Y-97675001D01*
X141800000Y-95699999D02*
X139824998Y-97675001D01*
X131550000Y-96250000D02*
X132400000Y-97100000D01*
X127000000Y-96250000D02*
X131550000Y-96250000D01*
X133025001Y-97675001D02*
X132400000Y-97100000D01*
X155200000Y-98100000D02*
X155200000Y-96350000D01*
X157700010Y-100600010D02*
X155200000Y-98100000D01*
X161671403Y-100600009D02*
X157700010Y-100600010D01*
X163975011Y-98296401D02*
X161671403Y-100600009D01*
X163850000Y-90750000D02*
X163200000Y-91400000D01*
X163200000Y-91400000D02*
X163200000Y-93327180D01*
X163200000Y-93327180D02*
X163975011Y-94102191D01*
X163975011Y-94102191D02*
X163975011Y-98296401D01*
X158750000Y-100150000D02*
X156700000Y-98100000D01*
X163525001Y-98110001D02*
X161485002Y-100150000D01*
X161485002Y-100150000D02*
X158750000Y-100150000D01*
X163525001Y-94288591D02*
X163525001Y-98110001D01*
X162700000Y-93463590D02*
X163525001Y-94288591D01*
X156700000Y-98100000D02*
X156700000Y-96350000D01*
X162700000Y-90700002D02*
X162700000Y-93463590D01*
X164600000Y-88050000D02*
X163750000Y-88050000D01*
X163750000Y-88050000D02*
X163550000Y-88050000D01*
X163250000Y-88050000D02*
X162700000Y-88600000D01*
X164600000Y-88050000D02*
X163250000Y-88050000D01*
X161200000Y-86850000D02*
X161200000Y-88600000D01*
X161275001Y-86774999D02*
X161200000Y-86850000D01*
X164350000Y-87250000D02*
X163874999Y-86774999D01*
X163874999Y-86774999D02*
X161275001Y-86774999D01*
X164600000Y-87250000D02*
X164350000Y-87250000D01*
X155200000Y-90350000D02*
X155200000Y-88600000D01*
X155200000Y-90350000D02*
X155675000Y-90825000D01*
X155675000Y-90825000D02*
X156538590Y-90825000D01*
X156538590Y-90825000D02*
X158513600Y-92800010D01*
X158513600Y-92800010D02*
X160625010Y-92800010D01*
X161200000Y-93375000D02*
X161200000Y-96350000D01*
X160625010Y-92800010D02*
X161200000Y-93375000D01*
X156700000Y-88600000D02*
X156700000Y-90350000D01*
X156700000Y-90350000D02*
X158700000Y-92350000D01*
X158700000Y-92350000D02*
X160950000Y-92350000D01*
X162700000Y-94100000D02*
X162700000Y-96350000D01*
X160950000Y-92350000D02*
X162700000Y-94100000D01*
X75000000Y-95000000D02*
X75000000Y-94350000D01*
X75075001Y-95075001D02*
X75000000Y-95000000D01*
X76410001Y-95075001D02*
X75075001Y-95075001D01*
X76785002Y-94700000D02*
X76410001Y-95075001D01*
X85100010Y-94700010D02*
X76785002Y-94700000D01*
X85450000Y-95050000D02*
X85100010Y-94700010D01*
X86150000Y-95050000D02*
X85450000Y-95050000D01*
X76000000Y-94250000D02*
X75900000Y-94350000D01*
X86150000Y-94250000D02*
X76000000Y-94250000D01*
X119799990Y-94999990D02*
X123699990Y-94999990D01*
X124050000Y-95350000D02*
X125400000Y-95350000D01*
X123699990Y-94999990D02*
X124050000Y-95350000D01*
X118650000Y-93850000D02*
X119799990Y-94999990D01*
X117900000Y-93850000D02*
X118650000Y-93850000D01*
X118600000Y-94650000D02*
X119400000Y-95450000D01*
X117900000Y-94650000D02*
X118600000Y-94650000D01*
X119400000Y-95450000D02*
X123500000Y-95450000D01*
X124300000Y-96250000D02*
X125400000Y-96250000D01*
X123500000Y-95450000D02*
X124300000Y-96250000D01*
X135100000Y-96350000D02*
X134450000Y-95700000D01*
X134150000Y-95400000D02*
X133000000Y-95400000D01*
X134450000Y-95700000D02*
X134150000Y-95400000D01*
D24*
G36*
X149808305Y-93316216D02*
G01*
X149807448Y-93324918D01*
X149810865Y-93359616D01*
X149820986Y-93392981D01*
X149837422Y-93423729D01*
X149859541Y-93450681D01*
X149886493Y-93472800D01*
X149917241Y-93489236D01*
X149950606Y-93499357D01*
X149976612Y-93501918D01*
X149985304Y-93502774D01*
X149993996Y-93501918D01*
X151776612Y-93501918D01*
X151785304Y-93502774D01*
X151793996Y-93501918D01*
X151820002Y-93499357D01*
X151853367Y-93489236D01*
X151884115Y-93472800D01*
X151911067Y-93450681D01*
X151933186Y-93423729D01*
X151949622Y-93392981D01*
X151959743Y-93359616D01*
X151963160Y-93324918D01*
X151962304Y-93316226D01*
X151962304Y-92827000D01*
X153873000Y-92827000D01*
X153873000Y-94573000D01*
X147827000Y-94573000D01*
X147827000Y-92827000D01*
X149808305Y-92827000D01*
X149808305Y-93316216D01*
G37*
X149808305Y-93316216D02*
X149807448Y-93324918D01*
X149810865Y-93359616D01*
X149820986Y-93392981D01*
X149837422Y-93423729D01*
X149859541Y-93450681D01*
X149886493Y-93472800D01*
X149917241Y-93489236D01*
X149950606Y-93499357D01*
X149976612Y-93501918D01*
X149985304Y-93502774D01*
X149993996Y-93501918D01*
X151776612Y-93501918D01*
X151785304Y-93502774D01*
X151793996Y-93501918D01*
X151820002Y-93499357D01*
X151853367Y-93489236D01*
X151884115Y-93472800D01*
X151911067Y-93450681D01*
X151933186Y-93423729D01*
X151949622Y-93392981D01*
X151959743Y-93359616D01*
X151963160Y-93324918D01*
X151962304Y-93316226D01*
X151962304Y-92827000D01*
X153873000Y-92827000D01*
X153873000Y-94573000D01*
X147827000Y-94573000D01*
X147827000Y-92827000D01*
X149808305Y-92827000D01*
X149808305Y-93316216D01*
G36*
X131198185Y-82796655D02*
G01*
X131198192Y-82796655D01*
X132179476Y-82892103D01*
X133582356Y-84130349D01*
X134396569Y-84849011D01*
X134429732Y-84872936D01*
X134479360Y-84895614D01*
X134532459Y-84908173D01*
X134586988Y-84910133D01*
X134640852Y-84901417D01*
X134686687Y-84884333D01*
X146703671Y-84884326D01*
X146730668Y-84896381D01*
X146783873Y-84908480D01*
X146838416Y-84909967D01*
X146892202Y-84900784D01*
X146943163Y-84881285D01*
X146989341Y-84852217D01*
X147028961Y-84814701D01*
X147060500Y-84770175D01*
X147077172Y-84732836D01*
X147378507Y-83828913D01*
X149460034Y-83828919D01*
X149708304Y-83828919D01*
X149708305Y-92373000D01*
X147700000Y-92373000D01*
X147636205Y-92379283D01*
X147574863Y-92397891D01*
X147518329Y-92428109D01*
X147468776Y-92468776D01*
X147428109Y-92518329D01*
X147397891Y-92574863D01*
X147379283Y-92636205D01*
X147373000Y-92700000D01*
X147373000Y-93283939D01*
X147371418Y-93300000D01*
X147371418Y-94300000D01*
X147373000Y-94316061D01*
X147373000Y-94700000D01*
X147379283Y-94763795D01*
X147397891Y-94825137D01*
X147428109Y-94881671D01*
X147468776Y-94931224D01*
X147518329Y-94971891D01*
X147574863Y-95002109D01*
X147636205Y-95020717D01*
X147700000Y-95027000D01*
X154000000Y-95027000D01*
X154063795Y-95020717D01*
X154125137Y-95002109D01*
X154181671Y-94971891D01*
X154231224Y-94931224D01*
X154271891Y-94881671D01*
X154302109Y-94825137D01*
X154320717Y-94763795D01*
X154327000Y-94700000D01*
X154327000Y-94316061D01*
X154328582Y-94300000D01*
X154328582Y-93300000D01*
X154327000Y-93283939D01*
X154327000Y-92700000D01*
X154320717Y-92636205D01*
X154302109Y-92574863D01*
X154271891Y-92518329D01*
X154231224Y-92468776D01*
X154181671Y-92428109D01*
X154125137Y-92397891D01*
X154063795Y-92379283D01*
X154000000Y-92373000D01*
X152062304Y-92373000D01*
X152062304Y-83828918D01*
X152312684Y-83828918D01*
X166693769Y-83828911D01*
X166986837Y-84707974D01*
X166990191Y-84722247D01*
X167001051Y-84746106D01*
X167011798Y-84770173D01*
X167012379Y-84770994D01*
X167012796Y-84771909D01*
X167028128Y-84793227D01*
X167043338Y-84814698D01*
X167044070Y-84815391D01*
X167044656Y-84816206D01*
X167063859Y-84834129D01*
X167082959Y-84852214D01*
X167095374Y-84860029D01*
X169453499Y-86662976D01*
X169453506Y-100200286D01*
X167161374Y-101848322D01*
X152308467Y-101848329D01*
X152308457Y-101848328D01*
X152062305Y-101848328D01*
X152062305Y-98138934D01*
X152063645Y-98125328D01*
X152061151Y-98100000D01*
X152059041Y-98078582D01*
X154100000Y-98078582D01*
X154164103Y-98072268D01*
X154225743Y-98053570D01*
X154282550Y-98023206D01*
X154332343Y-97982343D01*
X154373206Y-97932550D01*
X154379663Y-97920469D01*
X154396430Y-97975743D01*
X154426794Y-98032550D01*
X154467657Y-98082343D01*
X154517450Y-98123206D01*
X154574257Y-98153570D01*
X154635897Y-98172268D01*
X154700000Y-98178582D01*
X154753553Y-98178582D01*
X154754540Y-98188607D01*
X154767656Y-98231844D01*
X154780386Y-98273809D01*
X154822357Y-98352332D01*
X154878841Y-98421159D01*
X154896100Y-98435323D01*
X157364697Y-100903921D01*
X157378852Y-100921169D01*
X157396099Y-100935323D01*
X157447676Y-100977652D01*
X157526200Y-101019624D01*
X157611402Y-101045470D01*
X157700009Y-101054197D01*
X157722215Y-101052010D01*
X161649188Y-101052008D01*
X161671403Y-101054196D01*
X161760010Y-101045469D01*
X161845212Y-101019623D01*
X161923736Y-100977651D01*
X161992562Y-100921167D01*
X162006722Y-100903913D01*
X164278916Y-98631720D01*
X164296170Y-98617560D01*
X164352654Y-98548734D01*
X164394625Y-98470211D01*
X164420471Y-98385008D01*
X164427011Y-98318606D01*
X164429198Y-98296401D01*
X164427011Y-98274196D01*
X164427011Y-94124395D01*
X164429198Y-94102190D01*
X164420471Y-94013583D01*
X164394625Y-93928381D01*
X164377217Y-93895813D01*
X164352654Y-93849858D01*
X164296170Y-93781032D01*
X164278922Y-93766877D01*
X163652000Y-93139957D01*
X163652000Y-91587223D01*
X163913563Y-91325661D01*
X164018305Y-91304826D01*
X164123312Y-91261331D01*
X164217816Y-91198185D01*
X164298185Y-91117816D01*
X164361331Y-91023312D01*
X164404826Y-90918305D01*
X164427000Y-90806830D01*
X164427000Y-90693170D01*
X164404826Y-90581695D01*
X164361331Y-90476688D01*
X164298185Y-90382184D01*
X164217816Y-90301815D01*
X164123312Y-90238669D01*
X164018305Y-90195174D01*
X163906830Y-90173000D01*
X163793170Y-90173000D01*
X163681695Y-90195174D01*
X163576688Y-90238669D01*
X163482184Y-90301815D01*
X163401815Y-90382184D01*
X163338669Y-90476688D01*
X163295174Y-90581695D01*
X163277000Y-90673061D01*
X163277000Y-90643172D01*
X163254826Y-90531697D01*
X163211640Y-90427436D01*
X163264103Y-90422268D01*
X163325743Y-90403570D01*
X163382550Y-90373206D01*
X163432343Y-90332343D01*
X163473206Y-90282550D01*
X163503570Y-90225743D01*
X163522268Y-90164103D01*
X163528582Y-90100000D01*
X163528582Y-88502000D01*
X163941610Y-88502000D01*
X163967450Y-88523206D01*
X164024257Y-88553570D01*
X164085897Y-88572268D01*
X164150000Y-88578582D01*
X165050000Y-88578582D01*
X165114103Y-88572268D01*
X165175743Y-88553570D01*
X165232550Y-88523206D01*
X165282343Y-88482343D01*
X165323206Y-88432550D01*
X165353570Y-88375743D01*
X165372268Y-88314103D01*
X165378582Y-88250000D01*
X165378582Y-87850000D01*
X165372268Y-87785897D01*
X165353570Y-87724257D01*
X165323206Y-87667450D01*
X165308886Y-87650000D01*
X165323206Y-87632550D01*
X165353570Y-87575743D01*
X165372268Y-87514103D01*
X165378582Y-87450000D01*
X165378582Y-87050000D01*
X165372268Y-86985897D01*
X165353570Y-86924257D01*
X165323206Y-86867450D01*
X165282343Y-86817657D01*
X165232550Y-86776794D01*
X165175743Y-86746430D01*
X165114103Y-86727732D01*
X165050000Y-86721418D01*
X164460642Y-86721418D01*
X164210322Y-86471099D01*
X164196158Y-86453840D01*
X164127332Y-86397356D01*
X164048809Y-86355385D01*
X163963606Y-86329539D01*
X163897204Y-86322999D01*
X163874999Y-86320812D01*
X163852794Y-86322999D01*
X161297203Y-86322999D01*
X161275000Y-86320812D01*
X161252798Y-86322999D01*
X161252796Y-86322999D01*
X161186394Y-86329539D01*
X161101191Y-86355385D01*
X161022668Y-86397356D01*
X160953842Y-86453840D01*
X160939681Y-86471096D01*
X160896099Y-86514678D01*
X160878841Y-86528841D01*
X160822357Y-86597668D01*
X160810278Y-86620267D01*
X160780386Y-86676191D01*
X160754540Y-86761393D01*
X160753553Y-86771418D01*
X160700000Y-86771418D01*
X160635897Y-86777732D01*
X160574257Y-86796430D01*
X160517450Y-86826794D01*
X160467657Y-86867657D01*
X160426794Y-86917450D01*
X160396430Y-86974257D01*
X160377732Y-87035897D01*
X160371418Y-87100000D01*
X160371418Y-90100000D01*
X160377732Y-90164103D01*
X160396430Y-90225743D01*
X160426794Y-90282550D01*
X160467657Y-90332343D01*
X160517450Y-90373206D01*
X160574257Y-90403570D01*
X160635897Y-90422268D01*
X160700000Y-90428582D01*
X161700000Y-90428582D01*
X161764103Y-90422268D01*
X161825743Y-90403570D01*
X161882550Y-90373206D01*
X161932343Y-90332343D01*
X161950000Y-90310827D01*
X161967657Y-90332343D01*
X162017450Y-90373206D01*
X162074257Y-90403570D01*
X162135897Y-90422268D01*
X162188360Y-90427436D01*
X162145174Y-90531697D01*
X162123000Y-90643172D01*
X162123000Y-90756832D01*
X162145174Y-90868307D01*
X162188669Y-90973314D01*
X162248000Y-91062109D01*
X162248001Y-93008777D01*
X161285323Y-92046100D01*
X161271159Y-92028841D01*
X161202333Y-91972357D01*
X161123810Y-91930386D01*
X161038607Y-91904540D01*
X160972205Y-91898000D01*
X160950000Y-91895813D01*
X160927795Y-91898000D01*
X158887225Y-91898000D01*
X157369438Y-90380215D01*
X157382550Y-90373206D01*
X157432343Y-90332343D01*
X157450000Y-90310827D01*
X157467657Y-90332343D01*
X157517450Y-90373206D01*
X157574257Y-90403570D01*
X157635897Y-90422268D01*
X157700000Y-90428582D01*
X158700000Y-90428582D01*
X158764103Y-90422268D01*
X158825743Y-90403570D01*
X158882550Y-90373206D01*
X158932343Y-90332343D01*
X158973206Y-90282550D01*
X159003570Y-90225743D01*
X159022268Y-90164103D01*
X159028582Y-90100000D01*
X159028582Y-87100000D01*
X159022268Y-87035897D01*
X159003570Y-86974257D01*
X158973206Y-86917450D01*
X158932343Y-86867657D01*
X158882550Y-86826794D01*
X158825743Y-86796430D01*
X158764103Y-86777732D01*
X158700000Y-86771418D01*
X157700000Y-86771418D01*
X157635897Y-86777732D01*
X157574257Y-86796430D01*
X157517450Y-86826794D01*
X157467657Y-86867657D01*
X157450000Y-86889173D01*
X157432343Y-86867657D01*
X157382550Y-86826794D01*
X157325743Y-86796430D01*
X157264103Y-86777732D01*
X157200000Y-86771418D01*
X156200000Y-86771418D01*
X156135897Y-86777732D01*
X156074257Y-86796430D01*
X156017450Y-86826794D01*
X155967657Y-86867657D01*
X155950000Y-86889173D01*
X155932343Y-86867657D01*
X155882550Y-86826794D01*
X155825743Y-86796430D01*
X155764103Y-86777732D01*
X155700000Y-86771418D01*
X154700000Y-86771418D01*
X154635897Y-86777732D01*
X154574257Y-86796430D01*
X154517450Y-86826794D01*
X154467657Y-86867657D01*
X154426794Y-86917450D01*
X154396430Y-86974257D01*
X154377732Y-87035897D01*
X154371418Y-87100000D01*
X154371418Y-90100000D01*
X154377732Y-90164103D01*
X154396430Y-90225743D01*
X154426794Y-90282550D01*
X154467657Y-90332343D01*
X154517450Y-90373206D01*
X154574257Y-90403570D01*
X154635897Y-90422268D01*
X154700000Y-90428582D01*
X154753553Y-90428582D01*
X154754540Y-90438607D01*
X154760102Y-90456943D01*
X154780386Y-90523809D01*
X154822357Y-90602332D01*
X154878841Y-90671159D01*
X154896100Y-90685323D01*
X155339685Y-91128910D01*
X155353841Y-91146159D01*
X155422667Y-91202643D01*
X155501190Y-91244614D01*
X155586393Y-91270460D01*
X155652795Y-91277000D01*
X155652796Y-91277000D01*
X155674999Y-91279187D01*
X155697202Y-91277000D01*
X156351367Y-91277000D01*
X158178281Y-93103915D01*
X158192441Y-93121169D01*
X158261267Y-93177653D01*
X158310391Y-93203910D01*
X158339790Y-93219624D01*
X158424992Y-93245470D01*
X158513600Y-93254197D01*
X158535805Y-93252010D01*
X160437787Y-93252010D01*
X160748000Y-93562224D01*
X160748000Y-94521418D01*
X160700000Y-94521418D01*
X160635897Y-94527732D01*
X160574257Y-94546430D01*
X160517450Y-94576794D01*
X160467657Y-94617657D01*
X160426794Y-94667450D01*
X160396430Y-94724257D01*
X160377732Y-94785897D01*
X160371418Y-94850000D01*
X160371418Y-97850000D01*
X160377732Y-97914103D01*
X160396430Y-97975743D01*
X160426794Y-98032550D01*
X160467657Y-98082343D01*
X160517450Y-98123206D01*
X160574257Y-98153570D01*
X160635897Y-98172268D01*
X160700000Y-98178582D01*
X161700000Y-98178582D01*
X161764103Y-98172268D01*
X161825743Y-98153570D01*
X161882550Y-98123206D01*
X161932343Y-98082343D01*
X161950000Y-98060827D01*
X161967657Y-98082343D01*
X162017450Y-98123206D01*
X162074257Y-98153570D01*
X162135897Y-98172268D01*
X162200000Y-98178582D01*
X162817195Y-98178582D01*
X161297779Y-99698000D01*
X158937224Y-99698000D01*
X157369438Y-98130215D01*
X157382550Y-98123206D01*
X157432343Y-98082343D01*
X157450000Y-98060827D01*
X157467657Y-98082343D01*
X157517450Y-98123206D01*
X157574257Y-98153570D01*
X157635897Y-98172268D01*
X157700000Y-98178582D01*
X158700000Y-98178582D01*
X158764103Y-98172268D01*
X158825743Y-98153570D01*
X158882550Y-98123206D01*
X158932343Y-98082343D01*
X158973206Y-98032550D01*
X159003570Y-97975743D01*
X159022268Y-97914103D01*
X159028582Y-97850000D01*
X159028582Y-94850000D01*
X159022268Y-94785897D01*
X159003570Y-94724257D01*
X158973206Y-94667450D01*
X158932343Y-94617657D01*
X158882550Y-94576794D01*
X158825743Y-94546430D01*
X158764103Y-94527732D01*
X158700000Y-94521418D01*
X157700000Y-94521418D01*
X157635897Y-94527732D01*
X157574257Y-94546430D01*
X157517450Y-94576794D01*
X157467657Y-94617657D01*
X157450000Y-94639173D01*
X157432343Y-94617657D01*
X157382550Y-94576794D01*
X157325743Y-94546430D01*
X157264103Y-94527732D01*
X157200000Y-94521418D01*
X156200000Y-94521418D01*
X156135897Y-94527732D01*
X156074257Y-94546430D01*
X156017450Y-94576794D01*
X155967657Y-94617657D01*
X155950000Y-94639173D01*
X155932343Y-94617657D01*
X155882550Y-94576794D01*
X155825743Y-94546430D01*
X155764103Y-94527732D01*
X155700000Y-94521418D01*
X154700000Y-94521418D01*
X154635897Y-94527732D01*
X154574257Y-94546430D01*
X154517450Y-94576794D01*
X154467657Y-94617657D01*
X154426794Y-94667450D01*
X154396430Y-94724257D01*
X154377732Y-94785897D01*
X154371418Y-94850000D01*
X154371418Y-96565271D01*
X154332343Y-96517657D01*
X154282550Y-96476794D01*
X154225743Y-96446430D01*
X154164103Y-96427732D01*
X154100000Y-96421418D01*
X151100000Y-96421418D01*
X151035897Y-96427732D01*
X150974257Y-96446430D01*
X150917450Y-96476794D01*
X150900000Y-96491114D01*
X150882550Y-96476794D01*
X150825743Y-96446430D01*
X150764103Y-96427732D01*
X150700000Y-96421418D01*
X147700000Y-96421418D01*
X147635897Y-96427732D01*
X147574257Y-96446430D01*
X147517450Y-96476794D01*
X147467657Y-96517657D01*
X147426794Y-96567450D01*
X147396430Y-96624257D01*
X147377732Y-96685897D01*
X147371418Y-96750000D01*
X147371418Y-97750000D01*
X147377732Y-97814103D01*
X147396430Y-97875743D01*
X147426794Y-97932550D01*
X147467657Y-97982343D01*
X147517450Y-98023206D01*
X147574257Y-98053570D01*
X147635897Y-98072268D01*
X147700000Y-98078582D01*
X149711569Y-98078582D01*
X149706965Y-98125328D01*
X149708305Y-98138934D01*
X149708306Y-101848328D01*
X140716327Y-101848330D01*
X133694041Y-99008640D01*
X130673245Y-97751262D01*
X130665376Y-97746698D01*
X130648096Y-97740794D01*
X130643884Y-97739041D01*
X130635258Y-97736408D01*
X130613742Y-97729057D01*
X130609174Y-97728446D01*
X130604773Y-97727103D01*
X130582193Y-97724840D01*
X130573211Y-97723639D01*
X130568626Y-97723480D01*
X130550481Y-97721661D01*
X130541441Y-97722536D01*
X82541643Y-96055668D01*
X82514896Y-96054668D01*
X82501034Y-96056891D01*
X82487020Y-96057781D01*
X82474162Y-96061199D01*
X82461020Y-96063306D01*
X82447850Y-96068193D01*
X82434286Y-96071799D01*
X82422345Y-96077658D01*
X82409864Y-96082290D01*
X82397900Y-96089653D01*
X82385302Y-96095835D01*
X82364127Y-96112016D01*
X81561755Y-96721811D01*
X79003488Y-96692274D01*
X71202635Y-95411145D01*
X69131156Y-94056434D01*
X68613404Y-93376521D01*
X69133246Y-92693864D01*
X69632236Y-92350000D01*
X71846418Y-92350000D01*
X71846418Y-93150000D01*
X71852732Y-93214103D01*
X71871430Y-93275743D01*
X71901794Y-93332550D01*
X71942657Y-93382343D01*
X71992450Y-93423206D01*
X72049257Y-93453570D01*
X72110897Y-93472268D01*
X72175000Y-93478582D01*
X72925000Y-93478582D01*
X72989103Y-93472268D01*
X73050743Y-93453570D01*
X73107550Y-93423206D01*
X73157343Y-93382343D01*
X73198206Y-93332550D01*
X73228570Y-93275743D01*
X73247268Y-93214103D01*
X73248460Y-93202000D01*
X73409473Y-93202000D01*
X73396794Y-93217450D01*
X73366430Y-93274257D01*
X73347732Y-93335897D01*
X73341418Y-93400000D01*
X73341418Y-93700000D01*
X73347732Y-93764103D01*
X73366430Y-93825743D01*
X73396794Y-93882550D01*
X73437657Y-93932343D01*
X73487450Y-93973206D01*
X73544257Y-94003570D01*
X73605897Y-94022268D01*
X73670000Y-94028582D01*
X74521418Y-94028582D01*
X74521418Y-94750000D01*
X74527732Y-94814103D01*
X74546430Y-94875743D01*
X74548000Y-94878681D01*
X74548000Y-94977794D01*
X74545813Y-95000000D01*
X74554540Y-95088607D01*
X74571699Y-95145173D01*
X74580386Y-95173809D01*
X74622357Y-95252332D01*
X74678841Y-95321159D01*
X74696099Y-95335322D01*
X74739681Y-95378904D01*
X74753842Y-95396160D01*
X74822668Y-95452644D01*
X74901191Y-95494615D01*
X74986394Y-95520461D01*
X75052796Y-95527001D01*
X75052798Y-95527001D01*
X75075000Y-95529188D01*
X75097203Y-95527001D01*
X76387796Y-95527001D01*
X76410001Y-95529188D01*
X76432206Y-95527001D01*
X76498608Y-95520461D01*
X76583811Y-95494615D01*
X76662334Y-95452644D01*
X76731160Y-95396160D01*
X76745324Y-95378901D01*
X76972226Y-95151999D01*
X84912786Y-95152010D01*
X85114681Y-95353905D01*
X85128841Y-95371159D01*
X85197667Y-95427643D01*
X85252273Y-95456830D01*
X85276190Y-95469614D01*
X85361392Y-95495460D01*
X85450000Y-95504187D01*
X85472205Y-95502000D01*
X85491610Y-95502000D01*
X85517450Y-95523206D01*
X85574257Y-95553570D01*
X85635897Y-95572268D01*
X85700000Y-95578582D01*
X86600000Y-95578582D01*
X86664103Y-95572268D01*
X86725743Y-95553570D01*
X86782550Y-95523206D01*
X86832343Y-95482343D01*
X86873206Y-95432550D01*
X86903570Y-95375743D01*
X86922268Y-95314103D01*
X86928582Y-95250000D01*
X86928582Y-94850000D01*
X86922268Y-94785897D01*
X86903570Y-94724257D01*
X86873206Y-94667450D01*
X86858886Y-94650000D01*
X86873206Y-94632550D01*
X86903570Y-94575743D01*
X86922268Y-94514103D01*
X86928582Y-94450000D01*
X86928582Y-94126999D01*
X87071418Y-94126999D01*
X87071418Y-94450000D01*
X87077732Y-94514103D01*
X87096430Y-94575743D01*
X87126794Y-94632550D01*
X87141114Y-94650000D01*
X87126794Y-94667450D01*
X87096430Y-94724257D01*
X87077732Y-94785897D01*
X87071418Y-94850000D01*
X87071418Y-95250000D01*
X87077732Y-95314103D01*
X87096430Y-95375743D01*
X87126794Y-95432550D01*
X87167657Y-95482343D01*
X87217450Y-95523206D01*
X87274257Y-95553570D01*
X87335897Y-95572268D01*
X87400000Y-95578582D01*
X88300000Y-95578582D01*
X88364103Y-95572268D01*
X88370152Y-95570433D01*
X88401815Y-95617819D01*
X88482184Y-95698188D01*
X88576688Y-95761334D01*
X88681695Y-95804829D01*
X88793170Y-95827003D01*
X88906830Y-95827003D01*
X89018305Y-95804829D01*
X89123312Y-95761334D01*
X89217816Y-95698188D01*
X89298185Y-95617819D01*
X89361331Y-95523315D01*
X89404826Y-95418308D01*
X89427000Y-95306833D01*
X89427000Y-95193173D01*
X89404826Y-95081698D01*
X89361331Y-94976691D01*
X89298185Y-94882187D01*
X89217816Y-94801818D01*
X89140268Y-94750002D01*
X89217816Y-94698185D01*
X89298185Y-94617816D01*
X89361331Y-94523312D01*
X89397579Y-94435801D01*
X89915683Y-94953905D01*
X89929843Y-94971159D01*
X89998669Y-95027643D01*
X90051041Y-95055636D01*
X90077192Y-95069614D01*
X90162394Y-95095460D01*
X90251002Y-95104187D01*
X90273207Y-95102000D01*
X115541610Y-95102000D01*
X115567450Y-95123206D01*
X115624257Y-95153570D01*
X115685897Y-95172268D01*
X115750000Y-95178582D01*
X116650000Y-95178582D01*
X116714103Y-95172268D01*
X116775743Y-95153570D01*
X116832550Y-95123206D01*
X116882343Y-95082343D01*
X116923206Y-95032550D01*
X116953570Y-94975743D01*
X116972268Y-94914103D01*
X116978582Y-94850000D01*
X116978582Y-94450000D01*
X116972268Y-94385897D01*
X116953570Y-94324257D01*
X116923206Y-94267450D01*
X116908886Y-94250000D01*
X116923206Y-94232550D01*
X116953570Y-94175743D01*
X116972268Y-94114103D01*
X116978582Y-94050000D01*
X116978582Y-93650000D01*
X117121418Y-93650000D01*
X117121418Y-94050000D01*
X117127732Y-94114103D01*
X117146430Y-94175743D01*
X117176794Y-94232550D01*
X117191114Y-94250000D01*
X117176794Y-94267450D01*
X117146430Y-94324257D01*
X117127732Y-94385897D01*
X117121418Y-94450000D01*
X117121418Y-94850000D01*
X117127732Y-94914103D01*
X117146430Y-94975743D01*
X117176794Y-95032550D01*
X117217657Y-95082343D01*
X117267450Y-95123206D01*
X117324257Y-95153570D01*
X117385897Y-95172268D01*
X117450000Y-95178582D01*
X118350000Y-95178582D01*
X118414103Y-95172268D01*
X118466999Y-95156222D01*
X119064681Y-95753905D01*
X119078841Y-95771159D01*
X119147667Y-95827643D01*
X119214632Y-95863436D01*
X119226190Y-95869614D01*
X119311392Y-95895460D01*
X119400000Y-95904187D01*
X119422205Y-95902000D01*
X123312777Y-95902000D01*
X123964681Y-96553905D01*
X123978841Y-96571159D01*
X124047667Y-96627643D01*
X124091811Y-96651238D01*
X124126190Y-96669614D01*
X124211392Y-96695460D01*
X124300000Y-96704187D01*
X124322205Y-96702000D01*
X124742756Y-96702000D01*
X124767657Y-96732343D01*
X124817450Y-96773206D01*
X124874257Y-96803570D01*
X124935897Y-96822268D01*
X125000000Y-96828582D01*
X125800000Y-96828582D01*
X125864103Y-96822268D01*
X125925743Y-96803570D01*
X125982550Y-96773206D01*
X126032343Y-96732343D01*
X126073206Y-96682550D01*
X126103570Y-96625743D01*
X126122268Y-96564103D01*
X126128582Y-96500000D01*
X126128582Y-96000000D01*
X126122268Y-95935897D01*
X126103570Y-95874257D01*
X126073206Y-95817450D01*
X126032343Y-95767657D01*
X126010827Y-95750000D01*
X126032343Y-95732343D01*
X126073206Y-95682550D01*
X126103570Y-95625743D01*
X126122268Y-95564103D01*
X126128582Y-95500000D01*
X126128582Y-95348582D01*
X126271418Y-95348582D01*
X126271418Y-95500000D01*
X126277732Y-95564103D01*
X126296430Y-95625743D01*
X126326794Y-95682550D01*
X126367657Y-95732343D01*
X126389173Y-95750000D01*
X126367657Y-95767657D01*
X126326794Y-95817450D01*
X126296430Y-95874257D01*
X126277732Y-95935897D01*
X126271418Y-96000000D01*
X126271418Y-96500000D01*
X126277732Y-96564103D01*
X126296430Y-96625743D01*
X126326794Y-96682550D01*
X126367657Y-96732343D01*
X126417450Y-96773206D01*
X126474257Y-96803570D01*
X126535897Y-96822268D01*
X126600000Y-96828582D01*
X127400000Y-96828582D01*
X127464103Y-96822268D01*
X127525743Y-96803570D01*
X127582550Y-96773206D01*
X127632343Y-96732343D01*
X127657244Y-96702000D01*
X131362777Y-96702000D01*
X132071361Y-97410585D01*
X132077630Y-97417606D01*
X132087030Y-97426254D01*
X132096089Y-97435313D01*
X132103385Y-97441301D01*
X132695676Y-97986210D01*
X132703842Y-97996160D01*
X132728383Y-98016300D01*
X132735312Y-98022675D01*
X132745519Y-98030363D01*
X132772668Y-98052644D01*
X132781037Y-98057118D01*
X132788608Y-98062820D01*
X132820219Y-98078060D01*
X132851191Y-98094615D01*
X132860267Y-98097368D01*
X132868810Y-98101487D01*
X132902806Y-98110272D01*
X132936394Y-98120461D01*
X132945830Y-98121390D01*
X132955015Y-98123764D01*
X132990069Y-98125748D01*
X133002796Y-98127001D01*
X133012222Y-98127001D01*
X133043909Y-98128794D01*
X133056649Y-98127001D01*
X139802793Y-98127001D01*
X139824998Y-98129188D01*
X139847203Y-98127001D01*
X139913605Y-98120461D01*
X139998808Y-98094615D01*
X140077331Y-98052644D01*
X140146157Y-97996160D01*
X140160321Y-97978901D01*
X141863563Y-96275660D01*
X141968305Y-96254825D01*
X142073312Y-96211330D01*
X142167816Y-96148184D01*
X142248185Y-96067815D01*
X142311331Y-95973311D01*
X142354826Y-95868304D01*
X142377000Y-95756829D01*
X142377000Y-95643169D01*
X142354826Y-95531694D01*
X142311331Y-95426687D01*
X142248185Y-95332183D01*
X142167816Y-95251814D01*
X142073312Y-95188668D01*
X141968305Y-95145173D01*
X141856830Y-95122999D01*
X141743170Y-95122999D01*
X141631695Y-95145173D01*
X141526688Y-95188668D01*
X141432184Y-95251814D01*
X141351815Y-95332183D01*
X141288669Y-95426687D01*
X141245174Y-95531694D01*
X141224339Y-95636436D01*
X139637775Y-97223001D01*
X133201292Y-97223001D01*
X132712962Y-96773738D01*
X131885323Y-95946100D01*
X131871159Y-95928841D01*
X131802333Y-95872357D01*
X131723810Y-95830386D01*
X131638607Y-95804540D01*
X131572205Y-95798000D01*
X131550000Y-95795813D01*
X131527795Y-95798000D01*
X131212818Y-95798000D01*
X131238607Y-95795460D01*
X131323810Y-95769614D01*
X131402333Y-95727643D01*
X131471159Y-95671159D01*
X131485323Y-95653900D01*
X131796053Y-95343170D01*
X132423000Y-95343170D01*
X132423000Y-95456830D01*
X132445174Y-95568305D01*
X132488669Y-95673312D01*
X132551815Y-95767816D01*
X132632184Y-95848185D01*
X132726688Y-95911331D01*
X132831695Y-95954826D01*
X132943170Y-95977000D01*
X133056830Y-95977000D01*
X133168305Y-95954826D01*
X133273312Y-95911331D01*
X133362106Y-95852000D01*
X133962777Y-95852000D01*
X134146089Y-96035313D01*
X134146094Y-96035317D01*
X134524339Y-96413563D01*
X134545174Y-96518305D01*
X134588669Y-96623312D01*
X134651815Y-96717816D01*
X134732184Y-96798185D01*
X134826688Y-96861331D01*
X134931695Y-96904826D01*
X135043170Y-96927000D01*
X135156830Y-96927000D01*
X135268305Y-96904826D01*
X135373312Y-96861331D01*
X135467816Y-96798185D01*
X135548185Y-96717816D01*
X135611331Y-96623312D01*
X135654826Y-96518305D01*
X135677000Y-96406830D01*
X135677000Y-96293170D01*
X135654826Y-96181695D01*
X135611331Y-96076688D01*
X135548185Y-95982184D01*
X135467816Y-95901815D01*
X135373312Y-95838669D01*
X135268305Y-95795174D01*
X135163563Y-95774339D01*
X134785317Y-95396094D01*
X134785313Y-95396089D01*
X134485323Y-95096100D01*
X134471159Y-95078841D01*
X134402333Y-95022357D01*
X134323810Y-94980386D01*
X134238607Y-94954540D01*
X134216189Y-94952332D01*
X134150000Y-94945813D01*
X134127795Y-94948000D01*
X133362106Y-94948000D01*
X133273312Y-94888669D01*
X133168305Y-94845174D01*
X133056830Y-94823000D01*
X132943170Y-94823000D01*
X132831695Y-94845174D01*
X132726688Y-94888669D01*
X132632184Y-94951815D01*
X132551815Y-95032184D01*
X132488669Y-95126688D01*
X132445174Y-95231695D01*
X132423000Y-95343170D01*
X131796053Y-95343170D01*
X132462225Y-94676999D01*
X139193329Y-94676999D01*
X139194114Y-94677643D01*
X139272637Y-94719614D01*
X139357840Y-94745460D01*
X139424242Y-94752000D01*
X139424244Y-94752000D01*
X139440254Y-94753577D01*
X139526688Y-94811331D01*
X139631695Y-94854826D01*
X139743170Y-94877000D01*
X139856830Y-94877000D01*
X139968305Y-94854826D01*
X140073312Y-94811331D01*
X140167816Y-94748185D01*
X140248185Y-94667816D01*
X140311331Y-94573312D01*
X140354826Y-94468305D01*
X140377000Y-94356830D01*
X140377000Y-94243170D01*
X140354826Y-94131695D01*
X140311331Y-94026688D01*
X140248185Y-93932184D01*
X140167816Y-93851815D01*
X140073312Y-93788669D01*
X139968305Y-93745174D01*
X139856830Y-93723000D01*
X139743170Y-93723000D01*
X139631695Y-93745174D01*
X139526688Y-93788669D01*
X139515280Y-93796292D01*
X139460053Y-93779539D01*
X139393651Y-93772999D01*
X139371446Y-93770812D01*
X139349241Y-93772999D01*
X132297206Y-93772999D01*
X132275001Y-93770812D01*
X132186393Y-93779539D01*
X132131839Y-93796088D01*
X132101191Y-93805385D01*
X132022668Y-93847356D01*
X131953842Y-93903840D01*
X131939682Y-93921094D01*
X130962777Y-94898000D01*
X127660527Y-94898000D01*
X127673206Y-94882550D01*
X127703570Y-94825743D01*
X127722268Y-94764103D01*
X127728582Y-94700000D01*
X127728582Y-94200000D01*
X127722268Y-94135897D01*
X127703570Y-94074257D01*
X127673206Y-94017450D01*
X127632343Y-93967657D01*
X127582550Y-93926794D01*
X127525743Y-93896430D01*
X127464103Y-93877732D01*
X127400000Y-93871418D01*
X126641362Y-93871418D01*
X126623206Y-93837450D01*
X126582343Y-93787657D01*
X126532550Y-93746794D01*
X126475743Y-93716430D01*
X126446908Y-93707683D01*
X126178582Y-93439358D01*
X126178582Y-92975000D01*
X126172268Y-92910897D01*
X126153570Y-92849257D01*
X126123206Y-92792450D01*
X126082343Y-92742657D01*
X126032550Y-92701794D01*
X125975743Y-92671430D01*
X125914103Y-92652732D01*
X125850000Y-92646418D01*
X125050000Y-92646418D01*
X124985897Y-92652732D01*
X124924257Y-92671430D01*
X124867450Y-92701794D01*
X124817657Y-92742657D01*
X124776794Y-92792450D01*
X124746430Y-92849257D01*
X124731644Y-92898000D01*
X124637224Y-92898000D01*
X124575661Y-92836436D01*
X124554826Y-92731695D01*
X124511331Y-92626688D01*
X124448185Y-92532184D01*
X124367816Y-92451815D01*
X124273312Y-92388669D01*
X124168305Y-92345174D01*
X124056830Y-92323000D01*
X123943170Y-92323000D01*
X123831695Y-92345174D01*
X123726688Y-92388669D01*
X123632184Y-92451815D01*
X123551815Y-92532184D01*
X123488669Y-92626688D01*
X123445174Y-92731695D01*
X123423000Y-92843170D01*
X123423000Y-92956830D01*
X123445174Y-93068305D01*
X123488669Y-93173312D01*
X123551815Y-93267816D01*
X123632184Y-93348185D01*
X123726688Y-93411331D01*
X123831695Y-93454826D01*
X123936436Y-93475661D01*
X124114685Y-93653910D01*
X124128841Y-93671159D01*
X124197667Y-93727643D01*
X124264950Y-93763606D01*
X124276190Y-93769614D01*
X124361392Y-93795460D01*
X124449999Y-93804187D01*
X124472204Y-93802000D01*
X124731644Y-93802000D01*
X124746430Y-93850743D01*
X124776794Y-93907550D01*
X124817657Y-93957343D01*
X124867450Y-93998206D01*
X124924257Y-94028570D01*
X124985897Y-94047268D01*
X125050000Y-94053582D01*
X125514358Y-94053582D01*
X125721418Y-94260643D01*
X125721418Y-94871418D01*
X125000000Y-94871418D01*
X124935897Y-94877732D01*
X124874257Y-94896430D01*
X124871320Y-94898000D01*
X124237224Y-94898000D01*
X124035313Y-94696090D01*
X124021149Y-94678831D01*
X123952323Y-94622347D01*
X123873800Y-94580376D01*
X123788597Y-94554530D01*
X123722195Y-94547990D01*
X123699990Y-94545803D01*
X123677785Y-94547990D01*
X119987215Y-94547990D01*
X118985323Y-93546100D01*
X118971159Y-93528841D01*
X118902333Y-93472357D01*
X118823810Y-93430386D01*
X118738607Y-93404540D01*
X118672205Y-93398000D01*
X118650000Y-93395813D01*
X118627795Y-93398000D01*
X118558390Y-93398000D01*
X118532550Y-93376794D01*
X118475743Y-93346430D01*
X118414103Y-93327732D01*
X118350000Y-93321418D01*
X117450000Y-93321418D01*
X117385897Y-93327732D01*
X117324257Y-93346430D01*
X117267450Y-93376794D01*
X117217657Y-93417657D01*
X117176794Y-93467450D01*
X117146430Y-93524257D01*
X117127732Y-93585897D01*
X117121418Y-93650000D01*
X116978582Y-93650000D01*
X116972268Y-93585897D01*
X116953570Y-93524257D01*
X116923206Y-93467450D01*
X116882343Y-93417657D01*
X116832550Y-93376794D01*
X116775743Y-93346430D01*
X116714103Y-93327732D01*
X116650000Y-93321418D01*
X115750000Y-93321418D01*
X115685897Y-93327732D01*
X115624257Y-93346430D01*
X115567450Y-93376794D01*
X115541610Y-93398000D01*
X113772205Y-93398000D01*
X113750000Y-93395813D01*
X113661392Y-93404540D01*
X113601639Y-93422666D01*
X113576190Y-93430386D01*
X113497667Y-93472357D01*
X113428841Y-93528841D01*
X113414681Y-93546095D01*
X113212777Y-93748000D01*
X90624636Y-93748000D01*
X89772725Y-92896090D01*
X89758561Y-92878831D01*
X89689735Y-92822347D01*
X89611212Y-92780376D01*
X89526009Y-92754530D01*
X89459607Y-92747990D01*
X89437402Y-92745803D01*
X89415197Y-92747990D01*
X78823624Y-92747990D01*
X78071720Y-91996087D01*
X78057560Y-91978833D01*
X77988734Y-91922349D01*
X77968121Y-91911331D01*
X77910210Y-91880377D01*
X77825008Y-91854531D01*
X77810463Y-91853098D01*
X77817816Y-91848185D01*
X77898185Y-91767816D01*
X77961331Y-91673312D01*
X78004826Y-91568305D01*
X78027000Y-91456830D01*
X78027000Y-91343170D01*
X78004826Y-91231695D01*
X77961331Y-91126688D01*
X77898185Y-91032184D01*
X77817816Y-90951815D01*
X77723312Y-90888669D01*
X77618305Y-90845174D01*
X77506830Y-90823000D01*
X77393170Y-90823000D01*
X77281695Y-90845174D01*
X77176688Y-90888669D01*
X77087894Y-90948000D01*
X74822202Y-90948000D01*
X74799999Y-90945813D01*
X74777796Y-90948000D01*
X74777795Y-90948000D01*
X74711393Y-90954540D01*
X74626190Y-90980386D01*
X74547667Y-91022357D01*
X74478841Y-91078841D01*
X74464685Y-91096090D01*
X73997286Y-91563491D01*
X73961331Y-91476688D01*
X73898185Y-91382184D01*
X73817816Y-91301815D01*
X73723312Y-91238669D01*
X73618305Y-91195174D01*
X73506830Y-91173000D01*
X73393170Y-91173000D01*
X73281695Y-91195174D01*
X73176688Y-91238669D01*
X73087894Y-91298000D01*
X72922205Y-91298000D01*
X72900000Y-91295813D01*
X72811392Y-91304540D01*
X72737352Y-91327000D01*
X72726190Y-91330386D01*
X72647667Y-91372357D01*
X72578841Y-91428841D01*
X72564681Y-91446095D01*
X72246095Y-91764681D01*
X72228842Y-91778841D01*
X72179793Y-91838607D01*
X72172358Y-91847667D01*
X72130386Y-91926191D01*
X72104540Y-92011393D01*
X72102685Y-92030223D01*
X72049257Y-92046430D01*
X71992450Y-92076794D01*
X71942657Y-92117657D01*
X71901794Y-92167450D01*
X71871430Y-92224257D01*
X71852732Y-92285897D01*
X71846418Y-92350000D01*
X69632236Y-92350000D01*
X70862793Y-91502000D01*
X73338962Y-90848564D01*
X77599907Y-89932465D01*
X78623839Y-90316450D01*
X78625212Y-90317280D01*
X78649228Y-90325972D01*
X78660600Y-90330236D01*
X78662165Y-90330653D01*
X78676519Y-90335848D01*
X78688446Y-90337661D01*
X78700112Y-90340772D01*
X78715365Y-90341754D01*
X78730464Y-90344049D01*
X78742514Y-90343501D01*
X78754563Y-90344276D01*
X78769712Y-90342263D01*
X78771312Y-90342190D01*
X78783205Y-90340470D01*
X78808652Y-90337088D01*
X78810177Y-90336568D01*
X81756412Y-89910403D01*
X112237914Y-87118764D01*
X112247776Y-87119101D01*
X112264991Y-87116284D01*
X112268782Y-87115937D01*
X112278470Y-87114079D01*
X112288131Y-87112498D01*
X112291781Y-87111526D01*
X112308942Y-87108234D01*
X112318101Y-87104514D01*
X123354238Y-84164343D01*
X123354250Y-84164338D01*
X129212813Y-82603541D01*
X131198185Y-82796655D01*
G37*
X131198185Y-82796655D02*
X131198192Y-82796655D01*
X132179476Y-82892103D01*
X133582356Y-84130349D01*
X134396569Y-84849011D01*
X134429732Y-84872936D01*
X134479360Y-84895614D01*
X134532459Y-84908173D01*
X134586988Y-84910133D01*
X134640852Y-84901417D01*
X134686687Y-84884333D01*
X146703671Y-84884326D01*
X146730668Y-84896381D01*
X146783873Y-84908480D01*
X146838416Y-84909967D01*
X146892202Y-84900784D01*
X146943163Y-84881285D01*
X146989341Y-84852217D01*
X147028961Y-84814701D01*
X147060500Y-84770175D01*
X147077172Y-84732836D01*
X147378507Y-83828913D01*
X149460034Y-83828919D01*
X149708304Y-83828919D01*
X149708305Y-92373000D01*
X147700000Y-92373000D01*
X147636205Y-92379283D01*
X147574863Y-92397891D01*
X147518329Y-92428109D01*
X147468776Y-92468776D01*
X147428109Y-92518329D01*
X147397891Y-92574863D01*
X147379283Y-92636205D01*
X147373000Y-92700000D01*
X147373000Y-93283939D01*
X147371418Y-93300000D01*
X147371418Y-94300000D01*
X147373000Y-94316061D01*
X147373000Y-94700000D01*
X147379283Y-94763795D01*
X147397891Y-94825137D01*
X147428109Y-94881671D01*
X147468776Y-94931224D01*
X147518329Y-94971891D01*
X147574863Y-95002109D01*
X147636205Y-95020717D01*
X147700000Y-95027000D01*
X154000000Y-95027000D01*
X154063795Y-95020717D01*
X154125137Y-95002109D01*
X154181671Y-94971891D01*
X154231224Y-94931224D01*
X154271891Y-94881671D01*
X154302109Y-94825137D01*
X154320717Y-94763795D01*
X154327000Y-94700000D01*
X154327000Y-94316061D01*
X154328582Y-94300000D01*
X154328582Y-93300000D01*
X154327000Y-93283939D01*
X154327000Y-92700000D01*
X154320717Y-92636205D01*
X154302109Y-92574863D01*
X154271891Y-92518329D01*
X154231224Y-92468776D01*
X154181671Y-92428109D01*
X154125137Y-92397891D01*
X154063795Y-92379283D01*
X154000000Y-92373000D01*
X152062304Y-92373000D01*
X152062304Y-83828918D01*
X152312684Y-83828918D01*
X166693769Y-83828911D01*
X166986837Y-84707974D01*
X166990191Y-84722247D01*
X167001051Y-84746106D01*
X167011798Y-84770173D01*
X167012379Y-84770994D01*
X167012796Y-84771909D01*
X167028128Y-84793227D01*
X167043338Y-84814698D01*
X167044070Y-84815391D01*
X167044656Y-84816206D01*
X167063859Y-84834129D01*
X167082959Y-84852214D01*
X167095374Y-84860029D01*
X169453499Y-86662976D01*
X169453506Y-100200286D01*
X167161374Y-101848322D01*
X152308467Y-101848329D01*
X152308457Y-101848328D01*
X152062305Y-101848328D01*
X152062305Y-98138934D01*
X152063645Y-98125328D01*
X152061151Y-98100000D01*
X152059041Y-98078582D01*
X154100000Y-98078582D01*
X154164103Y-98072268D01*
X154225743Y-98053570D01*
X154282550Y-98023206D01*
X154332343Y-97982343D01*
X154373206Y-97932550D01*
X154379663Y-97920469D01*
X154396430Y-97975743D01*
X154426794Y-98032550D01*
X154467657Y-98082343D01*
X154517450Y-98123206D01*
X154574257Y-98153570D01*
X154635897Y-98172268D01*
X154700000Y-98178582D01*
X154753553Y-98178582D01*
X154754540Y-98188607D01*
X154767656Y-98231844D01*
X154780386Y-98273809D01*
X154822357Y-98352332D01*
X154878841Y-98421159D01*
X154896100Y-98435323D01*
X157364697Y-100903921D01*
X157378852Y-100921169D01*
X157396099Y-100935323D01*
X157447676Y-100977652D01*
X157526200Y-101019624D01*
X157611402Y-101045470D01*
X157700009Y-101054197D01*
X157722215Y-101052010D01*
X161649188Y-101052008D01*
X161671403Y-101054196D01*
X161760010Y-101045469D01*
X161845212Y-101019623D01*
X161923736Y-100977651D01*
X161992562Y-100921167D01*
X162006722Y-100903913D01*
X164278916Y-98631720D01*
X164296170Y-98617560D01*
X164352654Y-98548734D01*
X164394625Y-98470211D01*
X164420471Y-98385008D01*
X164427011Y-98318606D01*
X164429198Y-98296401D01*
X164427011Y-98274196D01*
X164427011Y-94124395D01*
X164429198Y-94102190D01*
X164420471Y-94013583D01*
X164394625Y-93928381D01*
X164377217Y-93895813D01*
X164352654Y-93849858D01*
X164296170Y-93781032D01*
X164278922Y-93766877D01*
X163652000Y-93139957D01*
X163652000Y-91587223D01*
X163913563Y-91325661D01*
X164018305Y-91304826D01*
X164123312Y-91261331D01*
X164217816Y-91198185D01*
X164298185Y-91117816D01*
X164361331Y-91023312D01*
X164404826Y-90918305D01*
X164427000Y-90806830D01*
X164427000Y-90693170D01*
X164404826Y-90581695D01*
X164361331Y-90476688D01*
X164298185Y-90382184D01*
X164217816Y-90301815D01*
X164123312Y-90238669D01*
X164018305Y-90195174D01*
X163906830Y-90173000D01*
X163793170Y-90173000D01*
X163681695Y-90195174D01*
X163576688Y-90238669D01*
X163482184Y-90301815D01*
X163401815Y-90382184D01*
X163338669Y-90476688D01*
X163295174Y-90581695D01*
X163277000Y-90673061D01*
X163277000Y-90643172D01*
X163254826Y-90531697D01*
X163211640Y-90427436D01*
X163264103Y-90422268D01*
X163325743Y-90403570D01*
X163382550Y-90373206D01*
X163432343Y-90332343D01*
X163473206Y-90282550D01*
X163503570Y-90225743D01*
X163522268Y-90164103D01*
X163528582Y-90100000D01*
X163528582Y-88502000D01*
X163941610Y-88502000D01*
X163967450Y-88523206D01*
X164024257Y-88553570D01*
X164085897Y-88572268D01*
X164150000Y-88578582D01*
X165050000Y-88578582D01*
X165114103Y-88572268D01*
X165175743Y-88553570D01*
X165232550Y-88523206D01*
X165282343Y-88482343D01*
X165323206Y-88432550D01*
X165353570Y-88375743D01*
X165372268Y-88314103D01*
X165378582Y-88250000D01*
X165378582Y-87850000D01*
X165372268Y-87785897D01*
X165353570Y-87724257D01*
X165323206Y-87667450D01*
X165308886Y-87650000D01*
X165323206Y-87632550D01*
X165353570Y-87575743D01*
X165372268Y-87514103D01*
X165378582Y-87450000D01*
X165378582Y-87050000D01*
X165372268Y-86985897D01*
X165353570Y-86924257D01*
X165323206Y-86867450D01*
X165282343Y-86817657D01*
X165232550Y-86776794D01*
X165175743Y-86746430D01*
X165114103Y-86727732D01*
X165050000Y-86721418D01*
X164460642Y-86721418D01*
X164210322Y-86471099D01*
X164196158Y-86453840D01*
X164127332Y-86397356D01*
X164048809Y-86355385D01*
X163963606Y-86329539D01*
X163897204Y-86322999D01*
X163874999Y-86320812D01*
X163852794Y-86322999D01*
X161297203Y-86322999D01*
X161275000Y-86320812D01*
X161252798Y-86322999D01*
X161252796Y-86322999D01*
X161186394Y-86329539D01*
X161101191Y-86355385D01*
X161022668Y-86397356D01*
X160953842Y-86453840D01*
X160939681Y-86471096D01*
X160896099Y-86514678D01*
X160878841Y-86528841D01*
X160822357Y-86597668D01*
X160810278Y-86620267D01*
X160780386Y-86676191D01*
X160754540Y-86761393D01*
X160753553Y-86771418D01*
X160700000Y-86771418D01*
X160635897Y-86777732D01*
X160574257Y-86796430D01*
X160517450Y-86826794D01*
X160467657Y-86867657D01*
X160426794Y-86917450D01*
X160396430Y-86974257D01*
X160377732Y-87035897D01*
X160371418Y-87100000D01*
X160371418Y-90100000D01*
X160377732Y-90164103D01*
X160396430Y-90225743D01*
X160426794Y-90282550D01*
X160467657Y-90332343D01*
X160517450Y-90373206D01*
X160574257Y-90403570D01*
X160635897Y-90422268D01*
X160700000Y-90428582D01*
X161700000Y-90428582D01*
X161764103Y-90422268D01*
X161825743Y-90403570D01*
X161882550Y-90373206D01*
X161932343Y-90332343D01*
X161950000Y-90310827D01*
X161967657Y-90332343D01*
X162017450Y-90373206D01*
X162074257Y-90403570D01*
X162135897Y-90422268D01*
X162188360Y-90427436D01*
X162145174Y-90531697D01*
X162123000Y-90643172D01*
X162123000Y-90756832D01*
X162145174Y-90868307D01*
X162188669Y-90973314D01*
X162248000Y-91062109D01*
X162248001Y-93008777D01*
X161285323Y-92046100D01*
X161271159Y-92028841D01*
X161202333Y-91972357D01*
X161123810Y-91930386D01*
X161038607Y-91904540D01*
X160972205Y-91898000D01*
X160950000Y-91895813D01*
X160927795Y-91898000D01*
X158887225Y-91898000D01*
X157369438Y-90380215D01*
X157382550Y-90373206D01*
X157432343Y-90332343D01*
X157450000Y-90310827D01*
X157467657Y-90332343D01*
X157517450Y-90373206D01*
X157574257Y-90403570D01*
X157635897Y-90422268D01*
X157700000Y-90428582D01*
X158700000Y-90428582D01*
X158764103Y-90422268D01*
X158825743Y-90403570D01*
X158882550Y-90373206D01*
X158932343Y-90332343D01*
X158973206Y-90282550D01*
X159003570Y-90225743D01*
X159022268Y-90164103D01*
X159028582Y-90100000D01*
X159028582Y-87100000D01*
X159022268Y-87035897D01*
X159003570Y-86974257D01*
X158973206Y-86917450D01*
X158932343Y-86867657D01*
X158882550Y-86826794D01*
X158825743Y-86796430D01*
X158764103Y-86777732D01*
X158700000Y-86771418D01*
X157700000Y-86771418D01*
X157635897Y-86777732D01*
X157574257Y-86796430D01*
X157517450Y-86826794D01*
X157467657Y-86867657D01*
X157450000Y-86889173D01*
X157432343Y-86867657D01*
X157382550Y-86826794D01*
X157325743Y-86796430D01*
X157264103Y-86777732D01*
X157200000Y-86771418D01*
X156200000Y-86771418D01*
X156135897Y-86777732D01*
X156074257Y-86796430D01*
X156017450Y-86826794D01*
X155967657Y-86867657D01*
X155950000Y-86889173D01*
X155932343Y-86867657D01*
X155882550Y-86826794D01*
X155825743Y-86796430D01*
X155764103Y-86777732D01*
X155700000Y-86771418D01*
X154700000Y-86771418D01*
X154635897Y-86777732D01*
X154574257Y-86796430D01*
X154517450Y-86826794D01*
X154467657Y-86867657D01*
X154426794Y-86917450D01*
X154396430Y-86974257D01*
X154377732Y-87035897D01*
X154371418Y-87100000D01*
X154371418Y-90100000D01*
X154377732Y-90164103D01*
X154396430Y-90225743D01*
X154426794Y-90282550D01*
X154467657Y-90332343D01*
X154517450Y-90373206D01*
X154574257Y-90403570D01*
X154635897Y-90422268D01*
X154700000Y-90428582D01*
X154753553Y-90428582D01*
X154754540Y-90438607D01*
X154760102Y-90456943D01*
X154780386Y-90523809D01*
X154822357Y-90602332D01*
X154878841Y-90671159D01*
X154896100Y-90685323D01*
X155339685Y-91128910D01*
X155353841Y-91146159D01*
X155422667Y-91202643D01*
X155501190Y-91244614D01*
X155586393Y-91270460D01*
X155652795Y-91277000D01*
X155652796Y-91277000D01*
X155674999Y-91279187D01*
X155697202Y-91277000D01*
X156351367Y-91277000D01*
X158178281Y-93103915D01*
X158192441Y-93121169D01*
X158261267Y-93177653D01*
X158310391Y-93203910D01*
X158339790Y-93219624D01*
X158424992Y-93245470D01*
X158513600Y-93254197D01*
X158535805Y-93252010D01*
X160437787Y-93252010D01*
X160748000Y-93562224D01*
X160748000Y-94521418D01*
X160700000Y-94521418D01*
X160635897Y-94527732D01*
X160574257Y-94546430D01*
X160517450Y-94576794D01*
X160467657Y-94617657D01*
X160426794Y-94667450D01*
X160396430Y-94724257D01*
X160377732Y-94785897D01*
X160371418Y-94850000D01*
X160371418Y-97850000D01*
X160377732Y-97914103D01*
X160396430Y-97975743D01*
X160426794Y-98032550D01*
X160467657Y-98082343D01*
X160517450Y-98123206D01*
X160574257Y-98153570D01*
X160635897Y-98172268D01*
X160700000Y-98178582D01*
X161700000Y-98178582D01*
X161764103Y-98172268D01*
X161825743Y-98153570D01*
X161882550Y-98123206D01*
X161932343Y-98082343D01*
X161950000Y-98060827D01*
X161967657Y-98082343D01*
X162017450Y-98123206D01*
X162074257Y-98153570D01*
X162135897Y-98172268D01*
X162200000Y-98178582D01*
X162817195Y-98178582D01*
X161297779Y-99698000D01*
X158937224Y-99698000D01*
X157369438Y-98130215D01*
X157382550Y-98123206D01*
X157432343Y-98082343D01*
X157450000Y-98060827D01*
X157467657Y-98082343D01*
X157517450Y-98123206D01*
X157574257Y-98153570D01*
X157635897Y-98172268D01*
X157700000Y-98178582D01*
X158700000Y-98178582D01*
X158764103Y-98172268D01*
X158825743Y-98153570D01*
X158882550Y-98123206D01*
X158932343Y-98082343D01*
X158973206Y-98032550D01*
X159003570Y-97975743D01*
X159022268Y-97914103D01*
X159028582Y-97850000D01*
X159028582Y-94850000D01*
X159022268Y-94785897D01*
X159003570Y-94724257D01*
X158973206Y-94667450D01*
X158932343Y-94617657D01*
X158882550Y-94576794D01*
X158825743Y-94546430D01*
X158764103Y-94527732D01*
X158700000Y-94521418D01*
X157700000Y-94521418D01*
X157635897Y-94527732D01*
X157574257Y-94546430D01*
X157517450Y-94576794D01*
X157467657Y-94617657D01*
X157450000Y-94639173D01*
X157432343Y-94617657D01*
X157382550Y-94576794D01*
X157325743Y-94546430D01*
X157264103Y-94527732D01*
X157200000Y-94521418D01*
X156200000Y-94521418D01*
X156135897Y-94527732D01*
X156074257Y-94546430D01*
X156017450Y-94576794D01*
X155967657Y-94617657D01*
X155950000Y-94639173D01*
X155932343Y-94617657D01*
X155882550Y-94576794D01*
X155825743Y-94546430D01*
X155764103Y-94527732D01*
X155700000Y-94521418D01*
X154700000Y-94521418D01*
X154635897Y-94527732D01*
X154574257Y-94546430D01*
X154517450Y-94576794D01*
X154467657Y-94617657D01*
X154426794Y-94667450D01*
X154396430Y-94724257D01*
X154377732Y-94785897D01*
X154371418Y-94850000D01*
X154371418Y-96565271D01*
X154332343Y-96517657D01*
X154282550Y-96476794D01*
X154225743Y-96446430D01*
X154164103Y-96427732D01*
X154100000Y-96421418D01*
X151100000Y-96421418D01*
X151035897Y-96427732D01*
X150974257Y-96446430D01*
X150917450Y-96476794D01*
X150900000Y-96491114D01*
X150882550Y-96476794D01*
X150825743Y-96446430D01*
X150764103Y-96427732D01*
X150700000Y-96421418D01*
X147700000Y-96421418D01*
X147635897Y-96427732D01*
X147574257Y-96446430D01*
X147517450Y-96476794D01*
X147467657Y-96517657D01*
X147426794Y-96567450D01*
X147396430Y-96624257D01*
X147377732Y-96685897D01*
X147371418Y-96750000D01*
X147371418Y-97750000D01*
X147377732Y-97814103D01*
X147396430Y-97875743D01*
X147426794Y-97932550D01*
X147467657Y-97982343D01*
X147517450Y-98023206D01*
X147574257Y-98053570D01*
X147635897Y-98072268D01*
X147700000Y-98078582D01*
X149711569Y-98078582D01*
X149706965Y-98125328D01*
X149708305Y-98138934D01*
X149708306Y-101848328D01*
X140716327Y-101848330D01*
X133694041Y-99008640D01*
X130673245Y-97751262D01*
X130665376Y-97746698D01*
X130648096Y-97740794D01*
X130643884Y-97739041D01*
X130635258Y-97736408D01*
X130613742Y-97729057D01*
X130609174Y-97728446D01*
X130604773Y-97727103D01*
X130582193Y-97724840D01*
X130573211Y-97723639D01*
X130568626Y-97723480D01*
X130550481Y-97721661D01*
X130541441Y-97722536D01*
X82541643Y-96055668D01*
X82514896Y-96054668D01*
X82501034Y-96056891D01*
X82487020Y-96057781D01*
X82474162Y-96061199D01*
X82461020Y-96063306D01*
X82447850Y-96068193D01*
X82434286Y-96071799D01*
X82422345Y-96077658D01*
X82409864Y-96082290D01*
X82397900Y-96089653D01*
X82385302Y-96095835D01*
X82364127Y-96112016D01*
X81561755Y-96721811D01*
X79003488Y-96692274D01*
X71202635Y-95411145D01*
X69131156Y-94056434D01*
X68613404Y-93376521D01*
X69133246Y-92693864D01*
X69632236Y-92350000D01*
X71846418Y-92350000D01*
X71846418Y-93150000D01*
X71852732Y-93214103D01*
X71871430Y-93275743D01*
X71901794Y-93332550D01*
X71942657Y-93382343D01*
X71992450Y-93423206D01*
X72049257Y-93453570D01*
X72110897Y-93472268D01*
X72175000Y-93478582D01*
X72925000Y-93478582D01*
X72989103Y-93472268D01*
X73050743Y-93453570D01*
X73107550Y-93423206D01*
X73157343Y-93382343D01*
X73198206Y-93332550D01*
X73228570Y-93275743D01*
X73247268Y-93214103D01*
X73248460Y-93202000D01*
X73409473Y-93202000D01*
X73396794Y-93217450D01*
X73366430Y-93274257D01*
X73347732Y-93335897D01*
X73341418Y-93400000D01*
X73341418Y-93700000D01*
X73347732Y-93764103D01*
X73366430Y-93825743D01*
X73396794Y-93882550D01*
X73437657Y-93932343D01*
X73487450Y-93973206D01*
X73544257Y-94003570D01*
X73605897Y-94022268D01*
X73670000Y-94028582D01*
X74521418Y-94028582D01*
X74521418Y-94750000D01*
X74527732Y-94814103D01*
X74546430Y-94875743D01*
X74548000Y-94878681D01*
X74548000Y-94977794D01*
X74545813Y-95000000D01*
X74554540Y-95088607D01*
X74571699Y-95145173D01*
X74580386Y-95173809D01*
X74622357Y-95252332D01*
X74678841Y-95321159D01*
X74696099Y-95335322D01*
X74739681Y-95378904D01*
X74753842Y-95396160D01*
X74822668Y-95452644D01*
X74901191Y-95494615D01*
X74986394Y-95520461D01*
X75052796Y-95527001D01*
X75052798Y-95527001D01*
X75075000Y-95529188D01*
X75097203Y-95527001D01*
X76387796Y-95527001D01*
X76410001Y-95529188D01*
X76432206Y-95527001D01*
X76498608Y-95520461D01*
X76583811Y-95494615D01*
X76662334Y-95452644D01*
X76731160Y-95396160D01*
X76745324Y-95378901D01*
X76972226Y-95151999D01*
X84912786Y-95152010D01*
X85114681Y-95353905D01*
X85128841Y-95371159D01*
X85197667Y-95427643D01*
X85252273Y-95456830D01*
X85276190Y-95469614D01*
X85361392Y-95495460D01*
X85450000Y-95504187D01*
X85472205Y-95502000D01*
X85491610Y-95502000D01*
X85517450Y-95523206D01*
X85574257Y-95553570D01*
X85635897Y-95572268D01*
X85700000Y-95578582D01*
X86600000Y-95578582D01*
X86664103Y-95572268D01*
X86725743Y-95553570D01*
X86782550Y-95523206D01*
X86832343Y-95482343D01*
X86873206Y-95432550D01*
X86903570Y-95375743D01*
X86922268Y-95314103D01*
X86928582Y-95250000D01*
X86928582Y-94850000D01*
X86922268Y-94785897D01*
X86903570Y-94724257D01*
X86873206Y-94667450D01*
X86858886Y-94650000D01*
X86873206Y-94632550D01*
X86903570Y-94575743D01*
X86922268Y-94514103D01*
X86928582Y-94450000D01*
X86928582Y-94126999D01*
X87071418Y-94126999D01*
X87071418Y-94450000D01*
X87077732Y-94514103D01*
X87096430Y-94575743D01*
X87126794Y-94632550D01*
X87141114Y-94650000D01*
X87126794Y-94667450D01*
X87096430Y-94724257D01*
X87077732Y-94785897D01*
X87071418Y-94850000D01*
X87071418Y-95250000D01*
X87077732Y-95314103D01*
X87096430Y-95375743D01*
X87126794Y-95432550D01*
X87167657Y-95482343D01*
X87217450Y-95523206D01*
X87274257Y-95553570D01*
X87335897Y-95572268D01*
X87400000Y-95578582D01*
X88300000Y-95578582D01*
X88364103Y-95572268D01*
X88370152Y-95570433D01*
X88401815Y-95617819D01*
X88482184Y-95698188D01*
X88576688Y-95761334D01*
X88681695Y-95804829D01*
X88793170Y-95827003D01*
X88906830Y-95827003D01*
X89018305Y-95804829D01*
X89123312Y-95761334D01*
X89217816Y-95698188D01*
X89298185Y-95617819D01*
X89361331Y-95523315D01*
X89404826Y-95418308D01*
X89427000Y-95306833D01*
X89427000Y-95193173D01*
X89404826Y-95081698D01*
X89361331Y-94976691D01*
X89298185Y-94882187D01*
X89217816Y-94801818D01*
X89140268Y-94750002D01*
X89217816Y-94698185D01*
X89298185Y-94617816D01*
X89361331Y-94523312D01*
X89397579Y-94435801D01*
X89915683Y-94953905D01*
X89929843Y-94971159D01*
X89998669Y-95027643D01*
X90051041Y-95055636D01*
X90077192Y-95069614D01*
X90162394Y-95095460D01*
X90251002Y-95104187D01*
X90273207Y-95102000D01*
X115541610Y-95102000D01*
X115567450Y-95123206D01*
X115624257Y-95153570D01*
X115685897Y-95172268D01*
X115750000Y-95178582D01*
X116650000Y-95178582D01*
X116714103Y-95172268D01*
X116775743Y-95153570D01*
X116832550Y-95123206D01*
X116882343Y-95082343D01*
X116923206Y-95032550D01*
X116953570Y-94975743D01*
X116972268Y-94914103D01*
X116978582Y-94850000D01*
X116978582Y-94450000D01*
X116972268Y-94385897D01*
X116953570Y-94324257D01*
X116923206Y-94267450D01*
X116908886Y-94250000D01*
X116923206Y-94232550D01*
X116953570Y-94175743D01*
X116972268Y-94114103D01*
X116978582Y-94050000D01*
X116978582Y-93650000D01*
X117121418Y-93650000D01*
X117121418Y-94050000D01*
X117127732Y-94114103D01*
X117146430Y-94175743D01*
X117176794Y-94232550D01*
X117191114Y-94250000D01*
X117176794Y-94267450D01*
X117146430Y-94324257D01*
X117127732Y-94385897D01*
X117121418Y-94450000D01*
X117121418Y-94850000D01*
X117127732Y-94914103D01*
X117146430Y-94975743D01*
X117176794Y-95032550D01*
X117217657Y-95082343D01*
X117267450Y-95123206D01*
X117324257Y-95153570D01*
X117385897Y-95172268D01*
X117450000Y-95178582D01*
X118350000Y-95178582D01*
X118414103Y-95172268D01*
X118466999Y-95156222D01*
X119064681Y-95753905D01*
X119078841Y-95771159D01*
X119147667Y-95827643D01*
X119214632Y-95863436D01*
X119226190Y-95869614D01*
X119311392Y-95895460D01*
X119400000Y-95904187D01*
X119422205Y-95902000D01*
X123312777Y-95902000D01*
X123964681Y-96553905D01*
X123978841Y-96571159D01*
X124047667Y-96627643D01*
X124091811Y-96651238D01*
X124126190Y-96669614D01*
X124211392Y-96695460D01*
X124300000Y-96704187D01*
X124322205Y-96702000D01*
X124742756Y-96702000D01*
X124767657Y-96732343D01*
X124817450Y-96773206D01*
X124874257Y-96803570D01*
X124935897Y-96822268D01*
X125000000Y-96828582D01*
X125800000Y-96828582D01*
X125864103Y-96822268D01*
X125925743Y-96803570D01*
X125982550Y-96773206D01*
X126032343Y-96732343D01*
X126073206Y-96682550D01*
X126103570Y-96625743D01*
X126122268Y-96564103D01*
X126128582Y-96500000D01*
X126128582Y-96000000D01*
X126122268Y-95935897D01*
X126103570Y-95874257D01*
X126073206Y-95817450D01*
X126032343Y-95767657D01*
X126010827Y-95750000D01*
X126032343Y-95732343D01*
X126073206Y-95682550D01*
X126103570Y-95625743D01*
X126122268Y-95564103D01*
X126128582Y-95500000D01*
X126128582Y-95348582D01*
X126271418Y-95348582D01*
X126271418Y-95500000D01*
X126277732Y-95564103D01*
X126296430Y-95625743D01*
X126326794Y-95682550D01*
X126367657Y-95732343D01*
X126389173Y-95750000D01*
X126367657Y-95767657D01*
X126326794Y-95817450D01*
X126296430Y-95874257D01*
X126277732Y-95935897D01*
X126271418Y-96000000D01*
X126271418Y-96500000D01*
X126277732Y-96564103D01*
X126296430Y-96625743D01*
X126326794Y-96682550D01*
X126367657Y-96732343D01*
X126417450Y-96773206D01*
X126474257Y-96803570D01*
X126535897Y-96822268D01*
X126600000Y-96828582D01*
X127400000Y-96828582D01*
X127464103Y-96822268D01*
X127525743Y-96803570D01*
X127582550Y-96773206D01*
X127632343Y-96732343D01*
X127657244Y-96702000D01*
X131362777Y-96702000D01*
X132071361Y-97410585D01*
X132077630Y-97417606D01*
X132087030Y-97426254D01*
X132096089Y-97435313D01*
X132103385Y-97441301D01*
X132695676Y-97986210D01*
X132703842Y-97996160D01*
X132728383Y-98016300D01*
X132735312Y-98022675D01*
X132745519Y-98030363D01*
X132772668Y-98052644D01*
X132781037Y-98057118D01*
X132788608Y-98062820D01*
X132820219Y-98078060D01*
X132851191Y-98094615D01*
X132860267Y-98097368D01*
X132868810Y-98101487D01*
X132902806Y-98110272D01*
X132936394Y-98120461D01*
X132945830Y-98121390D01*
X132955015Y-98123764D01*
X132990069Y-98125748D01*
X133002796Y-98127001D01*
X133012222Y-98127001D01*
X133043909Y-98128794D01*
X133056649Y-98127001D01*
X139802793Y-98127001D01*
X139824998Y-98129188D01*
X139847203Y-98127001D01*
X139913605Y-98120461D01*
X139998808Y-98094615D01*
X140077331Y-98052644D01*
X140146157Y-97996160D01*
X140160321Y-97978901D01*
X141863563Y-96275660D01*
X141968305Y-96254825D01*
X142073312Y-96211330D01*
X142167816Y-96148184D01*
X142248185Y-96067815D01*
X142311331Y-95973311D01*
X142354826Y-95868304D01*
X142377000Y-95756829D01*
X142377000Y-95643169D01*
X142354826Y-95531694D01*
X142311331Y-95426687D01*
X142248185Y-95332183D01*
X142167816Y-95251814D01*
X142073312Y-95188668D01*
X141968305Y-95145173D01*
X141856830Y-95122999D01*
X141743170Y-95122999D01*
X141631695Y-95145173D01*
X141526688Y-95188668D01*
X141432184Y-95251814D01*
X141351815Y-95332183D01*
X141288669Y-95426687D01*
X141245174Y-95531694D01*
X141224339Y-95636436D01*
X139637775Y-97223001D01*
X133201292Y-97223001D01*
X132712962Y-96773738D01*
X131885323Y-95946100D01*
X131871159Y-95928841D01*
X131802333Y-95872357D01*
X131723810Y-95830386D01*
X131638607Y-95804540D01*
X131572205Y-95798000D01*
X131550000Y-95795813D01*
X131527795Y-95798000D01*
X131212818Y-95798000D01*
X131238607Y-95795460D01*
X131323810Y-95769614D01*
X131402333Y-95727643D01*
X131471159Y-95671159D01*
X131485323Y-95653900D01*
X131796053Y-95343170D01*
X132423000Y-95343170D01*
X132423000Y-95456830D01*
X132445174Y-95568305D01*
X132488669Y-95673312D01*
X132551815Y-95767816D01*
X132632184Y-95848185D01*
X132726688Y-95911331D01*
X132831695Y-95954826D01*
X132943170Y-95977000D01*
X133056830Y-95977000D01*
X133168305Y-95954826D01*
X133273312Y-95911331D01*
X133362106Y-95852000D01*
X133962777Y-95852000D01*
X134146089Y-96035313D01*
X134146094Y-96035317D01*
X134524339Y-96413563D01*
X134545174Y-96518305D01*
X134588669Y-96623312D01*
X134651815Y-96717816D01*
X134732184Y-96798185D01*
X134826688Y-96861331D01*
X134931695Y-96904826D01*
X135043170Y-96927000D01*
X135156830Y-96927000D01*
X135268305Y-96904826D01*
X135373312Y-96861331D01*
X135467816Y-96798185D01*
X135548185Y-96717816D01*
X135611331Y-96623312D01*
X135654826Y-96518305D01*
X135677000Y-96406830D01*
X135677000Y-96293170D01*
X135654826Y-96181695D01*
X135611331Y-96076688D01*
X135548185Y-95982184D01*
X135467816Y-95901815D01*
X135373312Y-95838669D01*
X135268305Y-95795174D01*
X135163563Y-95774339D01*
X134785317Y-95396094D01*
X134785313Y-95396089D01*
X134485323Y-95096100D01*
X134471159Y-95078841D01*
X134402333Y-95022357D01*
X134323810Y-94980386D01*
X134238607Y-94954540D01*
X134216189Y-94952332D01*
X134150000Y-94945813D01*
X134127795Y-94948000D01*
X133362106Y-94948000D01*
X133273312Y-94888669D01*
X133168305Y-94845174D01*
X133056830Y-94823000D01*
X132943170Y-94823000D01*
X132831695Y-94845174D01*
X132726688Y-94888669D01*
X132632184Y-94951815D01*
X132551815Y-95032184D01*
X132488669Y-95126688D01*
X132445174Y-95231695D01*
X132423000Y-95343170D01*
X131796053Y-95343170D01*
X132462225Y-94676999D01*
X139193329Y-94676999D01*
X139194114Y-94677643D01*
X139272637Y-94719614D01*
X139357840Y-94745460D01*
X139424242Y-94752000D01*
X139424244Y-94752000D01*
X139440254Y-94753577D01*
X139526688Y-94811331D01*
X139631695Y-94854826D01*
X139743170Y-94877000D01*
X139856830Y-94877000D01*
X139968305Y-94854826D01*
X140073312Y-94811331D01*
X140167816Y-94748185D01*
X140248185Y-94667816D01*
X140311331Y-94573312D01*
X140354826Y-94468305D01*
X140377000Y-94356830D01*
X140377000Y-94243170D01*
X140354826Y-94131695D01*
X140311331Y-94026688D01*
X140248185Y-93932184D01*
X140167816Y-93851815D01*
X140073312Y-93788669D01*
X139968305Y-93745174D01*
X139856830Y-93723000D01*
X139743170Y-93723000D01*
X139631695Y-93745174D01*
X139526688Y-93788669D01*
X139515280Y-93796292D01*
X139460053Y-93779539D01*
X139393651Y-93772999D01*
X139371446Y-93770812D01*
X139349241Y-93772999D01*
X132297206Y-93772999D01*
X132275001Y-93770812D01*
X132186393Y-93779539D01*
X132131839Y-93796088D01*
X132101191Y-93805385D01*
X132022668Y-93847356D01*
X131953842Y-93903840D01*
X131939682Y-93921094D01*
X130962777Y-94898000D01*
X127660527Y-94898000D01*
X127673206Y-94882550D01*
X127703570Y-94825743D01*
X127722268Y-94764103D01*
X127728582Y-94700000D01*
X127728582Y-94200000D01*
X127722268Y-94135897D01*
X127703570Y-94074257D01*
X127673206Y-94017450D01*
X127632343Y-93967657D01*
X127582550Y-93926794D01*
X127525743Y-93896430D01*
X127464103Y-93877732D01*
X127400000Y-93871418D01*
X126641362Y-93871418D01*
X126623206Y-93837450D01*
X126582343Y-93787657D01*
X126532550Y-93746794D01*
X126475743Y-93716430D01*
X126446908Y-93707683D01*
X126178582Y-93439358D01*
X126178582Y-92975000D01*
X126172268Y-92910897D01*
X126153570Y-92849257D01*
X126123206Y-92792450D01*
X126082343Y-92742657D01*
X126032550Y-92701794D01*
X125975743Y-92671430D01*
X125914103Y-92652732D01*
X125850000Y-92646418D01*
X125050000Y-92646418D01*
X124985897Y-92652732D01*
X124924257Y-92671430D01*
X124867450Y-92701794D01*
X124817657Y-92742657D01*
X124776794Y-92792450D01*
X124746430Y-92849257D01*
X124731644Y-92898000D01*
X124637224Y-92898000D01*
X124575661Y-92836436D01*
X124554826Y-92731695D01*
X124511331Y-92626688D01*
X124448185Y-92532184D01*
X124367816Y-92451815D01*
X124273312Y-92388669D01*
X124168305Y-92345174D01*
X124056830Y-92323000D01*
X123943170Y-92323000D01*
X123831695Y-92345174D01*
X123726688Y-92388669D01*
X123632184Y-92451815D01*
X123551815Y-92532184D01*
X123488669Y-92626688D01*
X123445174Y-92731695D01*
X123423000Y-92843170D01*
X123423000Y-92956830D01*
X123445174Y-93068305D01*
X123488669Y-93173312D01*
X123551815Y-93267816D01*
X123632184Y-93348185D01*
X123726688Y-93411331D01*
X123831695Y-93454826D01*
X123936436Y-93475661D01*
X124114685Y-93653910D01*
X124128841Y-93671159D01*
X124197667Y-93727643D01*
X124264950Y-93763606D01*
X124276190Y-93769614D01*
X124361392Y-93795460D01*
X124449999Y-93804187D01*
X124472204Y-93802000D01*
X124731644Y-93802000D01*
X124746430Y-93850743D01*
X124776794Y-93907550D01*
X124817657Y-93957343D01*
X124867450Y-93998206D01*
X124924257Y-94028570D01*
X124985897Y-94047268D01*
X125050000Y-94053582D01*
X125514358Y-94053582D01*
X125721418Y-94260643D01*
X125721418Y-94871418D01*
X125000000Y-94871418D01*
X124935897Y-94877732D01*
X124874257Y-94896430D01*
X124871320Y-94898000D01*
X124237224Y-94898000D01*
X124035313Y-94696090D01*
X124021149Y-94678831D01*
X123952323Y-94622347D01*
X123873800Y-94580376D01*
X123788597Y-94554530D01*
X123722195Y-94547990D01*
X123699990Y-94545803D01*
X123677785Y-94547990D01*
X119987215Y-94547990D01*
X118985323Y-93546100D01*
X118971159Y-93528841D01*
X118902333Y-93472357D01*
X118823810Y-93430386D01*
X118738607Y-93404540D01*
X118672205Y-93398000D01*
X118650000Y-93395813D01*
X118627795Y-93398000D01*
X118558390Y-93398000D01*
X118532550Y-93376794D01*
X118475743Y-93346430D01*
X118414103Y-93327732D01*
X118350000Y-93321418D01*
X117450000Y-93321418D01*
X117385897Y-93327732D01*
X117324257Y-93346430D01*
X117267450Y-93376794D01*
X117217657Y-93417657D01*
X117176794Y-93467450D01*
X117146430Y-93524257D01*
X117127732Y-93585897D01*
X117121418Y-93650000D01*
X116978582Y-93650000D01*
X116972268Y-93585897D01*
X116953570Y-93524257D01*
X116923206Y-93467450D01*
X116882343Y-93417657D01*
X116832550Y-93376794D01*
X116775743Y-93346430D01*
X116714103Y-93327732D01*
X116650000Y-93321418D01*
X115750000Y-93321418D01*
X115685897Y-93327732D01*
X115624257Y-93346430D01*
X115567450Y-93376794D01*
X115541610Y-93398000D01*
X113772205Y-93398000D01*
X113750000Y-93395813D01*
X113661392Y-93404540D01*
X113601639Y-93422666D01*
X113576190Y-93430386D01*
X113497667Y-93472357D01*
X113428841Y-93528841D01*
X113414681Y-93546095D01*
X113212777Y-93748000D01*
X90624636Y-93748000D01*
X89772725Y-92896090D01*
X89758561Y-92878831D01*
X89689735Y-92822347D01*
X89611212Y-92780376D01*
X89526009Y-92754530D01*
X89459607Y-92747990D01*
X89437402Y-92745803D01*
X89415197Y-92747990D01*
X78823624Y-92747990D01*
X78071720Y-91996087D01*
X78057560Y-91978833D01*
X77988734Y-91922349D01*
X77968121Y-91911331D01*
X77910210Y-91880377D01*
X77825008Y-91854531D01*
X77810463Y-91853098D01*
X77817816Y-91848185D01*
X77898185Y-91767816D01*
X77961331Y-91673312D01*
X78004826Y-91568305D01*
X78027000Y-91456830D01*
X78027000Y-91343170D01*
X78004826Y-91231695D01*
X77961331Y-91126688D01*
X77898185Y-91032184D01*
X77817816Y-90951815D01*
X77723312Y-90888669D01*
X77618305Y-90845174D01*
X77506830Y-90823000D01*
X77393170Y-90823000D01*
X77281695Y-90845174D01*
X77176688Y-90888669D01*
X77087894Y-90948000D01*
X74822202Y-90948000D01*
X74799999Y-90945813D01*
X74777796Y-90948000D01*
X74777795Y-90948000D01*
X74711393Y-90954540D01*
X74626190Y-90980386D01*
X74547667Y-91022357D01*
X74478841Y-91078841D01*
X74464685Y-91096090D01*
X73997286Y-91563491D01*
X73961331Y-91476688D01*
X73898185Y-91382184D01*
X73817816Y-91301815D01*
X73723312Y-91238669D01*
X73618305Y-91195174D01*
X73506830Y-91173000D01*
X73393170Y-91173000D01*
X73281695Y-91195174D01*
X73176688Y-91238669D01*
X73087894Y-91298000D01*
X72922205Y-91298000D01*
X72900000Y-91295813D01*
X72811392Y-91304540D01*
X72737352Y-91327000D01*
X72726190Y-91330386D01*
X72647667Y-91372357D01*
X72578841Y-91428841D01*
X72564681Y-91446095D01*
X72246095Y-91764681D01*
X72228842Y-91778841D01*
X72179793Y-91838607D01*
X72172358Y-91847667D01*
X72130386Y-91926191D01*
X72104540Y-92011393D01*
X72102685Y-92030223D01*
X72049257Y-92046430D01*
X71992450Y-92076794D01*
X71942657Y-92117657D01*
X71901794Y-92167450D01*
X71871430Y-92224257D01*
X71852732Y-92285897D01*
X71846418Y-92350000D01*
X69632236Y-92350000D01*
X70862793Y-91502000D01*
X73338962Y-90848564D01*
X77599907Y-89932465D01*
X78623839Y-90316450D01*
X78625212Y-90317280D01*
X78649228Y-90325972D01*
X78660600Y-90330236D01*
X78662165Y-90330653D01*
X78676519Y-90335848D01*
X78688446Y-90337661D01*
X78700112Y-90340772D01*
X78715365Y-90341754D01*
X78730464Y-90344049D01*
X78742514Y-90343501D01*
X78754563Y-90344276D01*
X78769712Y-90342263D01*
X78771312Y-90342190D01*
X78783205Y-90340470D01*
X78808652Y-90337088D01*
X78810177Y-90336568D01*
X81756412Y-89910403D01*
X112237914Y-87118764D01*
X112247776Y-87119101D01*
X112264991Y-87116284D01*
X112268782Y-87115937D01*
X112278470Y-87114079D01*
X112288131Y-87112498D01*
X112291781Y-87111526D01*
X112308942Y-87108234D01*
X112318101Y-87104514D01*
X123354238Y-84164343D01*
X123354250Y-84164338D01*
X129212813Y-82603541D01*
X131198185Y-82796655D01*
G36*
X77734777Y-93798000D02*
G01*
X76439535Y-93798000D01*
X76423206Y-93767450D01*
X76382343Y-93717657D01*
X76332550Y-93676794D01*
X76275743Y-93646430D01*
X76214103Y-93627732D01*
X76150000Y-93621418D01*
X75650000Y-93621418D01*
X75585897Y-93627732D01*
X75524257Y-93646430D01*
X75467450Y-93676794D01*
X75417657Y-93717657D01*
X75400000Y-93739173D01*
X75382343Y-93717657D01*
X75332550Y-93676794D01*
X75275743Y-93646430D01*
X75214103Y-93627732D01*
X75150000Y-93621418D01*
X74998582Y-93621418D01*
X74998582Y-93478582D01*
X75150000Y-93478582D01*
X75214103Y-93472268D01*
X75275743Y-93453570D01*
X75332550Y-93423206D01*
X75382343Y-93382343D01*
X75400000Y-93360827D01*
X75417657Y-93382343D01*
X75467450Y-93423206D01*
X75524257Y-93453570D01*
X75585897Y-93472268D01*
X75650000Y-93478582D01*
X76150000Y-93478582D01*
X76214103Y-93472268D01*
X76275743Y-93453570D01*
X76332550Y-93423206D01*
X76382343Y-93382343D01*
X76423206Y-93332550D01*
X76453570Y-93275743D01*
X76472268Y-93214103D01*
X76473460Y-93202000D01*
X77138779Y-93202000D01*
X77734777Y-93798000D01*
G37*
X77734777Y-93798000D02*
X76439535Y-93798000D01*
X76423206Y-93767450D01*
X76382343Y-93717657D01*
X76332550Y-93676794D01*
X76275743Y-93646430D01*
X76214103Y-93627732D01*
X76150000Y-93621418D01*
X75650000Y-93621418D01*
X75585897Y-93627732D01*
X75524257Y-93646430D01*
X75467450Y-93676794D01*
X75417657Y-93717657D01*
X75400000Y-93739173D01*
X75382343Y-93717657D01*
X75332550Y-93676794D01*
X75275743Y-93646430D01*
X75214103Y-93627732D01*
X75150000Y-93621418D01*
X74998582Y-93621418D01*
X74998582Y-93478582D01*
X75150000Y-93478582D01*
X75214103Y-93472268D01*
X75275743Y-93453570D01*
X75332550Y-93423206D01*
X75382343Y-93382343D01*
X75400000Y-93360827D01*
X75417657Y-93382343D01*
X75467450Y-93423206D01*
X75524257Y-93453570D01*
X75585897Y-93472268D01*
X75650000Y-93478582D01*
X76150000Y-93478582D01*
X76214103Y-93472268D01*
X76275743Y-93453570D01*
X76332550Y-93423206D01*
X76382343Y-93382343D01*
X76423206Y-93332550D01*
X76453570Y-93275743D01*
X76472268Y-93214103D01*
X76473460Y-93202000D01*
X77138779Y-93202000D01*
X77734777Y-93798000D01*
M02*
