M48
; DRILL file {KiCad (5.1.5)-3} date 2/28/2021 11:24:34 PM
; FORMAT={-:-/ absolute / inch / decimal}
; #@! TF.CreationDate,2021-02-28T23:24:34-05:00
; #@! TF.GenerationSoftware,Kicad,Pcbnew,(5.1.5)-3
; #@! TF.FileFunction,Plated,1,2,PTH
FMAT,2
INCH
T1C0.0098
T2C0.0157
%
G90
G05
T1
X2.748Y-3.6831
X2.8917Y-3.6122
X2.9173Y-3.5906
X3.0354Y-3.5728
X3.0374Y-3.7539
X3.0413Y-3.6821
X3.0492Y-3.5984
X3.498Y-3.7106
X3.498Y-3.75
X3.5236Y-3.7303
X4.8465Y-3.6398
X4.8819Y-3.6575
X5.0551Y-3.6181
X5.0551Y-3.6791
X5.2362Y-3.7559
X5.248Y-3.6831
X5.2953Y-3.8228
X5.3031Y-3.6122
X5.3091Y-3.7343
X5.3189Y-3.7933
X5.5039Y-3.7126
X5.5551Y-3.7579
X5.5827Y-3.7677
X5.6181Y-3.8543
X5.6496Y-3.9941
X5.7323Y-3.6969
X5.7933Y-3.8543
X6.0591Y-3.4902
X6.0591Y-3.5709
X6.2874Y-3.3898
X6.2874Y-3.5728
X6.2874Y-3.9016
X6.4055Y-3.5709
X6.4508Y-3.5728
X6.4587Y-3.6083
T2
X6.2283Y-3.4508
X6.2283Y-3.5236
X6.2283Y-3.7559
X6.2283Y-3.8307
X5.8346Y-3.6929
X5.8858Y-3.9606
X5.9961Y-3.9606
X6.0433Y-3.6929
X6.0472Y-3.8287
X5.8346Y-3.8287
T0
M30
