%FSLAX45Y45*%
G04 Gerber Fmt 4.5, Leading zero omitted, Abs format (unit mm)*
G04 Created by KiCad (PCBNEW (5.1.5)-3) date 2021-01-14 21:19:34*
%MOMM*%
%LPD*%
G04 APERTURE LIST*
%TA.AperFunction,Profile*%
%ADD10C,0.050000*%
%TD*%
%ADD11C,0.200000*%
%ADD12C,0.300000*%
G04 APERTURE END LIST*
D10*
X14489968Y-9613626D02*
X14139347Y-9741237D01*
X14489968Y-8864374D02*
X14551528Y-8695228D01*
X15682032Y-9613626D02*
X15620470Y-9782772D01*
X15176000Y-10306845D02*
X15176000Y-9339000D01*
X14139346Y-8736766D02*
X14489968Y-8864374D01*
X15176000Y-9339000D02*
X14996000Y-9339000D01*
X14551529Y-9782772D02*
X14489968Y-9613626D01*
X15932380Y-9896293D02*
G75*
G02X15176000Y-10306845I-846380J657293D01*
G01*
X14996000Y-9339000D02*
X14996000Y-10306845D01*
X14239620Y-9896293D02*
X14551529Y-9782772D01*
X14551528Y-8695228D02*
X14239618Y-8581709D01*
X14139347Y-9741237D02*
G75*
G02X14139346Y-8736766I946653J502237D01*
G01*
X14996000Y-10306845D02*
G75*
G02X14239620Y-9896293I90000J1067845D01*
G01*
X16032653Y-9741237D02*
X15682032Y-9613626D01*
X15620470Y-9782772D02*
X15932380Y-9896293D01*
X16032654Y-8736766D02*
G75*
G02X16032653Y-9741237I-946654J-502234D01*
G01*
X15682032Y-8864374D02*
X16032654Y-8736766D01*
X15620472Y-8695229D02*
X15682032Y-8864374D01*
X15932382Y-8581710D02*
X15620472Y-8695229D01*
X14239618Y-8581709D02*
G75*
G02X15932382Y-8581710I846382J-657291D01*
G01*
D11*
D12*
X14036428Y-11015714D02*
X14036428Y-10715714D01*
X14107857Y-10715714D01*
X14150714Y-10730000D01*
X14179286Y-10758571D01*
X14193571Y-10787143D01*
X14207857Y-10844286D01*
X14207857Y-10887143D01*
X14193571Y-10944286D01*
X14179286Y-10972857D01*
X14150714Y-11001429D01*
X14107857Y-11015714D01*
X14036428Y-11015714D01*
X14336428Y-11015714D02*
X14336428Y-10815714D01*
X14336428Y-10872857D02*
X14350714Y-10844286D01*
X14365000Y-10830000D01*
X14393571Y-10815714D01*
X14422143Y-10815714D01*
X14522143Y-11015714D02*
X14522143Y-10815714D01*
X14522143Y-10715714D02*
X14507857Y-10730000D01*
X14522143Y-10744286D01*
X14536428Y-10730000D01*
X14522143Y-10715714D01*
X14522143Y-10744286D01*
X14707857Y-11015714D02*
X14679286Y-11001429D01*
X14665000Y-10972857D01*
X14665000Y-10715714D01*
X14865000Y-11015714D02*
X14836428Y-11001429D01*
X14822143Y-10972857D01*
X14822143Y-10715714D01*
X15207857Y-11015714D02*
X15207857Y-10715714D01*
X15307857Y-10930000D01*
X15407857Y-10715714D01*
X15407857Y-11015714D01*
X15679286Y-11015714D02*
X15679286Y-10858571D01*
X15665000Y-10830000D01*
X15636428Y-10815714D01*
X15579286Y-10815714D01*
X15550714Y-10830000D01*
X15679286Y-11001429D02*
X15650714Y-11015714D01*
X15579286Y-11015714D01*
X15550714Y-11001429D01*
X15536428Y-10972857D01*
X15536428Y-10944286D01*
X15550714Y-10915714D01*
X15579286Y-10901429D01*
X15650714Y-10901429D01*
X15679286Y-10887143D01*
X15822143Y-10815714D02*
X15822143Y-11115714D01*
X15822143Y-10830000D02*
X15850714Y-10815714D01*
X15907857Y-10815714D01*
X15936428Y-10830000D01*
X15950714Y-10844286D01*
X15965000Y-10872857D01*
X15965000Y-10958571D01*
X15950714Y-10987143D01*
X15936428Y-11001429D01*
X15907857Y-11015714D01*
X15850714Y-11015714D01*
X15822143Y-11001429D01*
X16093571Y-10987143D02*
X16107857Y-11001429D01*
X16093571Y-11015714D01*
X16079286Y-11001429D01*
X16093571Y-10987143D01*
X16093571Y-11015714D01*
X16093571Y-10830000D02*
X16107857Y-10844286D01*
X16093571Y-10858571D01*
X16079286Y-10844286D01*
X16093571Y-10830000D01*
X16093571Y-10858571D01*
M02*
