G04 #@! TF.GenerationSoftware,KiCad,Pcbnew,(5.1.5)-3*
G04 #@! TF.CreationDate,2021-01-22T21:18:58-05:00*
G04 #@! TF.ProjectId,Connector,436f6e6e-6563-4746-9f72-2e6b69636164,rev?*
G04 #@! TF.SameCoordinates,Original*
G04 #@! TF.FileFunction,Profile,NP*
%FSLAX46Y46*%
G04 Gerber Fmt 4.6, Leading zero omitted, Abs format (unit mm)*
G04 Created by KiCad (PCBNEW (5.1.5)-3) date 2021-01-22 21:18:58*
%MOMM*%
%LPD*%
G04 APERTURE LIST*
%ADD10C,0.050000*%
G04 APERTURE END LIST*
D10*
X144899681Y-96136261D02*
X141393472Y-97412365D01*
X144899678Y-88643742D02*
X145515281Y-86952284D01*
X156820317Y-96136262D02*
X156204703Y-97827717D01*
X151760000Y-103068450D02*
X151760000Y-93390000D01*
X141393458Y-87367660D02*
X144899678Y-88643742D01*
X151760000Y-93390000D02*
X149960000Y-93390000D01*
X145515295Y-97827715D02*
X144899681Y-96136261D01*
X159323800Y-98962929D02*
G75*
G02X151760000Y-103068450I-8463800J6572929D01*
G01*
X149960000Y-93390000D02*
X149960000Y-103068450D01*
X142396199Y-98962928D02*
X145515295Y-97827715D01*
X145515281Y-86952284D02*
X142396182Y-85817094D01*
X141393471Y-97412365D02*
G75*
G02X141393458Y-87367660I9466529J5022365D01*
G01*
X149960000Y-103068450D02*
G75*
G02X142396199Y-98962928I900000J10678450D01*
G01*
X160326527Y-97412366D02*
X156820317Y-96136262D01*
X156204703Y-97827717D02*
X159323800Y-98962929D01*
X160326543Y-87367664D02*
G75*
G02X160326527Y-97412366I-9466543J-5022336D01*
G01*
X156820323Y-88643744D02*
X160326543Y-87367663D01*
X156204720Y-86952285D02*
X156820323Y-88643744D01*
X159323820Y-85817096D02*
X156204720Y-86952285D01*
X142396181Y-85817094D02*
G75*
G02X159323820Y-85817096I8463819J-6572906D01*
G01*
X141666666Y-103000000D02*
G75*
G03X141666666Y-103000000I-1666666J0D01*
G01*
X137500000Y-103000000D02*
X142500000Y-103000000D01*
X140000000Y-100500000D02*
X140000000Y-105500000D01*
M02*
