G04 #@! TF.GenerationSoftware,KiCad,Pcbnew,(5.1.5)-3*
G04 #@! TF.CreationDate,2021-01-14T21:19:13-05:00*
G04 #@! TF.ProjectId,Connector,436f6e6e-6563-4746-9f72-2e6b69636164,rev?*
G04 #@! TF.SameCoordinates,Original*
G04 #@! TF.FileFunction,Legend,Top*
G04 #@! TF.FilePolarity,Positive*
%FSLAX46Y46*%
G04 Gerber Fmt 4.6, Leading zero omitted, Abs format (unit mm)*
G04 Created by KiCad (PCBNEW (5.1.5)-3) date 2021-01-14 21:19:13*
%MOMM*%
%LPD*%
G04 APERTURE LIST*
%ADD10C,0.150000*%
G04 APERTURE END LIST*
D10*
X148171428Y-98957142D02*
X148123809Y-99004761D01*
X147980952Y-99052380D01*
X147885714Y-99052380D01*
X147742857Y-99004761D01*
X147647619Y-98909523D01*
X147600000Y-98814285D01*
X147552380Y-98623809D01*
X147552380Y-98480952D01*
X147600000Y-98290476D01*
X147647619Y-98195238D01*
X147742857Y-98100000D01*
X147885714Y-98052380D01*
X147980952Y-98052380D01*
X148123809Y-98100000D01*
X148171428Y-98147619D01*
X148600000Y-99052380D02*
X148600000Y-98052380D01*
X149171428Y-99052380D02*
X148742857Y-98480952D01*
X149171428Y-98052380D02*
X148600000Y-98623809D01*
X149600000Y-99052380D02*
X149600000Y-98052380D01*
X152476190Y-99104761D02*
X152619047Y-99152380D01*
X152857142Y-99152380D01*
X152952380Y-99104761D01*
X153000000Y-99057142D01*
X153047619Y-98961904D01*
X153047619Y-98866666D01*
X153000000Y-98771428D01*
X152952380Y-98723809D01*
X152857142Y-98676190D01*
X152666666Y-98628571D01*
X152571428Y-98580952D01*
X152523809Y-98533333D01*
X152476190Y-98438095D01*
X152476190Y-98342857D01*
X152523809Y-98247619D01*
X152571428Y-98200000D01*
X152666666Y-98152380D01*
X152904761Y-98152380D01*
X153047619Y-98200000D01*
X153476190Y-99152380D02*
X153476190Y-98152380D01*
X153714285Y-98152380D01*
X153857142Y-98200000D01*
X153952380Y-98295238D01*
X154000000Y-98390476D01*
X154047619Y-98580952D01*
X154047619Y-98723809D01*
X154000000Y-98914285D01*
X153952380Y-99009523D01*
X153857142Y-99104761D01*
X153714285Y-99152380D01*
X153476190Y-99152380D01*
X154476190Y-99152380D02*
X154476190Y-98152380D01*
X149461904Y-92171428D02*
X150223809Y-92171428D01*
X149842857Y-92552380D02*
X149842857Y-91790476D01*
X151176190Y-91552380D02*
X150700000Y-91552380D01*
X150652380Y-92028571D01*
X150700000Y-91980952D01*
X150795238Y-91933333D01*
X151033333Y-91933333D01*
X151128571Y-91980952D01*
X151176190Y-92028571D01*
X151223809Y-92123809D01*
X151223809Y-92361904D01*
X151176190Y-92457142D01*
X151128571Y-92504761D01*
X151033333Y-92552380D01*
X150795238Y-92552380D01*
X150700000Y-92504761D01*
X150652380Y-92457142D01*
X151557142Y-91885714D02*
X151795238Y-92552380D01*
X152033333Y-91885714D01*
X148461904Y-100800000D02*
X148366666Y-100752380D01*
X148223809Y-100752380D01*
X148080952Y-100800000D01*
X147985714Y-100895238D01*
X147938095Y-100990476D01*
X147890476Y-101180952D01*
X147890476Y-101323809D01*
X147938095Y-101514285D01*
X147985714Y-101609523D01*
X148080952Y-101704761D01*
X148223809Y-101752380D01*
X148319047Y-101752380D01*
X148461904Y-101704761D01*
X148509523Y-101657142D01*
X148509523Y-101323809D01*
X148319047Y-101323809D01*
X153961904Y-100900000D02*
X153866666Y-100852380D01*
X153723809Y-100852380D01*
X153580952Y-100900000D01*
X153485714Y-100995238D01*
X153438095Y-101090476D01*
X153390476Y-101280952D01*
X153390476Y-101423809D01*
X153438095Y-101614285D01*
X153485714Y-101709523D01*
X153580952Y-101804761D01*
X153723809Y-101852380D01*
X153819047Y-101852380D01*
X153961904Y-101804761D01*
X154009523Y-101757142D01*
X154009523Y-101423809D01*
X153819047Y-101423809D01*
M02*
