G04 #@! TF.GenerationSoftware,KiCad,Pcbnew,(5.1.5)-3*
G04 #@! TF.CreationDate,2021-01-14T21:19:13-05:00*
G04 #@! TF.ProjectId,Connector,436f6e6e-6563-4746-9f72-2e6b69636164,rev?*
G04 #@! TF.SameCoordinates,Original*
G04 #@! TF.FileFunction,Copper,L1,Top*
G04 #@! TF.FilePolarity,Positive*
%FSLAX46Y46*%
G04 Gerber Fmt 4.6, Leading zero omitted, Abs format (unit mm)*
G04 Created by KiCad (PCBNEW (5.1.5)-3) date 2021-01-14 21:19:13*
%MOMM*%
%LPD*%
G04 APERTURE LIST*
%ADD10C,0.800000*%
%ADD11R,3.000000X1.000000*%
%ADD12R,1.000000X3.000000*%
%ADD13C,0.254000*%
G04 APERTURE END LIST*
D10*
X153500000Y-93800000D03*
D11*
X152500000Y-93800000D03*
D12*
X152300000Y-101600000D03*
D10*
X152300000Y-100600000D03*
D12*
X149500000Y-101600000D03*
D10*
X149500000Y-100600000D03*
D11*
X149200000Y-93800000D03*
D10*
X148200000Y-93800000D03*
D11*
X149200000Y-97200000D03*
D10*
X148200000Y-97200000D03*
D11*
X152600000Y-97200000D03*
D10*
X153600000Y-97200000D03*
D13*
G36*
X153873000Y-94573000D02*
G01*
X151912000Y-94573000D01*
X151912000Y-93397462D01*
X151912735Y-93390000D01*
X151909800Y-93360203D01*
X151901109Y-93331551D01*
X151886995Y-93305145D01*
X151868000Y-93282000D01*
X151844855Y-93263005D01*
X151818449Y-93248891D01*
X151789797Y-93240200D01*
X151767462Y-93238000D01*
X151760000Y-93237265D01*
X151752538Y-93238000D01*
X149967462Y-93238000D01*
X149960000Y-93237265D01*
X149952538Y-93238000D01*
X149930203Y-93240200D01*
X149901551Y-93248891D01*
X149875145Y-93263005D01*
X149852000Y-93282000D01*
X149833005Y-93305145D01*
X149818891Y-93331551D01*
X149810200Y-93360203D01*
X149807265Y-93390000D01*
X149808000Y-93397462D01*
X149808000Y-94573000D01*
X147827000Y-94573000D01*
X147827000Y-92827000D01*
X153873000Y-92827000D01*
X153873000Y-94573000D01*
G37*
X153873000Y-94573000D02*
X151912000Y-94573000D01*
X151912000Y-93397462D01*
X151912735Y-93390000D01*
X151909800Y-93360203D01*
X151901109Y-93331551D01*
X151886995Y-93305145D01*
X151868000Y-93282000D01*
X151844855Y-93263005D01*
X151818449Y-93248891D01*
X151789797Y-93240200D01*
X151767462Y-93238000D01*
X151760000Y-93237265D01*
X151752538Y-93238000D01*
X149967462Y-93238000D01*
X149960000Y-93237265D01*
X149952538Y-93238000D01*
X149930203Y-93240200D01*
X149901551Y-93248891D01*
X149875145Y-93263005D01*
X149852000Y-93282000D01*
X149833005Y-93305145D01*
X149818891Y-93331551D01*
X149810200Y-93360203D01*
X149807265Y-93390000D01*
X149808000Y-93397462D01*
X149808000Y-94573000D01*
X147827000Y-94573000D01*
X147827000Y-92827000D01*
X153873000Y-92827000D01*
X153873000Y-94573000D01*
G36*
X151559407Y-81949561D02*
G01*
X152826556Y-82112617D01*
X154064402Y-82428888D01*
X155254472Y-82893656D01*
X156379022Y-83499987D01*
X157421307Y-84238854D01*
X158366319Y-85099729D01*
X158893076Y-85705694D01*
X156130165Y-86711249D01*
X156118119Y-86714336D01*
X156106911Y-86719712D01*
X156106906Y-86719714D01*
X156073361Y-86735804D01*
X156033652Y-86765589D01*
X156000516Y-86802551D01*
X155975228Y-86845266D01*
X155958759Y-86892094D01*
X155951742Y-86941235D01*
X155954448Y-86990799D01*
X155966771Y-87038886D01*
X155972150Y-87050100D01*
X156579289Y-88718305D01*
X156582374Y-88730345D01*
X156587749Y-88741550D01*
X156587751Y-88741557D01*
X156603841Y-88775103D01*
X156633626Y-88814812D01*
X156670588Y-88847948D01*
X156713303Y-88873236D01*
X156760131Y-88889705D01*
X156767148Y-88890707D01*
X156809273Y-88896722D01*
X156858838Y-88894016D01*
X156878202Y-88889053D01*
X156906924Y-88881693D01*
X156918138Y-88876314D01*
X160193630Y-87684207D01*
X160632266Y-88649044D01*
X161015332Y-89867866D01*
X161247007Y-91124287D01*
X161323834Y-92399581D01*
X161244671Y-93674732D01*
X161010696Y-94930729D01*
X160625362Y-96148959D01*
X160193817Y-97095894D01*
X156918130Y-95903690D01*
X156906919Y-95898313D01*
X156894875Y-95895227D01*
X156894873Y-95895226D01*
X156858833Y-95885990D01*
X156809269Y-95883284D01*
X156767144Y-95889299D01*
X156760127Y-95890301D01*
X156746126Y-95895225D01*
X156713299Y-95906769D01*
X156695871Y-95917087D01*
X156670583Y-95932057D01*
X156633622Y-95965193D01*
X156603835Y-96004902D01*
X156587745Y-96038447D01*
X156587741Y-96038458D01*
X156582368Y-96049660D01*
X156579284Y-96061695D01*
X155972132Y-97729902D01*
X155966754Y-97741115D01*
X155963668Y-97753158D01*
X155963667Y-97753161D01*
X155954431Y-97789201D01*
X155951725Y-97838765D01*
X155958742Y-97887906D01*
X155975210Y-97934735D01*
X156000498Y-97977450D01*
X156033633Y-98014411D01*
X156073343Y-98044198D01*
X156118101Y-98065666D01*
X156130154Y-98068755D01*
X158890905Y-99073546D01*
X158280628Y-99767412D01*
X157326239Y-100616766D01*
X156275448Y-101343482D01*
X155143929Y-101936720D01*
X153948537Y-102387643D01*
X152705343Y-102689950D01*
X152012000Y-102781137D01*
X152012000Y-98028582D01*
X154100000Y-98028582D01*
X154164103Y-98022268D01*
X154225743Y-98003570D01*
X154282550Y-97973206D01*
X154332343Y-97932343D01*
X154373206Y-97882550D01*
X154403570Y-97825743D01*
X154422268Y-97764103D01*
X154428582Y-97700000D01*
X154428582Y-96700000D01*
X154422268Y-96635897D01*
X154403570Y-96574257D01*
X154373206Y-96517450D01*
X154332343Y-96467657D01*
X154282550Y-96426794D01*
X154225743Y-96396430D01*
X154164103Y-96377732D01*
X154100000Y-96371418D01*
X152012000Y-96371418D01*
X152012000Y-95027000D01*
X154000000Y-95027000D01*
X154063795Y-95020717D01*
X154125137Y-95002109D01*
X154181671Y-94971891D01*
X154231224Y-94931224D01*
X154271891Y-94881671D01*
X154302109Y-94825137D01*
X154320717Y-94763795D01*
X154327000Y-94700000D01*
X154327000Y-94316061D01*
X154328582Y-94300000D01*
X154328582Y-93300000D01*
X154327000Y-93283939D01*
X154327000Y-92700000D01*
X154320717Y-92636205D01*
X154302109Y-92574863D01*
X154271891Y-92518329D01*
X154231224Y-92468776D01*
X154181671Y-92428109D01*
X154125137Y-92397891D01*
X154063795Y-92379283D01*
X154000000Y-92373000D01*
X147700000Y-92373000D01*
X147636205Y-92379283D01*
X147574863Y-92397891D01*
X147518329Y-92428109D01*
X147468776Y-92468776D01*
X147428109Y-92518329D01*
X147397891Y-92574863D01*
X147379283Y-92636205D01*
X147373000Y-92700000D01*
X147373000Y-93283939D01*
X147371418Y-93300000D01*
X147371418Y-94300000D01*
X147373000Y-94316061D01*
X147373000Y-94700000D01*
X147379283Y-94763795D01*
X147397891Y-94825137D01*
X147428109Y-94881671D01*
X147468776Y-94931224D01*
X147518329Y-94971891D01*
X147574863Y-95002109D01*
X147636205Y-95020717D01*
X147700000Y-95027000D01*
X149708000Y-95027000D01*
X149708000Y-96371418D01*
X147700000Y-96371418D01*
X147635897Y-96377732D01*
X147574257Y-96396430D01*
X147517450Y-96426794D01*
X147467657Y-96467657D01*
X147426794Y-96517450D01*
X147396430Y-96574257D01*
X147377732Y-96635897D01*
X147371418Y-96700000D01*
X147371418Y-97700000D01*
X147377732Y-97764103D01*
X147396430Y-97825743D01*
X147426794Y-97882550D01*
X147467657Y-97932343D01*
X147517450Y-97973206D01*
X147574257Y-98003570D01*
X147635897Y-98022268D01*
X147700000Y-98028582D01*
X149708000Y-98028582D01*
X149708001Y-102776931D01*
X148717039Y-102632054D01*
X147484816Y-102294548D01*
X146302920Y-101809393D01*
X145188941Y-101183807D01*
X144159521Y-100427135D01*
X143228665Y-99549398D01*
X142823789Y-99075476D01*
X145589872Y-98068745D01*
X145601897Y-98065663D01*
X145613090Y-98060294D01*
X145613110Y-98060287D01*
X145646655Y-98044197D01*
X145686365Y-98014410D01*
X145719500Y-97977449D01*
X145744787Y-97934734D01*
X145761256Y-97887905D01*
X145762258Y-97880888D01*
X145768273Y-97838763D01*
X145765567Y-97789198D01*
X145756331Y-97753158D01*
X145756327Y-97753147D01*
X145753243Y-97741113D01*
X145747870Y-97729912D01*
X145140719Y-96061712D01*
X145137630Y-96049659D01*
X145116162Y-96004901D01*
X145086375Y-95965191D01*
X145049414Y-95932056D01*
X145006699Y-95906768D01*
X144959870Y-95890300D01*
X144910729Y-95883283D01*
X144861164Y-95885989D01*
X144825124Y-95895225D01*
X144825122Y-95895226D01*
X144813079Y-95898312D01*
X144801869Y-95903689D01*
X141526383Y-97095821D01*
X141087745Y-96130985D01*
X140704673Y-94912160D01*
X140472996Y-93655743D01*
X140396164Y-92380450D01*
X140475324Y-91105298D01*
X140709296Y-89849299D01*
X141094628Y-88631063D01*
X141526169Y-87684130D01*
X144801866Y-88876314D01*
X144813077Y-88881691D01*
X144861163Y-88894014D01*
X144910728Y-88896720D01*
X144959869Y-88889703D01*
X145006697Y-88873234D01*
X145049413Y-88847946D01*
X145086374Y-88814811D01*
X145116160Y-88775101D01*
X145131916Y-88742251D01*
X145132249Y-88741556D01*
X145137627Y-88730343D01*
X145140714Y-88718297D01*
X145747853Y-87050096D01*
X145753230Y-87038885D01*
X145765553Y-86990799D01*
X145768258Y-86941233D01*
X145761242Y-86892092D01*
X145744773Y-86845264D01*
X145719485Y-86802549D01*
X145686349Y-86765587D01*
X145646640Y-86735802D01*
X145613095Y-86719712D01*
X145613084Y-86719708D01*
X145601882Y-86714335D01*
X145589846Y-86711250D01*
X142829076Y-85706475D01*
X143439352Y-85012609D01*
X144393742Y-84163249D01*
X145444521Y-83436536D01*
X146576048Y-82843289D01*
X147771430Y-82392366D01*
X149012853Y-82090486D01*
X150281822Y-81942146D01*
X151559407Y-81949561D01*
G37*
X151559407Y-81949561D02*
X152826556Y-82112617D01*
X154064402Y-82428888D01*
X155254472Y-82893656D01*
X156379022Y-83499987D01*
X157421307Y-84238854D01*
X158366319Y-85099729D01*
X158893076Y-85705694D01*
X156130165Y-86711249D01*
X156118119Y-86714336D01*
X156106911Y-86719712D01*
X156106906Y-86719714D01*
X156073361Y-86735804D01*
X156033652Y-86765589D01*
X156000516Y-86802551D01*
X155975228Y-86845266D01*
X155958759Y-86892094D01*
X155951742Y-86941235D01*
X155954448Y-86990799D01*
X155966771Y-87038886D01*
X155972150Y-87050100D01*
X156579289Y-88718305D01*
X156582374Y-88730345D01*
X156587749Y-88741550D01*
X156587751Y-88741557D01*
X156603841Y-88775103D01*
X156633626Y-88814812D01*
X156670588Y-88847948D01*
X156713303Y-88873236D01*
X156760131Y-88889705D01*
X156767148Y-88890707D01*
X156809273Y-88896722D01*
X156858838Y-88894016D01*
X156878202Y-88889053D01*
X156906924Y-88881693D01*
X156918138Y-88876314D01*
X160193630Y-87684207D01*
X160632266Y-88649044D01*
X161015332Y-89867866D01*
X161247007Y-91124287D01*
X161323834Y-92399581D01*
X161244671Y-93674732D01*
X161010696Y-94930729D01*
X160625362Y-96148959D01*
X160193817Y-97095894D01*
X156918130Y-95903690D01*
X156906919Y-95898313D01*
X156894875Y-95895227D01*
X156894873Y-95895226D01*
X156858833Y-95885990D01*
X156809269Y-95883284D01*
X156767144Y-95889299D01*
X156760127Y-95890301D01*
X156746126Y-95895225D01*
X156713299Y-95906769D01*
X156695871Y-95917087D01*
X156670583Y-95932057D01*
X156633622Y-95965193D01*
X156603835Y-96004902D01*
X156587745Y-96038447D01*
X156587741Y-96038458D01*
X156582368Y-96049660D01*
X156579284Y-96061695D01*
X155972132Y-97729902D01*
X155966754Y-97741115D01*
X155963668Y-97753158D01*
X155963667Y-97753161D01*
X155954431Y-97789201D01*
X155951725Y-97838765D01*
X155958742Y-97887906D01*
X155975210Y-97934735D01*
X156000498Y-97977450D01*
X156033633Y-98014411D01*
X156073343Y-98044198D01*
X156118101Y-98065666D01*
X156130154Y-98068755D01*
X158890905Y-99073546D01*
X158280628Y-99767412D01*
X157326239Y-100616766D01*
X156275448Y-101343482D01*
X155143929Y-101936720D01*
X153948537Y-102387643D01*
X152705343Y-102689950D01*
X152012000Y-102781137D01*
X152012000Y-98028582D01*
X154100000Y-98028582D01*
X154164103Y-98022268D01*
X154225743Y-98003570D01*
X154282550Y-97973206D01*
X154332343Y-97932343D01*
X154373206Y-97882550D01*
X154403570Y-97825743D01*
X154422268Y-97764103D01*
X154428582Y-97700000D01*
X154428582Y-96700000D01*
X154422268Y-96635897D01*
X154403570Y-96574257D01*
X154373206Y-96517450D01*
X154332343Y-96467657D01*
X154282550Y-96426794D01*
X154225743Y-96396430D01*
X154164103Y-96377732D01*
X154100000Y-96371418D01*
X152012000Y-96371418D01*
X152012000Y-95027000D01*
X154000000Y-95027000D01*
X154063795Y-95020717D01*
X154125137Y-95002109D01*
X154181671Y-94971891D01*
X154231224Y-94931224D01*
X154271891Y-94881671D01*
X154302109Y-94825137D01*
X154320717Y-94763795D01*
X154327000Y-94700000D01*
X154327000Y-94316061D01*
X154328582Y-94300000D01*
X154328582Y-93300000D01*
X154327000Y-93283939D01*
X154327000Y-92700000D01*
X154320717Y-92636205D01*
X154302109Y-92574863D01*
X154271891Y-92518329D01*
X154231224Y-92468776D01*
X154181671Y-92428109D01*
X154125137Y-92397891D01*
X154063795Y-92379283D01*
X154000000Y-92373000D01*
X147700000Y-92373000D01*
X147636205Y-92379283D01*
X147574863Y-92397891D01*
X147518329Y-92428109D01*
X147468776Y-92468776D01*
X147428109Y-92518329D01*
X147397891Y-92574863D01*
X147379283Y-92636205D01*
X147373000Y-92700000D01*
X147373000Y-93283939D01*
X147371418Y-93300000D01*
X147371418Y-94300000D01*
X147373000Y-94316061D01*
X147373000Y-94700000D01*
X147379283Y-94763795D01*
X147397891Y-94825137D01*
X147428109Y-94881671D01*
X147468776Y-94931224D01*
X147518329Y-94971891D01*
X147574863Y-95002109D01*
X147636205Y-95020717D01*
X147700000Y-95027000D01*
X149708000Y-95027000D01*
X149708000Y-96371418D01*
X147700000Y-96371418D01*
X147635897Y-96377732D01*
X147574257Y-96396430D01*
X147517450Y-96426794D01*
X147467657Y-96467657D01*
X147426794Y-96517450D01*
X147396430Y-96574257D01*
X147377732Y-96635897D01*
X147371418Y-96700000D01*
X147371418Y-97700000D01*
X147377732Y-97764103D01*
X147396430Y-97825743D01*
X147426794Y-97882550D01*
X147467657Y-97932343D01*
X147517450Y-97973206D01*
X147574257Y-98003570D01*
X147635897Y-98022268D01*
X147700000Y-98028582D01*
X149708000Y-98028582D01*
X149708001Y-102776931D01*
X148717039Y-102632054D01*
X147484816Y-102294548D01*
X146302920Y-101809393D01*
X145188941Y-101183807D01*
X144159521Y-100427135D01*
X143228665Y-99549398D01*
X142823789Y-99075476D01*
X145589872Y-98068745D01*
X145601897Y-98065663D01*
X145613090Y-98060294D01*
X145613110Y-98060287D01*
X145646655Y-98044197D01*
X145686365Y-98014410D01*
X145719500Y-97977449D01*
X145744787Y-97934734D01*
X145761256Y-97887905D01*
X145762258Y-97880888D01*
X145768273Y-97838763D01*
X145765567Y-97789198D01*
X145756331Y-97753158D01*
X145756327Y-97753147D01*
X145753243Y-97741113D01*
X145747870Y-97729912D01*
X145140719Y-96061712D01*
X145137630Y-96049659D01*
X145116162Y-96004901D01*
X145086375Y-95965191D01*
X145049414Y-95932056D01*
X145006699Y-95906768D01*
X144959870Y-95890300D01*
X144910729Y-95883283D01*
X144861164Y-95885989D01*
X144825124Y-95895225D01*
X144825122Y-95895226D01*
X144813079Y-95898312D01*
X144801869Y-95903689D01*
X141526383Y-97095821D01*
X141087745Y-96130985D01*
X140704673Y-94912160D01*
X140472996Y-93655743D01*
X140396164Y-92380450D01*
X140475324Y-91105298D01*
X140709296Y-89849299D01*
X141094628Y-88631063D01*
X141526169Y-87684130D01*
X144801866Y-88876314D01*
X144813077Y-88881691D01*
X144861163Y-88894014D01*
X144910728Y-88896720D01*
X144959869Y-88889703D01*
X145006697Y-88873234D01*
X145049413Y-88847946D01*
X145086374Y-88814811D01*
X145116160Y-88775101D01*
X145131916Y-88742251D01*
X145132249Y-88741556D01*
X145137627Y-88730343D01*
X145140714Y-88718297D01*
X145747853Y-87050096D01*
X145753230Y-87038885D01*
X145765553Y-86990799D01*
X145768258Y-86941233D01*
X145761242Y-86892092D01*
X145744773Y-86845264D01*
X145719485Y-86802549D01*
X145686349Y-86765587D01*
X145646640Y-86735802D01*
X145613095Y-86719712D01*
X145613084Y-86719708D01*
X145601882Y-86714335D01*
X145589846Y-86711250D01*
X142829076Y-85706475D01*
X143439352Y-85012609D01*
X144393742Y-84163249D01*
X145444521Y-83436536D01*
X146576048Y-82843289D01*
X147771430Y-82392366D01*
X149012853Y-82090486D01*
X150281822Y-81942146D01*
X151559407Y-81949561D01*
M02*
