0
SECTION
2
HEADER
9
$INSUNITS
70
4
9
$ACADVER
1
AC1014
9
$HANDSEED
5
FFFF
0
ENDSEC
0
SECTION
2
TABLES
0
TABLE
2
VPORT
5
8
100
AcDbSymbolTable
0
ENDTAB
0
TABLE
2
LTYPE
5
5
100
AcDbSymbolTable
0
LTYPE
5
14
100
AcDbSymbolTableRecord
100
AcDbLinetypeTableRecord
2
BYBLOCK
70
0
0
LTYPE
5
15
100
AcDbSymbolTableRecord
100
AcDbLinetypeTableRecord
2
BYLAYER
70
0
0
ENDTAB
0
TABLE
2
LAYER
5
2
100
AcDbSymbolTable
70
2
0
LAYER
5
50
100
AcDbSymbolTableRecord
100
AcDbLayerTableRecord
2
0
70
0
6
CONTINUOUS
0
ENDTAB
0
TABLE
2
STYLE
5
3
100
AcDbSymbolTable
70
1
0
STYLE
5
11
100
AcDbSymbolTableRecord
100
AcDbTextStyleTableRecord
2
STANDARD
70
0
0
ENDTAB
0
TABLE
2
VIEW
5
6
100
AcDbSymbolTable
70
0
0
ENDTAB
0
TABLE
2
UCS
5
7
100
AcDbSymbolTable
70
0
0
ENDTAB
0
TABLE
2
APPID
5
9
100
AcDbSymbolTable
70
2
0
APPID
5
12
100
AcDbSymbolTableRecord
100
AcDbRegAppTableRecord
2
ACAD
70
0
0
ENDTAB
0
TABLE
2
DIMSTYLE
5
A
100
AcDbSymbolTable
70
1
0
ENDTAB
0
TABLE
2
BLOCK_RECORD
5
1
100
AcDbSymbolTable
70
1
0
BLOCK_RECORD
5
1F
100
AcDbSymbolTableRecord
100
AcDbBlockTableRecord
2
*MODEL_SPACE
0
BLOCK_RECORD
5
1B
100
AcDbSymbolTableRecord
100
AcDbBlockTableRecord
2
*PAPER_SPACE
0
ENDTAB
0
ENDSEC
0
SECTION
2
BLOCKS
0
BLOCK
5
20
100
AcDbEntity
100
AcDbBlockBegin
2
*MODEL_SPACE
0
ENDBLK
5
21
100
AcDbEntity
100
AcDbBlockEnd
0
BLOCK
5
1C
100
AcDbEntity
100
AcDbBlockBegin
2
*PAPER_SPACE
0
ENDBLK
5
1D
100
AcDbEntity
100
AcDbBlockEnd
0
ENDSEC
0
SECTION
2
ENTITIES
0
LWPOLYLINE
5
100
100
AcDbEntity
8
0
100
AcDbPolyline
90
54
70
1
43
0.0
10
-149.36356236907363
20
48.804368672021099
10
-150.28067598224996
20
50.257340448592373
10
-150.28067514967853
20
51.764440017811751
10
-150.28067514967853
20
52.72350502365893
10
-175.64396464697833
20
52.723513054105034
10
-175.64396511129772
20
51.257010839999367
10
-175.64396511129772
20
50.239483596070471
10
-176.32696962500006
20
48.804374358529003
10
-176.32696962500006
20
19.165892643610384
10
-175.94894440313726
20
18.804288318389116
10
-175.5722379752961
20
18.182411542456805
10
-175.30384704321301
20
17.43708856167143
10
-175.28194525324255
20
16.70085272564237
10
-177.85258542639173
20
11.426434128344706
10
-178.47197175245671
20
11.426434128344706
10
-181.04051384420791
20
16.70085272564237
10
-181.01860660467548
20
17.437091286452461
10
-180.75021567259233
20
18.182414267237835
10
-180.37351469431317
20
18.804291043170146
10
-179.9975875538484
20
19.163891987855379
10
-179.9975875538484
20
48.804375132652154
10
-180.68057026930256
20
50.239486320851505
10
-180.68057026930256
20
51.257013564780401
10
-180.69180726629656
20
59.6151363428623
10
-180.69180726629662
20
63.981942638457468
10
-179.74605756681842
20
71.101528457968911
10
-176.77743042593394
20
71.10152573318787
10
-176.22627216248065
20
66.952358417997615
10
-149.66348174252872
20
74.077798609660334
10
-148.43260601806071
20
74.072304968149737
10
-148.43260485904727
20
77.076704220643421
10
-149.04747876193935
20
79.971549037402326
10
-149.04747876193935
20
80.826553333991853
10
-149.04747823212031
20
81.370647805712878
10
-148.35013592060449
20
84.759872147372434
10
-143.58944753990528
20
84.759869422591422
10
-142.89210795317049
20
81.37064780571292
10
-142.89210795317049
20
79.971549037402326
10
-143.50698328725412
20
77.076702320475249
10
-143.50698423680132
20
74.615283207703499
10
-143.5069843457747
20
74.050320945598543
10
-139.11648786230438
20
74.030725292475879
10
-139.11648786230438
20
71.868483475402073
10
-139.11648952744727
20
65.537411927881848
10
-139.11649111690446
20
61.508541726153553
10
-139.11649136496709
20
60.993096573701777
10
-143.94115274190494
20
60.993098895613727
10
-143.94115360817122
20
59.193098895613943
10
-139.11649223123337
20
59.193096573701993
10
-139.11649247929498
20
58.677653629048535
10
-139.1164938416855
20
52.723501617682629
10
-142.04188226487514
20
52.723502298877904
10
-142.04188362726563
20
50.257337723811332
10
-142.90358881806728
20
48.804367309630564
0
ENDSEC
0
SECTION
2
OBJECTS
0
DICTIONARY
5
C
100
AcDbDictionary
3
ACAD_GROUP
350
D
3
ACAD_MLINESTYLE
350
17
0
DICTIONARY
5
D
100
AcDbDictionary
0
DICTIONARY
5
1A
330
C
100
AcDbDictionary
0
DICTIONARY
5
17
100
AcDbDictionary
0
ENDSEC
0
EOF
