0
SECTION
2
HEADER
9
$INSUNITS
70
4
9
$ACADVER
1
AC1014
9
$HANDSEED
5
FFFF
0
ENDSEC
0
SECTION
2
TABLES
0
TABLE
2
VPORT
5
8
100
AcDbSymbolTable
0
ENDTAB
0
TABLE
2
LTYPE
5
5
100
AcDbSymbolTable
0
LTYPE
5
14
100
AcDbSymbolTableRecord
100
AcDbLinetypeTableRecord
2
BYBLOCK
70
0
0
LTYPE
5
15
100
AcDbSymbolTableRecord
100
AcDbLinetypeTableRecord
2
BYLAYER
70
0
0
ENDTAB
0
TABLE
2
LAYER
5
2
100
AcDbSymbolTable
70
2
0
LAYER
5
50
100
AcDbSymbolTableRecord
100
AcDbLayerTableRecord
2
0
70
0
6
CONTINUOUS
0
ENDTAB
0
TABLE
2
STYLE
5
3
100
AcDbSymbolTable
70
1
0
STYLE
5
11
100
AcDbSymbolTableRecord
100
AcDbTextStyleTableRecord
2
STANDARD
70
0
0
ENDTAB
0
TABLE
2
VIEW
5
6
100
AcDbSymbolTable
70
0
0
ENDTAB
0
TABLE
2
UCS
5
7
100
AcDbSymbolTable
70
0
0
ENDTAB
0
TABLE
2
APPID
5
9
100
AcDbSymbolTable
70
2
0
APPID
5
12
100
AcDbSymbolTableRecord
100
AcDbRegAppTableRecord
2
ACAD
70
0
0
ENDTAB
0
TABLE
2
DIMSTYLE
5
A
100
AcDbSymbolTable
70
1
0
ENDTAB
0
TABLE
2
BLOCK_RECORD
5
1
100
AcDbSymbolTable
70
1
0
BLOCK_RECORD
5
1F
100
AcDbSymbolTableRecord
100
AcDbBlockTableRecord
2
*MODEL_SPACE
0
BLOCK_RECORD
5
1B
100
AcDbSymbolTableRecord
100
AcDbBlockTableRecord
2
*PAPER_SPACE
0
ENDTAB
0
ENDSEC
0
SECTION
2
BLOCKS
0
BLOCK
5
20
100
AcDbEntity
100
AcDbBlockBegin
2
*MODEL_SPACE
0
ENDBLK
5
21
100
AcDbEntity
100
AcDbBlockEnd
0
BLOCK
5
1C
100
AcDbEntity
100
AcDbBlockBegin
2
*PAPER_SPACE
0
ENDBLK
5
1D
100
AcDbEntity
100
AcDbBlockEnd
0
ENDSEC
0
SECTION
2
ENTITIES
0
LWPOLYLINE
5
100
100
AcDbEntity
8
0
100
AcDbPolyline
90
4
70
1
43
0.0
10
-16.400076847290709
20
-221.57719698971243
10
-16.400076833224663
20
-221.76330739671323
10
-4.4000768332246629
20
-221.76330692415164
10
-4.4000768472909879
20
-221.57719280346902
0
LWPOLYLINE
5
101
100
AcDbEntity
8
0
100
AcDbPolyline
90
50
70
1
43
0.0
10
-16.300077470658518
20
-214.38208012775101
10
-4.4000773910904121
20
-214.38208248039615
10
-4.4000774051555647
20
-214.195983901772
10
-16.300077484723392
20
-214.19598523192036
10
-16.300077861811836
20
-209.20665986511818
10
-15.786303422839074
20
-209.20665982628765
10
-1.1919729244111472
20
-209.20665327370043
10
-0.83177858799419613
20
-210.28706162477312
10
1.6451183615075704
20
-212.18081695522616
10
1.6451248552856161
20
-225.99703173309592
10
-0.83476362590615416
20
-227.78006323598365
10
-15.790530879247413
20
-227.78006981588791
10
-16.300076458051414
20
-227.78006985439887
10
-16.300076760367496
20
-223.78006985439885
10
-18.100076760367493
20
-223.78006999044112
10
-18.100076458051415
20
-227.78006999044112
10
-27.422945372483962
20
-227.78007069505446
10
-34.496577148164498
20
-224.9196158842912
10
-38.289784363028872
20
-223.38570814775295
10
-51.20790742442756
20
-223.01154097597421
10
-58.135200758768818
20
-222.81089528977813
10
-85.553568853761988
20
-221.9872342016692
10
-86.431733033972691
20
-222.65463123596595
10
-89.106083825262033
20
-222.6237542193866
10
-97.339985308819422
20
-221.16126676735607
10
-99.145725043483822
20
-219.91691390013952
10
-99.820146563858287
20
-219.03126202217169
10
-99.145725177357221
20
-218.14561004225976
10
-97.339985630788021
20
-216.90124055340493
10
-94.810920217133159
20
-216.2338433943346
10
-90.464278734228117
20
-215.29931946421144
10
-89.340257478805981
20
-215.72083755602449
10
-86.361477836345202
20
-215.28996225604689
10
-55.855411304979313
20
-212.49607301740667
10
-44.815599320148245
20
-209.55492216380964
10
-38.895543861259519
20
-207.97774172895896
10
-36.873921781195612
20
-208.17438037778294
10
-35.789834769409666
20
-208.27982706861144
10
-34.30952137794101
20
-209.58641982208806
10
-33.515709679664369
20
-210.28707499411695
10
-31.726492160319282
20
-210.2870721341086
10
-31.726492235898299
20
-209.28707213410854
42
-0.99999999999999989
10
-25.72649223589832
20
-209.28707168063448
10
-25.726492160319513
20
-210.28706895585344
10
-21.266688137020282
20
-210.28706861878578
10
-20.906518486945473
20
-209.20665476370655
10
-18.611740595480828
20
-209.20666003983141
10
-18.100077861811826
20
-209.20666000116046
10
-18.100077123177861
20
-218.97965948205663
10
-16.300077123177871
20
-218.9796593460143
0
LWPOLYLINE
5
102
100
AcDbEntity
8
0
100
AcDbPolyline
90
3
70
1
43
0.0
10
-51.080130369336743
20
-212.36512512944941
10
-39.475252448537944
20
-213.22139214260767
10
-39.474399876621902
20
-209.45648044115012
0
LWPOLYLINE
5
103
100
AcDbEntity
8
0
100
AcDbPolyline
90
6
70
1
43
0.0
10
-38.086277407702795
20
-212.67475191567445
10
-36.128907782776672
20
-211.38220636315333
10
-35.079276200947191
20
-210.68908385683474
10
-36.385381002999743
20
-209.55474126141888
10
-38.085502014000554
20
-209.36803939329985
10
-38.086006901545844
20
-211.5205022665433
0
ENDSEC
0
SECTION
2
OBJECTS
0
DICTIONARY
5
C
100
AcDbDictionary
3
ACAD_GROUP
350
D
3
ACAD_MLINESTYLE
350
17
0
DICTIONARY
5
D
100
AcDbDictionary
0
DICTIONARY
5
1A
330
C
100
AcDbDictionary
0
DICTIONARY
5
17
100
AcDbDictionary
0
ENDSEC
0
EOF
