G04 #@! TF.GenerationSoftware,KiCad,Pcbnew,(5.1.5)-3*
G04 #@! TF.CreationDate,2021-03-08T22:08:54-05:00*
G04 #@! TF.ProjectId,Wing,57696e67-2e6b-4696-9361-645f70636258,rev?*
G04 #@! TF.SameCoordinates,Original*
G04 #@! TF.FileFunction,Copper,L1,Top*
G04 #@! TF.FilePolarity,Positive*
%FSLAX46Y46*%
G04 Gerber Fmt 4.6, Leading zero omitted, Abs format (unit mm)*
G04 Created by KiCad (PCBNEW (5.1.5)-3) date 2021-03-08 22:08:54*
%MOMM*%
%LPD*%
G04 APERTURE LIST*
%ADD10R,0.750000X0.800000*%
%ADD11C,0.800000*%
%ADD12R,1.000000X3.000000*%
%ADD13R,1.000000X0.300000*%
%ADD14R,0.300000X0.800000*%
%ADD15R,0.500000X0.800000*%
%ADD16R,0.400000X0.900000*%
%ADD17R,0.900000X0.400000*%
%ADD18C,0.500000*%
%ADD19C,0.250000*%
%ADD20C,0.150000*%
%ADD21C,0.127000*%
G04 APERTURE END LIST*
D10*
X169747649Y-93440452D03*
X169747649Y-91940452D03*
X107877649Y-59780452D03*
X107877649Y-61280452D03*
D11*
X155200000Y-99050000D03*
X156700000Y-99050000D03*
D12*
X155200000Y-98050000D03*
X156700000Y-98050000D03*
X159700000Y-98050000D03*
D11*
X158200000Y-99050000D03*
D12*
X158200000Y-98050000D03*
D11*
X159700000Y-99050000D03*
D12*
X161200000Y-98050000D03*
X162700000Y-98050000D03*
D11*
X161200000Y-99050000D03*
X162700000Y-99050000D03*
D13*
X106582649Y-60505452D03*
X104922649Y-60505452D03*
D14*
X105752649Y-61305452D03*
D15*
X104852649Y-61305452D03*
X106652649Y-61305452D03*
D14*
X105752649Y-59705452D03*
D15*
X104852649Y-59705452D03*
X106652649Y-59705452D03*
D13*
X171017649Y-92690452D03*
X172677649Y-92690452D03*
D14*
X171847649Y-91890452D03*
D15*
X172747649Y-91890452D03*
X170947649Y-91890452D03*
D14*
X171847649Y-93490452D03*
D15*
X172747649Y-93490452D03*
X170947649Y-93490452D03*
D16*
X147457649Y-60510452D03*
X148257649Y-60510452D03*
X148257649Y-62210452D03*
X147457649Y-62210452D03*
D17*
X142577649Y-60070452D03*
X142577649Y-59270452D03*
X144277649Y-59270452D03*
X144277649Y-60070452D03*
D16*
X150287649Y-62210452D03*
X149487649Y-62210452D03*
X149487649Y-60510452D03*
X150287649Y-60510452D03*
X161197649Y-92990452D03*
X161997649Y-92990452D03*
X161997649Y-91290452D03*
X161197649Y-91290452D03*
D18*
X169747649Y-93440452D03*
X107877649Y-59760452D03*
X107867649Y-61270452D03*
X169747649Y-91940452D03*
X173497649Y-92690452D03*
X103997649Y-60500452D03*
X149457649Y-59420452D03*
X150547649Y-59450452D03*
X159947648Y-92140202D03*
X162822649Y-90965452D03*
X163097649Y-94040452D03*
X161197649Y-95590452D03*
X141767649Y-59260452D03*
X142567649Y-60640452D03*
X150867649Y-63310452D03*
X173477649Y-93490452D03*
X157067649Y-90080452D03*
X149467649Y-63620452D03*
X154617649Y-89570452D03*
D19*
X106582649Y-59775452D02*
X106652649Y-59705452D01*
X106582649Y-60505452D02*
X106582649Y-59775452D01*
X107802649Y-59705452D02*
X107877649Y-59780452D01*
X106652649Y-59705452D02*
X107802649Y-59705452D01*
X169797649Y-91890452D02*
X169772649Y-91915452D01*
X170947649Y-91890452D02*
X169797649Y-91890452D01*
X169772649Y-91915452D02*
X169747649Y-91940452D01*
X172677649Y-92690452D02*
X173497649Y-92690452D01*
X106677649Y-61280452D02*
X106652649Y-61305452D01*
X107877649Y-61280452D02*
X106677649Y-61280452D01*
X104917649Y-60500452D02*
X104922649Y-60505452D01*
X104002649Y-60505452D02*
X103997649Y-60500452D01*
X104922649Y-60505452D02*
X104002649Y-60505452D01*
D20*
X105877650Y-61980453D02*
X108587648Y-61980453D01*
X105752649Y-61305452D02*
X105752649Y-61855452D01*
X105752649Y-61855452D02*
X105877650Y-61980453D01*
X108587648Y-61980453D02*
X109427649Y-61140452D01*
X109427649Y-61140452D02*
X140921927Y-61140452D01*
X140921927Y-61140452D02*
X141741927Y-61960452D01*
X147107649Y-60510452D02*
X147457649Y-60510452D01*
X145657649Y-61960452D02*
X147107649Y-60510452D01*
X141741927Y-61960452D02*
X145657649Y-61960452D01*
X148257649Y-61110452D02*
X148257649Y-60510452D01*
X145781918Y-62260461D02*
X146731927Y-61310452D01*
X104852649Y-61305452D02*
X104852649Y-61855452D01*
X140797659Y-61440462D02*
X141617659Y-62260462D01*
X104852649Y-61855452D02*
X105277659Y-62280462D01*
X141617659Y-62260462D02*
X145781918Y-62260461D01*
X109551917Y-61440462D02*
X140797659Y-61440462D01*
X148057649Y-61310452D02*
X148257649Y-61110452D01*
X146731927Y-61310452D02*
X148057649Y-61310452D01*
X105277659Y-62280462D02*
X108711917Y-62280462D01*
X108711917Y-62280462D02*
X109551917Y-61440462D01*
X105752649Y-59155452D02*
X105752649Y-59705452D01*
X142092648Y-60868453D02*
X142092648Y-60765451D01*
X143582648Y-61115453D02*
X142339648Y-61115453D01*
X142339648Y-61115453D02*
X142092648Y-60868453D01*
X108623381Y-58780462D02*
X106127639Y-58780462D01*
X144277649Y-60420452D02*
X143582648Y-61115453D01*
X141337649Y-60080452D02*
X140937649Y-59680452D01*
X144277649Y-60070452D02*
X144277649Y-60420452D01*
X106127639Y-58780462D02*
X105752649Y-59155452D01*
X142092648Y-60765451D02*
X141407649Y-60080452D01*
X140017649Y-59680452D02*
X109523381Y-59680462D01*
X109523381Y-59680462D02*
X108623381Y-58780462D01*
X141407649Y-60080452D02*
X141337649Y-60080452D01*
X140937649Y-59680452D02*
X140017649Y-59680452D01*
X108747649Y-58480452D02*
X105527649Y-58480452D01*
X104852649Y-59155452D02*
X104852649Y-59705452D01*
X105527649Y-58480452D02*
X104852649Y-59155452D01*
X109647649Y-59380452D02*
X108747649Y-58480452D01*
X140477649Y-59380452D02*
X109647649Y-59380452D01*
X143147650Y-58785451D02*
X143632651Y-59270452D01*
X143632651Y-59270452D02*
X144277649Y-59270452D01*
X140477649Y-59380452D02*
X141072650Y-58785451D01*
X141072650Y-58785451D02*
X143147650Y-58785451D01*
X149487649Y-59450452D02*
X149457649Y-59420452D01*
X149487649Y-60510452D02*
X149487649Y-59450452D01*
X150287649Y-59710452D02*
X150547649Y-59450452D01*
X150287649Y-60510452D02*
X150287649Y-59710452D01*
X160817648Y-93665453D02*
X161922648Y-93665453D01*
X161922648Y-93665453D02*
X161997649Y-93590452D01*
X159947648Y-92795453D02*
X160817648Y-93665453D01*
X161997649Y-93590452D02*
X161997649Y-92990452D01*
X159947648Y-92140202D02*
X159947648Y-92795453D01*
X160847649Y-92990452D02*
X161197649Y-92990452D01*
X160772648Y-90660451D02*
X160772648Y-92915451D01*
X160817648Y-90615451D02*
X160772648Y-90660451D01*
X162472648Y-90615451D02*
X160817648Y-90615451D01*
X160772648Y-92915451D02*
X160847649Y-92990452D01*
X162822649Y-90965452D02*
X162472648Y-90615451D01*
X171847649Y-94040452D02*
X171847649Y-93490452D01*
X163497648Y-93640453D02*
X168027650Y-93640453D01*
X168027650Y-93640453D02*
X168577649Y-94190452D01*
X171697649Y-94190452D02*
X171847649Y-94040452D01*
X163097649Y-94040452D02*
X163497648Y-93640453D01*
X168577649Y-94190452D02*
X171697649Y-94190452D01*
D19*
X161200000Y-95592803D02*
X161197649Y-95590452D01*
D20*
X162372649Y-95590452D02*
X164022639Y-93940462D01*
X161197649Y-95590452D02*
X162372649Y-95590452D01*
X164022639Y-93940462D02*
X167903381Y-93940462D01*
X172747649Y-94040452D02*
X172747649Y-93490452D01*
X172297639Y-94490462D02*
X172747649Y-94040452D01*
X168453381Y-94490462D02*
X172297639Y-94490462D01*
X167903381Y-93940462D02*
X168453381Y-94490462D01*
X142577649Y-59270452D02*
X141777649Y-59270452D01*
X141777649Y-59270452D02*
X141767649Y-59260452D01*
X142577649Y-60070452D02*
X142577649Y-60630452D01*
X142577649Y-60630452D02*
X142567649Y-60640452D01*
X150637649Y-62210452D02*
X150287649Y-62210452D01*
X150867649Y-62440452D02*
X150637649Y-62210452D01*
X150867649Y-63310452D02*
X150867649Y-62440452D01*
X174022650Y-92110451D02*
X172527631Y-90615432D01*
X172527631Y-90615432D02*
X168728391Y-90615432D01*
X173477649Y-93490452D02*
X174022650Y-92945451D01*
X174022650Y-92945451D02*
X174022650Y-92110451D01*
X168728391Y-90615432D02*
X167903383Y-91440440D01*
X162640651Y-90080452D02*
X157421202Y-90080452D01*
X164000639Y-91440440D02*
X162640651Y-90080452D01*
X157421202Y-90080452D02*
X157067649Y-90080452D01*
X167903383Y-91440440D02*
X164000639Y-91440440D01*
X149467649Y-62230452D02*
X149487649Y-62210452D01*
X149467649Y-63620452D02*
X149467649Y-62230452D01*
X171722648Y-91215451D02*
X171847649Y-91340452D01*
X169202648Y-91215451D02*
X171722648Y-91215451D01*
X168377639Y-92040460D02*
X169202648Y-91215451D01*
X161347657Y-92040460D02*
X168377639Y-92040460D01*
X161197649Y-91890452D02*
X161347657Y-92040460D01*
X171847649Y-91340452D02*
X171847649Y-91890452D01*
X161197649Y-91290452D02*
X161197649Y-91890452D01*
X161907649Y-91740450D02*
X161907649Y-91380452D01*
X172747649Y-91890452D02*
X172747649Y-91340452D01*
X172747649Y-91340452D02*
X172322638Y-90915441D01*
X168852660Y-90915441D02*
X168027651Y-91740450D01*
X161907649Y-91380452D02*
X161997649Y-91290452D01*
X172322638Y-90915441D02*
X168852660Y-90915441D01*
X168027651Y-91740450D02*
X161907649Y-91740450D01*
D19*
X155200000Y-98050000D02*
X155200000Y-99050000D01*
D20*
X148257649Y-62210452D02*
X148257649Y-77990452D01*
X155200000Y-84932803D02*
X155200000Y-99050000D01*
X148257649Y-77990452D02*
X155200000Y-84932803D01*
X147457649Y-62810452D02*
X147457649Y-62210452D01*
X147957639Y-63310442D02*
X147457649Y-62810452D01*
X147957640Y-78114721D02*
X147957639Y-63310442D01*
X154867648Y-89320453D02*
X154897648Y-89320453D01*
X154899990Y-89318111D02*
X154899990Y-85057071D01*
X154617649Y-89570452D02*
X154867648Y-89320453D01*
X154897648Y-89320453D02*
X154899990Y-89318111D01*
X154899990Y-85057071D02*
X147957640Y-78114721D01*
D21*
G36*
X108065006Y-57296386D02*
G01*
X108671742Y-57496553D01*
X109228042Y-57810754D01*
X109712722Y-58227028D01*
X110113259Y-58737084D01*
X110136089Y-58773571D01*
X110142626Y-58785794D01*
X110169562Y-58818602D01*
X110202382Y-58845526D01*
X110239823Y-58865529D01*
X110280448Y-58877842D01*
X110312114Y-58880955D01*
X139573521Y-58874858D01*
X139589668Y-58875613D01*
X139605199Y-58873271D01*
X139620812Y-58871730D01*
X139626138Y-58870113D01*
X139631643Y-58869283D01*
X139646405Y-58863961D01*
X139661432Y-58859399D01*
X139675684Y-58851777D01*
X141062299Y-58191875D01*
X142020728Y-58191875D01*
X142020872Y-58191889D01*
X142031285Y-58191875D01*
X142041740Y-58191875D01*
X142041885Y-58191861D01*
X150388996Y-58180638D01*
X154741842Y-58180638D01*
X161660177Y-59099654D01*
X161660173Y-61690749D01*
X157715737Y-62214711D01*
X157712283Y-62214599D01*
X157694751Y-62217499D01*
X157687643Y-62218443D01*
X157684289Y-62219229D01*
X157670403Y-62221526D01*
X157663668Y-62224063D01*
X157656663Y-62225705D01*
X157643847Y-62231530D01*
X157630678Y-62236490D01*
X157624573Y-62240288D01*
X157618017Y-62243268D01*
X157606579Y-62251485D01*
X157594636Y-62258916D01*
X157589386Y-62263836D01*
X157583541Y-62268035D01*
X157573931Y-62278320D01*
X157563662Y-62287943D01*
X157559473Y-62293792D01*
X157554559Y-62299051D01*
X157547139Y-62311015D01*
X157538946Y-62322455D01*
X157535978Y-62329011D01*
X157532185Y-62335126D01*
X157527243Y-62348303D01*
X157521437Y-62361126D01*
X157519805Y-62368135D01*
X157517278Y-62374872D01*
X157515002Y-62388758D01*
X157511809Y-62402469D01*
X157511576Y-62409663D01*
X157510412Y-62416762D01*
X157510889Y-62430825D01*
X157510432Y-62444896D01*
X157511606Y-62451996D01*
X157511850Y-62459187D01*
X157515062Y-62472888D01*
X157515624Y-62476288D01*
X157517484Y-62483223D01*
X157521538Y-62500516D01*
X157522966Y-62503658D01*
X164636270Y-89021209D01*
X164631019Y-89863093D01*
X164629911Y-89874339D01*
X164631927Y-89894815D01*
X164633812Y-89915258D01*
X164634004Y-89915907D01*
X164634071Y-89916583D01*
X164640060Y-89936328D01*
X164645881Y-89955956D01*
X164646195Y-89956552D01*
X164646393Y-89957205D01*
X164656130Y-89975422D01*
X164665658Y-89993517D01*
X164666083Y-89994042D01*
X164666404Y-89994642D01*
X164679475Y-90010569D01*
X164692383Y-90026499D01*
X164692904Y-90026932D01*
X164693334Y-90027456D01*
X164709199Y-90040476D01*
X164725028Y-90053633D01*
X164725625Y-90053957D01*
X164726148Y-90054386D01*
X164744200Y-90064035D01*
X164762339Y-90073877D01*
X164762990Y-90074079D01*
X164763585Y-90074397D01*
X164783179Y-90080341D01*
X164802884Y-90086452D01*
X164803560Y-90086523D01*
X164804207Y-90086719D01*
X164824606Y-90088728D01*
X164845102Y-90090876D01*
X164856360Y-90089838D01*
X167841590Y-90089841D01*
X167853473Y-90090866D01*
X167873243Y-90088677D01*
X167893096Y-90086722D01*
X167904518Y-90083257D01*
X170780194Y-89474967D01*
X172122858Y-89474967D01*
X175318521Y-90132484D01*
X175318517Y-95041824D01*
X172122858Y-95699338D01*
X170768334Y-95699338D01*
X167904598Y-95091071D01*
X167893095Y-95087582D01*
X167873395Y-95085642D01*
X167853652Y-95083439D01*
X167841665Y-95084463D01*
X164835540Y-95084461D01*
X164825468Y-95083422D01*
X164814396Y-95084461D01*
X164813890Y-95084461D01*
X164803690Y-95085466D01*
X164783205Y-95087388D01*
X164782728Y-95087530D01*
X164782224Y-95087580D01*
X164762255Y-95093637D01*
X164742527Y-95099522D01*
X164742086Y-95099755D01*
X164741602Y-95099902D01*
X164723197Y-95109740D01*
X164704998Y-95119360D01*
X164704611Y-95119675D01*
X164704165Y-95119913D01*
X164688042Y-95133145D01*
X164672060Y-95146138D01*
X164671741Y-95146523D01*
X164671351Y-95146843D01*
X164658187Y-95162884D01*
X164644978Y-95178827D01*
X164644739Y-95179270D01*
X164644421Y-95179657D01*
X164634660Y-95197918D01*
X164624795Y-95216171D01*
X164624647Y-95216650D01*
X164624410Y-95217094D01*
X164618395Y-95236923D01*
X164612285Y-95256736D01*
X164612233Y-95257237D01*
X164612088Y-95257716D01*
X164610061Y-95278299D01*
X164609020Y-95288387D01*
X164609018Y-95288888D01*
X164607927Y-95299961D01*
X164608920Y-95310044D01*
X164590367Y-99324959D01*
X163464774Y-99324958D01*
X163464774Y-96550000D01*
X163459686Y-96498345D01*
X163444619Y-96448675D01*
X163420152Y-96402899D01*
X163387223Y-96362777D01*
X163347101Y-96329848D01*
X163301325Y-96305381D01*
X163251655Y-96290314D01*
X163200000Y-96285226D01*
X162200000Y-96285226D01*
X162148345Y-96290314D01*
X162098675Y-96305381D01*
X162052899Y-96329848D01*
X162012777Y-96362777D01*
X161979848Y-96402899D01*
X161955381Y-96448675D01*
X161950000Y-96466414D01*
X161944619Y-96448675D01*
X161920152Y-96402899D01*
X161887223Y-96362777D01*
X161847101Y-96329848D01*
X161801325Y-96305381D01*
X161751655Y-96290314D01*
X161700000Y-96285226D01*
X160700000Y-96285226D01*
X160648345Y-96290314D01*
X160598675Y-96305381D01*
X160552899Y-96329848D01*
X160512777Y-96362777D01*
X160479848Y-96402899D01*
X160455381Y-96448675D01*
X160450000Y-96466414D01*
X160444619Y-96448675D01*
X160420152Y-96402899D01*
X160387223Y-96362777D01*
X160347101Y-96329848D01*
X160301325Y-96305381D01*
X160251655Y-96290314D01*
X160200000Y-96285226D01*
X159200000Y-96285226D01*
X159148345Y-96290314D01*
X159098675Y-96305381D01*
X159052899Y-96329848D01*
X159012777Y-96362777D01*
X158979848Y-96402899D01*
X158955381Y-96448675D01*
X158940314Y-96498345D01*
X158935226Y-96550000D01*
X158935226Y-99324957D01*
X157464774Y-99324956D01*
X157464774Y-96550000D01*
X157459686Y-96498345D01*
X157444619Y-96448675D01*
X157420152Y-96402899D01*
X157387223Y-96362777D01*
X157347101Y-96329848D01*
X157301325Y-96305381D01*
X157251655Y-96290314D01*
X157200000Y-96285226D01*
X156200000Y-96285226D01*
X156148345Y-96290314D01*
X156098675Y-96305381D01*
X156052899Y-96329848D01*
X156012777Y-96362777D01*
X155979848Y-96402899D01*
X155955381Y-96448675D01*
X155950000Y-96466414D01*
X155944619Y-96448675D01*
X155920152Y-96402899D01*
X155887223Y-96362777D01*
X155847101Y-96329848D01*
X155801325Y-96305381D01*
X155751655Y-96290314D01*
X155700000Y-96285226D01*
X155538500Y-96285226D01*
X155538500Y-90029877D01*
X156554149Y-90029877D01*
X156554149Y-90131027D01*
X156573882Y-90230235D01*
X156612591Y-90323686D01*
X156668787Y-90407789D01*
X156740312Y-90479314D01*
X156824415Y-90535510D01*
X156917866Y-90574219D01*
X157017074Y-90593952D01*
X157118224Y-90593952D01*
X157217432Y-90574219D01*
X157310883Y-90535510D01*
X157394986Y-90479314D01*
X157455348Y-90418952D01*
X160533338Y-90418952D01*
X160532135Y-90419939D01*
X160489834Y-90471482D01*
X160482456Y-90485286D01*
X160458402Y-90530287D01*
X160444747Y-90575305D01*
X160439047Y-90594095D01*
X160434148Y-90643832D01*
X160434148Y-90643839D01*
X160432512Y-90660451D01*
X160434148Y-90677063D01*
X160434149Y-91972876D01*
X160402706Y-91896968D01*
X160346510Y-91812865D01*
X160274985Y-91741340D01*
X160190882Y-91685144D01*
X160097431Y-91646435D01*
X159998223Y-91626702D01*
X159897073Y-91626702D01*
X159797865Y-91646435D01*
X159704414Y-91685144D01*
X159620311Y-91741340D01*
X159548786Y-91812865D01*
X159492590Y-91896968D01*
X159453881Y-91990419D01*
X159434148Y-92089627D01*
X159434148Y-92190777D01*
X159453881Y-92289985D01*
X159492590Y-92383436D01*
X159548786Y-92467539D01*
X159609149Y-92527902D01*
X159609149Y-92778831D01*
X159607512Y-92795453D01*
X159614047Y-92861810D01*
X159633402Y-92925617D01*
X159655251Y-92966492D01*
X159664835Y-92984423D01*
X159707136Y-93035966D01*
X159720047Y-93046562D01*
X160566539Y-93893055D01*
X160577135Y-93905966D01*
X160628678Y-93948267D01*
X160676922Y-93974054D01*
X160687483Y-93979699D01*
X160751290Y-93999054D01*
X160757039Y-93999620D01*
X160801028Y-94003953D01*
X160801036Y-94003953D01*
X160817648Y-94005589D01*
X160834260Y-94003953D01*
X161906036Y-94003953D01*
X161922648Y-94005589D01*
X161939260Y-94003953D01*
X161939268Y-94003953D01*
X161989005Y-93999054D01*
X162052813Y-93979699D01*
X162111618Y-93948267D01*
X162163161Y-93905966D01*
X162173761Y-93893050D01*
X162225250Y-93841561D01*
X162238161Y-93830965D01*
X162280463Y-93779422D01*
X162311895Y-93720617D01*
X162327264Y-93669950D01*
X162344750Y-93660604D01*
X162384872Y-93627675D01*
X162417801Y-93587553D01*
X162442268Y-93541777D01*
X162457335Y-93492107D01*
X162462423Y-93440452D01*
X162462423Y-92540452D01*
X162457335Y-92488797D01*
X162442268Y-92439127D01*
X162417801Y-92393351D01*
X162405990Y-92378960D01*
X168361027Y-92378960D01*
X168377639Y-92380596D01*
X168394251Y-92378960D01*
X168394259Y-92378960D01*
X168443996Y-92374061D01*
X168507804Y-92354706D01*
X168566609Y-92323274D01*
X168618152Y-92280973D01*
X168628752Y-92268057D01*
X169107875Y-91788935D01*
X169107875Y-92340452D01*
X169112963Y-92392107D01*
X169128030Y-92441777D01*
X169152497Y-92487553D01*
X169185426Y-92527675D01*
X169225548Y-92560604D01*
X169271324Y-92585071D01*
X169320994Y-92600138D01*
X169372649Y-92605226D01*
X170122649Y-92605226D01*
X170174304Y-92600138D01*
X170223974Y-92585071D01*
X170269750Y-92560604D01*
X170309872Y-92527675D01*
X170342801Y-92487553D01*
X170367268Y-92441777D01*
X170382335Y-92392107D01*
X170387423Y-92340452D01*
X170387423Y-92278952D01*
X170432875Y-92278952D01*
X170432875Y-92290452D01*
X170437963Y-92342107D01*
X170453030Y-92391777D01*
X170477497Y-92437553D01*
X170510426Y-92477675D01*
X170550548Y-92510604D01*
X170596324Y-92535071D01*
X170645994Y-92550138D01*
X170697649Y-92555226D01*
X171197649Y-92555226D01*
X171249304Y-92550138D01*
X171298974Y-92535071D01*
X171344750Y-92510604D01*
X171384872Y-92477675D01*
X171417801Y-92437553D01*
X171442268Y-92391777D01*
X171447649Y-92374038D01*
X171453030Y-92391777D01*
X171477497Y-92437553D01*
X171510426Y-92477675D01*
X171550548Y-92510604D01*
X171596324Y-92535071D01*
X171645994Y-92550138D01*
X171697649Y-92555226D01*
X171912875Y-92555226D01*
X171912875Y-92825678D01*
X171697649Y-92825678D01*
X171645994Y-92830766D01*
X171596324Y-92845833D01*
X171550548Y-92870300D01*
X171510426Y-92903229D01*
X171477497Y-92943351D01*
X171453030Y-92989127D01*
X171437963Y-93038797D01*
X171432875Y-93090452D01*
X171432875Y-93851952D01*
X168717860Y-93851952D01*
X168278763Y-93412856D01*
X168268163Y-93399940D01*
X168216620Y-93357639D01*
X168157815Y-93326207D01*
X168094007Y-93306852D01*
X168044270Y-93301953D01*
X168044262Y-93301953D01*
X168027650Y-93300317D01*
X168011038Y-93301953D01*
X163514259Y-93301953D01*
X163497647Y-93300317D01*
X163481035Y-93301953D01*
X163481028Y-93301953D01*
X163437584Y-93306232D01*
X163431290Y-93306852D01*
X163374584Y-93324053D01*
X163367483Y-93326207D01*
X163308678Y-93357639D01*
X163257135Y-93399940D01*
X163246539Y-93412851D01*
X163132438Y-93526952D01*
X163047074Y-93526952D01*
X162947866Y-93546685D01*
X162854415Y-93585394D01*
X162770312Y-93641590D01*
X162698787Y-93713115D01*
X162642591Y-93797218D01*
X162603882Y-93890669D01*
X162584149Y-93989877D01*
X162584149Y-94091027D01*
X162603882Y-94190235D01*
X162642591Y-94283686D01*
X162698787Y-94367789D01*
X162770312Y-94439314D01*
X162854415Y-94495510D01*
X162947866Y-94534219D01*
X162949789Y-94534601D01*
X162232439Y-95251952D01*
X161585348Y-95251952D01*
X161524986Y-95191590D01*
X161440883Y-95135394D01*
X161347432Y-95096685D01*
X161248224Y-95076952D01*
X161147074Y-95076952D01*
X161047866Y-95096685D01*
X160954415Y-95135394D01*
X160870312Y-95191590D01*
X160798787Y-95263115D01*
X160742591Y-95347218D01*
X160703882Y-95440669D01*
X160684149Y-95539877D01*
X160684149Y-95641027D01*
X160703882Y-95740235D01*
X160742591Y-95833686D01*
X160798787Y-95917789D01*
X160870312Y-95989314D01*
X160954415Y-96045510D01*
X161047866Y-96084219D01*
X161147074Y-96103952D01*
X161248224Y-96103952D01*
X161347432Y-96084219D01*
X161440883Y-96045510D01*
X161524986Y-95989314D01*
X161585348Y-95928952D01*
X162356037Y-95928952D01*
X162372649Y-95930588D01*
X162389261Y-95928952D01*
X162389269Y-95928952D01*
X162439006Y-95924053D01*
X162502814Y-95904698D01*
X162561619Y-95873266D01*
X162613162Y-95830965D01*
X162623762Y-95818049D01*
X164162850Y-94278962D01*
X167763171Y-94278962D01*
X168202272Y-94718064D01*
X168212868Y-94730975D01*
X168264411Y-94773276D01*
X168323216Y-94804708D01*
X168357322Y-94815053D01*
X168387022Y-94824063D01*
X168398520Y-94825195D01*
X168436761Y-94828962D01*
X168436768Y-94828962D01*
X168453380Y-94830598D01*
X168469992Y-94828962D01*
X172281027Y-94828962D01*
X172297639Y-94830598D01*
X172314251Y-94828962D01*
X172314259Y-94828962D01*
X172363996Y-94824063D01*
X172427804Y-94804708D01*
X172486609Y-94773276D01*
X172538152Y-94730975D01*
X172548752Y-94718059D01*
X172975255Y-94291556D01*
X172988161Y-94280965D01*
X172998757Y-94268055D01*
X173013616Y-94249949D01*
X173030463Y-94229422D01*
X173061895Y-94170617D01*
X173070012Y-94143856D01*
X173098974Y-94135071D01*
X173144750Y-94110604D01*
X173184872Y-94077675D01*
X173217801Y-94037553D01*
X173242268Y-93991777D01*
X173253860Y-93953564D01*
X173327866Y-93984219D01*
X173427074Y-94003952D01*
X173528224Y-94003952D01*
X173627432Y-93984219D01*
X173720883Y-93945510D01*
X173804986Y-93889314D01*
X173876511Y-93817789D01*
X173932707Y-93733686D01*
X173971416Y-93640235D01*
X173991149Y-93541027D01*
X173991149Y-93455663D01*
X174250256Y-93196555D01*
X174263162Y-93185964D01*
X174281915Y-93163115D01*
X174287783Y-93155964D01*
X174305464Y-93134421D01*
X174336896Y-93075616D01*
X174345996Y-93045615D01*
X174356251Y-93011809D01*
X174356817Y-93006060D01*
X174361150Y-92962071D01*
X174361150Y-92962063D01*
X174362786Y-92945451D01*
X174361150Y-92928839D01*
X174361150Y-92127062D01*
X174362786Y-92110450D01*
X174361150Y-92093838D01*
X174361150Y-92093831D01*
X174356251Y-92044094D01*
X174355149Y-92040459D01*
X174347914Y-92016610D01*
X174336896Y-91980286D01*
X174305464Y-91921481D01*
X174263163Y-91869938D01*
X174250252Y-91859342D01*
X172778744Y-90387835D01*
X172768144Y-90374919D01*
X172716601Y-90332618D01*
X172657796Y-90301186D01*
X172593988Y-90281831D01*
X172544251Y-90276932D01*
X172544243Y-90276932D01*
X172527631Y-90275296D01*
X172511019Y-90276932D01*
X168745014Y-90276932D01*
X168728391Y-90275295D01*
X168662033Y-90281830D01*
X168598226Y-90301186D01*
X168539421Y-90332618D01*
X168516271Y-90351617D01*
X168500787Y-90364324D01*
X168500783Y-90364328D01*
X168487878Y-90374919D01*
X168477286Y-90387825D01*
X167763173Y-91101940D01*
X164140850Y-91101940D01*
X162891764Y-89852855D01*
X162881164Y-89839939D01*
X162829621Y-89797638D01*
X162770816Y-89766206D01*
X162707008Y-89746851D01*
X162657271Y-89741952D01*
X162657263Y-89741952D01*
X162640651Y-89740316D01*
X162624039Y-89741952D01*
X157455348Y-89741952D01*
X157394986Y-89681590D01*
X157310883Y-89625394D01*
X157217432Y-89586685D01*
X157118224Y-89566952D01*
X157017074Y-89566952D01*
X156917866Y-89586685D01*
X156824415Y-89625394D01*
X156740312Y-89681590D01*
X156668787Y-89753115D01*
X156612591Y-89837218D01*
X156573882Y-89930669D01*
X156554149Y-90029877D01*
X155538500Y-90029877D01*
X155538500Y-84949415D01*
X155540136Y-84932803D01*
X155538500Y-84916191D01*
X155538500Y-84916183D01*
X155533601Y-84866446D01*
X155514246Y-84802638D01*
X155482814Y-84743833D01*
X155440512Y-84692290D01*
X155427607Y-84681699D01*
X148596149Y-77850242D01*
X148596149Y-63569877D01*
X148954149Y-63569877D01*
X148954149Y-63671027D01*
X148973882Y-63770235D01*
X149012591Y-63863686D01*
X149068787Y-63947789D01*
X149140312Y-64019314D01*
X149224415Y-64075510D01*
X149317866Y-64114219D01*
X149417074Y-64133952D01*
X149518224Y-64133952D01*
X149617432Y-64114219D01*
X149710883Y-64075510D01*
X149794986Y-64019314D01*
X149866511Y-63947789D01*
X149922707Y-63863686D01*
X149961416Y-63770235D01*
X149981149Y-63671027D01*
X149981149Y-63569877D01*
X149961416Y-63470669D01*
X149922707Y-63377218D01*
X149866511Y-63293115D01*
X149806149Y-63232753D01*
X149806149Y-62895891D01*
X149834750Y-62880604D01*
X149874872Y-62847675D01*
X149887649Y-62832107D01*
X149900426Y-62847675D01*
X149940548Y-62880604D01*
X149986324Y-62905071D01*
X150035994Y-62920138D01*
X150087649Y-62925226D01*
X150487649Y-62925226D01*
X150529149Y-62921138D01*
X150529149Y-62922753D01*
X150468787Y-62983115D01*
X150412591Y-63067218D01*
X150373882Y-63160669D01*
X150354149Y-63259877D01*
X150354149Y-63361027D01*
X150373882Y-63460235D01*
X150412591Y-63553686D01*
X150468787Y-63637789D01*
X150540312Y-63709314D01*
X150624415Y-63765510D01*
X150717866Y-63804219D01*
X150817074Y-63823952D01*
X150918224Y-63823952D01*
X151017432Y-63804219D01*
X151110883Y-63765510D01*
X151194986Y-63709314D01*
X151266511Y-63637789D01*
X151322707Y-63553686D01*
X151361416Y-63460235D01*
X151381149Y-63361027D01*
X151381149Y-63259877D01*
X151361416Y-63160669D01*
X151322707Y-63067218D01*
X151266511Y-62983115D01*
X151206149Y-62922753D01*
X151206149Y-62457063D01*
X151207785Y-62440451D01*
X151206149Y-62423839D01*
X151206149Y-62423832D01*
X151201250Y-62374095D01*
X151200722Y-62372352D01*
X151187908Y-62330110D01*
X151181895Y-62310287D01*
X151150463Y-62251482D01*
X151108162Y-62199939D01*
X151095251Y-62189343D01*
X150888762Y-61982855D01*
X150878162Y-61969939D01*
X150826619Y-61927638D01*
X150767814Y-61896206D01*
X150752423Y-61891537D01*
X150752423Y-61760452D01*
X150747335Y-61708797D01*
X150732268Y-61659127D01*
X150707801Y-61613351D01*
X150674872Y-61573229D01*
X150634750Y-61540300D01*
X150588974Y-61515833D01*
X150539304Y-61500766D01*
X150487649Y-61495678D01*
X150087649Y-61495678D01*
X150035994Y-61500766D01*
X149986324Y-61515833D01*
X149940548Y-61540300D01*
X149900426Y-61573229D01*
X149887649Y-61588797D01*
X149874872Y-61573229D01*
X149834750Y-61540300D01*
X149788974Y-61515833D01*
X149739304Y-61500766D01*
X149687649Y-61495678D01*
X149287649Y-61495678D01*
X149235994Y-61500766D01*
X149186324Y-61515833D01*
X149140548Y-61540300D01*
X149100426Y-61573229D01*
X149067497Y-61613351D01*
X149043030Y-61659127D01*
X149027963Y-61708797D01*
X149022875Y-61760452D01*
X149022875Y-62660452D01*
X149027963Y-62712107D01*
X149043030Y-62761777D01*
X149067497Y-62807553D01*
X149100426Y-62847675D01*
X149129150Y-62871249D01*
X149129149Y-63232753D01*
X149068787Y-63293115D01*
X149012591Y-63377218D01*
X148973882Y-63470669D01*
X148954149Y-63569877D01*
X148596149Y-63569877D01*
X148596149Y-62885201D01*
X148604750Y-62880604D01*
X148644872Y-62847675D01*
X148677801Y-62807553D01*
X148702268Y-62761777D01*
X148717335Y-62712107D01*
X148722423Y-62660452D01*
X148722423Y-61760452D01*
X148717335Y-61708797D01*
X148702268Y-61659127D01*
X148677801Y-61613351D01*
X148644872Y-61573229D01*
X148604750Y-61540300D01*
X148558974Y-61515833D01*
X148509304Y-61500766D01*
X148457649Y-61495678D01*
X148351133Y-61495678D01*
X148485250Y-61361561D01*
X148498161Y-61350965D01*
X148540463Y-61299422D01*
X148571895Y-61240617D01*
X148582913Y-61204293D01*
X148587264Y-61189950D01*
X148604750Y-61180604D01*
X148644872Y-61147675D01*
X148677801Y-61107553D01*
X148702268Y-61061777D01*
X148717335Y-61012107D01*
X148722423Y-60960452D01*
X148722423Y-60060452D01*
X148717335Y-60008797D01*
X148702268Y-59959127D01*
X148677801Y-59913351D01*
X148644872Y-59873229D01*
X148604750Y-59840300D01*
X148558974Y-59815833D01*
X148509304Y-59800766D01*
X148457649Y-59795678D01*
X148057649Y-59795678D01*
X148005994Y-59800766D01*
X147956324Y-59815833D01*
X147910548Y-59840300D01*
X147870426Y-59873229D01*
X147857649Y-59888797D01*
X147844872Y-59873229D01*
X147804750Y-59840300D01*
X147758974Y-59815833D01*
X147709304Y-59800766D01*
X147657649Y-59795678D01*
X147257649Y-59795678D01*
X147205994Y-59800766D01*
X147156324Y-59815833D01*
X147110548Y-59840300D01*
X147070426Y-59873229D01*
X147037497Y-59913351D01*
X147013030Y-59959127D01*
X146997963Y-60008797D01*
X146992875Y-60060452D01*
X146992875Y-60191537D01*
X146977484Y-60196206D01*
X146918679Y-60227638D01*
X146867136Y-60269939D01*
X146856540Y-60282850D01*
X145517439Y-61621952D01*
X141882138Y-61621952D01*
X141173040Y-60912855D01*
X141162440Y-60899939D01*
X141110897Y-60857638D01*
X141052092Y-60826206D01*
X140988284Y-60806851D01*
X140938547Y-60801952D01*
X140938539Y-60801952D01*
X140921927Y-60800316D01*
X140905315Y-60801952D01*
X109444261Y-60801952D01*
X109427649Y-60800316D01*
X109411037Y-60801952D01*
X109411029Y-60801952D01*
X109367040Y-60806285D01*
X109361291Y-60806851D01*
X109334631Y-60814938D01*
X109297484Y-60826206D01*
X109238679Y-60857638D01*
X109187136Y-60899939D01*
X109176540Y-60912850D01*
X108517423Y-61571968D01*
X108517423Y-60880452D01*
X108512335Y-60828797D01*
X108497268Y-60779127D01*
X108472801Y-60733351D01*
X108439872Y-60693229D01*
X108399750Y-60660300D01*
X108353974Y-60635833D01*
X108304304Y-60620766D01*
X108252649Y-60615678D01*
X107502649Y-60615678D01*
X107450994Y-60620766D01*
X107401324Y-60635833D01*
X107355548Y-60660300D01*
X107315426Y-60693229D01*
X107282497Y-60733351D01*
X107258030Y-60779127D01*
X107242963Y-60828797D01*
X107237875Y-60880452D01*
X107237875Y-60891952D01*
X107166093Y-60891952D01*
X107162335Y-60853797D01*
X107147268Y-60804127D01*
X107122801Y-60758351D01*
X107089872Y-60718229D01*
X107049750Y-60685300D01*
X107003974Y-60660833D01*
X106954304Y-60645766D01*
X106902649Y-60640678D01*
X106402649Y-60640678D01*
X106350994Y-60645766D01*
X106301324Y-60660833D01*
X106255548Y-60685300D01*
X106215426Y-60718229D01*
X106182497Y-60758351D01*
X106158030Y-60804127D01*
X106152649Y-60821866D01*
X106147268Y-60804127D01*
X106122801Y-60758351D01*
X106089872Y-60718229D01*
X106049750Y-60685300D01*
X106003974Y-60660833D01*
X105954304Y-60645766D01*
X105902649Y-60640678D01*
X105687423Y-60640678D01*
X105687423Y-60370226D01*
X105902649Y-60370226D01*
X105954304Y-60365138D01*
X106003974Y-60350071D01*
X106049750Y-60325604D01*
X106089872Y-60292675D01*
X106122801Y-60252553D01*
X106147268Y-60206777D01*
X106162335Y-60157107D01*
X106167423Y-60105452D01*
X106167423Y-59305452D01*
X106162335Y-59253797D01*
X106155511Y-59231301D01*
X106267850Y-59118962D01*
X108483171Y-59118962D01*
X109272278Y-59908070D01*
X109282869Y-59920975D01*
X109295774Y-59931566D01*
X109295777Y-59931569D01*
X109311191Y-59944219D01*
X109334412Y-59963276D01*
X109393217Y-59994708D01*
X109418313Y-60002320D01*
X109457023Y-60014063D01*
X109469611Y-60015303D01*
X109506762Y-60018962D01*
X109506768Y-60018962D01*
X109523380Y-60020598D01*
X109539992Y-60018962D01*
X140001019Y-60018951D01*
X140001029Y-60018952D01*
X140797439Y-60018952D01*
X141086540Y-60308054D01*
X141097136Y-60320965D01*
X141148679Y-60363266D01*
X141207484Y-60394698D01*
X141241590Y-60405043D01*
X141258730Y-60410243D01*
X141756398Y-60907911D01*
X141757568Y-60919789D01*
X141759047Y-60934810D01*
X141769051Y-60967789D01*
X141778402Y-60998617D01*
X141809834Y-61057422D01*
X141852135Y-61108965D01*
X141865047Y-61119562D01*
X142088539Y-61343055D01*
X142099135Y-61355966D01*
X142150678Y-61398267D01*
X142197448Y-61423266D01*
X142209483Y-61429699D01*
X142273290Y-61449054D01*
X142279039Y-61449620D01*
X142323028Y-61453953D01*
X142323036Y-61453953D01*
X142339648Y-61455589D01*
X142356260Y-61453953D01*
X143566036Y-61453953D01*
X143582648Y-61455589D01*
X143599260Y-61453953D01*
X143599268Y-61453953D01*
X143649005Y-61449054D01*
X143712813Y-61429699D01*
X143771618Y-61398267D01*
X143823161Y-61355966D01*
X143833761Y-61343050D01*
X144505251Y-60671561D01*
X144518162Y-60660965D01*
X144560463Y-60609422D01*
X144591895Y-60550617D01*
X144596564Y-60535226D01*
X144727649Y-60535226D01*
X144779304Y-60530138D01*
X144828974Y-60515071D01*
X144874750Y-60490604D01*
X144914872Y-60457675D01*
X144947801Y-60417553D01*
X144972268Y-60371777D01*
X144987335Y-60322107D01*
X144992423Y-60270452D01*
X144992423Y-59870452D01*
X144987335Y-59818797D01*
X144972268Y-59769127D01*
X144947801Y-59723351D01*
X144914872Y-59683229D01*
X144899304Y-59670452D01*
X144914872Y-59657675D01*
X144947801Y-59617553D01*
X144972268Y-59571777D01*
X144987335Y-59522107D01*
X144992423Y-59470452D01*
X144992423Y-59369877D01*
X148944149Y-59369877D01*
X148944149Y-59471027D01*
X148963882Y-59570235D01*
X149002591Y-59663686D01*
X149058787Y-59747789D01*
X149130312Y-59819314D01*
X149149150Y-59831901D01*
X149149150Y-59835702D01*
X149140548Y-59840300D01*
X149100426Y-59873229D01*
X149067497Y-59913351D01*
X149043030Y-59959127D01*
X149027963Y-60008797D01*
X149022875Y-60060452D01*
X149022875Y-60960452D01*
X149027963Y-61012107D01*
X149043030Y-61061777D01*
X149067497Y-61107553D01*
X149100426Y-61147675D01*
X149140548Y-61180604D01*
X149186324Y-61205071D01*
X149235994Y-61220138D01*
X149287649Y-61225226D01*
X149687649Y-61225226D01*
X149739304Y-61220138D01*
X149788974Y-61205071D01*
X149834750Y-61180604D01*
X149874872Y-61147675D01*
X149887649Y-61132107D01*
X149900426Y-61147675D01*
X149940548Y-61180604D01*
X149986324Y-61205071D01*
X150035994Y-61220138D01*
X150087649Y-61225226D01*
X150487649Y-61225226D01*
X150539304Y-61220138D01*
X150588974Y-61205071D01*
X150634750Y-61180604D01*
X150674872Y-61147675D01*
X150707801Y-61107553D01*
X150732268Y-61061777D01*
X150747335Y-61012107D01*
X150752423Y-60960452D01*
X150752423Y-60060452D01*
X150747335Y-60008797D01*
X150732268Y-59959127D01*
X150719430Y-59935107D01*
X150790883Y-59905510D01*
X150874986Y-59849314D01*
X150946511Y-59777789D01*
X151002707Y-59693686D01*
X151041416Y-59600235D01*
X151061149Y-59501027D01*
X151061149Y-59399877D01*
X151041416Y-59300669D01*
X151002707Y-59207218D01*
X150946511Y-59123115D01*
X150874986Y-59051590D01*
X150790883Y-58995394D01*
X150697432Y-58956685D01*
X150598224Y-58936952D01*
X150497074Y-58936952D01*
X150397866Y-58956685D01*
X150304415Y-58995394D01*
X150220312Y-59051590D01*
X150148787Y-59123115D01*
X150092591Y-59207218D01*
X150053882Y-59300669D01*
X150034149Y-59399877D01*
X150034149Y-59485765D01*
X150029448Y-59491493D01*
X150004836Y-59521482D01*
X149973403Y-59580288D01*
X149954048Y-59644095D01*
X149947513Y-59710452D01*
X149949150Y-59727074D01*
X149949150Y-59835702D01*
X149940548Y-59840300D01*
X149900426Y-59873229D01*
X149887649Y-59888797D01*
X149874872Y-59873229D01*
X149834750Y-59840300D01*
X149826149Y-59835703D01*
X149826149Y-59778151D01*
X149856511Y-59747789D01*
X149912707Y-59663686D01*
X149951416Y-59570235D01*
X149971149Y-59471027D01*
X149971149Y-59369877D01*
X149951416Y-59270669D01*
X149912707Y-59177218D01*
X149856511Y-59093115D01*
X149784986Y-59021590D01*
X149700883Y-58965394D01*
X149607432Y-58926685D01*
X149508224Y-58906952D01*
X149407074Y-58906952D01*
X149307866Y-58926685D01*
X149214415Y-58965394D01*
X149130312Y-59021590D01*
X149058787Y-59093115D01*
X149002591Y-59177218D01*
X148963882Y-59270669D01*
X148944149Y-59369877D01*
X144992423Y-59369877D01*
X144992423Y-59070452D01*
X144987335Y-59018797D01*
X144972268Y-58969127D01*
X144947801Y-58923351D01*
X144914872Y-58883229D01*
X144874750Y-58850300D01*
X144828974Y-58825833D01*
X144779304Y-58810766D01*
X144727649Y-58805678D01*
X143827649Y-58805678D01*
X143775994Y-58810766D01*
X143726324Y-58825833D01*
X143687496Y-58846586D01*
X143398763Y-58557854D01*
X143388163Y-58544938D01*
X143336620Y-58502637D01*
X143277815Y-58471205D01*
X143214007Y-58451850D01*
X143164270Y-58446951D01*
X143164262Y-58446951D01*
X143147650Y-58445315D01*
X143131038Y-58446951D01*
X141089261Y-58446951D01*
X141072649Y-58445315D01*
X141056037Y-58446951D01*
X141056030Y-58446951D01*
X141017789Y-58450718D01*
X141006291Y-58451850D01*
X140976591Y-58460860D01*
X140942485Y-58471205D01*
X140883680Y-58502637D01*
X140832137Y-58544938D01*
X140821541Y-58557849D01*
X140337439Y-59041952D01*
X109787860Y-59041952D01*
X108998762Y-58252855D01*
X108988162Y-58239939D01*
X108936619Y-58197638D01*
X108877814Y-58166206D01*
X108814006Y-58146851D01*
X108764269Y-58141952D01*
X108764261Y-58141952D01*
X108747649Y-58140316D01*
X108731037Y-58141952D01*
X105544260Y-58141952D01*
X105527648Y-58140316D01*
X105511036Y-58141952D01*
X105511029Y-58141952D01*
X105467585Y-58146231D01*
X105461291Y-58146851D01*
X105442530Y-58152542D01*
X105397484Y-58166206D01*
X105338679Y-58197638D01*
X105287136Y-58239939D01*
X105276540Y-58252850D01*
X104625048Y-58904343D01*
X104612136Y-58914940D01*
X104569835Y-58966483D01*
X104546925Y-59009345D01*
X104538403Y-59025288D01*
X104530286Y-59052048D01*
X104501324Y-59060833D01*
X104455548Y-59085300D01*
X104415426Y-59118229D01*
X104382497Y-59158351D01*
X104358030Y-59204127D01*
X104342963Y-59253797D01*
X104337875Y-59305452D01*
X104337875Y-60105452D01*
X104337909Y-60105802D01*
X104331225Y-60107829D01*
X104324986Y-60101590D01*
X104240883Y-60045394D01*
X104147432Y-60006685D01*
X104048224Y-59986952D01*
X103947074Y-59986952D01*
X103847866Y-60006685D01*
X103754415Y-60045394D01*
X103670312Y-60101590D01*
X103598787Y-60173115D01*
X103542591Y-60257218D01*
X103503882Y-60350669D01*
X103484149Y-60449877D01*
X103484149Y-60551027D01*
X103503882Y-60650235D01*
X103542591Y-60743686D01*
X103598787Y-60827789D01*
X103670312Y-60899314D01*
X103754415Y-60955510D01*
X103847866Y-60994219D01*
X103947074Y-61013952D01*
X104048224Y-61013952D01*
X104147432Y-60994219D01*
X104240883Y-60955510D01*
X104323063Y-60900599D01*
X104337909Y-60905102D01*
X104337875Y-60905452D01*
X104337875Y-61705452D01*
X104342963Y-61757107D01*
X104358030Y-61806777D01*
X104382497Y-61852553D01*
X104415426Y-61892675D01*
X104455548Y-61925604D01*
X104501324Y-61950071D01*
X104530286Y-61958856D01*
X104538403Y-61985616D01*
X104563534Y-62032632D01*
X104569836Y-62044422D01*
X104612137Y-62095965D01*
X104625048Y-62106561D01*
X105026550Y-62508064D01*
X105037146Y-62520975D01*
X105088689Y-62563276D01*
X105146284Y-62594061D01*
X105147494Y-62594708D01*
X105211301Y-62614063D01*
X105217050Y-62614629D01*
X105261039Y-62618962D01*
X105261047Y-62618962D01*
X105277659Y-62620598D01*
X105294271Y-62618962D01*
X108695305Y-62618962D01*
X108711917Y-62620598D01*
X108728529Y-62618962D01*
X108728537Y-62618962D01*
X108778274Y-62614063D01*
X108842082Y-62594708D01*
X108900887Y-62563276D01*
X108952430Y-62520975D01*
X108963030Y-62508059D01*
X109692128Y-61778962D01*
X140657449Y-61778962D01*
X141366556Y-62488070D01*
X141377147Y-62500975D01*
X141390052Y-62511566D01*
X141390055Y-62511569D01*
X141405405Y-62524166D01*
X141428690Y-62543276D01*
X141487495Y-62574708D01*
X141512591Y-62582320D01*
X141551301Y-62594063D01*
X141563889Y-62595303D01*
X141601040Y-62598962D01*
X141601046Y-62598962D01*
X141617658Y-62600598D01*
X141634271Y-62598962D01*
X145765296Y-62598960D01*
X145781918Y-62600597D01*
X145848275Y-62594062D01*
X145912082Y-62574707D01*
X145970888Y-62543274D01*
X145990346Y-62527305D01*
X146022431Y-62500973D01*
X146033027Y-62488062D01*
X146872139Y-61648952D01*
X147018468Y-61648952D01*
X147013030Y-61659127D01*
X146997963Y-61708797D01*
X146992875Y-61760452D01*
X146992875Y-62660452D01*
X146997963Y-62712107D01*
X147013030Y-62761777D01*
X147037497Y-62807553D01*
X147070426Y-62847675D01*
X147110548Y-62880604D01*
X147128034Y-62889950D01*
X147131721Y-62902104D01*
X147143403Y-62940616D01*
X147174835Y-62999421D01*
X147217136Y-63050964D01*
X147230048Y-63061561D01*
X147619139Y-63450654D01*
X147619141Y-78098099D01*
X147617504Y-78114721D01*
X147624039Y-78181078D01*
X147643394Y-78244885D01*
X147643395Y-78244886D01*
X147674827Y-78303691D01*
X147717128Y-78355234D01*
X147730039Y-78365830D01*
X154561491Y-85197284D01*
X154561490Y-89058063D01*
X154467866Y-89076685D01*
X154374415Y-89115394D01*
X154290312Y-89171590D01*
X154218787Y-89243115D01*
X154162591Y-89327218D01*
X154123882Y-89420669D01*
X154104149Y-89519877D01*
X154104149Y-89621027D01*
X154123882Y-89720235D01*
X154162591Y-89813686D01*
X154218787Y-89897789D01*
X154290312Y-89969314D01*
X154374415Y-90025510D01*
X154467866Y-90064219D01*
X154567074Y-90083952D01*
X154668224Y-90083952D01*
X154767432Y-90064219D01*
X154860883Y-90025510D01*
X154861500Y-90025097D01*
X154861501Y-96285226D01*
X154700000Y-96285226D01*
X154648345Y-96290314D01*
X154598675Y-96305381D01*
X154552899Y-96329848D01*
X154512777Y-96362777D01*
X154479848Y-96402899D01*
X154455381Y-96448675D01*
X154440314Y-96498345D01*
X154435226Y-96550000D01*
X154435226Y-99324955D01*
X151982743Y-99324954D01*
X151982746Y-94726362D01*
X151983787Y-94715793D01*
X151982746Y-94705222D01*
X151982746Y-94705215D01*
X151979627Y-94673549D01*
X151967305Y-94632927D01*
X151947294Y-94595490D01*
X151920364Y-94562676D01*
X151887550Y-94535746D01*
X151850113Y-94515735D01*
X151809491Y-94503413D01*
X151767246Y-94499252D01*
X151756665Y-94500294D01*
X149977815Y-94500292D01*
X149967246Y-94499251D01*
X149956675Y-94500292D01*
X149956668Y-94500292D01*
X149925002Y-94503411D01*
X149884380Y-94515733D01*
X149846943Y-94535744D01*
X149814129Y-94562674D01*
X149787199Y-94595488D01*
X149767188Y-94632925D01*
X149754866Y-94673547D01*
X149750705Y-94715792D01*
X149751747Y-94726373D01*
X149751744Y-99324954D01*
X143713148Y-99324952D01*
X143713150Y-96625632D01*
X143714191Y-96615063D01*
X143713150Y-96604492D01*
X143713150Y-96604485D01*
X143710031Y-96572819D01*
X143697709Y-96532197D01*
X143677698Y-96494760D01*
X143650768Y-96461946D01*
X143617954Y-96435016D01*
X143580517Y-96415005D01*
X143539895Y-96402683D01*
X143497650Y-96398522D01*
X143487069Y-96399564D01*
X141090583Y-96399562D01*
X139794014Y-95630614D01*
X139794016Y-89412197D01*
X141093812Y-88591770D01*
X143487084Y-88591770D01*
X143497653Y-88592811D01*
X143508224Y-88591770D01*
X143508232Y-88591770D01*
X143539898Y-88588651D01*
X143580520Y-88576329D01*
X143617957Y-88556318D01*
X143650771Y-88529388D01*
X143677701Y-88496574D01*
X143697712Y-88459137D01*
X143710034Y-88418515D01*
X143714195Y-88376270D01*
X143713152Y-88365681D01*
X143713161Y-63023550D01*
X143714202Y-63012981D01*
X143713161Y-63002410D01*
X143713161Y-63002403D01*
X143710042Y-62970737D01*
X143697720Y-62930115D01*
X143677709Y-62892678D01*
X143650779Y-62859864D01*
X143617965Y-62832934D01*
X143580528Y-62812923D01*
X143539906Y-62800601D01*
X143497661Y-62796440D01*
X143487080Y-62797482D01*
X141062298Y-62797480D01*
X139675723Y-62137576D01*
X139661513Y-62129969D01*
X139646448Y-62125389D01*
X139631644Y-62120052D01*
X139626181Y-62119228D01*
X139620898Y-62117622D01*
X139605244Y-62116070D01*
X139589669Y-62113721D01*
X139573567Y-62114473D01*
X110256433Y-62096306D01*
X110224765Y-62099405D01*
X110184135Y-62111702D01*
X110146686Y-62131690D01*
X110113855Y-62158600D01*
X110086905Y-62191397D01*
X110085503Y-62194015D01*
X109696446Y-62694879D01*
X109219701Y-63108735D01*
X108671646Y-63422112D01*
X108073165Y-63623068D01*
X107447045Y-63703951D01*
X106817146Y-63661682D01*
X106207073Y-63497766D01*
X105662462Y-63231701D01*
X102416082Y-60699158D01*
X102416082Y-60288117D01*
X105607894Y-57717625D01*
X106177587Y-57433066D01*
X106793716Y-57264027D01*
X107430948Y-57217881D01*
X108065006Y-57296386D01*
G37*
X108065006Y-57296386D02*
X108671742Y-57496553D01*
X109228042Y-57810754D01*
X109712722Y-58227028D01*
X110113259Y-58737084D01*
X110136089Y-58773571D01*
X110142626Y-58785794D01*
X110169562Y-58818602D01*
X110202382Y-58845526D01*
X110239823Y-58865529D01*
X110280448Y-58877842D01*
X110312114Y-58880955D01*
X139573521Y-58874858D01*
X139589668Y-58875613D01*
X139605199Y-58873271D01*
X139620812Y-58871730D01*
X139626138Y-58870113D01*
X139631643Y-58869283D01*
X139646405Y-58863961D01*
X139661432Y-58859399D01*
X139675684Y-58851777D01*
X141062299Y-58191875D01*
X142020728Y-58191875D01*
X142020872Y-58191889D01*
X142031285Y-58191875D01*
X142041740Y-58191875D01*
X142041885Y-58191861D01*
X150388996Y-58180638D01*
X154741842Y-58180638D01*
X161660177Y-59099654D01*
X161660173Y-61690749D01*
X157715737Y-62214711D01*
X157712283Y-62214599D01*
X157694751Y-62217499D01*
X157687643Y-62218443D01*
X157684289Y-62219229D01*
X157670403Y-62221526D01*
X157663668Y-62224063D01*
X157656663Y-62225705D01*
X157643847Y-62231530D01*
X157630678Y-62236490D01*
X157624573Y-62240288D01*
X157618017Y-62243268D01*
X157606579Y-62251485D01*
X157594636Y-62258916D01*
X157589386Y-62263836D01*
X157583541Y-62268035D01*
X157573931Y-62278320D01*
X157563662Y-62287943D01*
X157559473Y-62293792D01*
X157554559Y-62299051D01*
X157547139Y-62311015D01*
X157538946Y-62322455D01*
X157535978Y-62329011D01*
X157532185Y-62335126D01*
X157527243Y-62348303D01*
X157521437Y-62361126D01*
X157519805Y-62368135D01*
X157517278Y-62374872D01*
X157515002Y-62388758D01*
X157511809Y-62402469D01*
X157511576Y-62409663D01*
X157510412Y-62416762D01*
X157510889Y-62430825D01*
X157510432Y-62444896D01*
X157511606Y-62451996D01*
X157511850Y-62459187D01*
X157515062Y-62472888D01*
X157515624Y-62476288D01*
X157517484Y-62483223D01*
X157521538Y-62500516D01*
X157522966Y-62503658D01*
X164636270Y-89021209D01*
X164631019Y-89863093D01*
X164629911Y-89874339D01*
X164631927Y-89894815D01*
X164633812Y-89915258D01*
X164634004Y-89915907D01*
X164634071Y-89916583D01*
X164640060Y-89936328D01*
X164645881Y-89955956D01*
X164646195Y-89956552D01*
X164646393Y-89957205D01*
X164656130Y-89975422D01*
X164665658Y-89993517D01*
X164666083Y-89994042D01*
X164666404Y-89994642D01*
X164679475Y-90010569D01*
X164692383Y-90026499D01*
X164692904Y-90026932D01*
X164693334Y-90027456D01*
X164709199Y-90040476D01*
X164725028Y-90053633D01*
X164725625Y-90053957D01*
X164726148Y-90054386D01*
X164744200Y-90064035D01*
X164762339Y-90073877D01*
X164762990Y-90074079D01*
X164763585Y-90074397D01*
X164783179Y-90080341D01*
X164802884Y-90086452D01*
X164803560Y-90086523D01*
X164804207Y-90086719D01*
X164824606Y-90088728D01*
X164845102Y-90090876D01*
X164856360Y-90089838D01*
X167841590Y-90089841D01*
X167853473Y-90090866D01*
X167873243Y-90088677D01*
X167893096Y-90086722D01*
X167904518Y-90083257D01*
X170780194Y-89474967D01*
X172122858Y-89474967D01*
X175318521Y-90132484D01*
X175318517Y-95041824D01*
X172122858Y-95699338D01*
X170768334Y-95699338D01*
X167904598Y-95091071D01*
X167893095Y-95087582D01*
X167873395Y-95085642D01*
X167853652Y-95083439D01*
X167841665Y-95084463D01*
X164835540Y-95084461D01*
X164825468Y-95083422D01*
X164814396Y-95084461D01*
X164813890Y-95084461D01*
X164803690Y-95085466D01*
X164783205Y-95087388D01*
X164782728Y-95087530D01*
X164782224Y-95087580D01*
X164762255Y-95093637D01*
X164742527Y-95099522D01*
X164742086Y-95099755D01*
X164741602Y-95099902D01*
X164723197Y-95109740D01*
X164704998Y-95119360D01*
X164704611Y-95119675D01*
X164704165Y-95119913D01*
X164688042Y-95133145D01*
X164672060Y-95146138D01*
X164671741Y-95146523D01*
X164671351Y-95146843D01*
X164658187Y-95162884D01*
X164644978Y-95178827D01*
X164644739Y-95179270D01*
X164644421Y-95179657D01*
X164634660Y-95197918D01*
X164624795Y-95216171D01*
X164624647Y-95216650D01*
X164624410Y-95217094D01*
X164618395Y-95236923D01*
X164612285Y-95256736D01*
X164612233Y-95257237D01*
X164612088Y-95257716D01*
X164610061Y-95278299D01*
X164609020Y-95288387D01*
X164609018Y-95288888D01*
X164607927Y-95299961D01*
X164608920Y-95310044D01*
X164590367Y-99324959D01*
X163464774Y-99324958D01*
X163464774Y-96550000D01*
X163459686Y-96498345D01*
X163444619Y-96448675D01*
X163420152Y-96402899D01*
X163387223Y-96362777D01*
X163347101Y-96329848D01*
X163301325Y-96305381D01*
X163251655Y-96290314D01*
X163200000Y-96285226D01*
X162200000Y-96285226D01*
X162148345Y-96290314D01*
X162098675Y-96305381D01*
X162052899Y-96329848D01*
X162012777Y-96362777D01*
X161979848Y-96402899D01*
X161955381Y-96448675D01*
X161950000Y-96466414D01*
X161944619Y-96448675D01*
X161920152Y-96402899D01*
X161887223Y-96362777D01*
X161847101Y-96329848D01*
X161801325Y-96305381D01*
X161751655Y-96290314D01*
X161700000Y-96285226D01*
X160700000Y-96285226D01*
X160648345Y-96290314D01*
X160598675Y-96305381D01*
X160552899Y-96329848D01*
X160512777Y-96362777D01*
X160479848Y-96402899D01*
X160455381Y-96448675D01*
X160450000Y-96466414D01*
X160444619Y-96448675D01*
X160420152Y-96402899D01*
X160387223Y-96362777D01*
X160347101Y-96329848D01*
X160301325Y-96305381D01*
X160251655Y-96290314D01*
X160200000Y-96285226D01*
X159200000Y-96285226D01*
X159148345Y-96290314D01*
X159098675Y-96305381D01*
X159052899Y-96329848D01*
X159012777Y-96362777D01*
X158979848Y-96402899D01*
X158955381Y-96448675D01*
X158940314Y-96498345D01*
X158935226Y-96550000D01*
X158935226Y-99324957D01*
X157464774Y-99324956D01*
X157464774Y-96550000D01*
X157459686Y-96498345D01*
X157444619Y-96448675D01*
X157420152Y-96402899D01*
X157387223Y-96362777D01*
X157347101Y-96329848D01*
X157301325Y-96305381D01*
X157251655Y-96290314D01*
X157200000Y-96285226D01*
X156200000Y-96285226D01*
X156148345Y-96290314D01*
X156098675Y-96305381D01*
X156052899Y-96329848D01*
X156012777Y-96362777D01*
X155979848Y-96402899D01*
X155955381Y-96448675D01*
X155950000Y-96466414D01*
X155944619Y-96448675D01*
X155920152Y-96402899D01*
X155887223Y-96362777D01*
X155847101Y-96329848D01*
X155801325Y-96305381D01*
X155751655Y-96290314D01*
X155700000Y-96285226D01*
X155538500Y-96285226D01*
X155538500Y-90029877D01*
X156554149Y-90029877D01*
X156554149Y-90131027D01*
X156573882Y-90230235D01*
X156612591Y-90323686D01*
X156668787Y-90407789D01*
X156740312Y-90479314D01*
X156824415Y-90535510D01*
X156917866Y-90574219D01*
X157017074Y-90593952D01*
X157118224Y-90593952D01*
X157217432Y-90574219D01*
X157310883Y-90535510D01*
X157394986Y-90479314D01*
X157455348Y-90418952D01*
X160533338Y-90418952D01*
X160532135Y-90419939D01*
X160489834Y-90471482D01*
X160482456Y-90485286D01*
X160458402Y-90530287D01*
X160444747Y-90575305D01*
X160439047Y-90594095D01*
X160434148Y-90643832D01*
X160434148Y-90643839D01*
X160432512Y-90660451D01*
X160434148Y-90677063D01*
X160434149Y-91972876D01*
X160402706Y-91896968D01*
X160346510Y-91812865D01*
X160274985Y-91741340D01*
X160190882Y-91685144D01*
X160097431Y-91646435D01*
X159998223Y-91626702D01*
X159897073Y-91626702D01*
X159797865Y-91646435D01*
X159704414Y-91685144D01*
X159620311Y-91741340D01*
X159548786Y-91812865D01*
X159492590Y-91896968D01*
X159453881Y-91990419D01*
X159434148Y-92089627D01*
X159434148Y-92190777D01*
X159453881Y-92289985D01*
X159492590Y-92383436D01*
X159548786Y-92467539D01*
X159609149Y-92527902D01*
X159609149Y-92778831D01*
X159607512Y-92795453D01*
X159614047Y-92861810D01*
X159633402Y-92925617D01*
X159655251Y-92966492D01*
X159664835Y-92984423D01*
X159707136Y-93035966D01*
X159720047Y-93046562D01*
X160566539Y-93893055D01*
X160577135Y-93905966D01*
X160628678Y-93948267D01*
X160676922Y-93974054D01*
X160687483Y-93979699D01*
X160751290Y-93999054D01*
X160757039Y-93999620D01*
X160801028Y-94003953D01*
X160801036Y-94003953D01*
X160817648Y-94005589D01*
X160834260Y-94003953D01*
X161906036Y-94003953D01*
X161922648Y-94005589D01*
X161939260Y-94003953D01*
X161939268Y-94003953D01*
X161989005Y-93999054D01*
X162052813Y-93979699D01*
X162111618Y-93948267D01*
X162163161Y-93905966D01*
X162173761Y-93893050D01*
X162225250Y-93841561D01*
X162238161Y-93830965D01*
X162280463Y-93779422D01*
X162311895Y-93720617D01*
X162327264Y-93669950D01*
X162344750Y-93660604D01*
X162384872Y-93627675D01*
X162417801Y-93587553D01*
X162442268Y-93541777D01*
X162457335Y-93492107D01*
X162462423Y-93440452D01*
X162462423Y-92540452D01*
X162457335Y-92488797D01*
X162442268Y-92439127D01*
X162417801Y-92393351D01*
X162405990Y-92378960D01*
X168361027Y-92378960D01*
X168377639Y-92380596D01*
X168394251Y-92378960D01*
X168394259Y-92378960D01*
X168443996Y-92374061D01*
X168507804Y-92354706D01*
X168566609Y-92323274D01*
X168618152Y-92280973D01*
X168628752Y-92268057D01*
X169107875Y-91788935D01*
X169107875Y-92340452D01*
X169112963Y-92392107D01*
X169128030Y-92441777D01*
X169152497Y-92487553D01*
X169185426Y-92527675D01*
X169225548Y-92560604D01*
X169271324Y-92585071D01*
X169320994Y-92600138D01*
X169372649Y-92605226D01*
X170122649Y-92605226D01*
X170174304Y-92600138D01*
X170223974Y-92585071D01*
X170269750Y-92560604D01*
X170309872Y-92527675D01*
X170342801Y-92487553D01*
X170367268Y-92441777D01*
X170382335Y-92392107D01*
X170387423Y-92340452D01*
X170387423Y-92278952D01*
X170432875Y-92278952D01*
X170432875Y-92290452D01*
X170437963Y-92342107D01*
X170453030Y-92391777D01*
X170477497Y-92437553D01*
X170510426Y-92477675D01*
X170550548Y-92510604D01*
X170596324Y-92535071D01*
X170645994Y-92550138D01*
X170697649Y-92555226D01*
X171197649Y-92555226D01*
X171249304Y-92550138D01*
X171298974Y-92535071D01*
X171344750Y-92510604D01*
X171384872Y-92477675D01*
X171417801Y-92437553D01*
X171442268Y-92391777D01*
X171447649Y-92374038D01*
X171453030Y-92391777D01*
X171477497Y-92437553D01*
X171510426Y-92477675D01*
X171550548Y-92510604D01*
X171596324Y-92535071D01*
X171645994Y-92550138D01*
X171697649Y-92555226D01*
X171912875Y-92555226D01*
X171912875Y-92825678D01*
X171697649Y-92825678D01*
X171645994Y-92830766D01*
X171596324Y-92845833D01*
X171550548Y-92870300D01*
X171510426Y-92903229D01*
X171477497Y-92943351D01*
X171453030Y-92989127D01*
X171437963Y-93038797D01*
X171432875Y-93090452D01*
X171432875Y-93851952D01*
X168717860Y-93851952D01*
X168278763Y-93412856D01*
X168268163Y-93399940D01*
X168216620Y-93357639D01*
X168157815Y-93326207D01*
X168094007Y-93306852D01*
X168044270Y-93301953D01*
X168044262Y-93301953D01*
X168027650Y-93300317D01*
X168011038Y-93301953D01*
X163514259Y-93301953D01*
X163497647Y-93300317D01*
X163481035Y-93301953D01*
X163481028Y-93301953D01*
X163437584Y-93306232D01*
X163431290Y-93306852D01*
X163374584Y-93324053D01*
X163367483Y-93326207D01*
X163308678Y-93357639D01*
X163257135Y-93399940D01*
X163246539Y-93412851D01*
X163132438Y-93526952D01*
X163047074Y-93526952D01*
X162947866Y-93546685D01*
X162854415Y-93585394D01*
X162770312Y-93641590D01*
X162698787Y-93713115D01*
X162642591Y-93797218D01*
X162603882Y-93890669D01*
X162584149Y-93989877D01*
X162584149Y-94091027D01*
X162603882Y-94190235D01*
X162642591Y-94283686D01*
X162698787Y-94367789D01*
X162770312Y-94439314D01*
X162854415Y-94495510D01*
X162947866Y-94534219D01*
X162949789Y-94534601D01*
X162232439Y-95251952D01*
X161585348Y-95251952D01*
X161524986Y-95191590D01*
X161440883Y-95135394D01*
X161347432Y-95096685D01*
X161248224Y-95076952D01*
X161147074Y-95076952D01*
X161047866Y-95096685D01*
X160954415Y-95135394D01*
X160870312Y-95191590D01*
X160798787Y-95263115D01*
X160742591Y-95347218D01*
X160703882Y-95440669D01*
X160684149Y-95539877D01*
X160684149Y-95641027D01*
X160703882Y-95740235D01*
X160742591Y-95833686D01*
X160798787Y-95917789D01*
X160870312Y-95989314D01*
X160954415Y-96045510D01*
X161047866Y-96084219D01*
X161147074Y-96103952D01*
X161248224Y-96103952D01*
X161347432Y-96084219D01*
X161440883Y-96045510D01*
X161524986Y-95989314D01*
X161585348Y-95928952D01*
X162356037Y-95928952D01*
X162372649Y-95930588D01*
X162389261Y-95928952D01*
X162389269Y-95928952D01*
X162439006Y-95924053D01*
X162502814Y-95904698D01*
X162561619Y-95873266D01*
X162613162Y-95830965D01*
X162623762Y-95818049D01*
X164162850Y-94278962D01*
X167763171Y-94278962D01*
X168202272Y-94718064D01*
X168212868Y-94730975D01*
X168264411Y-94773276D01*
X168323216Y-94804708D01*
X168357322Y-94815053D01*
X168387022Y-94824063D01*
X168398520Y-94825195D01*
X168436761Y-94828962D01*
X168436768Y-94828962D01*
X168453380Y-94830598D01*
X168469992Y-94828962D01*
X172281027Y-94828962D01*
X172297639Y-94830598D01*
X172314251Y-94828962D01*
X172314259Y-94828962D01*
X172363996Y-94824063D01*
X172427804Y-94804708D01*
X172486609Y-94773276D01*
X172538152Y-94730975D01*
X172548752Y-94718059D01*
X172975255Y-94291556D01*
X172988161Y-94280965D01*
X172998757Y-94268055D01*
X173013616Y-94249949D01*
X173030463Y-94229422D01*
X173061895Y-94170617D01*
X173070012Y-94143856D01*
X173098974Y-94135071D01*
X173144750Y-94110604D01*
X173184872Y-94077675D01*
X173217801Y-94037553D01*
X173242268Y-93991777D01*
X173253860Y-93953564D01*
X173327866Y-93984219D01*
X173427074Y-94003952D01*
X173528224Y-94003952D01*
X173627432Y-93984219D01*
X173720883Y-93945510D01*
X173804986Y-93889314D01*
X173876511Y-93817789D01*
X173932707Y-93733686D01*
X173971416Y-93640235D01*
X173991149Y-93541027D01*
X173991149Y-93455663D01*
X174250256Y-93196555D01*
X174263162Y-93185964D01*
X174281915Y-93163115D01*
X174287783Y-93155964D01*
X174305464Y-93134421D01*
X174336896Y-93075616D01*
X174345996Y-93045615D01*
X174356251Y-93011809D01*
X174356817Y-93006060D01*
X174361150Y-92962071D01*
X174361150Y-92962063D01*
X174362786Y-92945451D01*
X174361150Y-92928839D01*
X174361150Y-92127062D01*
X174362786Y-92110450D01*
X174361150Y-92093838D01*
X174361150Y-92093831D01*
X174356251Y-92044094D01*
X174355149Y-92040459D01*
X174347914Y-92016610D01*
X174336896Y-91980286D01*
X174305464Y-91921481D01*
X174263163Y-91869938D01*
X174250252Y-91859342D01*
X172778744Y-90387835D01*
X172768144Y-90374919D01*
X172716601Y-90332618D01*
X172657796Y-90301186D01*
X172593988Y-90281831D01*
X172544251Y-90276932D01*
X172544243Y-90276932D01*
X172527631Y-90275296D01*
X172511019Y-90276932D01*
X168745014Y-90276932D01*
X168728391Y-90275295D01*
X168662033Y-90281830D01*
X168598226Y-90301186D01*
X168539421Y-90332618D01*
X168516271Y-90351617D01*
X168500787Y-90364324D01*
X168500783Y-90364328D01*
X168487878Y-90374919D01*
X168477286Y-90387825D01*
X167763173Y-91101940D01*
X164140850Y-91101940D01*
X162891764Y-89852855D01*
X162881164Y-89839939D01*
X162829621Y-89797638D01*
X162770816Y-89766206D01*
X162707008Y-89746851D01*
X162657271Y-89741952D01*
X162657263Y-89741952D01*
X162640651Y-89740316D01*
X162624039Y-89741952D01*
X157455348Y-89741952D01*
X157394986Y-89681590D01*
X157310883Y-89625394D01*
X157217432Y-89586685D01*
X157118224Y-89566952D01*
X157017074Y-89566952D01*
X156917866Y-89586685D01*
X156824415Y-89625394D01*
X156740312Y-89681590D01*
X156668787Y-89753115D01*
X156612591Y-89837218D01*
X156573882Y-89930669D01*
X156554149Y-90029877D01*
X155538500Y-90029877D01*
X155538500Y-84949415D01*
X155540136Y-84932803D01*
X155538500Y-84916191D01*
X155538500Y-84916183D01*
X155533601Y-84866446D01*
X155514246Y-84802638D01*
X155482814Y-84743833D01*
X155440512Y-84692290D01*
X155427607Y-84681699D01*
X148596149Y-77850242D01*
X148596149Y-63569877D01*
X148954149Y-63569877D01*
X148954149Y-63671027D01*
X148973882Y-63770235D01*
X149012591Y-63863686D01*
X149068787Y-63947789D01*
X149140312Y-64019314D01*
X149224415Y-64075510D01*
X149317866Y-64114219D01*
X149417074Y-64133952D01*
X149518224Y-64133952D01*
X149617432Y-64114219D01*
X149710883Y-64075510D01*
X149794986Y-64019314D01*
X149866511Y-63947789D01*
X149922707Y-63863686D01*
X149961416Y-63770235D01*
X149981149Y-63671027D01*
X149981149Y-63569877D01*
X149961416Y-63470669D01*
X149922707Y-63377218D01*
X149866511Y-63293115D01*
X149806149Y-63232753D01*
X149806149Y-62895891D01*
X149834750Y-62880604D01*
X149874872Y-62847675D01*
X149887649Y-62832107D01*
X149900426Y-62847675D01*
X149940548Y-62880604D01*
X149986324Y-62905071D01*
X150035994Y-62920138D01*
X150087649Y-62925226D01*
X150487649Y-62925226D01*
X150529149Y-62921138D01*
X150529149Y-62922753D01*
X150468787Y-62983115D01*
X150412591Y-63067218D01*
X150373882Y-63160669D01*
X150354149Y-63259877D01*
X150354149Y-63361027D01*
X150373882Y-63460235D01*
X150412591Y-63553686D01*
X150468787Y-63637789D01*
X150540312Y-63709314D01*
X150624415Y-63765510D01*
X150717866Y-63804219D01*
X150817074Y-63823952D01*
X150918224Y-63823952D01*
X151017432Y-63804219D01*
X151110883Y-63765510D01*
X151194986Y-63709314D01*
X151266511Y-63637789D01*
X151322707Y-63553686D01*
X151361416Y-63460235D01*
X151381149Y-63361027D01*
X151381149Y-63259877D01*
X151361416Y-63160669D01*
X151322707Y-63067218D01*
X151266511Y-62983115D01*
X151206149Y-62922753D01*
X151206149Y-62457063D01*
X151207785Y-62440451D01*
X151206149Y-62423839D01*
X151206149Y-62423832D01*
X151201250Y-62374095D01*
X151200722Y-62372352D01*
X151187908Y-62330110D01*
X151181895Y-62310287D01*
X151150463Y-62251482D01*
X151108162Y-62199939D01*
X151095251Y-62189343D01*
X150888762Y-61982855D01*
X150878162Y-61969939D01*
X150826619Y-61927638D01*
X150767814Y-61896206D01*
X150752423Y-61891537D01*
X150752423Y-61760452D01*
X150747335Y-61708797D01*
X150732268Y-61659127D01*
X150707801Y-61613351D01*
X150674872Y-61573229D01*
X150634750Y-61540300D01*
X150588974Y-61515833D01*
X150539304Y-61500766D01*
X150487649Y-61495678D01*
X150087649Y-61495678D01*
X150035994Y-61500766D01*
X149986324Y-61515833D01*
X149940548Y-61540300D01*
X149900426Y-61573229D01*
X149887649Y-61588797D01*
X149874872Y-61573229D01*
X149834750Y-61540300D01*
X149788974Y-61515833D01*
X149739304Y-61500766D01*
X149687649Y-61495678D01*
X149287649Y-61495678D01*
X149235994Y-61500766D01*
X149186324Y-61515833D01*
X149140548Y-61540300D01*
X149100426Y-61573229D01*
X149067497Y-61613351D01*
X149043030Y-61659127D01*
X149027963Y-61708797D01*
X149022875Y-61760452D01*
X149022875Y-62660452D01*
X149027963Y-62712107D01*
X149043030Y-62761777D01*
X149067497Y-62807553D01*
X149100426Y-62847675D01*
X149129150Y-62871249D01*
X149129149Y-63232753D01*
X149068787Y-63293115D01*
X149012591Y-63377218D01*
X148973882Y-63470669D01*
X148954149Y-63569877D01*
X148596149Y-63569877D01*
X148596149Y-62885201D01*
X148604750Y-62880604D01*
X148644872Y-62847675D01*
X148677801Y-62807553D01*
X148702268Y-62761777D01*
X148717335Y-62712107D01*
X148722423Y-62660452D01*
X148722423Y-61760452D01*
X148717335Y-61708797D01*
X148702268Y-61659127D01*
X148677801Y-61613351D01*
X148644872Y-61573229D01*
X148604750Y-61540300D01*
X148558974Y-61515833D01*
X148509304Y-61500766D01*
X148457649Y-61495678D01*
X148351133Y-61495678D01*
X148485250Y-61361561D01*
X148498161Y-61350965D01*
X148540463Y-61299422D01*
X148571895Y-61240617D01*
X148582913Y-61204293D01*
X148587264Y-61189950D01*
X148604750Y-61180604D01*
X148644872Y-61147675D01*
X148677801Y-61107553D01*
X148702268Y-61061777D01*
X148717335Y-61012107D01*
X148722423Y-60960452D01*
X148722423Y-60060452D01*
X148717335Y-60008797D01*
X148702268Y-59959127D01*
X148677801Y-59913351D01*
X148644872Y-59873229D01*
X148604750Y-59840300D01*
X148558974Y-59815833D01*
X148509304Y-59800766D01*
X148457649Y-59795678D01*
X148057649Y-59795678D01*
X148005994Y-59800766D01*
X147956324Y-59815833D01*
X147910548Y-59840300D01*
X147870426Y-59873229D01*
X147857649Y-59888797D01*
X147844872Y-59873229D01*
X147804750Y-59840300D01*
X147758974Y-59815833D01*
X147709304Y-59800766D01*
X147657649Y-59795678D01*
X147257649Y-59795678D01*
X147205994Y-59800766D01*
X147156324Y-59815833D01*
X147110548Y-59840300D01*
X147070426Y-59873229D01*
X147037497Y-59913351D01*
X147013030Y-59959127D01*
X146997963Y-60008797D01*
X146992875Y-60060452D01*
X146992875Y-60191537D01*
X146977484Y-60196206D01*
X146918679Y-60227638D01*
X146867136Y-60269939D01*
X146856540Y-60282850D01*
X145517439Y-61621952D01*
X141882138Y-61621952D01*
X141173040Y-60912855D01*
X141162440Y-60899939D01*
X141110897Y-60857638D01*
X141052092Y-60826206D01*
X140988284Y-60806851D01*
X140938547Y-60801952D01*
X140938539Y-60801952D01*
X140921927Y-60800316D01*
X140905315Y-60801952D01*
X109444261Y-60801952D01*
X109427649Y-60800316D01*
X109411037Y-60801952D01*
X109411029Y-60801952D01*
X109367040Y-60806285D01*
X109361291Y-60806851D01*
X109334631Y-60814938D01*
X109297484Y-60826206D01*
X109238679Y-60857638D01*
X109187136Y-60899939D01*
X109176540Y-60912850D01*
X108517423Y-61571968D01*
X108517423Y-60880452D01*
X108512335Y-60828797D01*
X108497268Y-60779127D01*
X108472801Y-60733351D01*
X108439872Y-60693229D01*
X108399750Y-60660300D01*
X108353974Y-60635833D01*
X108304304Y-60620766D01*
X108252649Y-60615678D01*
X107502649Y-60615678D01*
X107450994Y-60620766D01*
X107401324Y-60635833D01*
X107355548Y-60660300D01*
X107315426Y-60693229D01*
X107282497Y-60733351D01*
X107258030Y-60779127D01*
X107242963Y-60828797D01*
X107237875Y-60880452D01*
X107237875Y-60891952D01*
X107166093Y-60891952D01*
X107162335Y-60853797D01*
X107147268Y-60804127D01*
X107122801Y-60758351D01*
X107089872Y-60718229D01*
X107049750Y-60685300D01*
X107003974Y-60660833D01*
X106954304Y-60645766D01*
X106902649Y-60640678D01*
X106402649Y-60640678D01*
X106350994Y-60645766D01*
X106301324Y-60660833D01*
X106255548Y-60685300D01*
X106215426Y-60718229D01*
X106182497Y-60758351D01*
X106158030Y-60804127D01*
X106152649Y-60821866D01*
X106147268Y-60804127D01*
X106122801Y-60758351D01*
X106089872Y-60718229D01*
X106049750Y-60685300D01*
X106003974Y-60660833D01*
X105954304Y-60645766D01*
X105902649Y-60640678D01*
X105687423Y-60640678D01*
X105687423Y-60370226D01*
X105902649Y-60370226D01*
X105954304Y-60365138D01*
X106003974Y-60350071D01*
X106049750Y-60325604D01*
X106089872Y-60292675D01*
X106122801Y-60252553D01*
X106147268Y-60206777D01*
X106162335Y-60157107D01*
X106167423Y-60105452D01*
X106167423Y-59305452D01*
X106162335Y-59253797D01*
X106155511Y-59231301D01*
X106267850Y-59118962D01*
X108483171Y-59118962D01*
X109272278Y-59908070D01*
X109282869Y-59920975D01*
X109295774Y-59931566D01*
X109295777Y-59931569D01*
X109311191Y-59944219D01*
X109334412Y-59963276D01*
X109393217Y-59994708D01*
X109418313Y-60002320D01*
X109457023Y-60014063D01*
X109469611Y-60015303D01*
X109506762Y-60018962D01*
X109506768Y-60018962D01*
X109523380Y-60020598D01*
X109539992Y-60018962D01*
X140001019Y-60018951D01*
X140001029Y-60018952D01*
X140797439Y-60018952D01*
X141086540Y-60308054D01*
X141097136Y-60320965D01*
X141148679Y-60363266D01*
X141207484Y-60394698D01*
X141241590Y-60405043D01*
X141258730Y-60410243D01*
X141756398Y-60907911D01*
X141757568Y-60919789D01*
X141759047Y-60934810D01*
X141769051Y-60967789D01*
X141778402Y-60998617D01*
X141809834Y-61057422D01*
X141852135Y-61108965D01*
X141865047Y-61119562D01*
X142088539Y-61343055D01*
X142099135Y-61355966D01*
X142150678Y-61398267D01*
X142197448Y-61423266D01*
X142209483Y-61429699D01*
X142273290Y-61449054D01*
X142279039Y-61449620D01*
X142323028Y-61453953D01*
X142323036Y-61453953D01*
X142339648Y-61455589D01*
X142356260Y-61453953D01*
X143566036Y-61453953D01*
X143582648Y-61455589D01*
X143599260Y-61453953D01*
X143599268Y-61453953D01*
X143649005Y-61449054D01*
X143712813Y-61429699D01*
X143771618Y-61398267D01*
X143823161Y-61355966D01*
X143833761Y-61343050D01*
X144505251Y-60671561D01*
X144518162Y-60660965D01*
X144560463Y-60609422D01*
X144591895Y-60550617D01*
X144596564Y-60535226D01*
X144727649Y-60535226D01*
X144779304Y-60530138D01*
X144828974Y-60515071D01*
X144874750Y-60490604D01*
X144914872Y-60457675D01*
X144947801Y-60417553D01*
X144972268Y-60371777D01*
X144987335Y-60322107D01*
X144992423Y-60270452D01*
X144992423Y-59870452D01*
X144987335Y-59818797D01*
X144972268Y-59769127D01*
X144947801Y-59723351D01*
X144914872Y-59683229D01*
X144899304Y-59670452D01*
X144914872Y-59657675D01*
X144947801Y-59617553D01*
X144972268Y-59571777D01*
X144987335Y-59522107D01*
X144992423Y-59470452D01*
X144992423Y-59369877D01*
X148944149Y-59369877D01*
X148944149Y-59471027D01*
X148963882Y-59570235D01*
X149002591Y-59663686D01*
X149058787Y-59747789D01*
X149130312Y-59819314D01*
X149149150Y-59831901D01*
X149149150Y-59835702D01*
X149140548Y-59840300D01*
X149100426Y-59873229D01*
X149067497Y-59913351D01*
X149043030Y-59959127D01*
X149027963Y-60008797D01*
X149022875Y-60060452D01*
X149022875Y-60960452D01*
X149027963Y-61012107D01*
X149043030Y-61061777D01*
X149067497Y-61107553D01*
X149100426Y-61147675D01*
X149140548Y-61180604D01*
X149186324Y-61205071D01*
X149235994Y-61220138D01*
X149287649Y-61225226D01*
X149687649Y-61225226D01*
X149739304Y-61220138D01*
X149788974Y-61205071D01*
X149834750Y-61180604D01*
X149874872Y-61147675D01*
X149887649Y-61132107D01*
X149900426Y-61147675D01*
X149940548Y-61180604D01*
X149986324Y-61205071D01*
X150035994Y-61220138D01*
X150087649Y-61225226D01*
X150487649Y-61225226D01*
X150539304Y-61220138D01*
X150588974Y-61205071D01*
X150634750Y-61180604D01*
X150674872Y-61147675D01*
X150707801Y-61107553D01*
X150732268Y-61061777D01*
X150747335Y-61012107D01*
X150752423Y-60960452D01*
X150752423Y-60060452D01*
X150747335Y-60008797D01*
X150732268Y-59959127D01*
X150719430Y-59935107D01*
X150790883Y-59905510D01*
X150874986Y-59849314D01*
X150946511Y-59777789D01*
X151002707Y-59693686D01*
X151041416Y-59600235D01*
X151061149Y-59501027D01*
X151061149Y-59399877D01*
X151041416Y-59300669D01*
X151002707Y-59207218D01*
X150946511Y-59123115D01*
X150874986Y-59051590D01*
X150790883Y-58995394D01*
X150697432Y-58956685D01*
X150598224Y-58936952D01*
X150497074Y-58936952D01*
X150397866Y-58956685D01*
X150304415Y-58995394D01*
X150220312Y-59051590D01*
X150148787Y-59123115D01*
X150092591Y-59207218D01*
X150053882Y-59300669D01*
X150034149Y-59399877D01*
X150034149Y-59485765D01*
X150029448Y-59491493D01*
X150004836Y-59521482D01*
X149973403Y-59580288D01*
X149954048Y-59644095D01*
X149947513Y-59710452D01*
X149949150Y-59727074D01*
X149949150Y-59835702D01*
X149940548Y-59840300D01*
X149900426Y-59873229D01*
X149887649Y-59888797D01*
X149874872Y-59873229D01*
X149834750Y-59840300D01*
X149826149Y-59835703D01*
X149826149Y-59778151D01*
X149856511Y-59747789D01*
X149912707Y-59663686D01*
X149951416Y-59570235D01*
X149971149Y-59471027D01*
X149971149Y-59369877D01*
X149951416Y-59270669D01*
X149912707Y-59177218D01*
X149856511Y-59093115D01*
X149784986Y-59021590D01*
X149700883Y-58965394D01*
X149607432Y-58926685D01*
X149508224Y-58906952D01*
X149407074Y-58906952D01*
X149307866Y-58926685D01*
X149214415Y-58965394D01*
X149130312Y-59021590D01*
X149058787Y-59093115D01*
X149002591Y-59177218D01*
X148963882Y-59270669D01*
X148944149Y-59369877D01*
X144992423Y-59369877D01*
X144992423Y-59070452D01*
X144987335Y-59018797D01*
X144972268Y-58969127D01*
X144947801Y-58923351D01*
X144914872Y-58883229D01*
X144874750Y-58850300D01*
X144828974Y-58825833D01*
X144779304Y-58810766D01*
X144727649Y-58805678D01*
X143827649Y-58805678D01*
X143775994Y-58810766D01*
X143726324Y-58825833D01*
X143687496Y-58846586D01*
X143398763Y-58557854D01*
X143388163Y-58544938D01*
X143336620Y-58502637D01*
X143277815Y-58471205D01*
X143214007Y-58451850D01*
X143164270Y-58446951D01*
X143164262Y-58446951D01*
X143147650Y-58445315D01*
X143131038Y-58446951D01*
X141089261Y-58446951D01*
X141072649Y-58445315D01*
X141056037Y-58446951D01*
X141056030Y-58446951D01*
X141017789Y-58450718D01*
X141006291Y-58451850D01*
X140976591Y-58460860D01*
X140942485Y-58471205D01*
X140883680Y-58502637D01*
X140832137Y-58544938D01*
X140821541Y-58557849D01*
X140337439Y-59041952D01*
X109787860Y-59041952D01*
X108998762Y-58252855D01*
X108988162Y-58239939D01*
X108936619Y-58197638D01*
X108877814Y-58166206D01*
X108814006Y-58146851D01*
X108764269Y-58141952D01*
X108764261Y-58141952D01*
X108747649Y-58140316D01*
X108731037Y-58141952D01*
X105544260Y-58141952D01*
X105527648Y-58140316D01*
X105511036Y-58141952D01*
X105511029Y-58141952D01*
X105467585Y-58146231D01*
X105461291Y-58146851D01*
X105442530Y-58152542D01*
X105397484Y-58166206D01*
X105338679Y-58197638D01*
X105287136Y-58239939D01*
X105276540Y-58252850D01*
X104625048Y-58904343D01*
X104612136Y-58914940D01*
X104569835Y-58966483D01*
X104546925Y-59009345D01*
X104538403Y-59025288D01*
X104530286Y-59052048D01*
X104501324Y-59060833D01*
X104455548Y-59085300D01*
X104415426Y-59118229D01*
X104382497Y-59158351D01*
X104358030Y-59204127D01*
X104342963Y-59253797D01*
X104337875Y-59305452D01*
X104337875Y-60105452D01*
X104337909Y-60105802D01*
X104331225Y-60107829D01*
X104324986Y-60101590D01*
X104240883Y-60045394D01*
X104147432Y-60006685D01*
X104048224Y-59986952D01*
X103947074Y-59986952D01*
X103847866Y-60006685D01*
X103754415Y-60045394D01*
X103670312Y-60101590D01*
X103598787Y-60173115D01*
X103542591Y-60257218D01*
X103503882Y-60350669D01*
X103484149Y-60449877D01*
X103484149Y-60551027D01*
X103503882Y-60650235D01*
X103542591Y-60743686D01*
X103598787Y-60827789D01*
X103670312Y-60899314D01*
X103754415Y-60955510D01*
X103847866Y-60994219D01*
X103947074Y-61013952D01*
X104048224Y-61013952D01*
X104147432Y-60994219D01*
X104240883Y-60955510D01*
X104323063Y-60900599D01*
X104337909Y-60905102D01*
X104337875Y-60905452D01*
X104337875Y-61705452D01*
X104342963Y-61757107D01*
X104358030Y-61806777D01*
X104382497Y-61852553D01*
X104415426Y-61892675D01*
X104455548Y-61925604D01*
X104501324Y-61950071D01*
X104530286Y-61958856D01*
X104538403Y-61985616D01*
X104563534Y-62032632D01*
X104569836Y-62044422D01*
X104612137Y-62095965D01*
X104625048Y-62106561D01*
X105026550Y-62508064D01*
X105037146Y-62520975D01*
X105088689Y-62563276D01*
X105146284Y-62594061D01*
X105147494Y-62594708D01*
X105211301Y-62614063D01*
X105217050Y-62614629D01*
X105261039Y-62618962D01*
X105261047Y-62618962D01*
X105277659Y-62620598D01*
X105294271Y-62618962D01*
X108695305Y-62618962D01*
X108711917Y-62620598D01*
X108728529Y-62618962D01*
X108728537Y-62618962D01*
X108778274Y-62614063D01*
X108842082Y-62594708D01*
X108900887Y-62563276D01*
X108952430Y-62520975D01*
X108963030Y-62508059D01*
X109692128Y-61778962D01*
X140657449Y-61778962D01*
X141366556Y-62488070D01*
X141377147Y-62500975D01*
X141390052Y-62511566D01*
X141390055Y-62511569D01*
X141405405Y-62524166D01*
X141428690Y-62543276D01*
X141487495Y-62574708D01*
X141512591Y-62582320D01*
X141551301Y-62594063D01*
X141563889Y-62595303D01*
X141601040Y-62598962D01*
X141601046Y-62598962D01*
X141617658Y-62600598D01*
X141634271Y-62598962D01*
X145765296Y-62598960D01*
X145781918Y-62600597D01*
X145848275Y-62594062D01*
X145912082Y-62574707D01*
X145970888Y-62543274D01*
X145990346Y-62527305D01*
X146022431Y-62500973D01*
X146033027Y-62488062D01*
X146872139Y-61648952D01*
X147018468Y-61648952D01*
X147013030Y-61659127D01*
X146997963Y-61708797D01*
X146992875Y-61760452D01*
X146992875Y-62660452D01*
X146997963Y-62712107D01*
X147013030Y-62761777D01*
X147037497Y-62807553D01*
X147070426Y-62847675D01*
X147110548Y-62880604D01*
X147128034Y-62889950D01*
X147131721Y-62902104D01*
X147143403Y-62940616D01*
X147174835Y-62999421D01*
X147217136Y-63050964D01*
X147230048Y-63061561D01*
X147619139Y-63450654D01*
X147619141Y-78098099D01*
X147617504Y-78114721D01*
X147624039Y-78181078D01*
X147643394Y-78244885D01*
X147643395Y-78244886D01*
X147674827Y-78303691D01*
X147717128Y-78355234D01*
X147730039Y-78365830D01*
X154561491Y-85197284D01*
X154561490Y-89058063D01*
X154467866Y-89076685D01*
X154374415Y-89115394D01*
X154290312Y-89171590D01*
X154218787Y-89243115D01*
X154162591Y-89327218D01*
X154123882Y-89420669D01*
X154104149Y-89519877D01*
X154104149Y-89621027D01*
X154123882Y-89720235D01*
X154162591Y-89813686D01*
X154218787Y-89897789D01*
X154290312Y-89969314D01*
X154374415Y-90025510D01*
X154467866Y-90064219D01*
X154567074Y-90083952D01*
X154668224Y-90083952D01*
X154767432Y-90064219D01*
X154860883Y-90025510D01*
X154861500Y-90025097D01*
X154861501Y-96285226D01*
X154700000Y-96285226D01*
X154648345Y-96290314D01*
X154598675Y-96305381D01*
X154552899Y-96329848D01*
X154512777Y-96362777D01*
X154479848Y-96402899D01*
X154455381Y-96448675D01*
X154440314Y-96498345D01*
X154435226Y-96550000D01*
X154435226Y-99324955D01*
X151982743Y-99324954D01*
X151982746Y-94726362D01*
X151983787Y-94715793D01*
X151982746Y-94705222D01*
X151982746Y-94705215D01*
X151979627Y-94673549D01*
X151967305Y-94632927D01*
X151947294Y-94595490D01*
X151920364Y-94562676D01*
X151887550Y-94535746D01*
X151850113Y-94515735D01*
X151809491Y-94503413D01*
X151767246Y-94499252D01*
X151756665Y-94500294D01*
X149977815Y-94500292D01*
X149967246Y-94499251D01*
X149956675Y-94500292D01*
X149956668Y-94500292D01*
X149925002Y-94503411D01*
X149884380Y-94515733D01*
X149846943Y-94535744D01*
X149814129Y-94562674D01*
X149787199Y-94595488D01*
X149767188Y-94632925D01*
X149754866Y-94673547D01*
X149750705Y-94715792D01*
X149751747Y-94726373D01*
X149751744Y-99324954D01*
X143713148Y-99324952D01*
X143713150Y-96625632D01*
X143714191Y-96615063D01*
X143713150Y-96604492D01*
X143713150Y-96604485D01*
X143710031Y-96572819D01*
X143697709Y-96532197D01*
X143677698Y-96494760D01*
X143650768Y-96461946D01*
X143617954Y-96435016D01*
X143580517Y-96415005D01*
X143539895Y-96402683D01*
X143497650Y-96398522D01*
X143487069Y-96399564D01*
X141090583Y-96399562D01*
X139794014Y-95630614D01*
X139794016Y-89412197D01*
X141093812Y-88591770D01*
X143487084Y-88591770D01*
X143497653Y-88592811D01*
X143508224Y-88591770D01*
X143508232Y-88591770D01*
X143539898Y-88588651D01*
X143580520Y-88576329D01*
X143617957Y-88556318D01*
X143650771Y-88529388D01*
X143677701Y-88496574D01*
X143697712Y-88459137D01*
X143710034Y-88418515D01*
X143714195Y-88376270D01*
X143713152Y-88365681D01*
X143713161Y-63023550D01*
X143714202Y-63012981D01*
X143713161Y-63002410D01*
X143713161Y-63002403D01*
X143710042Y-62970737D01*
X143697720Y-62930115D01*
X143677709Y-62892678D01*
X143650779Y-62859864D01*
X143617965Y-62832934D01*
X143580528Y-62812923D01*
X143539906Y-62800601D01*
X143497661Y-62796440D01*
X143487080Y-62797482D01*
X141062298Y-62797480D01*
X139675723Y-62137576D01*
X139661513Y-62129969D01*
X139646448Y-62125389D01*
X139631644Y-62120052D01*
X139626181Y-62119228D01*
X139620898Y-62117622D01*
X139605244Y-62116070D01*
X139589669Y-62113721D01*
X139573567Y-62114473D01*
X110256433Y-62096306D01*
X110224765Y-62099405D01*
X110184135Y-62111702D01*
X110146686Y-62131690D01*
X110113855Y-62158600D01*
X110086905Y-62191397D01*
X110085503Y-62194015D01*
X109696446Y-62694879D01*
X109219701Y-63108735D01*
X108671646Y-63422112D01*
X108073165Y-63623068D01*
X107447045Y-63703951D01*
X106817146Y-63661682D01*
X106207073Y-63497766D01*
X105662462Y-63231701D01*
X102416082Y-60699158D01*
X102416082Y-60288117D01*
X105607894Y-57717625D01*
X106177587Y-57433066D01*
X106793716Y-57264027D01*
X107430948Y-57217881D01*
X108065006Y-57296386D01*
M02*
