G04 #@! TF.GenerationSoftware,KiCad,Pcbnew,(5.1.5)-3*
G04 #@! TF.CreationDate,2021-03-08T22:08:54-05:00*
G04 #@! TF.ProjectId,Wing,57696e67-2e6b-4696-9361-645f70636258,rev?*
G04 #@! TF.SameCoordinates,Original*
G04 #@! TF.FileFunction,Soldermask,Bot*
G04 #@! TF.FilePolarity,Negative*
%FSLAX46Y46*%
G04 Gerber Fmt 4.6, Leading zero omitted, Abs format (unit mm)*
G04 Created by KiCad (PCBNEW (5.1.5)-3) date 2021-03-08 22:08:54*
%MOMM*%
%LPD*%
G04 APERTURE LIST*
%ADD10C,0.100000*%
G04 APERTURE END LIST*
D10*
G36*
X163251000Y-99601000D02*
G01*
X162149000Y-99601000D01*
X162149000Y-96499000D01*
X163251000Y-96499000D01*
X163251000Y-99601000D01*
G37*
G36*
X155751000Y-99601000D02*
G01*
X154649000Y-99601000D01*
X154649000Y-96499000D01*
X155751000Y-96499000D01*
X155751000Y-99601000D01*
G37*
G36*
X157251000Y-99601000D02*
G01*
X156149000Y-99601000D01*
X156149000Y-96499000D01*
X157251000Y-96499000D01*
X157251000Y-99601000D01*
G37*
G36*
X160251000Y-99601000D02*
G01*
X159149000Y-99601000D01*
X159149000Y-96499000D01*
X160251000Y-96499000D01*
X160251000Y-99601000D01*
G37*
G36*
X158751000Y-99601000D02*
G01*
X157649000Y-99601000D01*
X157649000Y-96499000D01*
X158751000Y-96499000D01*
X158751000Y-99601000D01*
G37*
G36*
X161751000Y-99601000D02*
G01*
X160649000Y-99601000D01*
X160649000Y-96499000D01*
X161751000Y-96499000D01*
X161751000Y-99601000D01*
G37*
G36*
X172048649Y-93941452D02*
G01*
X171646649Y-93941452D01*
X171646649Y-93030191D01*
X171669262Y-93037050D01*
X171693648Y-93039452D01*
X172001650Y-93039452D01*
X172026036Y-93037050D01*
X172048649Y-93030191D01*
X172048649Y-93941452D01*
G37*
G36*
X173048649Y-92364453D02*
G01*
X173051051Y-92388839D01*
X173058164Y-92412288D01*
X173069715Y-92433899D01*
X173085260Y-92452841D01*
X173104202Y-92468386D01*
X173125813Y-92479937D01*
X173149262Y-92487050D01*
X173173648Y-92489452D01*
X173228649Y-92489452D01*
X173228649Y-92891452D01*
X173173648Y-92891452D01*
X173149262Y-92893854D01*
X173125813Y-92900967D01*
X173104202Y-92912518D01*
X173085260Y-92928063D01*
X173069715Y-92947005D01*
X173058164Y-92968616D01*
X173051051Y-92992065D01*
X173048649Y-93016451D01*
X173048649Y-93941452D01*
X172446649Y-93941452D01*
X172446649Y-93016451D01*
X172444247Y-92992065D01*
X172437134Y-92968616D01*
X172425583Y-92947005D01*
X172410038Y-92928063D01*
X172391096Y-92912518D01*
X172369485Y-92900967D01*
X172346036Y-92893854D01*
X172321650Y-92891452D01*
X172173648Y-92891452D01*
X172149262Y-92893854D01*
X172126649Y-92900713D01*
X172126649Y-92480191D01*
X172149262Y-92487050D01*
X172173648Y-92489452D01*
X172321650Y-92489452D01*
X172346036Y-92487050D01*
X172369485Y-92479937D01*
X172391096Y-92468386D01*
X172410038Y-92452841D01*
X172425583Y-92433899D01*
X172437134Y-92412288D01*
X172444247Y-92388839D01*
X172446649Y-92364453D01*
X172446649Y-91439452D01*
X173048649Y-91439452D01*
X173048649Y-92364453D01*
G37*
G36*
X171248649Y-92364453D02*
G01*
X171251051Y-92388839D01*
X171258164Y-92412288D01*
X171269715Y-92433899D01*
X171285260Y-92452841D01*
X171304202Y-92468386D01*
X171325813Y-92479937D01*
X171349262Y-92487050D01*
X171373648Y-92489452D01*
X171521650Y-92489452D01*
X171546036Y-92487050D01*
X171568649Y-92480191D01*
X171568649Y-92900713D01*
X171546036Y-92893854D01*
X171521650Y-92891452D01*
X171373648Y-92891452D01*
X171349262Y-92893854D01*
X171325813Y-92900967D01*
X171304202Y-92912518D01*
X171285260Y-92928063D01*
X171269715Y-92947005D01*
X171258164Y-92968616D01*
X171251051Y-92992065D01*
X171248649Y-93016451D01*
X171248649Y-93941452D01*
X170646649Y-93941452D01*
X170646649Y-93016451D01*
X170644247Y-92992065D01*
X170637134Y-92968616D01*
X170625583Y-92947005D01*
X170610038Y-92928063D01*
X170591096Y-92912518D01*
X170569485Y-92900967D01*
X170546036Y-92893854D01*
X170521650Y-92891452D01*
X170466649Y-92891452D01*
X170466649Y-92489452D01*
X170521650Y-92489452D01*
X170546036Y-92487050D01*
X170569485Y-92479937D01*
X170591096Y-92468386D01*
X170610038Y-92452841D01*
X170625583Y-92433899D01*
X170637134Y-92412288D01*
X170644247Y-92388839D01*
X170646649Y-92364453D01*
X170646649Y-91439452D01*
X171248649Y-91439452D01*
X171248649Y-92364453D01*
G37*
G36*
X170173649Y-93891452D02*
G01*
X169321649Y-93891452D01*
X169321649Y-92989452D01*
X170173649Y-92989452D01*
X170173649Y-93891452D01*
G37*
G36*
X170173649Y-92391452D02*
G01*
X169321649Y-92391452D01*
X169321649Y-91489452D01*
X170173649Y-91489452D01*
X170173649Y-92391452D01*
G37*
G36*
X172048649Y-92350713D02*
G01*
X172026036Y-92343854D01*
X172001650Y-92341452D01*
X171693648Y-92341452D01*
X171669262Y-92343854D01*
X171646649Y-92350713D01*
X171646649Y-91439452D01*
X172048649Y-91439452D01*
X172048649Y-92350713D01*
G37*
G36*
X105953649Y-61756452D02*
G01*
X105551649Y-61756452D01*
X105551649Y-60845191D01*
X105574262Y-60852050D01*
X105598648Y-60854452D01*
X105906650Y-60854452D01*
X105931036Y-60852050D01*
X105953649Y-60845191D01*
X105953649Y-61756452D01*
G37*
G36*
X105153649Y-60179453D02*
G01*
X105156051Y-60203839D01*
X105163164Y-60227288D01*
X105174715Y-60248899D01*
X105190260Y-60267841D01*
X105209202Y-60283386D01*
X105230813Y-60294937D01*
X105254262Y-60302050D01*
X105278648Y-60304452D01*
X105426650Y-60304452D01*
X105451036Y-60302050D01*
X105473649Y-60295191D01*
X105473649Y-60715713D01*
X105451036Y-60708854D01*
X105426650Y-60706452D01*
X105278648Y-60706452D01*
X105254262Y-60708854D01*
X105230813Y-60715967D01*
X105209202Y-60727518D01*
X105190260Y-60743063D01*
X105174715Y-60762005D01*
X105163164Y-60783616D01*
X105156051Y-60807065D01*
X105153649Y-60831451D01*
X105153649Y-61756452D01*
X104551649Y-61756452D01*
X104551649Y-60831451D01*
X104549247Y-60807065D01*
X104542134Y-60783616D01*
X104530583Y-60762005D01*
X104515038Y-60743063D01*
X104496096Y-60727518D01*
X104474485Y-60715967D01*
X104451036Y-60708854D01*
X104426650Y-60706452D01*
X104371649Y-60706452D01*
X104371649Y-60304452D01*
X104426650Y-60304452D01*
X104451036Y-60302050D01*
X104474485Y-60294937D01*
X104496096Y-60283386D01*
X104515038Y-60267841D01*
X104530583Y-60248899D01*
X104542134Y-60227288D01*
X104549247Y-60203839D01*
X104551649Y-60179453D01*
X104551649Y-59254452D01*
X105153649Y-59254452D01*
X105153649Y-60179453D01*
G37*
G36*
X106953649Y-60179453D02*
G01*
X106956051Y-60203839D01*
X106963164Y-60227288D01*
X106974715Y-60248899D01*
X106990260Y-60267841D01*
X107009202Y-60283386D01*
X107030813Y-60294937D01*
X107054262Y-60302050D01*
X107078648Y-60304452D01*
X107133649Y-60304452D01*
X107133649Y-60706452D01*
X107078648Y-60706452D01*
X107054262Y-60708854D01*
X107030813Y-60715967D01*
X107009202Y-60727518D01*
X106990260Y-60743063D01*
X106974715Y-60762005D01*
X106963164Y-60783616D01*
X106956051Y-60807065D01*
X106953649Y-60831451D01*
X106953649Y-61756452D01*
X106351649Y-61756452D01*
X106351649Y-60831451D01*
X106349247Y-60807065D01*
X106342134Y-60783616D01*
X106330583Y-60762005D01*
X106315038Y-60743063D01*
X106296096Y-60727518D01*
X106274485Y-60715967D01*
X106251036Y-60708854D01*
X106226650Y-60706452D01*
X106078648Y-60706452D01*
X106054262Y-60708854D01*
X106031649Y-60715713D01*
X106031649Y-60295191D01*
X106054262Y-60302050D01*
X106078648Y-60304452D01*
X106226650Y-60304452D01*
X106251036Y-60302050D01*
X106274485Y-60294937D01*
X106296096Y-60283386D01*
X106315038Y-60267841D01*
X106330583Y-60248899D01*
X106342134Y-60227288D01*
X106349247Y-60203839D01*
X106351649Y-60179453D01*
X106351649Y-59254452D01*
X106953649Y-59254452D01*
X106953649Y-60179453D01*
G37*
G36*
X108303649Y-61731452D02*
G01*
X107451649Y-61731452D01*
X107451649Y-60829452D01*
X108303649Y-60829452D01*
X108303649Y-61731452D01*
G37*
G36*
X108303649Y-60231452D02*
G01*
X107451649Y-60231452D01*
X107451649Y-59329452D01*
X108303649Y-59329452D01*
X108303649Y-60231452D01*
G37*
G36*
X105953649Y-60165713D02*
G01*
X105931036Y-60158854D01*
X105906650Y-60156452D01*
X105598648Y-60156452D01*
X105574262Y-60158854D01*
X105551649Y-60165713D01*
X105551649Y-59254452D01*
X105953649Y-59254452D01*
X105953649Y-60165713D01*
G37*
M02*
