%FSLAX45Y45*%
G04 Gerber Fmt 4.5, Leading zero omitted, Abs format (unit mm)*
G04 Created by KiCad (PCBNEW (5.1.5)-3) date 2021-03-08 22:09:04*
%MOMM*%
%LPD*%
G04 APERTURE LIST*
%TA.AperFunction,Profile*%
%ADD10C,0.050000*%
%TD*%
%ADD11C,0.200000*%
%ADD12C,0.300000*%
G04 APERTURE END LIST*
D10*
X14996724Y-9954045D02*
X14349765Y-9954045D01*
X11026688Y-6231181D02*
G75*
G02X10554765Y-6341545I-291923J184112D01*
G01*
X10549082Y-5753522D02*
G75*
G02X11032265Y-5866545I185683J-295524D01*
G01*
X16187567Y-6187951D02*
X15772651Y-6243067D01*
X15475609Y-5796514D02*
X16187568Y-5891089D01*
X14101363Y-5797637D02*
X14203116Y-5797637D01*
X13957852Y-5865936D02*
X14101363Y-5797637D01*
X15038928Y-5796514D02*
X15475609Y-5796514D01*
X16484645Y-8987434D02*
X16785085Y-8987434D01*
X16485195Y-8899346D02*
X16484645Y-8987434D01*
X14203116Y-5797637D02*
X15038928Y-5796514D01*
X15772651Y-6243067D02*
X16485195Y-8899346D01*
X16187568Y-5891089D02*
X16187567Y-6187951D01*
X17214480Y-9591484D02*
X17074570Y-9591484D01*
X16482447Y-9529996D02*
X16480487Y-9954046D01*
X13957851Y-9575336D02*
X13957852Y-8929338D01*
X16480487Y-9954046D02*
X15176724Y-9954045D01*
X15176725Y-9471579D02*
X14996725Y-9471579D01*
X15176724Y-9954045D02*
X15176725Y-9471579D01*
X17553402Y-9521750D02*
X17214480Y-9591484D01*
X14103148Y-9661506D02*
X13957851Y-9575336D01*
X14349765Y-9954045D02*
X14349765Y-9661506D01*
X14996725Y-9471579D02*
X14996724Y-9954045D01*
X16785085Y-9529996D02*
X16482447Y-9529996D01*
X14349765Y-9661506D02*
X14103148Y-9661506D01*
X17074570Y-9591484D02*
X16785085Y-9529996D01*
X17214480Y-8925947D02*
X17553402Y-8995681D01*
X16785085Y-8987434D02*
X17075765Y-8925947D01*
X17075765Y-8925947D02*
X17214480Y-8925947D01*
X17553402Y-8995681D02*
X17553402Y-9521750D01*
X14103149Y-8837627D02*
X14349765Y-8837627D01*
X10220058Y-6018497D02*
X10549082Y-5753521D01*
X13957852Y-8929338D02*
X14103149Y-8837627D01*
X14101363Y-6301298D02*
X13957852Y-6232998D01*
X13957852Y-6232998D02*
X11026688Y-6231181D01*
X14349765Y-8837627D02*
X14349766Y-6301298D01*
X10220058Y-6080436D02*
X10220058Y-6018497D01*
X11032265Y-5866545D02*
X13957852Y-5865936D01*
X14349766Y-6301298D02*
X14101363Y-6301298D01*
X10554765Y-6341545D02*
X10220058Y-6080436D01*
D11*
X10387265Y-6037545D02*
X10412265Y-6062545D01*
X10412265Y-6037545D02*
X10387265Y-6062545D01*
X10774265Y-6114545D02*
X10799265Y-6139545D01*
X10799265Y-6114545D02*
X10774265Y-6139545D01*
X10775265Y-5963545D02*
X10800265Y-5988545D01*
X10800265Y-5963545D02*
X10775265Y-5988545D01*
X14164265Y-5913545D02*
X14189265Y-5938545D01*
X14189265Y-5913545D02*
X14164265Y-5938545D01*
X14244265Y-6051545D02*
X14269265Y-6076545D01*
X14269265Y-6051545D02*
X14244265Y-6076545D01*
X14933265Y-5929545D02*
X14958265Y-5954545D01*
X14958265Y-5929545D02*
X14933265Y-5954545D01*
X14934265Y-6349545D02*
X14959265Y-6374545D01*
X14959265Y-6349545D02*
X14934265Y-6374545D01*
X15042265Y-5932545D02*
X15067265Y-5957545D01*
X15067265Y-5932545D02*
X15042265Y-5957545D01*
X15074265Y-6318545D02*
X15099265Y-6343545D01*
X15099265Y-6318545D02*
X15074265Y-6343545D01*
X15449265Y-8944545D02*
X15474265Y-8969545D01*
X15474265Y-8944545D02*
X15449265Y-8969545D01*
X15694265Y-8995545D02*
X15719265Y-9020545D01*
X15719265Y-8995545D02*
X15694265Y-9020545D01*
X15982265Y-9201520D02*
X16007265Y-9226520D01*
X16007265Y-9201520D02*
X15982265Y-9226520D01*
X16107265Y-9546545D02*
X16132265Y-9571545D01*
X16132265Y-9546545D02*
X16107265Y-9571545D01*
X16269765Y-9084045D02*
X16294765Y-9109045D01*
X16294765Y-9084045D02*
X16269765Y-9109045D01*
X16297265Y-9391545D02*
X16322265Y-9416545D01*
X16322265Y-9391545D02*
X16297265Y-9416545D01*
X16962265Y-9181545D02*
X16987265Y-9206545D01*
X16987265Y-9181545D02*
X16962265Y-9206545D01*
X16962265Y-9331545D02*
X16987265Y-9356545D01*
X16987265Y-9331545D02*
X16962265Y-9356545D01*
X17335265Y-9336545D02*
X17360265Y-9361545D01*
X17360265Y-9336545D02*
X17335265Y-9361545D01*
X17337265Y-9256545D02*
X17362265Y-9281545D01*
X17362265Y-9256545D02*
X17337265Y-9281545D01*
X15540000Y-9905000D02*
G75*
G03X15540000Y-9905000I-20000J0D01*
G01*
X15690000Y-9905000D02*
G75*
G03X15690000Y-9905000I-20000J0D01*
G01*
X15840000Y-9905000D02*
G75*
G03X15840000Y-9905000I-20000J0D01*
G01*
X15990000Y-9905000D02*
G75*
G03X15990000Y-9905000I-20000J0D01*
G01*
X16140000Y-9905000D02*
G75*
G03X16140000Y-9905000I-20000J0D01*
G01*
X16290000Y-9905000D02*
G75*
G03X16290000Y-9905000I-20000J0D01*
G01*
D12*
X10503987Y-10669759D02*
X10503987Y-10369759D01*
X10575415Y-10369759D01*
X10618272Y-10384045D01*
X10646844Y-10412617D01*
X10661130Y-10441188D01*
X10675415Y-10498331D01*
X10675415Y-10541188D01*
X10661130Y-10598331D01*
X10646844Y-10626902D01*
X10618272Y-10655474D01*
X10575415Y-10669759D01*
X10503987Y-10669759D01*
X10803987Y-10669759D02*
X10803987Y-10469759D01*
X10803987Y-10526902D02*
X10818272Y-10498331D01*
X10832558Y-10484045D01*
X10861130Y-10469759D01*
X10889701Y-10469759D01*
X10989701Y-10669759D02*
X10989701Y-10469759D01*
X10989701Y-10369759D02*
X10975415Y-10384045D01*
X10989701Y-10398331D01*
X11003987Y-10384045D01*
X10989701Y-10369759D01*
X10989701Y-10398331D01*
X11175415Y-10669759D02*
X11146844Y-10655474D01*
X11132558Y-10626902D01*
X11132558Y-10369759D01*
X11332558Y-10669759D02*
X11303987Y-10655474D01*
X11289701Y-10626902D01*
X11289701Y-10369759D01*
X11675415Y-10669759D02*
X11675415Y-10369759D01*
X11775415Y-10584045D01*
X11875415Y-10369759D01*
X11875415Y-10669759D01*
X12146844Y-10669759D02*
X12146844Y-10512617D01*
X12132558Y-10484045D01*
X12103987Y-10469759D01*
X12046844Y-10469759D01*
X12018272Y-10484045D01*
X12146844Y-10655474D02*
X12118272Y-10669759D01*
X12046844Y-10669759D01*
X12018272Y-10655474D01*
X12003987Y-10626902D01*
X12003987Y-10598331D01*
X12018272Y-10569759D01*
X12046844Y-10555474D01*
X12118272Y-10555474D01*
X12146844Y-10541188D01*
X12289701Y-10469759D02*
X12289701Y-10769759D01*
X12289701Y-10484045D02*
X12318272Y-10469759D01*
X12375415Y-10469759D01*
X12403987Y-10484045D01*
X12418272Y-10498331D01*
X12432558Y-10526902D01*
X12432558Y-10612617D01*
X12418272Y-10641188D01*
X12403987Y-10655474D01*
X12375415Y-10669759D01*
X12318272Y-10669759D01*
X12289701Y-10655474D01*
X12561129Y-10641188D02*
X12575415Y-10655474D01*
X12561129Y-10669759D01*
X12546844Y-10655474D01*
X12561129Y-10641188D01*
X12561129Y-10669759D01*
X12561129Y-10484045D02*
X12575415Y-10498331D01*
X12561129Y-10512617D01*
X12546844Y-10498331D01*
X12561129Y-10484045D01*
X12561129Y-10512617D01*
X10192558Y-11151545D02*
X10217558Y-11176545D01*
X10217558Y-11151545D02*
X10192558Y-11176545D01*
X10561130Y-10999759D02*
X10589701Y-10999759D01*
X10618272Y-11014045D01*
X10632558Y-11028331D01*
X10646844Y-11056902D01*
X10661130Y-11114045D01*
X10661130Y-11185474D01*
X10646844Y-11242617D01*
X10632558Y-11271188D01*
X10618272Y-11285474D01*
X10589701Y-11299759D01*
X10561130Y-11299759D01*
X10532558Y-11285474D01*
X10518272Y-11271188D01*
X10503987Y-11242617D01*
X10489701Y-11185474D01*
X10489701Y-11114045D01*
X10503987Y-11056902D01*
X10518272Y-11028331D01*
X10532558Y-11014045D01*
X10561130Y-10999759D01*
X10789701Y-11271188D02*
X10803987Y-11285474D01*
X10789701Y-11299759D01*
X10775415Y-11285474D01*
X10789701Y-11271188D01*
X10789701Y-11299759D01*
X10918272Y-11028331D02*
X10932558Y-11014045D01*
X10961130Y-10999759D01*
X11032558Y-10999759D01*
X11061130Y-11014045D01*
X11075415Y-11028331D01*
X11089701Y-11056902D01*
X11089701Y-11085474D01*
X11075415Y-11128331D01*
X10903987Y-11299759D01*
X11089701Y-11299759D01*
X11361129Y-10999759D02*
X11218272Y-10999759D01*
X11203987Y-11142617D01*
X11218272Y-11128331D01*
X11246844Y-11114045D01*
X11318272Y-11114045D01*
X11346844Y-11128331D01*
X11361129Y-11142617D01*
X11375415Y-11171188D01*
X11375415Y-11242617D01*
X11361129Y-11271188D01*
X11346844Y-11285474D01*
X11318272Y-11299759D01*
X11246844Y-11299759D01*
X11218272Y-11285474D01*
X11203987Y-11271188D01*
X11503987Y-11299759D02*
X11503987Y-11099759D01*
X11503987Y-11128331D02*
X11518272Y-11114045D01*
X11546844Y-11099759D01*
X11589701Y-11099759D01*
X11618272Y-11114045D01*
X11632558Y-11142617D01*
X11632558Y-11299759D01*
X11632558Y-11142617D02*
X11646844Y-11114045D01*
X11675415Y-11099759D01*
X11718272Y-11099759D01*
X11746844Y-11114045D01*
X11761129Y-11142617D01*
X11761129Y-11299759D01*
X11903987Y-11299759D02*
X11903987Y-11099759D01*
X11903987Y-11128331D02*
X11918272Y-11114045D01*
X11946844Y-11099759D01*
X11989701Y-11099759D01*
X12018272Y-11114045D01*
X12032558Y-11142617D01*
X12032558Y-11299759D01*
X12032558Y-11142617D02*
X12046844Y-11114045D01*
X12075415Y-11099759D01*
X12118272Y-11099759D01*
X12146844Y-11114045D01*
X12161129Y-11142617D01*
X12161129Y-11299759D01*
X12746844Y-10985474D02*
X12489701Y-11371188D01*
X13132558Y-10999759D02*
X13161129Y-10999759D01*
X13189701Y-11014045D01*
X13203987Y-11028331D01*
X13218272Y-11056902D01*
X13232558Y-11114045D01*
X13232558Y-11185474D01*
X13218272Y-11242617D01*
X13203987Y-11271188D01*
X13189701Y-11285474D01*
X13161129Y-11299759D01*
X13132558Y-11299759D01*
X13103987Y-11285474D01*
X13089701Y-11271188D01*
X13075415Y-11242617D01*
X13061129Y-11185474D01*
X13061129Y-11114045D01*
X13075415Y-11056902D01*
X13089701Y-11028331D01*
X13103987Y-11014045D01*
X13132558Y-10999759D01*
X13361129Y-11271188D02*
X13375415Y-11285474D01*
X13361129Y-11299759D01*
X13346844Y-11285474D01*
X13361129Y-11271188D01*
X13361129Y-11299759D01*
X13561129Y-10999759D02*
X13589701Y-10999759D01*
X13618272Y-11014045D01*
X13632558Y-11028331D01*
X13646844Y-11056902D01*
X13661129Y-11114045D01*
X13661129Y-11185474D01*
X13646844Y-11242617D01*
X13632558Y-11271188D01*
X13618272Y-11285474D01*
X13589701Y-11299759D01*
X13561129Y-11299759D01*
X13532558Y-11285474D01*
X13518272Y-11271188D01*
X13503987Y-11242617D01*
X13489701Y-11185474D01*
X13489701Y-11114045D01*
X13503987Y-11056902D01*
X13518272Y-11028331D01*
X13532558Y-11014045D01*
X13561129Y-10999759D01*
X13946844Y-11299759D02*
X13775415Y-11299759D01*
X13861129Y-11299759D02*
X13861129Y-10999759D01*
X13832558Y-11042617D01*
X13803987Y-11071188D01*
X13775415Y-11085474D01*
X14132558Y-10999759D02*
X14161129Y-10999759D01*
X14189701Y-11014045D01*
X14203987Y-11028331D01*
X14218272Y-11056902D01*
X14232558Y-11114045D01*
X14232558Y-11185474D01*
X14218272Y-11242617D01*
X14203987Y-11271188D01*
X14189701Y-11285474D01*
X14161129Y-11299759D01*
X14132558Y-11299759D01*
X14103987Y-11285474D01*
X14089701Y-11271188D01*
X14075415Y-11242617D01*
X14061129Y-11185474D01*
X14061129Y-11114045D01*
X14075415Y-11056902D01*
X14089701Y-11028331D01*
X14103987Y-11014045D01*
X14132558Y-10999759D01*
X14346844Y-10999759D02*
X14346844Y-11056902D01*
X14461129Y-10999759D02*
X14461129Y-11056902D01*
X14903987Y-11414045D02*
X14889701Y-11399759D01*
X14861129Y-11356902D01*
X14846844Y-11328331D01*
X14832558Y-11285474D01*
X14818272Y-11214045D01*
X14818272Y-11156902D01*
X14832558Y-11085474D01*
X14846844Y-11042617D01*
X14861129Y-11014045D01*
X14889701Y-10971188D01*
X14903987Y-10956902D01*
X15175415Y-11299759D02*
X15003987Y-11299759D01*
X15089701Y-11299759D02*
X15089701Y-10999759D01*
X15061129Y-11042617D01*
X15032558Y-11071188D01*
X15003987Y-11085474D01*
X15318272Y-11299759D02*
X15375415Y-11299759D01*
X15403987Y-11285474D01*
X15418272Y-11271188D01*
X15446844Y-11228331D01*
X15461129Y-11171188D01*
X15461129Y-11056902D01*
X15446844Y-11028331D01*
X15432558Y-11014045D01*
X15403987Y-10999759D01*
X15346844Y-10999759D01*
X15318272Y-11014045D01*
X15303987Y-11028331D01*
X15289701Y-11056902D01*
X15289701Y-11128331D01*
X15303987Y-11156902D01*
X15318272Y-11171188D01*
X15346844Y-11185474D01*
X15403987Y-11185474D01*
X15432558Y-11171188D01*
X15446844Y-11156902D01*
X15461129Y-11128331D01*
X15818272Y-11299759D02*
X15818272Y-10999759D01*
X15946844Y-11299759D02*
X15946844Y-11142617D01*
X15932558Y-11114045D01*
X15903987Y-11099759D01*
X15861129Y-11099759D01*
X15832558Y-11114045D01*
X15818272Y-11128331D01*
X16132558Y-11299759D02*
X16103987Y-11285474D01*
X16089701Y-11271188D01*
X16075415Y-11242617D01*
X16075415Y-11156902D01*
X16089701Y-11128331D01*
X16103987Y-11114045D01*
X16132558Y-11099759D01*
X16175415Y-11099759D01*
X16203987Y-11114045D01*
X16218272Y-11128331D01*
X16232558Y-11156902D01*
X16232558Y-11242617D01*
X16218272Y-11271188D01*
X16203987Y-11285474D01*
X16175415Y-11299759D01*
X16132558Y-11299759D01*
X16403987Y-11299759D02*
X16375415Y-11285474D01*
X16361129Y-11256902D01*
X16361129Y-10999759D01*
X16632558Y-11285474D02*
X16603987Y-11299759D01*
X16546844Y-11299759D01*
X16518272Y-11285474D01*
X16503987Y-11256902D01*
X16503987Y-11142617D01*
X16518272Y-11114045D01*
X16546844Y-11099759D01*
X16603987Y-11099759D01*
X16632558Y-11114045D01*
X16646844Y-11142617D01*
X16646844Y-11171188D01*
X16503987Y-11199759D01*
X16761129Y-11285474D02*
X16789701Y-11299759D01*
X16846844Y-11299759D01*
X16875415Y-11285474D01*
X16889701Y-11256902D01*
X16889701Y-11242617D01*
X16875415Y-11214045D01*
X16846844Y-11199759D01*
X16803987Y-11199759D01*
X16775415Y-11185474D01*
X16761129Y-11156902D01*
X16761129Y-11142617D01*
X16775415Y-11114045D01*
X16803987Y-11099759D01*
X16846844Y-11099759D01*
X16875415Y-11114045D01*
X16989701Y-11414045D02*
X17003987Y-11399759D01*
X17032558Y-11356902D01*
X17046844Y-11328331D01*
X17061130Y-11285474D01*
X17075415Y-11214045D01*
X17075415Y-11156902D01*
X17061130Y-11085474D01*
X17046844Y-11042617D01*
X17032558Y-11014045D01*
X17003987Y-10971188D01*
X16989701Y-10956902D01*
X10217558Y-11560045D02*
G75*
G03X10217558Y-11560045I-20000J0D01*
G01*
X10561130Y-11395759D02*
X10589701Y-11395759D01*
X10618272Y-11410045D01*
X10632558Y-11424331D01*
X10646844Y-11452902D01*
X10661130Y-11510045D01*
X10661130Y-11581474D01*
X10646844Y-11638617D01*
X10632558Y-11667188D01*
X10618272Y-11681474D01*
X10589701Y-11695759D01*
X10561130Y-11695759D01*
X10532558Y-11681474D01*
X10518272Y-11667188D01*
X10503987Y-11638617D01*
X10489701Y-11581474D01*
X10489701Y-11510045D01*
X10503987Y-11452902D01*
X10518272Y-11424331D01*
X10532558Y-11410045D01*
X10561130Y-11395759D01*
X10789701Y-11667188D02*
X10803987Y-11681474D01*
X10789701Y-11695759D01*
X10775415Y-11681474D01*
X10789701Y-11667188D01*
X10789701Y-11695759D01*
X11061130Y-11495759D02*
X11061130Y-11695759D01*
X10989701Y-11381474D02*
X10918272Y-11595759D01*
X11103987Y-11595759D01*
X11275415Y-11395759D02*
X11303987Y-11395759D01*
X11332558Y-11410045D01*
X11346844Y-11424331D01*
X11361129Y-11452902D01*
X11375415Y-11510045D01*
X11375415Y-11581474D01*
X11361129Y-11638617D01*
X11346844Y-11667188D01*
X11332558Y-11681474D01*
X11303987Y-11695759D01*
X11275415Y-11695759D01*
X11246844Y-11681474D01*
X11232558Y-11667188D01*
X11218272Y-11638617D01*
X11203987Y-11581474D01*
X11203987Y-11510045D01*
X11218272Y-11452902D01*
X11232558Y-11424331D01*
X11246844Y-11410045D01*
X11275415Y-11395759D01*
X11503987Y-11695759D02*
X11503987Y-11495759D01*
X11503987Y-11524331D02*
X11518272Y-11510045D01*
X11546844Y-11495759D01*
X11589701Y-11495759D01*
X11618272Y-11510045D01*
X11632558Y-11538617D01*
X11632558Y-11695759D01*
X11632558Y-11538617D02*
X11646844Y-11510045D01*
X11675415Y-11495759D01*
X11718272Y-11495759D01*
X11746844Y-11510045D01*
X11761129Y-11538617D01*
X11761129Y-11695759D01*
X11903987Y-11695759D02*
X11903987Y-11495759D01*
X11903987Y-11524331D02*
X11918272Y-11510045D01*
X11946844Y-11495759D01*
X11989701Y-11495759D01*
X12018272Y-11510045D01*
X12032558Y-11538617D01*
X12032558Y-11695759D01*
X12032558Y-11538617D02*
X12046844Y-11510045D01*
X12075415Y-11495759D01*
X12118272Y-11495759D01*
X12146844Y-11510045D01*
X12161129Y-11538617D01*
X12161129Y-11695759D01*
X12746844Y-11381474D02*
X12489701Y-11767188D01*
X13132558Y-11395759D02*
X13161129Y-11395759D01*
X13189701Y-11410045D01*
X13203987Y-11424331D01*
X13218272Y-11452902D01*
X13232558Y-11510045D01*
X13232558Y-11581474D01*
X13218272Y-11638617D01*
X13203987Y-11667188D01*
X13189701Y-11681474D01*
X13161129Y-11695759D01*
X13132558Y-11695759D01*
X13103987Y-11681474D01*
X13089701Y-11667188D01*
X13075415Y-11638617D01*
X13061129Y-11581474D01*
X13061129Y-11510045D01*
X13075415Y-11452902D01*
X13089701Y-11424331D01*
X13103987Y-11410045D01*
X13132558Y-11395759D01*
X13361129Y-11667188D02*
X13375415Y-11681474D01*
X13361129Y-11695759D01*
X13346844Y-11681474D01*
X13361129Y-11667188D01*
X13361129Y-11695759D01*
X13561129Y-11395759D02*
X13589701Y-11395759D01*
X13618272Y-11410045D01*
X13632558Y-11424331D01*
X13646844Y-11452902D01*
X13661129Y-11510045D01*
X13661129Y-11581474D01*
X13646844Y-11638617D01*
X13632558Y-11667188D01*
X13618272Y-11681474D01*
X13589701Y-11695759D01*
X13561129Y-11695759D01*
X13532558Y-11681474D01*
X13518272Y-11667188D01*
X13503987Y-11638617D01*
X13489701Y-11581474D01*
X13489701Y-11510045D01*
X13503987Y-11452902D01*
X13518272Y-11424331D01*
X13532558Y-11410045D01*
X13561129Y-11395759D01*
X13946844Y-11695759D02*
X13775415Y-11695759D01*
X13861129Y-11695759D02*
X13861129Y-11395759D01*
X13832558Y-11438617D01*
X13803987Y-11467188D01*
X13775415Y-11481474D01*
X14203987Y-11395759D02*
X14146844Y-11395759D01*
X14118272Y-11410045D01*
X14103987Y-11424331D01*
X14075415Y-11467188D01*
X14061129Y-11524331D01*
X14061129Y-11638617D01*
X14075415Y-11667188D01*
X14089701Y-11681474D01*
X14118272Y-11695759D01*
X14175415Y-11695759D01*
X14203987Y-11681474D01*
X14218272Y-11667188D01*
X14232558Y-11638617D01*
X14232558Y-11567188D01*
X14218272Y-11538617D01*
X14203987Y-11524331D01*
X14175415Y-11510045D01*
X14118272Y-11510045D01*
X14089701Y-11524331D01*
X14075415Y-11538617D01*
X14061129Y-11567188D01*
X14346844Y-11395759D02*
X14346844Y-11452902D01*
X14461129Y-11395759D02*
X14461129Y-11452902D01*
X14903987Y-11810045D02*
X14889701Y-11795759D01*
X14861129Y-11752902D01*
X14846844Y-11724331D01*
X14832558Y-11681474D01*
X14818272Y-11610045D01*
X14818272Y-11552902D01*
X14832558Y-11481474D01*
X14846844Y-11438617D01*
X14861129Y-11410045D01*
X14889701Y-11367188D01*
X14903987Y-11352902D01*
X15146844Y-11395759D02*
X15089701Y-11395759D01*
X15061129Y-11410045D01*
X15046844Y-11424331D01*
X15018272Y-11467188D01*
X15003987Y-11524331D01*
X15003987Y-11638617D01*
X15018272Y-11667188D01*
X15032558Y-11681474D01*
X15061129Y-11695759D01*
X15118272Y-11695759D01*
X15146844Y-11681474D01*
X15161129Y-11667188D01*
X15175415Y-11638617D01*
X15175415Y-11567188D01*
X15161129Y-11538617D01*
X15146844Y-11524331D01*
X15118272Y-11510045D01*
X15061129Y-11510045D01*
X15032558Y-11524331D01*
X15018272Y-11538617D01*
X15003987Y-11567188D01*
X15532558Y-11695759D02*
X15532558Y-11395759D01*
X15661129Y-11695759D02*
X15661129Y-11538617D01*
X15646844Y-11510045D01*
X15618272Y-11495759D01*
X15575415Y-11495759D01*
X15546844Y-11510045D01*
X15532558Y-11524331D01*
X15846844Y-11695759D02*
X15818272Y-11681474D01*
X15803987Y-11667188D01*
X15789701Y-11638617D01*
X15789701Y-11552902D01*
X15803987Y-11524331D01*
X15818272Y-11510045D01*
X15846844Y-11495759D01*
X15889701Y-11495759D01*
X15918272Y-11510045D01*
X15932558Y-11524331D01*
X15946844Y-11552902D01*
X15946844Y-11638617D01*
X15932558Y-11667188D01*
X15918272Y-11681474D01*
X15889701Y-11695759D01*
X15846844Y-11695759D01*
X16118272Y-11695759D02*
X16089701Y-11681474D01*
X16075415Y-11652902D01*
X16075415Y-11395759D01*
X16346844Y-11681474D02*
X16318272Y-11695759D01*
X16261129Y-11695759D01*
X16232558Y-11681474D01*
X16218272Y-11652902D01*
X16218272Y-11538617D01*
X16232558Y-11510045D01*
X16261129Y-11495759D01*
X16318272Y-11495759D01*
X16346844Y-11510045D01*
X16361129Y-11538617D01*
X16361129Y-11567188D01*
X16218272Y-11595759D01*
X16475415Y-11681474D02*
X16503987Y-11695759D01*
X16561129Y-11695759D01*
X16589701Y-11681474D01*
X16603987Y-11652902D01*
X16603987Y-11638617D01*
X16589701Y-11610045D01*
X16561129Y-11595759D01*
X16518272Y-11595759D01*
X16489701Y-11581474D01*
X16475415Y-11552902D01*
X16475415Y-11538617D01*
X16489701Y-11510045D01*
X16518272Y-11495759D01*
X16561129Y-11495759D01*
X16589701Y-11510045D01*
X16703987Y-11810045D02*
X16718272Y-11795759D01*
X16746844Y-11752902D01*
X16761129Y-11724331D01*
X16775415Y-11681474D01*
X16789701Y-11610045D01*
X16789701Y-11552902D01*
X16775415Y-11481474D01*
X16761129Y-11438617D01*
X16746844Y-11410045D01*
X16718272Y-11367188D01*
X16703987Y-11352902D01*
M02*
