M48
; DRILL file {KiCad (5.1.5)-3} date 1/14/2021 9:29:13 PM
; FORMAT={-:-/ absolute / inch / decimal}
; #@! TF.CreationDate,2021-01-14T21:29:13-05:00
; #@! TF.GenerationSoftware,Kicad,Pcbnew,(5.1.5)-3
; #@! TF.FileFunction,Plated,1,2,PTH
FMAT,2
INCH
T1C0.0157
%
G90
G05
T1
X4.1033Y-2.3805
X4.1375Y-2.4039
X4.1416Y-2.3648
X4.1899Y-2.3067
X4.2558Y-2.4553
X4.2568Y-2.3057
X4.3168Y-2.4101
X4.4468Y-2.3874
X6.432Y-3.663
X6.4743Y-3.6669
X6.6505Y-3.6335
X6.6544Y-3.6768
X6.745Y-3.7193
X6.7844Y-3.7181
X6.8621Y-3.6364
X6.8621Y-3.6788
X6.1102Y-3.8996
X6.1693Y-3.8996
X6.2283Y-3.8996
X6.2874Y-3.8996
X6.3465Y-3.8996
X6.4055Y-3.8996
T0
M30
