G04 #@! TF.GenerationSoftware,KiCad,Pcbnew,(5.1.5)-3*
G04 #@! TF.CreationDate,2021-01-14T21:29:06-05:00*
G04 #@! TF.ProjectId,Wing,57696e67-2e6b-4696-9361-645f70636258,rev?*
G04 #@! TF.SameCoordinates,Original*
G04 #@! TF.FileFunction,Soldermask,Bot*
G04 #@! TF.FilePolarity,Negative*
%FSLAX46Y46*%
G04 Gerber Fmt 4.6, Leading zero omitted, Abs format (unit mm)*
G04 Created by KiCad (PCBNEW (5.1.5)-3) date 2021-01-14 21:29:06*
%MOMM*%
%LPD*%
G04 APERTURE LIST*
%ADD10C,0.100000*%
G04 APERTURE END LIST*
D10*
G36*
X161751000Y-99601000D02*
G01*
X160649000Y-99601000D01*
X160649000Y-96499000D01*
X161751000Y-96499000D01*
X161751000Y-99601000D01*
G37*
G36*
X163251000Y-99601000D02*
G01*
X162149000Y-99601000D01*
X162149000Y-96499000D01*
X163251000Y-96499000D01*
X163251000Y-99601000D01*
G37*
G36*
X158751000Y-99601000D02*
G01*
X157649000Y-99601000D01*
X157649000Y-96499000D01*
X158751000Y-96499000D01*
X158751000Y-99601000D01*
G37*
G36*
X160251000Y-99601000D02*
G01*
X159149000Y-99601000D01*
X159149000Y-96499000D01*
X160251000Y-96499000D01*
X160251000Y-99601000D01*
G37*
G36*
X157251000Y-99601000D02*
G01*
X156149000Y-99601000D01*
X156149000Y-96499000D01*
X157251000Y-96499000D01*
X157251000Y-99601000D01*
G37*
G36*
X155751000Y-99601000D02*
G01*
X154649000Y-99601000D01*
X154649000Y-96499000D01*
X155751000Y-96499000D01*
X155751000Y-99601000D01*
G37*
G36*
X170498649Y-93991452D02*
G01*
X169646649Y-93991452D01*
X169646649Y-93089452D01*
X170498649Y-93089452D01*
X170498649Y-93991452D01*
G37*
G36*
X171723649Y-92114453D02*
G01*
X171726051Y-92138839D01*
X171733164Y-92162288D01*
X171744715Y-92183899D01*
X171760260Y-92202841D01*
X171779202Y-92218386D01*
X171800813Y-92229937D01*
X171824262Y-92237050D01*
X171848648Y-92239452D01*
X171996650Y-92239452D01*
X172021036Y-92237050D01*
X172044485Y-92229937D01*
X172066096Y-92218386D01*
X172085038Y-92202841D01*
X172100583Y-92183899D01*
X172112134Y-92162288D01*
X172119247Y-92138839D01*
X172121649Y-92114453D01*
X172121649Y-91239452D01*
X172523649Y-91239452D01*
X172523649Y-92114453D01*
X172526051Y-92138839D01*
X172533164Y-92162288D01*
X172544715Y-92183899D01*
X172560260Y-92202841D01*
X172579202Y-92218386D01*
X172600813Y-92229937D01*
X172624262Y-92237050D01*
X172648648Y-92239452D01*
X172796650Y-92239452D01*
X172821036Y-92237050D01*
X172844485Y-92229937D01*
X172866096Y-92218386D01*
X172885038Y-92202841D01*
X172900583Y-92183899D01*
X172912134Y-92162288D01*
X172919247Y-92138839D01*
X172921649Y-92114453D01*
X172921649Y-91239452D01*
X173523649Y-91239452D01*
X173523649Y-92114453D01*
X173526051Y-92138839D01*
X173533164Y-92162288D01*
X173544715Y-92183899D01*
X173560260Y-92202841D01*
X173579202Y-92218386D01*
X173600813Y-92229937D01*
X173624262Y-92237050D01*
X173648648Y-92239452D01*
X173703649Y-92239452D01*
X173703649Y-92841452D01*
X173648648Y-92841452D01*
X173624262Y-92843854D01*
X173600813Y-92850967D01*
X173579202Y-92862518D01*
X173560260Y-92878063D01*
X173544715Y-92897005D01*
X173533164Y-92918616D01*
X173526051Y-92942065D01*
X173523649Y-92966451D01*
X173523649Y-93841452D01*
X172921649Y-93841452D01*
X172921649Y-92966451D01*
X172919247Y-92942065D01*
X172912134Y-92918616D01*
X172900583Y-92897005D01*
X172885038Y-92878063D01*
X172866096Y-92862518D01*
X172844485Y-92850967D01*
X172821036Y-92843854D01*
X172796650Y-92841452D01*
X172648648Y-92841452D01*
X172624262Y-92843854D01*
X172600813Y-92850967D01*
X172579202Y-92862518D01*
X172560260Y-92878063D01*
X172544715Y-92897005D01*
X172533164Y-92918616D01*
X172526051Y-92942065D01*
X172523649Y-92966451D01*
X172523649Y-93841452D01*
X172121649Y-93841452D01*
X172121649Y-92966451D01*
X172119247Y-92942065D01*
X172112134Y-92918616D01*
X172100583Y-92897005D01*
X172085038Y-92878063D01*
X172066096Y-92862518D01*
X172044485Y-92850967D01*
X172021036Y-92843854D01*
X171996650Y-92841452D01*
X171848648Y-92841452D01*
X171824262Y-92843854D01*
X171800813Y-92850967D01*
X171779202Y-92862518D01*
X171760260Y-92878063D01*
X171744715Y-92897005D01*
X171733164Y-92918616D01*
X171726051Y-92942065D01*
X171723649Y-92966451D01*
X171723649Y-93841452D01*
X171121649Y-93841452D01*
X171121649Y-92966451D01*
X171119247Y-92942065D01*
X171112134Y-92918616D01*
X171100583Y-92897005D01*
X171085038Y-92878063D01*
X171066096Y-92862518D01*
X171044485Y-92850967D01*
X171021036Y-92843854D01*
X170996650Y-92841452D01*
X170941649Y-92841452D01*
X170941649Y-92239452D01*
X170996650Y-92239452D01*
X171021036Y-92237050D01*
X171044485Y-92229937D01*
X171066096Y-92218386D01*
X171085038Y-92202841D01*
X171100583Y-92183899D01*
X171112134Y-92162288D01*
X171119247Y-92138839D01*
X171121649Y-92114453D01*
X171121649Y-91239452D01*
X171723649Y-91239452D01*
X171723649Y-92114453D01*
G37*
G36*
X170498649Y-92491452D02*
G01*
X169646649Y-92491452D01*
X169646649Y-91589452D01*
X170498649Y-91589452D01*
X170498649Y-92491452D01*
G37*
G36*
X107573649Y-59139453D02*
G01*
X107576051Y-59163839D01*
X107583164Y-59187288D01*
X107594715Y-59208899D01*
X107610260Y-59227841D01*
X107629202Y-59243386D01*
X107650813Y-59254937D01*
X107674262Y-59262050D01*
X107698648Y-59264452D01*
X108573649Y-59264452D01*
X108573649Y-59866452D01*
X107698648Y-59866452D01*
X107674262Y-59868854D01*
X107650813Y-59875967D01*
X107629202Y-59887518D01*
X107610260Y-59903063D01*
X107594715Y-59922005D01*
X107583164Y-59943616D01*
X107576051Y-59967065D01*
X107573649Y-59991451D01*
X107573649Y-60139453D01*
X107576051Y-60163839D01*
X107583164Y-60187288D01*
X107594715Y-60208899D01*
X107610260Y-60227841D01*
X107629202Y-60243386D01*
X107650813Y-60254937D01*
X107674262Y-60262050D01*
X107698648Y-60264452D01*
X108573649Y-60264452D01*
X108573649Y-60666452D01*
X107698648Y-60666452D01*
X107674262Y-60668854D01*
X107650813Y-60675967D01*
X107629202Y-60687518D01*
X107610260Y-60703063D01*
X107594715Y-60722005D01*
X107583164Y-60743616D01*
X107576051Y-60767065D01*
X107573649Y-60791451D01*
X107573649Y-60939453D01*
X107576051Y-60963839D01*
X107583164Y-60987288D01*
X107594715Y-61008899D01*
X107610260Y-61027841D01*
X107629202Y-61043386D01*
X107650813Y-61054937D01*
X107674262Y-61062050D01*
X107698648Y-61064452D01*
X108573649Y-61064452D01*
X108573649Y-61666452D01*
X107698648Y-61666452D01*
X107674262Y-61668854D01*
X107650813Y-61675967D01*
X107629202Y-61687518D01*
X107610260Y-61703063D01*
X107594715Y-61722005D01*
X107583164Y-61743616D01*
X107576051Y-61767065D01*
X107573649Y-61791451D01*
X107573649Y-61846452D01*
X106971649Y-61846452D01*
X106971649Y-61791451D01*
X106969247Y-61767065D01*
X106962134Y-61743616D01*
X106950583Y-61722005D01*
X106935038Y-61703063D01*
X106916096Y-61687518D01*
X106894485Y-61675967D01*
X106871036Y-61668854D01*
X106846650Y-61666452D01*
X105971649Y-61666452D01*
X105971649Y-61064452D01*
X106846650Y-61064452D01*
X106871036Y-61062050D01*
X106894485Y-61054937D01*
X106916096Y-61043386D01*
X106935038Y-61027841D01*
X106950583Y-61008899D01*
X106962134Y-60987288D01*
X106969247Y-60963839D01*
X106971649Y-60939453D01*
X106971649Y-60791451D01*
X106969247Y-60767065D01*
X106962134Y-60743616D01*
X106950583Y-60722005D01*
X106935038Y-60703063D01*
X106916096Y-60687518D01*
X106894485Y-60675967D01*
X106871036Y-60668854D01*
X106846650Y-60666452D01*
X105971649Y-60666452D01*
X105971649Y-60264452D01*
X106846650Y-60264452D01*
X106871036Y-60262050D01*
X106894485Y-60254937D01*
X106916096Y-60243386D01*
X106935038Y-60227841D01*
X106950583Y-60208899D01*
X106962134Y-60187288D01*
X106969247Y-60163839D01*
X106971649Y-60139453D01*
X106971649Y-59991451D01*
X106969247Y-59967065D01*
X106962134Y-59943616D01*
X106950583Y-59922005D01*
X106935038Y-59903063D01*
X106916096Y-59887518D01*
X106894485Y-59875967D01*
X106871036Y-59868854D01*
X106846650Y-59866452D01*
X105971649Y-59866452D01*
X105971649Y-59264452D01*
X106846650Y-59264452D01*
X106871036Y-59262050D01*
X106894485Y-59254937D01*
X106916096Y-59243386D01*
X106935038Y-59227841D01*
X106950583Y-59208899D01*
X106962134Y-59187288D01*
X106969247Y-59163839D01*
X106971649Y-59139453D01*
X106971649Y-59084452D01*
X107573649Y-59084452D01*
X107573649Y-59139453D01*
G37*
G36*
X112498649Y-61091452D02*
G01*
X111596649Y-61091452D01*
X111596649Y-60239452D01*
X112498649Y-60239452D01*
X112498649Y-61091452D01*
G37*
G36*
X110998649Y-61091452D02*
G01*
X110096649Y-61091452D01*
X110096649Y-60239452D01*
X110998649Y-60239452D01*
X110998649Y-61091452D01*
G37*
M02*
