G04 #@! TF.GenerationSoftware,KiCad,Pcbnew,(5.1.5)-3*
G04 #@! TF.CreationDate,2021-03-08T22:08:54-05:00*
G04 #@! TF.ProjectId,Wing,57696e67-2e6b-4696-9361-645f70636258,rev?*
G04 #@! TF.SameCoordinates,Original*
G04 #@! TF.FileFunction,Copper,L2,Bot*
G04 #@! TF.FilePolarity,Positive*
%FSLAX46Y46*%
G04 Gerber Fmt 4.6, Leading zero omitted, Abs format (unit mm)*
G04 Created by KiCad (PCBNEW (5.1.5)-3) date 2021-03-08 22:08:54*
%MOMM*%
%LPD*%
G04 APERTURE LIST*
%ADD10R,0.750000X0.800000*%
%ADD11C,0.800000*%
%ADD12R,1.000000X3.000000*%
%ADD13R,1.000000X0.300000*%
%ADD14R,0.300000X0.800000*%
%ADD15R,0.500000X0.800000*%
%ADD16C,0.500000*%
%ADD17C,0.250000*%
%ADD18C,0.150000*%
%ADD19C,0.127000*%
G04 APERTURE END LIST*
D10*
X169747649Y-91940452D03*
X169747649Y-93440452D03*
X107877649Y-61280452D03*
X107877649Y-59780452D03*
D11*
X155200000Y-99050000D03*
X156700000Y-99050000D03*
D12*
X155200000Y-98050000D03*
X156700000Y-98050000D03*
X159700000Y-98050000D03*
X158200000Y-98050000D03*
D11*
X158200000Y-99050000D03*
X159700000Y-99050000D03*
D12*
X161200000Y-98050000D03*
D11*
X161200000Y-99050000D03*
X162700000Y-99050000D03*
D12*
X162700000Y-98050000D03*
D13*
X106582649Y-60505452D03*
X104922649Y-60505452D03*
D14*
X105752649Y-59705452D03*
D15*
X104852649Y-59705452D03*
X106652649Y-59705452D03*
D14*
X105752649Y-61305452D03*
D15*
X104852649Y-61305452D03*
X106652649Y-61305452D03*
D13*
X171017649Y-92690452D03*
X172677649Y-92690452D03*
D14*
X171847649Y-93490452D03*
D15*
X172747649Y-93490452D03*
X170947649Y-93490452D03*
D14*
X171847649Y-91890452D03*
D15*
X172747649Y-91890452D03*
X170947649Y-91890452D03*
D16*
X169747649Y-93440452D03*
X107877649Y-59760452D03*
X107867649Y-61270452D03*
X169747649Y-91940452D03*
X173497649Y-92690452D03*
X103997649Y-60500452D03*
X149457649Y-59420452D03*
X150547649Y-59450452D03*
X159947648Y-92140202D03*
X162822649Y-90965452D03*
X163097649Y-94040452D03*
X161197649Y-95590452D03*
X141767649Y-59260452D03*
X142567649Y-60640452D03*
X150867649Y-63310452D03*
X173477649Y-93490452D03*
X157067649Y-90080452D03*
X149467649Y-63620452D03*
X154617649Y-89570452D03*
D17*
X170947649Y-92620452D02*
X171017649Y-92690452D01*
X170947649Y-91890452D02*
X170947649Y-92620452D01*
X170497649Y-92690452D02*
X171017649Y-92690452D01*
X169747649Y-93440452D02*
X170497649Y-92690452D01*
X106652649Y-60575452D02*
X106582649Y-60505452D01*
X106652649Y-61305452D02*
X106652649Y-60575452D01*
X107132649Y-60505452D02*
X106582649Y-60505452D01*
X107877649Y-59760452D02*
X107132649Y-60505452D01*
X104002649Y-60505452D02*
X103997649Y-60500452D01*
X104922649Y-60505452D02*
X104002649Y-60505452D01*
D18*
X149457649Y-61780452D02*
X149457649Y-59420452D01*
X148897649Y-62340452D02*
X149457649Y-61780452D01*
X141167649Y-62340452D02*
X148897649Y-62340452D01*
X104852649Y-61855452D02*
X105487649Y-62490452D01*
X105487649Y-62490452D02*
X109237649Y-62490452D01*
X140507649Y-61680452D02*
X141167649Y-62340452D01*
X104852649Y-61305452D02*
X104852649Y-61855452D01*
X109237649Y-62490452D02*
X110047649Y-61680452D01*
X110047649Y-61680452D02*
X140507649Y-61680452D01*
X105752649Y-61855452D02*
X106087639Y-62190442D01*
X105752649Y-61305452D02*
X105752649Y-61855452D01*
X109113381Y-62190442D02*
X109923381Y-61380442D01*
X106087639Y-62190442D02*
X109113381Y-62190442D01*
X109923381Y-61380442D02*
X140631918Y-61380443D01*
X140631918Y-61380443D02*
X141291917Y-62040442D01*
X141291917Y-62040442D02*
X148597659Y-62040442D01*
X148597659Y-62040442D02*
X148917649Y-61720452D01*
X149229648Y-58945451D02*
X150042648Y-58945451D01*
X150042648Y-58945451D02*
X150297650Y-59200453D01*
X148917649Y-59257450D02*
X149229648Y-58945451D01*
X150297650Y-59200453D02*
X150547649Y-59450452D01*
X148917649Y-61720452D02*
X148917649Y-59257450D01*
X163050650Y-90490451D02*
X163375641Y-90815442D01*
X159947648Y-92140202D02*
X161597399Y-90490451D01*
X161597399Y-90490451D02*
X163050650Y-90490451D01*
X172747649Y-91340452D02*
X172747649Y-91890452D01*
X172222639Y-90815442D02*
X172747649Y-91340452D01*
X163375641Y-90815442D02*
X172222639Y-90815442D01*
X163072648Y-91215451D02*
X162822649Y-90965452D01*
X171722648Y-91215451D02*
X163072648Y-91215451D01*
X171847649Y-91340452D02*
X171722648Y-91215451D01*
X171847649Y-91890452D02*
X171847649Y-91340452D01*
D17*
X162700000Y-98050000D02*
X162700000Y-99050000D01*
X162700000Y-94438101D02*
X163097649Y-94040452D01*
X162700000Y-98050000D02*
X162700000Y-94438101D01*
X161200000Y-95592803D02*
X161197649Y-95590452D01*
X161200000Y-98050000D02*
X161200000Y-95592803D01*
D18*
X141337649Y-59690452D02*
X141767649Y-59260452D01*
X139097640Y-59390443D02*
X139397649Y-59690452D01*
X139397649Y-59690452D02*
X141337649Y-59690452D01*
X104852649Y-59155452D02*
X105557659Y-58450442D01*
X104852649Y-59705452D02*
X104852649Y-59155452D01*
X105557659Y-58450442D02*
X108951918Y-58450443D01*
X109891917Y-59390442D02*
X139097640Y-59390443D01*
X108951918Y-58450443D02*
X109891917Y-59390442D01*
X109767649Y-59690452D02*
X138973371Y-59690452D01*
X108827649Y-58750452D02*
X109767649Y-59690452D01*
X105752649Y-59155452D02*
X106157649Y-58750452D01*
X106157649Y-58750452D02*
X108827649Y-58750452D01*
X105752649Y-59705452D02*
X105752649Y-59155452D01*
X139345510Y-60062591D02*
X141219788Y-60062591D01*
X138973371Y-59690452D02*
X139345510Y-60062591D01*
X141797649Y-60640452D02*
X142567649Y-60640452D01*
X141219788Y-60062591D02*
X141797649Y-60640452D01*
X161937649Y-92650452D02*
X166997649Y-92650452D01*
X160867649Y-93720452D02*
X161937649Y-92650452D01*
X150867649Y-63310452D02*
X150867649Y-71930452D01*
X158117649Y-79180452D02*
X158117649Y-92290452D01*
X150867649Y-71930452D02*
X158117649Y-79180452D01*
X158117649Y-92290452D02*
X159547649Y-93720452D01*
X159547649Y-93720452D02*
X160867649Y-93720452D01*
X171847649Y-94040452D02*
X171847649Y-93490452D01*
X171347649Y-94540452D02*
X171847649Y-94040452D01*
X168887649Y-94540452D02*
X171347649Y-94540452D01*
X166997649Y-92650452D02*
X168887649Y-94540452D01*
D17*
X172747649Y-93490452D02*
X173477649Y-93490452D01*
D18*
X149467649Y-63974005D02*
X150407649Y-64914005D01*
X149467649Y-63620452D02*
X149467649Y-63974005D01*
X150407649Y-64914005D02*
X150407649Y-71894730D01*
X150407649Y-71894730D02*
X157817639Y-79304720D01*
X157817639Y-89330462D02*
X157067649Y-90080452D01*
X157817639Y-79304720D02*
X157817639Y-89330462D01*
X154617649Y-94317649D02*
X154617649Y-89570452D01*
X156700000Y-98050000D02*
X156700000Y-96400000D01*
X156700000Y-96400000D02*
X154617649Y-94317649D01*
D19*
G36*
X108065006Y-57296386D02*
G01*
X108671742Y-57496553D01*
X109228042Y-57810754D01*
X109712722Y-58227028D01*
X110113259Y-58737084D01*
X110136089Y-58773571D01*
X110142626Y-58785794D01*
X110169562Y-58818602D01*
X110202382Y-58845526D01*
X110239823Y-58865529D01*
X110280448Y-58877842D01*
X110312114Y-58880955D01*
X139573521Y-58874858D01*
X139589668Y-58875613D01*
X139605199Y-58873271D01*
X139620812Y-58871730D01*
X139626138Y-58870113D01*
X139631643Y-58869283D01*
X139646405Y-58863961D01*
X139661432Y-58859399D01*
X139675684Y-58851777D01*
X141062299Y-58191875D01*
X142020728Y-58191875D01*
X142020872Y-58191889D01*
X142031285Y-58191875D01*
X142041740Y-58191875D01*
X142041885Y-58191861D01*
X150388996Y-58180638D01*
X154741842Y-58180638D01*
X161660177Y-59099654D01*
X161660173Y-61690749D01*
X157715737Y-62214711D01*
X157712283Y-62214599D01*
X157694751Y-62217499D01*
X157687643Y-62218443D01*
X157684289Y-62219229D01*
X157670403Y-62221526D01*
X157663668Y-62224063D01*
X157656663Y-62225705D01*
X157643847Y-62231530D01*
X157630678Y-62236490D01*
X157624573Y-62240288D01*
X157618017Y-62243268D01*
X157606579Y-62251485D01*
X157594636Y-62258916D01*
X157589386Y-62263836D01*
X157583541Y-62268035D01*
X157573931Y-62278320D01*
X157563662Y-62287943D01*
X157559473Y-62293792D01*
X157554559Y-62299051D01*
X157547139Y-62311015D01*
X157538946Y-62322455D01*
X157535978Y-62329011D01*
X157532185Y-62335126D01*
X157527243Y-62348303D01*
X157521437Y-62361126D01*
X157519805Y-62368135D01*
X157517278Y-62374872D01*
X157515002Y-62388758D01*
X157511809Y-62402469D01*
X157511576Y-62409663D01*
X157510412Y-62416762D01*
X157510889Y-62430825D01*
X157510432Y-62444896D01*
X157511606Y-62451996D01*
X157511850Y-62459187D01*
X157515062Y-62472888D01*
X157515624Y-62476288D01*
X157517484Y-62483223D01*
X157521538Y-62500516D01*
X157522966Y-62503658D01*
X164636270Y-89021209D01*
X164631019Y-89863093D01*
X164629911Y-89874339D01*
X164631927Y-89894815D01*
X164633812Y-89915258D01*
X164634004Y-89915907D01*
X164634071Y-89916583D01*
X164640060Y-89936328D01*
X164645881Y-89955956D01*
X164646195Y-89956552D01*
X164646393Y-89957205D01*
X164656130Y-89975422D01*
X164665658Y-89993517D01*
X164666083Y-89994042D01*
X164666404Y-89994642D01*
X164679475Y-90010569D01*
X164692383Y-90026499D01*
X164692904Y-90026932D01*
X164693334Y-90027456D01*
X164709199Y-90040476D01*
X164725028Y-90053633D01*
X164725625Y-90053957D01*
X164726148Y-90054386D01*
X164744200Y-90064035D01*
X164762339Y-90073877D01*
X164762990Y-90074079D01*
X164763585Y-90074397D01*
X164783179Y-90080341D01*
X164802884Y-90086452D01*
X164803560Y-90086523D01*
X164804207Y-90086719D01*
X164824606Y-90088728D01*
X164845102Y-90090876D01*
X164856360Y-90089838D01*
X167841590Y-90089841D01*
X167853473Y-90090866D01*
X167873243Y-90088677D01*
X167893096Y-90086722D01*
X167904518Y-90083257D01*
X170780194Y-89474967D01*
X172122858Y-89474967D01*
X175318521Y-90132484D01*
X175318517Y-95041824D01*
X172122858Y-95699338D01*
X170768334Y-95699338D01*
X167904598Y-95091071D01*
X167893095Y-95087582D01*
X167873395Y-95085642D01*
X167853652Y-95083439D01*
X167841665Y-95084463D01*
X164835540Y-95084461D01*
X164825468Y-95083422D01*
X164814396Y-95084461D01*
X164813890Y-95084461D01*
X164803690Y-95085466D01*
X164783205Y-95087388D01*
X164782728Y-95087530D01*
X164782224Y-95087580D01*
X164762255Y-95093637D01*
X164742527Y-95099522D01*
X164742086Y-95099755D01*
X164741602Y-95099902D01*
X164723197Y-95109740D01*
X164704998Y-95119360D01*
X164704611Y-95119675D01*
X164704165Y-95119913D01*
X164688042Y-95133145D01*
X164672060Y-95146138D01*
X164671741Y-95146523D01*
X164671351Y-95146843D01*
X164658187Y-95162884D01*
X164644978Y-95178827D01*
X164644739Y-95179270D01*
X164644421Y-95179657D01*
X164634660Y-95197918D01*
X164624795Y-95216171D01*
X164624647Y-95216650D01*
X164624410Y-95217094D01*
X164618395Y-95236923D01*
X164612285Y-95256736D01*
X164612233Y-95257237D01*
X164612088Y-95257716D01*
X164610061Y-95278299D01*
X164609020Y-95288387D01*
X164609018Y-95288888D01*
X164607927Y-95299961D01*
X164608920Y-95310044D01*
X164590367Y-99324959D01*
X163464774Y-99324958D01*
X163464774Y-96550000D01*
X163459686Y-96498345D01*
X163444619Y-96448675D01*
X163420152Y-96402899D01*
X163387223Y-96362777D01*
X163347101Y-96329848D01*
X163301325Y-96305381D01*
X163251655Y-96290314D01*
X163200000Y-96285226D01*
X163088500Y-96285226D01*
X163088500Y-94599022D01*
X163133570Y-94553952D01*
X163148224Y-94553952D01*
X163247432Y-94534219D01*
X163340883Y-94495510D01*
X163424986Y-94439314D01*
X163496511Y-94367789D01*
X163552707Y-94283686D01*
X163591416Y-94190235D01*
X163611149Y-94091027D01*
X163611149Y-93989877D01*
X163591416Y-93890669D01*
X163552707Y-93797218D01*
X163496511Y-93713115D01*
X163424986Y-93641590D01*
X163340883Y-93585394D01*
X163247432Y-93546685D01*
X163148224Y-93526952D01*
X163047074Y-93526952D01*
X162947866Y-93546685D01*
X162854415Y-93585394D01*
X162770312Y-93641590D01*
X162698787Y-93713115D01*
X162642591Y-93797218D01*
X162603882Y-93890669D01*
X162584149Y-93989877D01*
X162584149Y-94004531D01*
X162438782Y-94149898D01*
X162423961Y-94162061D01*
X162411799Y-94176881D01*
X162375412Y-94221218D01*
X162339337Y-94288710D01*
X162323862Y-94339728D01*
X162319321Y-94354698D01*
X162317123Y-94361943D01*
X162309621Y-94438101D01*
X162311501Y-94457186D01*
X162311500Y-96285226D01*
X162200000Y-96285226D01*
X162148345Y-96290314D01*
X162098675Y-96305381D01*
X162052899Y-96329848D01*
X162012777Y-96362777D01*
X161979848Y-96402899D01*
X161955381Y-96448675D01*
X161950000Y-96466414D01*
X161944619Y-96448675D01*
X161920152Y-96402899D01*
X161887223Y-96362777D01*
X161847101Y-96329848D01*
X161801325Y-96305381D01*
X161751655Y-96290314D01*
X161700000Y-96285226D01*
X161588500Y-96285226D01*
X161588500Y-95925800D01*
X161596511Y-95917789D01*
X161652707Y-95833686D01*
X161691416Y-95740235D01*
X161711149Y-95641027D01*
X161711149Y-95539877D01*
X161691416Y-95440669D01*
X161652707Y-95347218D01*
X161596511Y-95263115D01*
X161524986Y-95191590D01*
X161440883Y-95135394D01*
X161347432Y-95096685D01*
X161248224Y-95076952D01*
X161147074Y-95076952D01*
X161047866Y-95096685D01*
X160954415Y-95135394D01*
X160870312Y-95191590D01*
X160798787Y-95263115D01*
X160742591Y-95347218D01*
X160703882Y-95440669D01*
X160684149Y-95539877D01*
X160684149Y-95641027D01*
X160703882Y-95740235D01*
X160742591Y-95833686D01*
X160798787Y-95917789D01*
X160811501Y-95930503D01*
X160811501Y-96285226D01*
X160700000Y-96285226D01*
X160648345Y-96290314D01*
X160598675Y-96305381D01*
X160552899Y-96329848D01*
X160512777Y-96362777D01*
X160479848Y-96402899D01*
X160455381Y-96448675D01*
X160440314Y-96498345D01*
X160435226Y-96550000D01*
X160435226Y-99324957D01*
X158964774Y-99324957D01*
X158964774Y-96550000D01*
X158959686Y-96498345D01*
X158944619Y-96448675D01*
X158920152Y-96402899D01*
X158887223Y-96362777D01*
X158847101Y-96329848D01*
X158801325Y-96305381D01*
X158751655Y-96290314D01*
X158700000Y-96285226D01*
X157700000Y-96285226D01*
X157648345Y-96290314D01*
X157598675Y-96305381D01*
X157552899Y-96329848D01*
X157512777Y-96362777D01*
X157479848Y-96402899D01*
X157455381Y-96448675D01*
X157450000Y-96466414D01*
X157444619Y-96448675D01*
X157420152Y-96402899D01*
X157387223Y-96362777D01*
X157347101Y-96329848D01*
X157301325Y-96305381D01*
X157251655Y-96290314D01*
X157200000Y-96285226D01*
X157018915Y-96285226D01*
X157014246Y-96269835D01*
X156982814Y-96211030D01*
X156940513Y-96159487D01*
X156927602Y-96148891D01*
X154956149Y-94177439D01*
X154956149Y-89958151D01*
X155016511Y-89897789D01*
X155072707Y-89813686D01*
X155111416Y-89720235D01*
X155131149Y-89621027D01*
X155131149Y-89519877D01*
X155111416Y-89420669D01*
X155072707Y-89327218D01*
X155016511Y-89243115D01*
X154944986Y-89171590D01*
X154860883Y-89115394D01*
X154767432Y-89076685D01*
X154668224Y-89056952D01*
X154567074Y-89056952D01*
X154467866Y-89076685D01*
X154374415Y-89115394D01*
X154290312Y-89171590D01*
X154218787Y-89243115D01*
X154162591Y-89327218D01*
X154123882Y-89420669D01*
X154104149Y-89519877D01*
X154104149Y-89621027D01*
X154123882Y-89720235D01*
X154162591Y-89813686D01*
X154218787Y-89897789D01*
X154279150Y-89958152D01*
X154279149Y-94301037D01*
X154277513Y-94317649D01*
X154279149Y-94334261D01*
X154279149Y-94334268D01*
X154281875Y-94361942D01*
X154283712Y-94380589D01*
X154284048Y-94384005D01*
X154303403Y-94447813D01*
X154334835Y-94506618D01*
X154377136Y-94558161D01*
X154390048Y-94568758D01*
X156120155Y-96298865D01*
X156098675Y-96305381D01*
X156052899Y-96329848D01*
X156012777Y-96362777D01*
X155979848Y-96402899D01*
X155955381Y-96448675D01*
X155950000Y-96466414D01*
X155944619Y-96448675D01*
X155920152Y-96402899D01*
X155887223Y-96362777D01*
X155847101Y-96329848D01*
X155801325Y-96305381D01*
X155751655Y-96290314D01*
X155700000Y-96285226D01*
X154700000Y-96285226D01*
X154648345Y-96290314D01*
X154598675Y-96305381D01*
X154552899Y-96329848D01*
X154512777Y-96362777D01*
X154479848Y-96402899D01*
X154455381Y-96448675D01*
X154440314Y-96498345D01*
X154435226Y-96550000D01*
X154435226Y-99324955D01*
X151982743Y-99324954D01*
X151982746Y-94726362D01*
X151983787Y-94715793D01*
X151982746Y-94705222D01*
X151982746Y-94705215D01*
X151979627Y-94673549D01*
X151967305Y-94632927D01*
X151947294Y-94595490D01*
X151920364Y-94562676D01*
X151887550Y-94535746D01*
X151850113Y-94515735D01*
X151809491Y-94503413D01*
X151767246Y-94499252D01*
X151756665Y-94500294D01*
X149977815Y-94500292D01*
X149967246Y-94499251D01*
X149956675Y-94500292D01*
X149956668Y-94500292D01*
X149925002Y-94503411D01*
X149884380Y-94515733D01*
X149846943Y-94535744D01*
X149814129Y-94562674D01*
X149787199Y-94595488D01*
X149767188Y-94632925D01*
X149754866Y-94673547D01*
X149750705Y-94715792D01*
X149751747Y-94726373D01*
X149751744Y-99324954D01*
X143713148Y-99324952D01*
X143713150Y-96625632D01*
X143714191Y-96615063D01*
X143713150Y-96604492D01*
X143713150Y-96604485D01*
X143710031Y-96572819D01*
X143697709Y-96532197D01*
X143677698Y-96494760D01*
X143650768Y-96461946D01*
X143617954Y-96435016D01*
X143580517Y-96415005D01*
X143539895Y-96402683D01*
X143497650Y-96398522D01*
X143487069Y-96399564D01*
X141090583Y-96399562D01*
X139794014Y-95630614D01*
X139794016Y-89412197D01*
X141093812Y-88591770D01*
X143487084Y-88591770D01*
X143497653Y-88592811D01*
X143508224Y-88591770D01*
X143508232Y-88591770D01*
X143539898Y-88588651D01*
X143580520Y-88576329D01*
X143617957Y-88556318D01*
X143650771Y-88529388D01*
X143677701Y-88496574D01*
X143697712Y-88459137D01*
X143710034Y-88418515D01*
X143714195Y-88376270D01*
X143713152Y-88365681D01*
X143713160Y-63569877D01*
X148954149Y-63569877D01*
X148954149Y-63671027D01*
X148973882Y-63770235D01*
X149012591Y-63863686D01*
X149068787Y-63947789D01*
X149131064Y-64010066D01*
X149132638Y-64026044D01*
X149134048Y-64040362D01*
X149153403Y-64104169D01*
X149153404Y-64104170D01*
X149184836Y-64162975D01*
X149227137Y-64214518D01*
X149240048Y-64225114D01*
X150069149Y-65054216D01*
X150069150Y-71878108D01*
X150067513Y-71894730D01*
X150074048Y-71961087D01*
X150093403Y-72024894D01*
X150093404Y-72024895D01*
X150124836Y-72083700D01*
X150167137Y-72135243D01*
X150180048Y-72145839D01*
X157479139Y-79444931D01*
X157479140Y-89190250D01*
X157102439Y-89566952D01*
X157017074Y-89566952D01*
X156917866Y-89586685D01*
X156824415Y-89625394D01*
X156740312Y-89681590D01*
X156668787Y-89753115D01*
X156612591Y-89837218D01*
X156573882Y-89930669D01*
X156554149Y-90029877D01*
X156554149Y-90131027D01*
X156573882Y-90230235D01*
X156612591Y-90323686D01*
X156668787Y-90407789D01*
X156740312Y-90479314D01*
X156824415Y-90535510D01*
X156917866Y-90574219D01*
X157017074Y-90593952D01*
X157118224Y-90593952D01*
X157217432Y-90574219D01*
X157310883Y-90535510D01*
X157394986Y-90479314D01*
X157466511Y-90407789D01*
X157522707Y-90323686D01*
X157561416Y-90230235D01*
X157581149Y-90131027D01*
X157581149Y-90045662D01*
X157779150Y-89847662D01*
X157779150Y-92273830D01*
X157777513Y-92290452D01*
X157784048Y-92356809D01*
X157803403Y-92420616D01*
X157813298Y-92439127D01*
X157834836Y-92479422D01*
X157877137Y-92530965D01*
X157890048Y-92541561D01*
X159296540Y-93948054D01*
X159307136Y-93960965D01*
X159358679Y-94003266D01*
X159417484Y-94034698D01*
X159451590Y-94045043D01*
X159481290Y-94054053D01*
X159492788Y-94055185D01*
X159531029Y-94058952D01*
X159531036Y-94058952D01*
X159547648Y-94060588D01*
X159564260Y-94058952D01*
X160851037Y-94058952D01*
X160867649Y-94060588D01*
X160884261Y-94058952D01*
X160884269Y-94058952D01*
X160934006Y-94054053D01*
X160997814Y-94034698D01*
X161056619Y-94003266D01*
X161108162Y-93960965D01*
X161118762Y-93948049D01*
X162077861Y-92988952D01*
X166857439Y-92988952D01*
X168636545Y-94768060D01*
X168647136Y-94780965D01*
X168660041Y-94791556D01*
X168660045Y-94791560D01*
X168675529Y-94804267D01*
X168698679Y-94823266D01*
X168757484Y-94854698D01*
X168821291Y-94874053D01*
X168887649Y-94880589D01*
X168904269Y-94878952D01*
X171331037Y-94878952D01*
X171347649Y-94880588D01*
X171364261Y-94878952D01*
X171364269Y-94878952D01*
X171414006Y-94874053D01*
X171477814Y-94854698D01*
X171536619Y-94823266D01*
X171588162Y-94780965D01*
X171598762Y-94768049D01*
X172075255Y-94291556D01*
X172088161Y-94280965D01*
X172130463Y-94229422D01*
X172161895Y-94170617D01*
X172178277Y-94116611D01*
X172181250Y-94106810D01*
X172183391Y-94085071D01*
X172184053Y-94078347D01*
X172184872Y-94077675D01*
X172217801Y-94037553D01*
X172242268Y-93991777D01*
X172247649Y-93974038D01*
X172253030Y-93991777D01*
X172277497Y-94037553D01*
X172310426Y-94077675D01*
X172350548Y-94110604D01*
X172396324Y-94135071D01*
X172445994Y-94150138D01*
X172497649Y-94155226D01*
X172997649Y-94155226D01*
X173049304Y-94150138D01*
X173098974Y-94135071D01*
X173144750Y-94110604D01*
X173184872Y-94077675D01*
X173217801Y-94037553D01*
X173242268Y-93991777D01*
X173253860Y-93953564D01*
X173327866Y-93984219D01*
X173427074Y-94003952D01*
X173528224Y-94003952D01*
X173627432Y-93984219D01*
X173720883Y-93945510D01*
X173804986Y-93889314D01*
X173876511Y-93817789D01*
X173932707Y-93733686D01*
X173971416Y-93640235D01*
X173991149Y-93541027D01*
X173991149Y-93439877D01*
X173971416Y-93340669D01*
X173932707Y-93247218D01*
X173876511Y-93163115D01*
X173804986Y-93091590D01*
X173720883Y-93035394D01*
X173627432Y-92996685D01*
X173528224Y-92976952D01*
X173427074Y-92976952D01*
X173327866Y-92996685D01*
X173253860Y-93027340D01*
X173242268Y-92989127D01*
X173217801Y-92943351D01*
X173184872Y-92903229D01*
X173144750Y-92870300D01*
X173098974Y-92845833D01*
X173049304Y-92830766D01*
X172997649Y-92825678D01*
X172497649Y-92825678D01*
X172445994Y-92830766D01*
X172396324Y-92845833D01*
X172350548Y-92870300D01*
X172310426Y-92903229D01*
X172277497Y-92943351D01*
X172253030Y-92989127D01*
X172247649Y-93006866D01*
X172242268Y-92989127D01*
X172217801Y-92943351D01*
X172184872Y-92903229D01*
X172144750Y-92870300D01*
X172098974Y-92845833D01*
X172049304Y-92830766D01*
X171997649Y-92825678D01*
X171782423Y-92825678D01*
X171782423Y-92555226D01*
X171997649Y-92555226D01*
X172049304Y-92550138D01*
X172098974Y-92535071D01*
X172144750Y-92510604D01*
X172184872Y-92477675D01*
X172217801Y-92437553D01*
X172242268Y-92391777D01*
X172247649Y-92374038D01*
X172253030Y-92391777D01*
X172277497Y-92437553D01*
X172310426Y-92477675D01*
X172350548Y-92510604D01*
X172396324Y-92535071D01*
X172445994Y-92550138D01*
X172497649Y-92555226D01*
X172997649Y-92555226D01*
X173049304Y-92550138D01*
X173098974Y-92535071D01*
X173144750Y-92510604D01*
X173184872Y-92477675D01*
X173217801Y-92437553D01*
X173242268Y-92391777D01*
X173257335Y-92342107D01*
X173262423Y-92290452D01*
X173262423Y-91490452D01*
X173257335Y-91438797D01*
X173242268Y-91389127D01*
X173217801Y-91343351D01*
X173184872Y-91303229D01*
X173144750Y-91270300D01*
X173098974Y-91245833D01*
X173070012Y-91237048D01*
X173061895Y-91210287D01*
X173030463Y-91151482D01*
X173000715Y-91115235D01*
X172998756Y-91112848D01*
X172998754Y-91112846D01*
X172988161Y-91099939D01*
X172975255Y-91089348D01*
X172473752Y-90587845D01*
X172463152Y-90574929D01*
X172411609Y-90532628D01*
X172352804Y-90501196D01*
X172288996Y-90481841D01*
X172239259Y-90476942D01*
X172239251Y-90476942D01*
X172222639Y-90475306D01*
X172206027Y-90476942D01*
X163515852Y-90476942D01*
X163301763Y-90262854D01*
X163291163Y-90249938D01*
X163239620Y-90207637D01*
X163180815Y-90176205D01*
X163117007Y-90156850D01*
X163067270Y-90151951D01*
X163067262Y-90151951D01*
X163050650Y-90150315D01*
X163034038Y-90151951D01*
X161614010Y-90151951D01*
X161597398Y-90150315D01*
X161580786Y-90151951D01*
X161580779Y-90151951D01*
X161537335Y-90156230D01*
X161531041Y-90156850D01*
X161529202Y-90157408D01*
X161467234Y-90176205D01*
X161408429Y-90207637D01*
X161356886Y-90249938D01*
X161346290Y-90262849D01*
X159982438Y-91626702D01*
X159897073Y-91626702D01*
X159797865Y-91646435D01*
X159704414Y-91685144D01*
X159620311Y-91741340D01*
X159548786Y-91812865D01*
X159492590Y-91896968D01*
X159453881Y-91990419D01*
X159434148Y-92089627D01*
X159434148Y-92190777D01*
X159453881Y-92289985D01*
X159492590Y-92383436D01*
X159548786Y-92467539D01*
X159620311Y-92539064D01*
X159704414Y-92595260D01*
X159797865Y-92633969D01*
X159897073Y-92653702D01*
X159998223Y-92653702D01*
X160097431Y-92633969D01*
X160190882Y-92595260D01*
X160274985Y-92539064D01*
X160346510Y-92467539D01*
X160402706Y-92383436D01*
X160441415Y-92289985D01*
X160461148Y-92190777D01*
X160461148Y-92105412D01*
X161737610Y-90828951D01*
X162326240Y-90828951D01*
X162309149Y-90914877D01*
X162309149Y-91016027D01*
X162328882Y-91115235D01*
X162367591Y-91208686D01*
X162423787Y-91292789D01*
X162495312Y-91364314D01*
X162579415Y-91420510D01*
X162672866Y-91459219D01*
X162772074Y-91478952D01*
X162860145Y-91478952D01*
X162883678Y-91498265D01*
X162887061Y-91500073D01*
X162942483Y-91529697D01*
X163006290Y-91549052D01*
X163012039Y-91549618D01*
X163056028Y-91553951D01*
X163056036Y-91553951D01*
X163072648Y-91555587D01*
X163089260Y-91553951D01*
X170432875Y-91553951D01*
X170432875Y-92290452D01*
X170432909Y-92290802D01*
X170416324Y-92295833D01*
X170370548Y-92320300D01*
X170365277Y-92324626D01*
X170350291Y-92329172D01*
X170348257Y-92329789D01*
X170280765Y-92365864D01*
X170259354Y-92383436D01*
X170221609Y-92414412D01*
X170209447Y-92429232D01*
X169863001Y-92775678D01*
X169372649Y-92775678D01*
X169320994Y-92780766D01*
X169271324Y-92795833D01*
X169225548Y-92820300D01*
X169185426Y-92853229D01*
X169152497Y-92893351D01*
X169128030Y-92939127D01*
X169112963Y-92988797D01*
X169107875Y-93040452D01*
X169107875Y-93840452D01*
X169112963Y-93892107D01*
X169128030Y-93941777D01*
X169152497Y-93987553D01*
X169185426Y-94027675D01*
X169225548Y-94060604D01*
X169271324Y-94085071D01*
X169320994Y-94100138D01*
X169372649Y-94105226D01*
X170122649Y-94105226D01*
X170174304Y-94100138D01*
X170223974Y-94085071D01*
X170269750Y-94060604D01*
X170309872Y-94027675D01*
X170342801Y-93987553D01*
X170367268Y-93941777D01*
X170382335Y-93892107D01*
X170387423Y-93840452D01*
X170387423Y-93350099D01*
X170632297Y-93105226D01*
X171432875Y-93105226D01*
X171432875Y-93890452D01*
X171437963Y-93942107D01*
X171444787Y-93964603D01*
X171207439Y-94201952D01*
X169027861Y-94201952D01*
X167248762Y-92422855D01*
X167238162Y-92409939D01*
X167186619Y-92367638D01*
X167127814Y-92336206D01*
X167064006Y-92316851D01*
X167014269Y-92311952D01*
X167014261Y-92311952D01*
X166997649Y-92310316D01*
X166981037Y-92311952D01*
X161954272Y-92311952D01*
X161937649Y-92310315D01*
X161871291Y-92316850D01*
X161807484Y-92336206D01*
X161748679Y-92367638D01*
X161725529Y-92386637D01*
X161710045Y-92399344D01*
X161710041Y-92399348D01*
X161697136Y-92409939D01*
X161686545Y-92422845D01*
X160727439Y-93381952D01*
X159687860Y-93381952D01*
X158456149Y-92150242D01*
X158456149Y-79197063D01*
X158457785Y-79180451D01*
X158456149Y-79163839D01*
X158456149Y-79163832D01*
X158451250Y-79114095D01*
X158431895Y-79050287D01*
X158400463Y-78991482D01*
X158358161Y-78939939D01*
X158345256Y-78929348D01*
X151206149Y-71790242D01*
X151206149Y-63698151D01*
X151266511Y-63637789D01*
X151322707Y-63553686D01*
X151361416Y-63460235D01*
X151381149Y-63361027D01*
X151381149Y-63259877D01*
X151361416Y-63160669D01*
X151322707Y-63067218D01*
X151266511Y-62983115D01*
X151194986Y-62911590D01*
X151110883Y-62855394D01*
X151017432Y-62816685D01*
X150918224Y-62796952D01*
X150817074Y-62796952D01*
X150717866Y-62816685D01*
X150624415Y-62855394D01*
X150540312Y-62911590D01*
X150468787Y-62983115D01*
X150412591Y-63067218D01*
X150373882Y-63160669D01*
X150354149Y-63259877D01*
X150354149Y-63361027D01*
X150373882Y-63460235D01*
X150412591Y-63553686D01*
X150468787Y-63637789D01*
X150529149Y-63698151D01*
X150529149Y-64556794D01*
X149887993Y-63915639D01*
X149922707Y-63863686D01*
X149961416Y-63770235D01*
X149981149Y-63671027D01*
X149981149Y-63569877D01*
X149961416Y-63470669D01*
X149922707Y-63377218D01*
X149866511Y-63293115D01*
X149794986Y-63221590D01*
X149710883Y-63165394D01*
X149617432Y-63126685D01*
X149518224Y-63106952D01*
X149417074Y-63106952D01*
X149317866Y-63126685D01*
X149224415Y-63165394D01*
X149140312Y-63221590D01*
X149068787Y-63293115D01*
X149012591Y-63377218D01*
X148973882Y-63470669D01*
X148954149Y-63569877D01*
X143713160Y-63569877D01*
X143713161Y-63023550D01*
X143714202Y-63012981D01*
X143713161Y-63002410D01*
X143713161Y-63002403D01*
X143710042Y-62970737D01*
X143697720Y-62930115D01*
X143677709Y-62892678D01*
X143650779Y-62859864D01*
X143617965Y-62832934D01*
X143580528Y-62812923D01*
X143539906Y-62800601D01*
X143497661Y-62796440D01*
X143487080Y-62797482D01*
X141062298Y-62797480D01*
X139675723Y-62137576D01*
X139661513Y-62129969D01*
X139646448Y-62125389D01*
X139631644Y-62120052D01*
X139626181Y-62119228D01*
X139620898Y-62117622D01*
X139605244Y-62116070D01*
X139589669Y-62113721D01*
X139573567Y-62114473D01*
X110256433Y-62096306D01*
X110224765Y-62099405D01*
X110184135Y-62111702D01*
X110146686Y-62131690D01*
X110113855Y-62158600D01*
X110086905Y-62191397D01*
X110085503Y-62194015D01*
X109696446Y-62694879D01*
X109219701Y-63108735D01*
X108671646Y-63422112D01*
X108073165Y-63623068D01*
X107447045Y-63703951D01*
X106817146Y-63661682D01*
X106207073Y-63497766D01*
X105662462Y-63231701D01*
X102416082Y-60699158D01*
X102416082Y-60288117D01*
X103636269Y-59305452D01*
X104337875Y-59305452D01*
X104337875Y-60105452D01*
X104342963Y-60157107D01*
X104358030Y-60206777D01*
X104382497Y-60252553D01*
X104415426Y-60292675D01*
X104455548Y-60325604D01*
X104501324Y-60350071D01*
X104550994Y-60365138D01*
X104602649Y-60370226D01*
X105102649Y-60370226D01*
X105154304Y-60365138D01*
X105203974Y-60350071D01*
X105249750Y-60325604D01*
X105289872Y-60292675D01*
X105322801Y-60252553D01*
X105347268Y-60206777D01*
X105352649Y-60189038D01*
X105358030Y-60206777D01*
X105382497Y-60252553D01*
X105415426Y-60292675D01*
X105455548Y-60325604D01*
X105501324Y-60350071D01*
X105550994Y-60365138D01*
X105602649Y-60370226D01*
X105817875Y-60370226D01*
X105817875Y-60640678D01*
X105602649Y-60640678D01*
X105550994Y-60645766D01*
X105501324Y-60660833D01*
X105455548Y-60685300D01*
X105415426Y-60718229D01*
X105382497Y-60758351D01*
X105358030Y-60804127D01*
X105352649Y-60821866D01*
X105347268Y-60804127D01*
X105322801Y-60758351D01*
X105289872Y-60718229D01*
X105249750Y-60685300D01*
X105203974Y-60660833D01*
X105154304Y-60645766D01*
X105102649Y-60640678D01*
X104602649Y-60640678D01*
X104550994Y-60645766D01*
X104501324Y-60660833D01*
X104455548Y-60685300D01*
X104415426Y-60718229D01*
X104382497Y-60758351D01*
X104358030Y-60804127D01*
X104342963Y-60853797D01*
X104337875Y-60905452D01*
X104337875Y-61705452D01*
X104342963Y-61757107D01*
X104358030Y-61806777D01*
X104382497Y-61852553D01*
X104415426Y-61892675D01*
X104455548Y-61925604D01*
X104501324Y-61950071D01*
X104530286Y-61958856D01*
X104538403Y-61985616D01*
X104549754Y-62006851D01*
X104569836Y-62044422D01*
X104612137Y-62095965D01*
X104625047Y-62106561D01*
X105236544Y-62718059D01*
X105247136Y-62730965D01*
X105260041Y-62741556D01*
X105260045Y-62741560D01*
X105275529Y-62754267D01*
X105298679Y-62773266D01*
X105349817Y-62800600D01*
X105357484Y-62804698D01*
X105421291Y-62824053D01*
X105487649Y-62830589D01*
X105504269Y-62828952D01*
X109221037Y-62828952D01*
X109237649Y-62830588D01*
X109254261Y-62828952D01*
X109254269Y-62828952D01*
X109304006Y-62824053D01*
X109367814Y-62804698D01*
X109426619Y-62773266D01*
X109478162Y-62730965D01*
X109488762Y-62718049D01*
X110187860Y-62018952D01*
X140367439Y-62018952D01*
X140916540Y-62568054D01*
X140927136Y-62580965D01*
X140978679Y-62623266D01*
X141022646Y-62646767D01*
X141037484Y-62654698D01*
X141101291Y-62674053D01*
X141105850Y-62674502D01*
X141151029Y-62678952D01*
X141151037Y-62678952D01*
X141167649Y-62680588D01*
X141184261Y-62678952D01*
X148881037Y-62678952D01*
X148897649Y-62680588D01*
X148914261Y-62678952D01*
X148914269Y-62678952D01*
X148964006Y-62674053D01*
X149027814Y-62654698D01*
X149086619Y-62623266D01*
X149138162Y-62580965D01*
X149148762Y-62568049D01*
X149685261Y-62031552D01*
X149698161Y-62020965D01*
X149708749Y-62008064D01*
X149708757Y-62008056D01*
X149735833Y-61975063D01*
X149740463Y-61969422D01*
X149771895Y-61910617D01*
X149783587Y-61872072D01*
X149791250Y-61846810D01*
X149797786Y-61780452D01*
X149796149Y-61763832D01*
X149796149Y-59808151D01*
X149856511Y-59747789D01*
X149912707Y-59663686D01*
X149951416Y-59570235D01*
X149971149Y-59471027D01*
X149971149Y-59369877D01*
X149966875Y-59348388D01*
X150034149Y-59415663D01*
X150034149Y-59501027D01*
X150053882Y-59600235D01*
X150092591Y-59693686D01*
X150148787Y-59777789D01*
X150220312Y-59849314D01*
X150304415Y-59905510D01*
X150397866Y-59944219D01*
X150497074Y-59963952D01*
X150598224Y-59963952D01*
X150697432Y-59944219D01*
X150790883Y-59905510D01*
X150874986Y-59849314D01*
X150946511Y-59777789D01*
X151002707Y-59693686D01*
X151041416Y-59600235D01*
X151061149Y-59501027D01*
X151061149Y-59399877D01*
X151041416Y-59300669D01*
X151002707Y-59207218D01*
X150946511Y-59123115D01*
X150874986Y-59051590D01*
X150790883Y-58995394D01*
X150697432Y-58956685D01*
X150598224Y-58936952D01*
X150512860Y-58936952D01*
X150293761Y-58717854D01*
X150283161Y-58704938D01*
X150231618Y-58662637D01*
X150172813Y-58631205D01*
X150109005Y-58611850D01*
X150059268Y-58606951D01*
X150059260Y-58606951D01*
X150042648Y-58605315D01*
X150026036Y-58606951D01*
X149246259Y-58606951D01*
X149229647Y-58605315D01*
X149213035Y-58606951D01*
X149213028Y-58606951D01*
X149169584Y-58611230D01*
X149163290Y-58611850D01*
X149146085Y-58617069D01*
X149099483Y-58631205D01*
X149040678Y-58662637D01*
X148989135Y-58704938D01*
X148978539Y-58717849D01*
X148690047Y-59006341D01*
X148677137Y-59016937D01*
X148648698Y-59051590D01*
X148634836Y-59068480D01*
X148603403Y-59127286D01*
X148584048Y-59191093D01*
X148577513Y-59257450D01*
X148579150Y-59274072D01*
X148579149Y-61580241D01*
X148457449Y-61701942D01*
X141432129Y-61701942D01*
X140883027Y-61152841D01*
X140872431Y-61139931D01*
X140820888Y-61097630D01*
X140816922Y-61095510D01*
X140762082Y-61066197D01*
X140698275Y-61046842D01*
X140631918Y-61040307D01*
X140615296Y-61041944D01*
X109939993Y-61041942D01*
X109923381Y-61040306D01*
X109906769Y-61041942D01*
X109906762Y-61041942D01*
X109868521Y-61045709D01*
X109857023Y-61046841D01*
X109793216Y-61066196D01*
X109734410Y-61097629D01*
X109695777Y-61129335D01*
X109695776Y-61129336D01*
X109682869Y-61139929D01*
X109672278Y-61152834D01*
X108973171Y-61851942D01*
X107123128Y-61851942D01*
X107147268Y-61806777D01*
X107162335Y-61757107D01*
X107167423Y-61705452D01*
X107167423Y-60905452D01*
X107167389Y-60905102D01*
X107183974Y-60900071D01*
X107205293Y-60888676D01*
X107208808Y-60888330D01*
X107282041Y-60866115D01*
X107349532Y-60830040D01*
X107408689Y-60781492D01*
X107420857Y-60766665D01*
X107742296Y-60445226D01*
X108252649Y-60445226D01*
X108304304Y-60440138D01*
X108353974Y-60425071D01*
X108399750Y-60400604D01*
X108439872Y-60367675D01*
X108472801Y-60327553D01*
X108497268Y-60281777D01*
X108512335Y-60232107D01*
X108517423Y-60180452D01*
X108517423Y-59380452D01*
X108512335Y-59328797D01*
X108497268Y-59279127D01*
X108472801Y-59233351D01*
X108439872Y-59193229D01*
X108399750Y-59160300D01*
X108353974Y-59135833D01*
X108304304Y-59120766D01*
X108252649Y-59115678D01*
X107502649Y-59115678D01*
X107450994Y-59120766D01*
X107401324Y-59135833D01*
X107355548Y-59160300D01*
X107315426Y-59193229D01*
X107282497Y-59233351D01*
X107258030Y-59279127D01*
X107242963Y-59328797D01*
X107237875Y-59380452D01*
X107237875Y-59850804D01*
X106998002Y-60090678D01*
X106167423Y-60090678D01*
X106167423Y-59305452D01*
X106162335Y-59253797D01*
X106155511Y-59231301D01*
X106297860Y-59088952D01*
X108687439Y-59088952D01*
X109516540Y-59918054D01*
X109527136Y-59930965D01*
X109578679Y-59973266D01*
X109635591Y-60003686D01*
X109637484Y-60004698D01*
X109701291Y-60024053D01*
X109707040Y-60024619D01*
X109751029Y-60028952D01*
X109751037Y-60028952D01*
X109767649Y-60030588D01*
X109784261Y-60028952D01*
X138833161Y-60028952D01*
X139094401Y-60290193D01*
X139104997Y-60303104D01*
X139156540Y-60345405D01*
X139202977Y-60370226D01*
X139215345Y-60376837D01*
X139279152Y-60396192D01*
X139285446Y-60396812D01*
X139328890Y-60401091D01*
X139328897Y-60401091D01*
X139345509Y-60402727D01*
X139362121Y-60401091D01*
X141079578Y-60401091D01*
X141546540Y-60868054D01*
X141557136Y-60880965D01*
X141608679Y-60923266D01*
X141667484Y-60954698D01*
X141731291Y-60974053D01*
X141737040Y-60974619D01*
X141781029Y-60978952D01*
X141781037Y-60978952D01*
X141797649Y-60980588D01*
X141814261Y-60978952D01*
X142179950Y-60978952D01*
X142240312Y-61039314D01*
X142324415Y-61095510D01*
X142417866Y-61134219D01*
X142517074Y-61153952D01*
X142618224Y-61153952D01*
X142717432Y-61134219D01*
X142810883Y-61095510D01*
X142894986Y-61039314D01*
X142966511Y-60967789D01*
X143022707Y-60883686D01*
X143061416Y-60790235D01*
X143081149Y-60691027D01*
X143081149Y-60589877D01*
X143061416Y-60490669D01*
X143022707Y-60397218D01*
X142966511Y-60313115D01*
X142894986Y-60241590D01*
X142810883Y-60185394D01*
X142717432Y-60146685D01*
X142618224Y-60126952D01*
X142517074Y-60126952D01*
X142417866Y-60146685D01*
X142324415Y-60185394D01*
X142240312Y-60241590D01*
X142179950Y-60301952D01*
X141937860Y-60301952D01*
X141571961Y-59936054D01*
X141578162Y-59930965D01*
X141588762Y-59918049D01*
X141732859Y-59773952D01*
X141818224Y-59773952D01*
X141917432Y-59754219D01*
X142010883Y-59715510D01*
X142094986Y-59659314D01*
X142166511Y-59587789D01*
X142222707Y-59503686D01*
X142261416Y-59410235D01*
X142281149Y-59311027D01*
X142281149Y-59209877D01*
X142261416Y-59110669D01*
X142222707Y-59017218D01*
X142166511Y-58933115D01*
X142094986Y-58861590D01*
X142010883Y-58805394D01*
X141917432Y-58766685D01*
X141818224Y-58746952D01*
X141717074Y-58746952D01*
X141617866Y-58766685D01*
X141524415Y-58805394D01*
X141440312Y-58861590D01*
X141368787Y-58933115D01*
X141312591Y-59017218D01*
X141273882Y-59110669D01*
X141254149Y-59209877D01*
X141254149Y-59295242D01*
X141197439Y-59351952D01*
X139537860Y-59351952D01*
X139348749Y-59162841D01*
X139338153Y-59149931D01*
X139286610Y-59107630D01*
X139282081Y-59105209D01*
X139227804Y-59076197D01*
X139163997Y-59056842D01*
X139097640Y-59050307D01*
X139081018Y-59051944D01*
X110032128Y-59051942D01*
X109203027Y-58222842D01*
X109192431Y-58209931D01*
X109140888Y-58167630D01*
X109136127Y-58165085D01*
X109082082Y-58136197D01*
X109018275Y-58116842D01*
X108951918Y-58110307D01*
X108935296Y-58111944D01*
X105574271Y-58111942D01*
X105557659Y-58110306D01*
X105541047Y-58111942D01*
X105541040Y-58111942D01*
X105502799Y-58115709D01*
X105491301Y-58116841D01*
X105427494Y-58136196D01*
X105408672Y-58146257D01*
X105368690Y-58167628D01*
X105368688Y-58167629D01*
X105368689Y-58167629D01*
X105330055Y-58199335D01*
X105330054Y-58199336D01*
X105317147Y-58209929D01*
X105306556Y-58222834D01*
X104625048Y-58904343D01*
X104612137Y-58914939D01*
X104601542Y-58927849D01*
X104569836Y-58966482D01*
X104538403Y-59025288D01*
X104530286Y-59052048D01*
X104501324Y-59060833D01*
X104455548Y-59085300D01*
X104415426Y-59118229D01*
X104382497Y-59158351D01*
X104358030Y-59204127D01*
X104342963Y-59253797D01*
X104337875Y-59305452D01*
X103636269Y-59305452D01*
X105607894Y-57717625D01*
X106177587Y-57433066D01*
X106793716Y-57264027D01*
X107430948Y-57217881D01*
X108065006Y-57296386D01*
G37*
X108065006Y-57296386D02*
X108671742Y-57496553D01*
X109228042Y-57810754D01*
X109712722Y-58227028D01*
X110113259Y-58737084D01*
X110136089Y-58773571D01*
X110142626Y-58785794D01*
X110169562Y-58818602D01*
X110202382Y-58845526D01*
X110239823Y-58865529D01*
X110280448Y-58877842D01*
X110312114Y-58880955D01*
X139573521Y-58874858D01*
X139589668Y-58875613D01*
X139605199Y-58873271D01*
X139620812Y-58871730D01*
X139626138Y-58870113D01*
X139631643Y-58869283D01*
X139646405Y-58863961D01*
X139661432Y-58859399D01*
X139675684Y-58851777D01*
X141062299Y-58191875D01*
X142020728Y-58191875D01*
X142020872Y-58191889D01*
X142031285Y-58191875D01*
X142041740Y-58191875D01*
X142041885Y-58191861D01*
X150388996Y-58180638D01*
X154741842Y-58180638D01*
X161660177Y-59099654D01*
X161660173Y-61690749D01*
X157715737Y-62214711D01*
X157712283Y-62214599D01*
X157694751Y-62217499D01*
X157687643Y-62218443D01*
X157684289Y-62219229D01*
X157670403Y-62221526D01*
X157663668Y-62224063D01*
X157656663Y-62225705D01*
X157643847Y-62231530D01*
X157630678Y-62236490D01*
X157624573Y-62240288D01*
X157618017Y-62243268D01*
X157606579Y-62251485D01*
X157594636Y-62258916D01*
X157589386Y-62263836D01*
X157583541Y-62268035D01*
X157573931Y-62278320D01*
X157563662Y-62287943D01*
X157559473Y-62293792D01*
X157554559Y-62299051D01*
X157547139Y-62311015D01*
X157538946Y-62322455D01*
X157535978Y-62329011D01*
X157532185Y-62335126D01*
X157527243Y-62348303D01*
X157521437Y-62361126D01*
X157519805Y-62368135D01*
X157517278Y-62374872D01*
X157515002Y-62388758D01*
X157511809Y-62402469D01*
X157511576Y-62409663D01*
X157510412Y-62416762D01*
X157510889Y-62430825D01*
X157510432Y-62444896D01*
X157511606Y-62451996D01*
X157511850Y-62459187D01*
X157515062Y-62472888D01*
X157515624Y-62476288D01*
X157517484Y-62483223D01*
X157521538Y-62500516D01*
X157522966Y-62503658D01*
X164636270Y-89021209D01*
X164631019Y-89863093D01*
X164629911Y-89874339D01*
X164631927Y-89894815D01*
X164633812Y-89915258D01*
X164634004Y-89915907D01*
X164634071Y-89916583D01*
X164640060Y-89936328D01*
X164645881Y-89955956D01*
X164646195Y-89956552D01*
X164646393Y-89957205D01*
X164656130Y-89975422D01*
X164665658Y-89993517D01*
X164666083Y-89994042D01*
X164666404Y-89994642D01*
X164679475Y-90010569D01*
X164692383Y-90026499D01*
X164692904Y-90026932D01*
X164693334Y-90027456D01*
X164709199Y-90040476D01*
X164725028Y-90053633D01*
X164725625Y-90053957D01*
X164726148Y-90054386D01*
X164744200Y-90064035D01*
X164762339Y-90073877D01*
X164762990Y-90074079D01*
X164763585Y-90074397D01*
X164783179Y-90080341D01*
X164802884Y-90086452D01*
X164803560Y-90086523D01*
X164804207Y-90086719D01*
X164824606Y-90088728D01*
X164845102Y-90090876D01*
X164856360Y-90089838D01*
X167841590Y-90089841D01*
X167853473Y-90090866D01*
X167873243Y-90088677D01*
X167893096Y-90086722D01*
X167904518Y-90083257D01*
X170780194Y-89474967D01*
X172122858Y-89474967D01*
X175318521Y-90132484D01*
X175318517Y-95041824D01*
X172122858Y-95699338D01*
X170768334Y-95699338D01*
X167904598Y-95091071D01*
X167893095Y-95087582D01*
X167873395Y-95085642D01*
X167853652Y-95083439D01*
X167841665Y-95084463D01*
X164835540Y-95084461D01*
X164825468Y-95083422D01*
X164814396Y-95084461D01*
X164813890Y-95084461D01*
X164803690Y-95085466D01*
X164783205Y-95087388D01*
X164782728Y-95087530D01*
X164782224Y-95087580D01*
X164762255Y-95093637D01*
X164742527Y-95099522D01*
X164742086Y-95099755D01*
X164741602Y-95099902D01*
X164723197Y-95109740D01*
X164704998Y-95119360D01*
X164704611Y-95119675D01*
X164704165Y-95119913D01*
X164688042Y-95133145D01*
X164672060Y-95146138D01*
X164671741Y-95146523D01*
X164671351Y-95146843D01*
X164658187Y-95162884D01*
X164644978Y-95178827D01*
X164644739Y-95179270D01*
X164644421Y-95179657D01*
X164634660Y-95197918D01*
X164624795Y-95216171D01*
X164624647Y-95216650D01*
X164624410Y-95217094D01*
X164618395Y-95236923D01*
X164612285Y-95256736D01*
X164612233Y-95257237D01*
X164612088Y-95257716D01*
X164610061Y-95278299D01*
X164609020Y-95288387D01*
X164609018Y-95288888D01*
X164607927Y-95299961D01*
X164608920Y-95310044D01*
X164590367Y-99324959D01*
X163464774Y-99324958D01*
X163464774Y-96550000D01*
X163459686Y-96498345D01*
X163444619Y-96448675D01*
X163420152Y-96402899D01*
X163387223Y-96362777D01*
X163347101Y-96329848D01*
X163301325Y-96305381D01*
X163251655Y-96290314D01*
X163200000Y-96285226D01*
X163088500Y-96285226D01*
X163088500Y-94599022D01*
X163133570Y-94553952D01*
X163148224Y-94553952D01*
X163247432Y-94534219D01*
X163340883Y-94495510D01*
X163424986Y-94439314D01*
X163496511Y-94367789D01*
X163552707Y-94283686D01*
X163591416Y-94190235D01*
X163611149Y-94091027D01*
X163611149Y-93989877D01*
X163591416Y-93890669D01*
X163552707Y-93797218D01*
X163496511Y-93713115D01*
X163424986Y-93641590D01*
X163340883Y-93585394D01*
X163247432Y-93546685D01*
X163148224Y-93526952D01*
X163047074Y-93526952D01*
X162947866Y-93546685D01*
X162854415Y-93585394D01*
X162770312Y-93641590D01*
X162698787Y-93713115D01*
X162642591Y-93797218D01*
X162603882Y-93890669D01*
X162584149Y-93989877D01*
X162584149Y-94004531D01*
X162438782Y-94149898D01*
X162423961Y-94162061D01*
X162411799Y-94176881D01*
X162375412Y-94221218D01*
X162339337Y-94288710D01*
X162323862Y-94339728D01*
X162319321Y-94354698D01*
X162317123Y-94361943D01*
X162309621Y-94438101D01*
X162311501Y-94457186D01*
X162311500Y-96285226D01*
X162200000Y-96285226D01*
X162148345Y-96290314D01*
X162098675Y-96305381D01*
X162052899Y-96329848D01*
X162012777Y-96362777D01*
X161979848Y-96402899D01*
X161955381Y-96448675D01*
X161950000Y-96466414D01*
X161944619Y-96448675D01*
X161920152Y-96402899D01*
X161887223Y-96362777D01*
X161847101Y-96329848D01*
X161801325Y-96305381D01*
X161751655Y-96290314D01*
X161700000Y-96285226D01*
X161588500Y-96285226D01*
X161588500Y-95925800D01*
X161596511Y-95917789D01*
X161652707Y-95833686D01*
X161691416Y-95740235D01*
X161711149Y-95641027D01*
X161711149Y-95539877D01*
X161691416Y-95440669D01*
X161652707Y-95347218D01*
X161596511Y-95263115D01*
X161524986Y-95191590D01*
X161440883Y-95135394D01*
X161347432Y-95096685D01*
X161248224Y-95076952D01*
X161147074Y-95076952D01*
X161047866Y-95096685D01*
X160954415Y-95135394D01*
X160870312Y-95191590D01*
X160798787Y-95263115D01*
X160742591Y-95347218D01*
X160703882Y-95440669D01*
X160684149Y-95539877D01*
X160684149Y-95641027D01*
X160703882Y-95740235D01*
X160742591Y-95833686D01*
X160798787Y-95917789D01*
X160811501Y-95930503D01*
X160811501Y-96285226D01*
X160700000Y-96285226D01*
X160648345Y-96290314D01*
X160598675Y-96305381D01*
X160552899Y-96329848D01*
X160512777Y-96362777D01*
X160479848Y-96402899D01*
X160455381Y-96448675D01*
X160440314Y-96498345D01*
X160435226Y-96550000D01*
X160435226Y-99324957D01*
X158964774Y-99324957D01*
X158964774Y-96550000D01*
X158959686Y-96498345D01*
X158944619Y-96448675D01*
X158920152Y-96402899D01*
X158887223Y-96362777D01*
X158847101Y-96329848D01*
X158801325Y-96305381D01*
X158751655Y-96290314D01*
X158700000Y-96285226D01*
X157700000Y-96285226D01*
X157648345Y-96290314D01*
X157598675Y-96305381D01*
X157552899Y-96329848D01*
X157512777Y-96362777D01*
X157479848Y-96402899D01*
X157455381Y-96448675D01*
X157450000Y-96466414D01*
X157444619Y-96448675D01*
X157420152Y-96402899D01*
X157387223Y-96362777D01*
X157347101Y-96329848D01*
X157301325Y-96305381D01*
X157251655Y-96290314D01*
X157200000Y-96285226D01*
X157018915Y-96285226D01*
X157014246Y-96269835D01*
X156982814Y-96211030D01*
X156940513Y-96159487D01*
X156927602Y-96148891D01*
X154956149Y-94177439D01*
X154956149Y-89958151D01*
X155016511Y-89897789D01*
X155072707Y-89813686D01*
X155111416Y-89720235D01*
X155131149Y-89621027D01*
X155131149Y-89519877D01*
X155111416Y-89420669D01*
X155072707Y-89327218D01*
X155016511Y-89243115D01*
X154944986Y-89171590D01*
X154860883Y-89115394D01*
X154767432Y-89076685D01*
X154668224Y-89056952D01*
X154567074Y-89056952D01*
X154467866Y-89076685D01*
X154374415Y-89115394D01*
X154290312Y-89171590D01*
X154218787Y-89243115D01*
X154162591Y-89327218D01*
X154123882Y-89420669D01*
X154104149Y-89519877D01*
X154104149Y-89621027D01*
X154123882Y-89720235D01*
X154162591Y-89813686D01*
X154218787Y-89897789D01*
X154279150Y-89958152D01*
X154279149Y-94301037D01*
X154277513Y-94317649D01*
X154279149Y-94334261D01*
X154279149Y-94334268D01*
X154281875Y-94361942D01*
X154283712Y-94380589D01*
X154284048Y-94384005D01*
X154303403Y-94447813D01*
X154334835Y-94506618D01*
X154377136Y-94558161D01*
X154390048Y-94568758D01*
X156120155Y-96298865D01*
X156098675Y-96305381D01*
X156052899Y-96329848D01*
X156012777Y-96362777D01*
X155979848Y-96402899D01*
X155955381Y-96448675D01*
X155950000Y-96466414D01*
X155944619Y-96448675D01*
X155920152Y-96402899D01*
X155887223Y-96362777D01*
X155847101Y-96329848D01*
X155801325Y-96305381D01*
X155751655Y-96290314D01*
X155700000Y-96285226D01*
X154700000Y-96285226D01*
X154648345Y-96290314D01*
X154598675Y-96305381D01*
X154552899Y-96329848D01*
X154512777Y-96362777D01*
X154479848Y-96402899D01*
X154455381Y-96448675D01*
X154440314Y-96498345D01*
X154435226Y-96550000D01*
X154435226Y-99324955D01*
X151982743Y-99324954D01*
X151982746Y-94726362D01*
X151983787Y-94715793D01*
X151982746Y-94705222D01*
X151982746Y-94705215D01*
X151979627Y-94673549D01*
X151967305Y-94632927D01*
X151947294Y-94595490D01*
X151920364Y-94562676D01*
X151887550Y-94535746D01*
X151850113Y-94515735D01*
X151809491Y-94503413D01*
X151767246Y-94499252D01*
X151756665Y-94500294D01*
X149977815Y-94500292D01*
X149967246Y-94499251D01*
X149956675Y-94500292D01*
X149956668Y-94500292D01*
X149925002Y-94503411D01*
X149884380Y-94515733D01*
X149846943Y-94535744D01*
X149814129Y-94562674D01*
X149787199Y-94595488D01*
X149767188Y-94632925D01*
X149754866Y-94673547D01*
X149750705Y-94715792D01*
X149751747Y-94726373D01*
X149751744Y-99324954D01*
X143713148Y-99324952D01*
X143713150Y-96625632D01*
X143714191Y-96615063D01*
X143713150Y-96604492D01*
X143713150Y-96604485D01*
X143710031Y-96572819D01*
X143697709Y-96532197D01*
X143677698Y-96494760D01*
X143650768Y-96461946D01*
X143617954Y-96435016D01*
X143580517Y-96415005D01*
X143539895Y-96402683D01*
X143497650Y-96398522D01*
X143487069Y-96399564D01*
X141090583Y-96399562D01*
X139794014Y-95630614D01*
X139794016Y-89412197D01*
X141093812Y-88591770D01*
X143487084Y-88591770D01*
X143497653Y-88592811D01*
X143508224Y-88591770D01*
X143508232Y-88591770D01*
X143539898Y-88588651D01*
X143580520Y-88576329D01*
X143617957Y-88556318D01*
X143650771Y-88529388D01*
X143677701Y-88496574D01*
X143697712Y-88459137D01*
X143710034Y-88418515D01*
X143714195Y-88376270D01*
X143713152Y-88365681D01*
X143713160Y-63569877D01*
X148954149Y-63569877D01*
X148954149Y-63671027D01*
X148973882Y-63770235D01*
X149012591Y-63863686D01*
X149068787Y-63947789D01*
X149131064Y-64010066D01*
X149132638Y-64026044D01*
X149134048Y-64040362D01*
X149153403Y-64104169D01*
X149153404Y-64104170D01*
X149184836Y-64162975D01*
X149227137Y-64214518D01*
X149240048Y-64225114D01*
X150069149Y-65054216D01*
X150069150Y-71878108D01*
X150067513Y-71894730D01*
X150074048Y-71961087D01*
X150093403Y-72024894D01*
X150093404Y-72024895D01*
X150124836Y-72083700D01*
X150167137Y-72135243D01*
X150180048Y-72145839D01*
X157479139Y-79444931D01*
X157479140Y-89190250D01*
X157102439Y-89566952D01*
X157017074Y-89566952D01*
X156917866Y-89586685D01*
X156824415Y-89625394D01*
X156740312Y-89681590D01*
X156668787Y-89753115D01*
X156612591Y-89837218D01*
X156573882Y-89930669D01*
X156554149Y-90029877D01*
X156554149Y-90131027D01*
X156573882Y-90230235D01*
X156612591Y-90323686D01*
X156668787Y-90407789D01*
X156740312Y-90479314D01*
X156824415Y-90535510D01*
X156917866Y-90574219D01*
X157017074Y-90593952D01*
X157118224Y-90593952D01*
X157217432Y-90574219D01*
X157310883Y-90535510D01*
X157394986Y-90479314D01*
X157466511Y-90407789D01*
X157522707Y-90323686D01*
X157561416Y-90230235D01*
X157581149Y-90131027D01*
X157581149Y-90045662D01*
X157779150Y-89847662D01*
X157779150Y-92273830D01*
X157777513Y-92290452D01*
X157784048Y-92356809D01*
X157803403Y-92420616D01*
X157813298Y-92439127D01*
X157834836Y-92479422D01*
X157877137Y-92530965D01*
X157890048Y-92541561D01*
X159296540Y-93948054D01*
X159307136Y-93960965D01*
X159358679Y-94003266D01*
X159417484Y-94034698D01*
X159451590Y-94045043D01*
X159481290Y-94054053D01*
X159492788Y-94055185D01*
X159531029Y-94058952D01*
X159531036Y-94058952D01*
X159547648Y-94060588D01*
X159564260Y-94058952D01*
X160851037Y-94058952D01*
X160867649Y-94060588D01*
X160884261Y-94058952D01*
X160884269Y-94058952D01*
X160934006Y-94054053D01*
X160997814Y-94034698D01*
X161056619Y-94003266D01*
X161108162Y-93960965D01*
X161118762Y-93948049D01*
X162077861Y-92988952D01*
X166857439Y-92988952D01*
X168636545Y-94768060D01*
X168647136Y-94780965D01*
X168660041Y-94791556D01*
X168660045Y-94791560D01*
X168675529Y-94804267D01*
X168698679Y-94823266D01*
X168757484Y-94854698D01*
X168821291Y-94874053D01*
X168887649Y-94880589D01*
X168904269Y-94878952D01*
X171331037Y-94878952D01*
X171347649Y-94880588D01*
X171364261Y-94878952D01*
X171364269Y-94878952D01*
X171414006Y-94874053D01*
X171477814Y-94854698D01*
X171536619Y-94823266D01*
X171588162Y-94780965D01*
X171598762Y-94768049D01*
X172075255Y-94291556D01*
X172088161Y-94280965D01*
X172130463Y-94229422D01*
X172161895Y-94170617D01*
X172178277Y-94116611D01*
X172181250Y-94106810D01*
X172183391Y-94085071D01*
X172184053Y-94078347D01*
X172184872Y-94077675D01*
X172217801Y-94037553D01*
X172242268Y-93991777D01*
X172247649Y-93974038D01*
X172253030Y-93991777D01*
X172277497Y-94037553D01*
X172310426Y-94077675D01*
X172350548Y-94110604D01*
X172396324Y-94135071D01*
X172445994Y-94150138D01*
X172497649Y-94155226D01*
X172997649Y-94155226D01*
X173049304Y-94150138D01*
X173098974Y-94135071D01*
X173144750Y-94110604D01*
X173184872Y-94077675D01*
X173217801Y-94037553D01*
X173242268Y-93991777D01*
X173253860Y-93953564D01*
X173327866Y-93984219D01*
X173427074Y-94003952D01*
X173528224Y-94003952D01*
X173627432Y-93984219D01*
X173720883Y-93945510D01*
X173804986Y-93889314D01*
X173876511Y-93817789D01*
X173932707Y-93733686D01*
X173971416Y-93640235D01*
X173991149Y-93541027D01*
X173991149Y-93439877D01*
X173971416Y-93340669D01*
X173932707Y-93247218D01*
X173876511Y-93163115D01*
X173804986Y-93091590D01*
X173720883Y-93035394D01*
X173627432Y-92996685D01*
X173528224Y-92976952D01*
X173427074Y-92976952D01*
X173327866Y-92996685D01*
X173253860Y-93027340D01*
X173242268Y-92989127D01*
X173217801Y-92943351D01*
X173184872Y-92903229D01*
X173144750Y-92870300D01*
X173098974Y-92845833D01*
X173049304Y-92830766D01*
X172997649Y-92825678D01*
X172497649Y-92825678D01*
X172445994Y-92830766D01*
X172396324Y-92845833D01*
X172350548Y-92870300D01*
X172310426Y-92903229D01*
X172277497Y-92943351D01*
X172253030Y-92989127D01*
X172247649Y-93006866D01*
X172242268Y-92989127D01*
X172217801Y-92943351D01*
X172184872Y-92903229D01*
X172144750Y-92870300D01*
X172098974Y-92845833D01*
X172049304Y-92830766D01*
X171997649Y-92825678D01*
X171782423Y-92825678D01*
X171782423Y-92555226D01*
X171997649Y-92555226D01*
X172049304Y-92550138D01*
X172098974Y-92535071D01*
X172144750Y-92510604D01*
X172184872Y-92477675D01*
X172217801Y-92437553D01*
X172242268Y-92391777D01*
X172247649Y-92374038D01*
X172253030Y-92391777D01*
X172277497Y-92437553D01*
X172310426Y-92477675D01*
X172350548Y-92510604D01*
X172396324Y-92535071D01*
X172445994Y-92550138D01*
X172497649Y-92555226D01*
X172997649Y-92555226D01*
X173049304Y-92550138D01*
X173098974Y-92535071D01*
X173144750Y-92510604D01*
X173184872Y-92477675D01*
X173217801Y-92437553D01*
X173242268Y-92391777D01*
X173257335Y-92342107D01*
X173262423Y-92290452D01*
X173262423Y-91490452D01*
X173257335Y-91438797D01*
X173242268Y-91389127D01*
X173217801Y-91343351D01*
X173184872Y-91303229D01*
X173144750Y-91270300D01*
X173098974Y-91245833D01*
X173070012Y-91237048D01*
X173061895Y-91210287D01*
X173030463Y-91151482D01*
X173000715Y-91115235D01*
X172998756Y-91112848D01*
X172998754Y-91112846D01*
X172988161Y-91099939D01*
X172975255Y-91089348D01*
X172473752Y-90587845D01*
X172463152Y-90574929D01*
X172411609Y-90532628D01*
X172352804Y-90501196D01*
X172288996Y-90481841D01*
X172239259Y-90476942D01*
X172239251Y-90476942D01*
X172222639Y-90475306D01*
X172206027Y-90476942D01*
X163515852Y-90476942D01*
X163301763Y-90262854D01*
X163291163Y-90249938D01*
X163239620Y-90207637D01*
X163180815Y-90176205D01*
X163117007Y-90156850D01*
X163067270Y-90151951D01*
X163067262Y-90151951D01*
X163050650Y-90150315D01*
X163034038Y-90151951D01*
X161614010Y-90151951D01*
X161597398Y-90150315D01*
X161580786Y-90151951D01*
X161580779Y-90151951D01*
X161537335Y-90156230D01*
X161531041Y-90156850D01*
X161529202Y-90157408D01*
X161467234Y-90176205D01*
X161408429Y-90207637D01*
X161356886Y-90249938D01*
X161346290Y-90262849D01*
X159982438Y-91626702D01*
X159897073Y-91626702D01*
X159797865Y-91646435D01*
X159704414Y-91685144D01*
X159620311Y-91741340D01*
X159548786Y-91812865D01*
X159492590Y-91896968D01*
X159453881Y-91990419D01*
X159434148Y-92089627D01*
X159434148Y-92190777D01*
X159453881Y-92289985D01*
X159492590Y-92383436D01*
X159548786Y-92467539D01*
X159620311Y-92539064D01*
X159704414Y-92595260D01*
X159797865Y-92633969D01*
X159897073Y-92653702D01*
X159998223Y-92653702D01*
X160097431Y-92633969D01*
X160190882Y-92595260D01*
X160274985Y-92539064D01*
X160346510Y-92467539D01*
X160402706Y-92383436D01*
X160441415Y-92289985D01*
X160461148Y-92190777D01*
X160461148Y-92105412D01*
X161737610Y-90828951D01*
X162326240Y-90828951D01*
X162309149Y-90914877D01*
X162309149Y-91016027D01*
X162328882Y-91115235D01*
X162367591Y-91208686D01*
X162423787Y-91292789D01*
X162495312Y-91364314D01*
X162579415Y-91420510D01*
X162672866Y-91459219D01*
X162772074Y-91478952D01*
X162860145Y-91478952D01*
X162883678Y-91498265D01*
X162887061Y-91500073D01*
X162942483Y-91529697D01*
X163006290Y-91549052D01*
X163012039Y-91549618D01*
X163056028Y-91553951D01*
X163056036Y-91553951D01*
X163072648Y-91555587D01*
X163089260Y-91553951D01*
X170432875Y-91553951D01*
X170432875Y-92290452D01*
X170432909Y-92290802D01*
X170416324Y-92295833D01*
X170370548Y-92320300D01*
X170365277Y-92324626D01*
X170350291Y-92329172D01*
X170348257Y-92329789D01*
X170280765Y-92365864D01*
X170259354Y-92383436D01*
X170221609Y-92414412D01*
X170209447Y-92429232D01*
X169863001Y-92775678D01*
X169372649Y-92775678D01*
X169320994Y-92780766D01*
X169271324Y-92795833D01*
X169225548Y-92820300D01*
X169185426Y-92853229D01*
X169152497Y-92893351D01*
X169128030Y-92939127D01*
X169112963Y-92988797D01*
X169107875Y-93040452D01*
X169107875Y-93840452D01*
X169112963Y-93892107D01*
X169128030Y-93941777D01*
X169152497Y-93987553D01*
X169185426Y-94027675D01*
X169225548Y-94060604D01*
X169271324Y-94085071D01*
X169320994Y-94100138D01*
X169372649Y-94105226D01*
X170122649Y-94105226D01*
X170174304Y-94100138D01*
X170223974Y-94085071D01*
X170269750Y-94060604D01*
X170309872Y-94027675D01*
X170342801Y-93987553D01*
X170367268Y-93941777D01*
X170382335Y-93892107D01*
X170387423Y-93840452D01*
X170387423Y-93350099D01*
X170632297Y-93105226D01*
X171432875Y-93105226D01*
X171432875Y-93890452D01*
X171437963Y-93942107D01*
X171444787Y-93964603D01*
X171207439Y-94201952D01*
X169027861Y-94201952D01*
X167248762Y-92422855D01*
X167238162Y-92409939D01*
X167186619Y-92367638D01*
X167127814Y-92336206D01*
X167064006Y-92316851D01*
X167014269Y-92311952D01*
X167014261Y-92311952D01*
X166997649Y-92310316D01*
X166981037Y-92311952D01*
X161954272Y-92311952D01*
X161937649Y-92310315D01*
X161871291Y-92316850D01*
X161807484Y-92336206D01*
X161748679Y-92367638D01*
X161725529Y-92386637D01*
X161710045Y-92399344D01*
X161710041Y-92399348D01*
X161697136Y-92409939D01*
X161686545Y-92422845D01*
X160727439Y-93381952D01*
X159687860Y-93381952D01*
X158456149Y-92150242D01*
X158456149Y-79197063D01*
X158457785Y-79180451D01*
X158456149Y-79163839D01*
X158456149Y-79163832D01*
X158451250Y-79114095D01*
X158431895Y-79050287D01*
X158400463Y-78991482D01*
X158358161Y-78939939D01*
X158345256Y-78929348D01*
X151206149Y-71790242D01*
X151206149Y-63698151D01*
X151266511Y-63637789D01*
X151322707Y-63553686D01*
X151361416Y-63460235D01*
X151381149Y-63361027D01*
X151381149Y-63259877D01*
X151361416Y-63160669D01*
X151322707Y-63067218D01*
X151266511Y-62983115D01*
X151194986Y-62911590D01*
X151110883Y-62855394D01*
X151017432Y-62816685D01*
X150918224Y-62796952D01*
X150817074Y-62796952D01*
X150717866Y-62816685D01*
X150624415Y-62855394D01*
X150540312Y-62911590D01*
X150468787Y-62983115D01*
X150412591Y-63067218D01*
X150373882Y-63160669D01*
X150354149Y-63259877D01*
X150354149Y-63361027D01*
X150373882Y-63460235D01*
X150412591Y-63553686D01*
X150468787Y-63637789D01*
X150529149Y-63698151D01*
X150529149Y-64556794D01*
X149887993Y-63915639D01*
X149922707Y-63863686D01*
X149961416Y-63770235D01*
X149981149Y-63671027D01*
X149981149Y-63569877D01*
X149961416Y-63470669D01*
X149922707Y-63377218D01*
X149866511Y-63293115D01*
X149794986Y-63221590D01*
X149710883Y-63165394D01*
X149617432Y-63126685D01*
X149518224Y-63106952D01*
X149417074Y-63106952D01*
X149317866Y-63126685D01*
X149224415Y-63165394D01*
X149140312Y-63221590D01*
X149068787Y-63293115D01*
X149012591Y-63377218D01*
X148973882Y-63470669D01*
X148954149Y-63569877D01*
X143713160Y-63569877D01*
X143713161Y-63023550D01*
X143714202Y-63012981D01*
X143713161Y-63002410D01*
X143713161Y-63002403D01*
X143710042Y-62970737D01*
X143697720Y-62930115D01*
X143677709Y-62892678D01*
X143650779Y-62859864D01*
X143617965Y-62832934D01*
X143580528Y-62812923D01*
X143539906Y-62800601D01*
X143497661Y-62796440D01*
X143487080Y-62797482D01*
X141062298Y-62797480D01*
X139675723Y-62137576D01*
X139661513Y-62129969D01*
X139646448Y-62125389D01*
X139631644Y-62120052D01*
X139626181Y-62119228D01*
X139620898Y-62117622D01*
X139605244Y-62116070D01*
X139589669Y-62113721D01*
X139573567Y-62114473D01*
X110256433Y-62096306D01*
X110224765Y-62099405D01*
X110184135Y-62111702D01*
X110146686Y-62131690D01*
X110113855Y-62158600D01*
X110086905Y-62191397D01*
X110085503Y-62194015D01*
X109696446Y-62694879D01*
X109219701Y-63108735D01*
X108671646Y-63422112D01*
X108073165Y-63623068D01*
X107447045Y-63703951D01*
X106817146Y-63661682D01*
X106207073Y-63497766D01*
X105662462Y-63231701D01*
X102416082Y-60699158D01*
X102416082Y-60288117D01*
X103636269Y-59305452D01*
X104337875Y-59305452D01*
X104337875Y-60105452D01*
X104342963Y-60157107D01*
X104358030Y-60206777D01*
X104382497Y-60252553D01*
X104415426Y-60292675D01*
X104455548Y-60325604D01*
X104501324Y-60350071D01*
X104550994Y-60365138D01*
X104602649Y-60370226D01*
X105102649Y-60370226D01*
X105154304Y-60365138D01*
X105203974Y-60350071D01*
X105249750Y-60325604D01*
X105289872Y-60292675D01*
X105322801Y-60252553D01*
X105347268Y-60206777D01*
X105352649Y-60189038D01*
X105358030Y-60206777D01*
X105382497Y-60252553D01*
X105415426Y-60292675D01*
X105455548Y-60325604D01*
X105501324Y-60350071D01*
X105550994Y-60365138D01*
X105602649Y-60370226D01*
X105817875Y-60370226D01*
X105817875Y-60640678D01*
X105602649Y-60640678D01*
X105550994Y-60645766D01*
X105501324Y-60660833D01*
X105455548Y-60685300D01*
X105415426Y-60718229D01*
X105382497Y-60758351D01*
X105358030Y-60804127D01*
X105352649Y-60821866D01*
X105347268Y-60804127D01*
X105322801Y-60758351D01*
X105289872Y-60718229D01*
X105249750Y-60685300D01*
X105203974Y-60660833D01*
X105154304Y-60645766D01*
X105102649Y-60640678D01*
X104602649Y-60640678D01*
X104550994Y-60645766D01*
X104501324Y-60660833D01*
X104455548Y-60685300D01*
X104415426Y-60718229D01*
X104382497Y-60758351D01*
X104358030Y-60804127D01*
X104342963Y-60853797D01*
X104337875Y-60905452D01*
X104337875Y-61705452D01*
X104342963Y-61757107D01*
X104358030Y-61806777D01*
X104382497Y-61852553D01*
X104415426Y-61892675D01*
X104455548Y-61925604D01*
X104501324Y-61950071D01*
X104530286Y-61958856D01*
X104538403Y-61985616D01*
X104549754Y-62006851D01*
X104569836Y-62044422D01*
X104612137Y-62095965D01*
X104625047Y-62106561D01*
X105236544Y-62718059D01*
X105247136Y-62730965D01*
X105260041Y-62741556D01*
X105260045Y-62741560D01*
X105275529Y-62754267D01*
X105298679Y-62773266D01*
X105349817Y-62800600D01*
X105357484Y-62804698D01*
X105421291Y-62824053D01*
X105487649Y-62830589D01*
X105504269Y-62828952D01*
X109221037Y-62828952D01*
X109237649Y-62830588D01*
X109254261Y-62828952D01*
X109254269Y-62828952D01*
X109304006Y-62824053D01*
X109367814Y-62804698D01*
X109426619Y-62773266D01*
X109478162Y-62730965D01*
X109488762Y-62718049D01*
X110187860Y-62018952D01*
X140367439Y-62018952D01*
X140916540Y-62568054D01*
X140927136Y-62580965D01*
X140978679Y-62623266D01*
X141022646Y-62646767D01*
X141037484Y-62654698D01*
X141101291Y-62674053D01*
X141105850Y-62674502D01*
X141151029Y-62678952D01*
X141151037Y-62678952D01*
X141167649Y-62680588D01*
X141184261Y-62678952D01*
X148881037Y-62678952D01*
X148897649Y-62680588D01*
X148914261Y-62678952D01*
X148914269Y-62678952D01*
X148964006Y-62674053D01*
X149027814Y-62654698D01*
X149086619Y-62623266D01*
X149138162Y-62580965D01*
X149148762Y-62568049D01*
X149685261Y-62031552D01*
X149698161Y-62020965D01*
X149708749Y-62008064D01*
X149708757Y-62008056D01*
X149735833Y-61975063D01*
X149740463Y-61969422D01*
X149771895Y-61910617D01*
X149783587Y-61872072D01*
X149791250Y-61846810D01*
X149797786Y-61780452D01*
X149796149Y-61763832D01*
X149796149Y-59808151D01*
X149856511Y-59747789D01*
X149912707Y-59663686D01*
X149951416Y-59570235D01*
X149971149Y-59471027D01*
X149971149Y-59369877D01*
X149966875Y-59348388D01*
X150034149Y-59415663D01*
X150034149Y-59501027D01*
X150053882Y-59600235D01*
X150092591Y-59693686D01*
X150148787Y-59777789D01*
X150220312Y-59849314D01*
X150304415Y-59905510D01*
X150397866Y-59944219D01*
X150497074Y-59963952D01*
X150598224Y-59963952D01*
X150697432Y-59944219D01*
X150790883Y-59905510D01*
X150874986Y-59849314D01*
X150946511Y-59777789D01*
X151002707Y-59693686D01*
X151041416Y-59600235D01*
X151061149Y-59501027D01*
X151061149Y-59399877D01*
X151041416Y-59300669D01*
X151002707Y-59207218D01*
X150946511Y-59123115D01*
X150874986Y-59051590D01*
X150790883Y-58995394D01*
X150697432Y-58956685D01*
X150598224Y-58936952D01*
X150512860Y-58936952D01*
X150293761Y-58717854D01*
X150283161Y-58704938D01*
X150231618Y-58662637D01*
X150172813Y-58631205D01*
X150109005Y-58611850D01*
X150059268Y-58606951D01*
X150059260Y-58606951D01*
X150042648Y-58605315D01*
X150026036Y-58606951D01*
X149246259Y-58606951D01*
X149229647Y-58605315D01*
X149213035Y-58606951D01*
X149213028Y-58606951D01*
X149169584Y-58611230D01*
X149163290Y-58611850D01*
X149146085Y-58617069D01*
X149099483Y-58631205D01*
X149040678Y-58662637D01*
X148989135Y-58704938D01*
X148978539Y-58717849D01*
X148690047Y-59006341D01*
X148677137Y-59016937D01*
X148648698Y-59051590D01*
X148634836Y-59068480D01*
X148603403Y-59127286D01*
X148584048Y-59191093D01*
X148577513Y-59257450D01*
X148579150Y-59274072D01*
X148579149Y-61580241D01*
X148457449Y-61701942D01*
X141432129Y-61701942D01*
X140883027Y-61152841D01*
X140872431Y-61139931D01*
X140820888Y-61097630D01*
X140816922Y-61095510D01*
X140762082Y-61066197D01*
X140698275Y-61046842D01*
X140631918Y-61040307D01*
X140615296Y-61041944D01*
X109939993Y-61041942D01*
X109923381Y-61040306D01*
X109906769Y-61041942D01*
X109906762Y-61041942D01*
X109868521Y-61045709D01*
X109857023Y-61046841D01*
X109793216Y-61066196D01*
X109734410Y-61097629D01*
X109695777Y-61129335D01*
X109695776Y-61129336D01*
X109682869Y-61139929D01*
X109672278Y-61152834D01*
X108973171Y-61851942D01*
X107123128Y-61851942D01*
X107147268Y-61806777D01*
X107162335Y-61757107D01*
X107167423Y-61705452D01*
X107167423Y-60905452D01*
X107167389Y-60905102D01*
X107183974Y-60900071D01*
X107205293Y-60888676D01*
X107208808Y-60888330D01*
X107282041Y-60866115D01*
X107349532Y-60830040D01*
X107408689Y-60781492D01*
X107420857Y-60766665D01*
X107742296Y-60445226D01*
X108252649Y-60445226D01*
X108304304Y-60440138D01*
X108353974Y-60425071D01*
X108399750Y-60400604D01*
X108439872Y-60367675D01*
X108472801Y-60327553D01*
X108497268Y-60281777D01*
X108512335Y-60232107D01*
X108517423Y-60180452D01*
X108517423Y-59380452D01*
X108512335Y-59328797D01*
X108497268Y-59279127D01*
X108472801Y-59233351D01*
X108439872Y-59193229D01*
X108399750Y-59160300D01*
X108353974Y-59135833D01*
X108304304Y-59120766D01*
X108252649Y-59115678D01*
X107502649Y-59115678D01*
X107450994Y-59120766D01*
X107401324Y-59135833D01*
X107355548Y-59160300D01*
X107315426Y-59193229D01*
X107282497Y-59233351D01*
X107258030Y-59279127D01*
X107242963Y-59328797D01*
X107237875Y-59380452D01*
X107237875Y-59850804D01*
X106998002Y-60090678D01*
X106167423Y-60090678D01*
X106167423Y-59305452D01*
X106162335Y-59253797D01*
X106155511Y-59231301D01*
X106297860Y-59088952D01*
X108687439Y-59088952D01*
X109516540Y-59918054D01*
X109527136Y-59930965D01*
X109578679Y-59973266D01*
X109635591Y-60003686D01*
X109637484Y-60004698D01*
X109701291Y-60024053D01*
X109707040Y-60024619D01*
X109751029Y-60028952D01*
X109751037Y-60028952D01*
X109767649Y-60030588D01*
X109784261Y-60028952D01*
X138833161Y-60028952D01*
X139094401Y-60290193D01*
X139104997Y-60303104D01*
X139156540Y-60345405D01*
X139202977Y-60370226D01*
X139215345Y-60376837D01*
X139279152Y-60396192D01*
X139285446Y-60396812D01*
X139328890Y-60401091D01*
X139328897Y-60401091D01*
X139345509Y-60402727D01*
X139362121Y-60401091D01*
X141079578Y-60401091D01*
X141546540Y-60868054D01*
X141557136Y-60880965D01*
X141608679Y-60923266D01*
X141667484Y-60954698D01*
X141731291Y-60974053D01*
X141737040Y-60974619D01*
X141781029Y-60978952D01*
X141781037Y-60978952D01*
X141797649Y-60980588D01*
X141814261Y-60978952D01*
X142179950Y-60978952D01*
X142240312Y-61039314D01*
X142324415Y-61095510D01*
X142417866Y-61134219D01*
X142517074Y-61153952D01*
X142618224Y-61153952D01*
X142717432Y-61134219D01*
X142810883Y-61095510D01*
X142894986Y-61039314D01*
X142966511Y-60967789D01*
X143022707Y-60883686D01*
X143061416Y-60790235D01*
X143081149Y-60691027D01*
X143081149Y-60589877D01*
X143061416Y-60490669D01*
X143022707Y-60397218D01*
X142966511Y-60313115D01*
X142894986Y-60241590D01*
X142810883Y-60185394D01*
X142717432Y-60146685D01*
X142618224Y-60126952D01*
X142517074Y-60126952D01*
X142417866Y-60146685D01*
X142324415Y-60185394D01*
X142240312Y-60241590D01*
X142179950Y-60301952D01*
X141937860Y-60301952D01*
X141571961Y-59936054D01*
X141578162Y-59930965D01*
X141588762Y-59918049D01*
X141732859Y-59773952D01*
X141818224Y-59773952D01*
X141917432Y-59754219D01*
X142010883Y-59715510D01*
X142094986Y-59659314D01*
X142166511Y-59587789D01*
X142222707Y-59503686D01*
X142261416Y-59410235D01*
X142281149Y-59311027D01*
X142281149Y-59209877D01*
X142261416Y-59110669D01*
X142222707Y-59017218D01*
X142166511Y-58933115D01*
X142094986Y-58861590D01*
X142010883Y-58805394D01*
X141917432Y-58766685D01*
X141818224Y-58746952D01*
X141717074Y-58746952D01*
X141617866Y-58766685D01*
X141524415Y-58805394D01*
X141440312Y-58861590D01*
X141368787Y-58933115D01*
X141312591Y-59017218D01*
X141273882Y-59110669D01*
X141254149Y-59209877D01*
X141254149Y-59295242D01*
X141197439Y-59351952D01*
X139537860Y-59351952D01*
X139348749Y-59162841D01*
X139338153Y-59149931D01*
X139286610Y-59107630D01*
X139282081Y-59105209D01*
X139227804Y-59076197D01*
X139163997Y-59056842D01*
X139097640Y-59050307D01*
X139081018Y-59051944D01*
X110032128Y-59051942D01*
X109203027Y-58222842D01*
X109192431Y-58209931D01*
X109140888Y-58167630D01*
X109136127Y-58165085D01*
X109082082Y-58136197D01*
X109018275Y-58116842D01*
X108951918Y-58110307D01*
X108935296Y-58111944D01*
X105574271Y-58111942D01*
X105557659Y-58110306D01*
X105541047Y-58111942D01*
X105541040Y-58111942D01*
X105502799Y-58115709D01*
X105491301Y-58116841D01*
X105427494Y-58136196D01*
X105408672Y-58146257D01*
X105368690Y-58167628D01*
X105368688Y-58167629D01*
X105368689Y-58167629D01*
X105330055Y-58199335D01*
X105330054Y-58199336D01*
X105317147Y-58209929D01*
X105306556Y-58222834D01*
X104625048Y-58904343D01*
X104612137Y-58914939D01*
X104601542Y-58927849D01*
X104569836Y-58966482D01*
X104538403Y-59025288D01*
X104530286Y-59052048D01*
X104501324Y-59060833D01*
X104455548Y-59085300D01*
X104415426Y-59118229D01*
X104382497Y-59158351D01*
X104358030Y-59204127D01*
X104342963Y-59253797D01*
X104337875Y-59305452D01*
X103636269Y-59305452D01*
X105607894Y-57717625D01*
X106177587Y-57433066D01*
X106793716Y-57264027D01*
X107430948Y-57217881D01*
X108065006Y-57296386D01*
M02*
