M48
; DRILL file {KiCad (5.1.5)-3} date 3/8/2021 10:09:06 PM
; FORMAT={-:-/ absolute / inch / decimal}
; #@! TF.CreationDate,2021-03-08T22:09:06-05:00
; #@! TF.GenerationSoftware,Kicad,Pcbnew,(5.1.5)-3
; #@! TF.FileFunction,Plated,1,2,PTH
FMAT,2
INCH
T1C0.0098
T2C0.0157
%
G90
G05
T1
X4.0944Y-2.3819
X4.2468Y-2.4122
X4.2472Y-2.3528
X5.5814Y-2.3331
X5.6129Y-2.3874
X5.8842Y-2.3394
X5.8846Y-2.5047
X5.9271Y-2.3406
X5.9397Y-2.4925
X6.0873Y-3.5264
X6.1838Y-3.5465
X6.2972Y-3.6276
X6.3464Y-3.7634
X6.4103Y-3.5813
X6.4212Y-3.7024
X6.683Y-3.6197
X6.683Y-3.6788
X6.8298Y-3.6807
X6.8306Y-3.6492
T2
X6.1102Y-3.8996
X6.1693Y-3.8996
X6.2283Y-3.8996
X6.2874Y-3.8996
X6.3465Y-3.8996
X6.4055Y-3.8996
T0
M30
