G04 #@! TF.GenerationSoftware,KiCad,Pcbnew,(5.1.5)-3*
G04 #@! TF.CreationDate,2021-03-08T22:08:54-05:00*
G04 #@! TF.ProjectId,Wing,57696e67-2e6b-4696-9361-645f70636258,rev?*
G04 #@! TF.SameCoordinates,Original*
G04 #@! TF.FileFunction,Profile,NP*
%FSLAX46Y46*%
G04 Gerber Fmt 4.6, Leading zero omitted, Abs format (unit mm)*
G04 Created by KiCad (PCBNEW (5.1.5)-3) date 2021-03-08 22:08:54*
%MOMM*%
%LPD*%
G04 APERTURE LIST*
%ADD10C,0.050000*%
G04 APERTURE END LIST*
D10*
X149967244Y-99540453D02*
X143497649Y-99540452D01*
X110266878Y-62311812D02*
G75*
G02X105547649Y-63415452I-2919229J1841123D01*
G01*
X105490819Y-57535216D02*
G75*
G02X110322648Y-58665453I1856830J-2955236D01*
G01*
X145164315Y-99540452D02*
G75*
G03X145164315Y-99540452I-1666666J0D01*
G01*
X140997649Y-99540452D02*
X145997649Y-99540452D01*
X143497649Y-97040452D02*
X143497649Y-102040452D01*
X161875673Y-61879515D02*
X157726506Y-62430673D01*
X154756090Y-57965138D02*
X161875676Y-58910888D01*
X141013634Y-57976375D02*
X142031161Y-57976375D01*
X139578523Y-58659358D02*
X141013634Y-57976375D01*
X150389284Y-57965138D02*
X154756090Y-57965138D01*
X164846452Y-89874339D02*
X167850852Y-89874341D01*
X164851946Y-88993464D02*
X164846452Y-89874339D01*
X142031161Y-57976375D02*
X150389284Y-57965138D01*
X157726506Y-62430673D02*
X164851946Y-88993464D01*
X161875676Y-58910888D02*
X161875673Y-61879515D01*
X172144795Y-95914838D02*
X170745697Y-95914838D01*
X164824468Y-95299961D02*
X164804873Y-99540458D01*
X139578515Y-95753357D02*
X139578516Y-89293383D01*
X164804873Y-99540458D02*
X151767244Y-99540454D01*
X151767246Y-94715793D02*
X149967246Y-94715792D01*
X151767244Y-99540454D02*
X151767246Y-94715793D01*
X175534017Y-95217498D02*
X172144795Y-95914838D01*
X141031485Y-96615062D02*
X139578515Y-95753357D01*
X143497649Y-99540452D02*
X143497650Y-96615063D01*
X149967246Y-94715792D02*
X149967244Y-99540453D01*
X167850850Y-95299962D02*
X164824468Y-95299961D01*
X143497650Y-96615063D02*
X141031485Y-96615062D01*
X170745697Y-95914838D02*
X167850850Y-95299962D01*
X172144795Y-89259467D02*
X175534020Y-89956810D01*
X167850852Y-89874341D02*
X170757649Y-89259467D01*
X170757649Y-89259467D02*
X172144795Y-89259467D01*
X175534020Y-89956810D02*
X175534017Y-95217498D01*
X141031488Y-88376270D02*
X143497653Y-88376270D01*
X102200582Y-60184974D02*
X105490819Y-57535215D01*
X139578516Y-89293383D02*
X141031488Y-88376270D01*
X141013631Y-63012980D02*
X139578522Y-62329976D01*
X139578522Y-62329976D02*
X110266878Y-62311812D01*
X143497653Y-88376270D02*
X143497661Y-63012981D01*
X102200582Y-60804360D02*
X102200582Y-60184974D01*
X110322648Y-58665453D02*
X139578523Y-58659358D01*
X143497661Y-63012981D02*
X141013631Y-63012980D01*
X105547649Y-63415452D02*
X102200582Y-60804360D01*
M02*
